<?xml version="1.0" encoding="UTF-8" standalone="no"?>
<svg
   xmlns:dc="http://purl.org/dc/elements/1.1/"
   xmlns:cc="http://creativecommons.org/ns#"
   xmlns:rdf="http://www.w3.org/1999/02/22-rdf-syntax-ns#"
   xmlns:svg="http://www.w3.org/2000/svg"
   xmlns="http://www.w3.org/2000/svg"
   xmlns:xlink="http://www.w3.org/1999/xlink"
   xmlns:sodipodi="http://sodipodi.sourceforge.net/DTD/sodipodi-0.dtd"
   xmlns:inkscape="http://www.inkscape.org/namespaces/inkscape"
   version="1.1"
   id="svg5048"
   height="64"
   width="64"
   inkscape:version="0.91 r13725"
   sodipodi:docname="start.svg">
  <sodipodi:namedview
     pagecolor="#ffffff"
     bordercolor="#666666"
     borderopacity="1"
     objecttolerance="10"
     gridtolerance="10"
     guidetolerance="10"
     inkscape:pageopacity="0"
     inkscape:pageshadow="2"
     inkscape:window-width="3840"
     inkscape:window-height="2047"
     id="namedview42"
     showgrid="true"
     inkscape:zoom="16"
     inkscape:cx="-14.688039"
     inkscape:cy="34.396976"
     inkscape:window-x="0"
     inkscape:window-y="0"
     inkscape:window-maximized="1"
     inkscape:current-layer="svg5048"
     inkscape:snap-bbox="true"
     inkscape:bbox-nodes="true">
    <inkscape:grid
       type="xygrid"
       id="grid4238" />
  </sodipodi:namedview>
  <defs
     id="defs5050">
    <style
       type="text/css"
       id="current-color-scheme">      .ColorScheme-Text {
        color:#31363b;
      }
      .ColorScheme-Background{
        color:#eff0f1;
      }
      .ColorScheme-ViewText {
        color:#31363b;
      }
      .ColorScheme-ViewBackground{
        color:#fcfcfc;
      }
      .ColorScheme-ViewHover {
        color:#3daee9;
      }
      .ColorScheme-ViewFocus{
        color:#3daee9;
      }
      .ColorScheme-ButtonText {
        color:#31363b;
      }
      .ColorScheme-ButtonBackground{
        color:#eff0f1;
      }
      .ColorScheme-ButtonHover {
        color:#3daee9;
      }
      .ColorScheme-ButtonFocus{
        color:#3daee9;
      }</style>
    <linearGradient
       id="linearGradient6113-3"
       x1="29"
       gradientUnits="userSpaceOnUse"
       x2="29"
       gradientTransform="translate(0,-90.026)"
       y1="159"
       y2="93">
      <stop
         id="stop6109-6"
         stop-color="#343031"
         offset="0" />
      <stop
         id="stop6111-7"
         stop-color="#534d52"
         offset="1" />
    </linearGradient>
    <linearGradient
       id="linearGradient6013-5"
       y2="1043.2"
       gradientUnits="userSpaceOnUse"
       x2="32"
       gradientTransform="translate(0,-988.39)"
       y1="991.4"
       x1="32">
      <stop
         id="stop6009-3"
         stop-color="#fcbb80"
         offset="0" />
      <stop
         id="stop6011-5"
         stop-color="#e4720c"
         offset="1" />
    </linearGradient>
    <linearGradient
       id="linearGradient6013-5-35"
       y2="1043.2"
       gradientUnits="userSpaceOnUse"
       x2="32"
       gradientTransform="translate(0,-987.39)"
       y1="991.40002"
       x1="32">
      <stop
         id="stop6009-3-62"
         stop-color="#fcbb80"
         offset="0" />
      <stop
         id="stop6011-5-9"
         stop-color="#e4720c"
         offset="1" />
    </linearGradient>
    <linearGradient
       id="b-3-2"
       y1="11.853139"
       x1="23.288126"
       y2="31.855639"
       x2="23.288126"
       gradientUnits="userSpaceOnUse"
       gradientTransform="matrix(1.399825,0,0,1.399825,-1.5993,986.76989)">
      <stop
         stop-color="#fcfcfc"
         id="stop12-2-5"
         style="stop-color:#fcfcfc;stop-opacity:1" />
      <stop
         offset="1"
         stop-color="#eff1f1"
         id="stop14-0-47"
         style="stop-color:#dddbdb;stop-opacity:1" />
    </linearGradient>
    <linearGradient
       id="c-6"
       y1="22.568756"
       x1="28.742001"
       y2="39.38567"
       x2="28.742001"
       gradientUnits="userSpaceOnUse"
       gradientTransform="matrix(1.399825,0,0,1.399825,-1.5993,986.7699)">
      <stop
         stop-color="#4ce0c6"
         id="stop17-1"
         style="stop-color:#9ce0c4;stop-opacity:1" />
      <stop
         offset="1"
         stop-color="#31bfa6"
         id="stop21-6"
         style="stop-color:#40b081;stop-opacity:1" />
    </linearGradient>
    <linearGradient
       id="linearGradient4913"
       y2="153.5"
       gradientUnits="userSpaceOnUse"
       x2="-493.35999"
       gradientTransform="matrix(0,-1,1,0,-120,526.00221)"
       y1="153.5"
       x1="-494.35999">
      <stop
         id="stop4909"
         stop-color="#f5f4f4"
         offset="0" />
      <stop
         id="stop4911"
         stop-color="#f5f4f4"
         stop-opacity="0"
         offset="1" />
    </linearGradient>
    <linearGradient
       id="linearGradient4881"
       y2="153.5"
       gradientUnits="userSpaceOnUse"
       x2="-493.35999"
       gradientTransform="matrix(0,1,1,0,-120,1514.7222)"
       y1="153.5"
       x1="-494.35999">
      <stop
         id="stop4877"
         offset="0" />
      <stop
         id="stop4879"
         stop-opacity="0"
         offset="1" />
    </linearGradient>
    <linearGradient
       xlink:href="#linearGradient4978"
       id="linearGradient4984-6"
       x1="-522.36218"
       y1="152.00002"
       x2="-466.36221"
       y2="152.00002"
       gradientUnits="userSpaceOnUse"
       gradientTransform="translate(1514.7244,-184.00001)" />
    <linearGradient
       id="linearGradient4978">
      <stop
         style="stop-color:#40b081;stop-opacity:1"
         offset="0"
         id="stop4980" />
      <stop
         style="stop-color:#0566af;stop-opacity:1"
         offset="1"
         id="stop4982" />
    </linearGradient>
    <linearGradient
       inkscape:collect="always"
       xlink:href="#linearGradient4978"
       id="linearGradient4232"
       gradientUnits="userSpaceOnUse"
       gradientTransform="translate(1514.7244,-184.00001)"
       x1="-522.36218"
       y1="152.00002"
       x2="-466.36221"
       y2="152.00002" />
    <linearGradient
       inkscape:collect="always"
       xlink:href="#linearGradient4881"
       id="linearGradient4234"
       gradientUnits="userSpaceOnUse"
       gradientTransform="matrix(0,1,1,0,-120,1514.7222)"
       x1="-494.35999"
       y1="153.5"
       x2="-493.35999"
       y2="153.5" />
    <linearGradient
       inkscape:collect="always"
       xlink:href="#linearGradient4913"
       id="linearGradient4236"
       gradientUnits="userSpaceOnUse"
       gradientTransform="matrix(0,-1,1,0,-120,526.00221)"
       x1="-494.35999"
       y1="153.5"
       x2="-493.35999"
       y2="153.5" />
    <linearGradient
       inkscape:collect="always"
       xlink:href="#linearGradient4978"
       id="linearGradient4311"
       gradientUnits="userSpaceOnUse"
       gradientTransform="translate(1514.7244,-184.00001)"
       x1="-522.36218"
       y1="152.00002"
       x2="-466.36221"
       y2="152.00002" />
    <linearGradient
       inkscape:collect="always"
       xlink:href="#linearGradient4881"
       id="linearGradient4313"
       gradientUnits="userSpaceOnUse"
       gradientTransform="matrix(0,1,1,0,-120,1514.7222)"
       x1="-494.35999"
       y1="153.5"
       x2="-493.35999"
       y2="153.5" />
    <linearGradient
       inkscape:collect="always"
       xlink:href="#linearGradient4913"
       id="linearGradient4315"
       gradientUnits="userSpaceOnUse"
       gradientTransform="matrix(0,-1,1,0,-120,526.00221)"
       x1="-494.35999"
       y1="153.5"
       x2="-493.35999"
       y2="153.5" />
    <linearGradient
       inkscape:collect="always"
       xlink:href="#linearGradient4978"
       id="linearGradient4264"
       gradientUnits="userSpaceOnUse"
       gradientTransform="translate(1514.7244,-184.00001)"
       x1="-522.36218"
       y1="152.00002"
       x2="-466.36221"
       y2="152.00002" />
    <linearGradient
       inkscape:collect="always"
       xlink:href="#linearGradient4881"
       id="linearGradient4266"
       gradientUnits="userSpaceOnUse"
       gradientTransform="matrix(0,1,1,0,-120,1514.7222)"
       x1="-494.35999"
       y1="153.5"
       x2="-493.35999"
       y2="153.5" />
    <linearGradient
       inkscape:collect="always"
       xlink:href="#linearGradient4913"
       id="linearGradient4268"
       gradientUnits="userSpaceOnUse"
       gradientTransform="matrix(0,-1,1,0,-120,526.00221)"
       x1="-494.35999"
       y1="153.5"
       x2="-493.35999"
       y2="153.5" />
  </defs>
  <metadata
     id="metadata5053">
    <rdf:RDF>
      <cc:Work
         rdf:about="">
        <dc:format>image/svg+xml</dc:format>
        <dc:type
           rdf:resource="http://purl.org/dc/dcmitype/StillImage" />
        <dc:title />
      </cc:Work>
    </rdf:RDF>
  </metadata>
  <g
     transform="translate(0,-988.3622)"
     id="64-64-start-here-kde">
    <rect
       style="color:#000000;clip-rule:nonzero;display:inline;overflow:visible;visibility:visible;opacity:0.8;isolation:auto;mix-blend-mode:normal;color-interpolation:sRGB;color-interpolation-filters:linearRGB;solid-color:#000000;solid-opacity:1;fill:none;fill-opacity:1;fill-rule:nonzero;stroke:none;stroke-width:6;stroke-linecap:round;stroke-linejoin:round;stroke-miterlimit:4;stroke-dasharray:none;stroke-dashoffset:0;stroke-opacity:1;color-rendering:auto;image-rendering:auto;shape-rendering:auto;text-rendering:auto;enable-background:accumulate"
       id="rect4197"
       width="64"
       height="64"
       x="0"
       y="988.36218" />
    <circle
       transform="matrix(0,1,-1,0,0,0)"
       style="color:#000000;clip-rule:nonzero;display:inline;overflow:visible;visibility:visible;opacity:1;isolation:auto;mix-blend-mode:normal;color-interpolation:sRGB;color-interpolation-filters:linearRGB;solid-color:#000000;solid-opacity:1;fill:url(#linearGradient4984-6);fill-opacity:1;fill-rule:nonzero;stroke:none;stroke-width:2;stroke-linecap:butt;stroke-linejoin:miter;stroke-miterlimit:4;stroke-dasharray:none;stroke-dashoffset:0;stroke-opacity:1;color-rendering:auto;image-rendering:auto;shape-rendering:auto;text-rendering:auto;enable-background:accumulate"
       id="path4900-9"
       cx="1020.3622"
       cy="-32"
       r="28" />
    <path
       id="path4268"
       d="m 24.837823,1003.2578 c -1.255196,-0.3163 -2.433982,0.1735 -3.042079,1.3162 -0.901624,1.6943 -0.602166,3.3908 1.316147,3.042 1.27351,-0.2315 1.931079,-0.6519 3.042043,-1.3161 1.761507,-1.0532 1.17235,-2.4151 -1.316111,-3.0421 z"
       style="color:#31363b;fill:#fcfcfc" />
    <path
       id="path4266"
       d="m 38.28125,1005.6435 c -6.165175,0.3997 -6.496215,3.4181 -4.6875,4.6875 6.28125,4.4083 10.03125,10.0312 10.03125,10.0312 0,0 -4.531812,4.6242 -8.3125,5.625 -2.607051,0.6901 -5.875,2.4214 -5.875,5.5625 0,3.1411 1.73388,4.8125 4.875,4.8125 3.6875,-0 4.447241,-1.7597 6.96875,-4.2812 L 53,1020.3622 Z"
       style="color:#31363b;fill:#fcfcfc" />
    <path
       id="path4264"
       d="m 13.692798,1013.0845 c -1.326381,1.7014 -2.137817,3.7077 -0.87232,5.455 1.265439,1.7471 3.707708,2.1377 5.454931,0.8723 1.747222,-1.2655 2.078938,-3.6666 0.872378,-5.455 -1.233531,-1.8283 -2.933363,-4.107 -5.454989,-0.8723 z"
       style="color:#31363b;fill:#fcfcfc" />
    <path
       id="path20"
       d="m 20.6875,1025.3622 c -2.936428,-1.1123 -4.709268,2.029 -4.6875,4.6875 0.0212,2.5887 2.136827,4.2446 4.6875,4.6875 3.217269,0.5586 5.55114,-1.331 4.6875,-4.6875 -0.645102,-2.5072 -2.266531,-3.7705 -4.6875,-4.6875 z"
       style="color:#31363b;fill:#fcfcfc" />
    <path
       style="color:#000000;clip-rule:nonzero;display:inline;overflow:visible;visibility:visible;opacity:1;isolation:auto;mix-blend-mode:normal;color-interpolation:sRGB;color-interpolation-filters:linearRGB;solid-color:#000000;solid-opacity:1;fill:#023962;fill-opacity:1;fill-rule:nonzero;stroke:none;stroke-width:2;stroke-linecap:butt;stroke-linejoin:miter;stroke-miterlimit:4;stroke-dasharray:none;stroke-dashoffset:0;stroke-opacity:1;color-rendering:auto;image-rendering:auto;shape-rendering:auto;text-rendering:auto;enable-background:accumulate"
       d="M 59.97852,1019.7763 A 28,28 0 0 1 32,1047.3622 28,28 0 0 1 4.02148,1019.9481 a 28,28 0 0 0 -0.0215,0.4141 28,28 0 0 0 28,28 28,28 0 0 0 28,-28 28,28 0 0 0 -0.0215,-0.5859 z"
       id="path4900" />
    <path
       d="m 4,1020.3622 56,0 a 28,28 0 0 1 -0.0352,1 l -55.914,0 a 28,28 0 0 1 -0.051,-1 z"
       style="color:#000000;opacity:0.05;isolation:auto;mix-blend-mode:normal;solid-color:#000000;fill:url(#linearGradient4881);color-rendering:auto;image-rendering:auto;shape-rendering:auto"
       id="rect4873" />
    <path
       d="m 4,1020.3622 a 28,28 0 0 1 0.0352,-1 l 55.914,0 a 28,28 0 0 1 0.051,1 l -56,0 z"
       style="color:#000000;opacity:0.05;isolation:auto;mix-blend-mode:normal;solid-color:#000000;fill:url(#linearGradient4913);color-rendering:auto;image-rendering:auto;shape-rendering:auto"
       id="rect4873-5" />
    <path
       d="m 4,1020.3622 56,0 a 28,28 0 0 1 -28,28 28,28 0 0 1 -28,-28 z"
       style="color:#000000;opacity:0.1;isolation:auto;mix-blend-mode:normal;solid-color:#000000;color-rendering:auto;image-rendering:auto;shape-rendering:auto"
       id="rect4915" />
  </g>
  <g
     transform="matrix(0.32142628,0,0,0.32142628,-67.285641,-276.97128)"
     id="22-22-start-here-kde">
    <rect
       style="color:#000000;clip-rule:nonzero;display:inline;overflow:visible;visibility:visible;opacity:0.8;isolation:auto;mix-blend-mode:normal;color-interpolation:sRGB;color-interpolation-filters:linearRGB;solid-color:#000000;solid-opacity:1;fill:none;fill-opacity:1;fill-rule:nonzero;stroke:none;stroke-width:6;stroke-linecap:round;stroke-linejoin:round;stroke-miterlimit:4;stroke-dasharray:none;stroke-dashoffset:0;stroke-opacity:1;color-rendering:auto;image-rendering:auto;shape-rendering:auto;text-rendering:auto;enable-background:accumulate"
       id="rect4240"
       width="68.444931"
       height="68.444931"
       x="-2.2224643"
       y="986.13989"
       ry="0" />
    <circle
       transform="matrix(0,1,-1,0,0,0)"
       style="color:#000000;clip-rule:nonzero;display:inline;overflow:visible;visibility:visible;opacity:1;isolation:auto;mix-blend-mode:normal;color-interpolation:sRGB;color-interpolation-filters:linearRGB;solid-color:#000000;solid-opacity:1;fill:url(#linearGradient4232);fill-opacity:1;fill-rule:nonzero;stroke:none;stroke-width:2;stroke-linecap:butt;stroke-linejoin:miter;stroke-miterlimit:4;stroke-dasharray:none;stroke-dashoffset:0;stroke-opacity:1;color-rendering:auto;image-rendering:auto;shape-rendering:auto;text-rendering:auto;enable-background:accumulate"
       id="path4900-9-2"
       cx="1020.3622"
       cy="-32"
       r="28" />
    <path
       inkscape:connector-curvature="0"
       id="path4268-9"
       d="m 24.837823,1003.2578 c -1.255196,-0.3163 -2.433982,0.1735 -3.042079,1.3162 -0.901624,1.6943 -0.602166,3.3908 1.316147,3.042 1.27351,-0.2315 1.931079,-0.6519 3.042043,-1.3161 1.761507,-1.0532 1.17235,-2.4151 -1.316111,-3.0421 z"
       style="color:#31363b;fill:#fcfcfc" />
    <path
       inkscape:connector-curvature="0"
       id="path4266-1"
       d="m 38.28125,1005.6435 c -6.165175,0.3997 -6.496215,3.4181 -4.6875,4.6875 6.28125,4.4083 10.03125,10.0312 10.03125,10.0312 0,0 -4.531812,4.6242 -8.3125,5.625 -2.607051,0.6901 -5.875,2.4214 -5.875,5.5625 0,3.1411 1.73388,4.8125 4.875,4.8125 3.6875,0 4.447241,-1.7597 6.96875,-4.2812 L 53,1020.3622 Z"
       style="color:#31363b;fill:#fcfcfc" />
    <path
       inkscape:connector-curvature="0"
       id="path4264-2"
       d="m 13.692798,1013.0845 c -1.326381,1.7014 -2.137817,3.7077 -0.87232,5.455 1.265439,1.7471 3.707708,2.1377 5.454931,0.8723 1.747222,-1.2655 2.078938,-3.6666 0.872378,-5.455 -1.233531,-1.8283 -2.933363,-4.107 -5.454989,-0.8723 z"
       style="color:#31363b;fill:#fcfcfc" />
    <path
       inkscape:connector-curvature="0"
       id="path20-7"
       d="m 20.6875,1025.3622 c -2.936428,-1.1123 -4.709268,2.029 -4.6875,4.6875 0.0212,2.5887 2.136827,4.2446 4.6875,4.6875 3.217269,0.5586 5.55114,-1.331 4.6875,-4.6875 -0.645102,-2.5072 -2.266531,-3.7705 -4.6875,-4.6875 z"
       style="color:#31363b;fill:#fcfcfc" />
    <path
       inkscape:connector-curvature="0"
       style="color:#000000;clip-rule:nonzero;display:inline;overflow:visible;visibility:visible;opacity:1;isolation:auto;mix-blend-mode:normal;color-interpolation:sRGB;color-interpolation-filters:linearRGB;solid-color:#000000;solid-opacity:1;fill:#023962;fill-opacity:1;fill-rule:nonzero;stroke:none;stroke-width:2;stroke-linecap:butt;stroke-linejoin:miter;stroke-miterlimit:4;stroke-dasharray:none;stroke-dashoffset:0;stroke-opacity:1;color-rendering:auto;image-rendering:auto;shape-rendering:auto;text-rendering:auto;enable-background:accumulate"
       d="M 59.97852,1019.7763 A 28,28 0 0 1 32,1047.3622 28,28 0 0 1 4.02148,1019.9481 a 28,28 0 0 0 -0.0215,0.4141 28,28 0 0 0 28,28 28,28 0 0 0 28,-28 28,28 0 0 0 -0.0215,-0.5859 z"
       id="path4900-0" />
    <path
       inkscape:connector-curvature="0"
       d="m 4,1020.3622 56,0 a 28,28 0 0 1 -0.0352,1 l -55.914,0 a 28,28 0 0 1 -0.051,-1 z"
       style="color:#000000;opacity:0.05;isolation:auto;mix-blend-mode:normal;solid-color:#000000;fill:url(#linearGradient4234);color-rendering:auto;image-rendering:auto;shape-rendering:auto"
       id="rect4873-9" />
    <path
       inkscape:connector-curvature="0"
       d="m 4,1020.3622 a 28,28 0 0 1 0.0352,-1 l 55.914,0 a 28,28 0 0 1 0.051,1 l -56,0 z"
       style="color:#000000;opacity:0.05;isolation:auto;mix-blend-mode:normal;solid-color:#000000;fill:url(#linearGradient4236);color-rendering:auto;image-rendering:auto;shape-rendering:auto"
       id="rect4873-5-3" />
    <path
       inkscape:connector-curvature="0"
       d="m 4,1020.3622 56,0 a 28,28 0 0 1 -28,28 28,28 0 0 1 -28,-28 z"
       style="color:#000000;opacity:0.1;isolation:auto;mix-blend-mode:normal;solid-color:#000000;color-rendering:auto;image-rendering:auto;shape-rendering:auto"
       id="rect4915-6" />
  </g>
  <g
     transform="matrix(0.23376457,0,0,0.23376457,-82.480467,-184.52457)"
     id="16-16-start-here-kde">
    <rect
       style="color:#000000;clip-rule:nonzero;display:inline;overflow:visible;visibility:visible;opacity:0.8;isolation:auto;mix-blend-mode:normal;color-interpolation:sRGB;color-interpolation-filters:linearRGB;solid-color:#000000;solid-opacity:1;fill:none;fill-opacity:1;fill-rule:nonzero;stroke:none;stroke-width:6;stroke-linecap:round;stroke-linejoin:round;stroke-miterlimit:4;stroke-dasharray:none;stroke-dashoffset:0;stroke-opacity:1;color-rendering:auto;image-rendering:auto;shape-rendering:auto;text-rendering:auto;enable-background:accumulate"
       id="rect4240-9"
       width="68.444931"
       height="68.444931"
       x="-2.2224643"
       y="986.13989"
       ry="0" />
    <circle
       transform="matrix(0,1,-1,0,0,0)"
       style="color:#000000;clip-rule:nonzero;display:inline;overflow:visible;visibility:visible;opacity:1;isolation:auto;mix-blend-mode:normal;color-interpolation:sRGB;color-interpolation-filters:linearRGB;solid-color:#000000;solid-opacity:1;fill:url(#linearGradient4311);fill-opacity:1;fill-rule:nonzero;stroke:none;stroke-width:2;stroke-linecap:butt;stroke-linejoin:miter;stroke-miterlimit:4;stroke-dasharray:none;stroke-dashoffset:0;stroke-opacity:1;color-rendering:auto;image-rendering:auto;shape-rendering:auto;text-rendering:auto;enable-background:accumulate"
       id="path4900-9-2-2"
       cx="1020.3622"
       cy="-32"
       r="28" />
    <path
       inkscape:connector-curvature="0"
       id="path4268-9-0"
       d="m 24.837823,1003.2578 c -1.255196,-0.3163 -2.433982,0.1735 -3.042079,1.3162 -0.901624,1.6943 -0.602166,3.3908 1.316147,3.042 1.27351,-0.2315 1.931079,-0.6519 3.042043,-1.3161 1.761507,-1.0532 1.17235,-2.4151 -1.316111,-3.0421 z"
       style="color:#31363b;fill:#fcfcfc" />
    <path
       inkscape:connector-curvature="0"
       id="path4266-1-2"
       d="m 38.28125,1005.6435 c -6.165175,0.3997 -6.496215,3.4181 -4.6875,4.6875 6.28125,4.4083 10.03125,10.0312 10.03125,10.0312 0,0 -4.531812,4.6242 -8.3125,5.625 -2.607051,0.6901 -5.875,2.4214 -5.875,5.5625 0,3.1411 1.73388,4.8125 4.875,4.8125 3.6875,0 4.447241,-1.7597 6.96875,-4.2812 L 53,1020.3622 Z"
       style="color:#31363b;fill:#fcfcfc" />
    <path
       inkscape:connector-curvature="0"
       id="path4264-2-3"
       d="m 13.692798,1013.0845 c -1.326381,1.7014 -2.137817,3.7077 -0.87232,5.455 1.265439,1.7471 3.707708,2.1377 5.454931,0.8723 1.747222,-1.2655 2.078938,-3.6666 0.872378,-5.455 -1.233531,-1.8283 -2.933363,-4.107 -5.454989,-0.8723 z"
       style="color:#31363b;fill:#fcfcfc" />
    <path
       inkscape:connector-curvature="0"
       id="path20-7-7"
       d="m 20.6875,1025.3622 c -2.936428,-1.1123 -4.709268,2.029 -4.6875,4.6875 0.0212,2.5887 2.136827,4.2446 4.6875,4.6875 3.217269,0.5586 5.55114,-1.331 4.6875,-4.6875 -0.645102,-2.5072 -2.266531,-3.7705 -4.6875,-4.6875 z"
       style="color:#31363b;fill:#fcfcfc" />
    <path
       inkscape:connector-curvature="0"
       style="color:#000000;clip-rule:nonzero;display:inline;overflow:visible;visibility:visible;opacity:1;isolation:auto;mix-blend-mode:normal;color-interpolation:sRGB;color-interpolation-filters:linearRGB;solid-color:#000000;solid-opacity:1;fill:#023962;fill-opacity:1;fill-rule:nonzero;stroke:none;stroke-width:2;stroke-linecap:butt;stroke-linejoin:miter;stroke-miterlimit:4;stroke-dasharray:none;stroke-dashoffset:0;stroke-opacity:1;color-rendering:auto;image-rendering:auto;shape-rendering:auto;text-rendering:auto;enable-background:accumulate"
       d="M 59.97852,1019.7763 A 28,28 0 0 1 32,1047.3622 28,28 0 0 1 4.02148,1019.9481 a 28,28 0 0 0 -0.0215,0.4141 28,28 0 0 0 28,28 28,28 0 0 0 28,-28 28,28 0 0 0 -0.0215,-0.5859 z"
       id="path4900-0-5" />
    <path
       inkscape:connector-curvature="0"
       d="m 4,1020.3622 56,0 a 28,28 0 0 1 -0.0352,1 l -55.914,0 a 28,28 0 0 1 -0.051,-1 z"
       style="color:#000000;opacity:0.05;isolation:auto;mix-blend-mode:normal;solid-color:#000000;fill:url(#linearGradient4313);color-rendering:auto;image-rendering:auto;shape-rendering:auto"
       id="rect4873-9-9" />
    <path
       inkscape:connector-curvature="0"
       d="m 4,1020.3622 a 28,28 0 0 1 0.0352,-1 l 55.914,0 a 28,28 0 0 1 0.051,1 l -56,0 z"
       style="color:#000000;opacity:0.05;isolation:auto;mix-blend-mode:normal;solid-color:#000000;fill:url(#linearGradient4315);color-rendering:auto;image-rendering:auto;shape-rendering:auto"
       id="rect4873-5-3-2" />
    <path
       inkscape:connector-curvature="0"
       d="m 4,1020.3622 56,0 a 28,28 0 0 1 -28,28 28,28 0 0 1 -28,-28 z"
       style="color:#000000;opacity:0.1;isolation:auto;mix-blend-mode:normal;solid-color:#000000;color-rendering:auto;image-rendering:auto;shape-rendering:auto"
       id="rect4915-6-2" />
  </g>
  <g
     transform="matrix(0.5,0,0,0.5,-43,-462.18111)"
     id="start-here-kde">
    <rect
       style="color:#000000;clip-rule:nonzero;display:inline;overflow:visible;visibility:visible;opacity:0.8;isolation:auto;mix-blend-mode:normal;color-interpolation:sRGB;color-interpolation-filters:linearRGB;solid-color:#000000;solid-opacity:1;fill:none;fill-opacity:1;fill-rule:nonzero;stroke:none;stroke-width:6;stroke-linecap:round;stroke-linejoin:round;stroke-miterlimit:4;stroke-dasharray:none;stroke-dashoffset:0;stroke-opacity:1;color-rendering:auto;image-rendering:auto;shape-rendering:auto;text-rendering:auto;enable-background:accumulate"
       id="rect4197-2"
       width="64"
       height="64"
       x="0"
       y="988.36218" />
    <circle
       transform="matrix(0,1,-1,0,0,0)"
       style="color:#000000;clip-rule:nonzero;display:inline;overflow:visible;visibility:visible;opacity:1;isolation:auto;mix-blend-mode:normal;color-interpolation:sRGB;color-interpolation-filters:linearRGB;solid-color:#000000;solid-opacity:1;fill:url(#linearGradient4264);fill-opacity:1;fill-rule:nonzero;stroke:none;stroke-width:2;stroke-linecap:butt;stroke-linejoin:miter;stroke-miterlimit:4;stroke-dasharray:none;stroke-dashoffset:0;stroke-opacity:1;color-rendering:auto;image-rendering:auto;shape-rendering:auto;text-rendering:auto;enable-background:accumulate"
       id="path4900-9-9"
       cx="1020.3622"
       cy="-32"
       r="28" />
    <path
       inkscape:connector-curvature="0"
       id="path4268-1"
       d="m 24.837823,1003.2578 c -1.255196,-0.3163 -2.433982,0.1735 -3.042079,1.3162 -0.901624,1.6943 -0.602166,3.3908 1.316147,3.042 1.27351,-0.2315 1.931079,-0.6519 3.042043,-1.3161 1.761507,-1.0532 1.17235,-2.4151 -1.316111,-3.0421 z"
       style="color:#31363b;fill:#fcfcfc" />
    <path
       inkscape:connector-curvature="0"
       id="path4266-2"
       d="m 38.28125,1005.6435 c -6.165175,0.3997 -6.496215,3.4181 -4.6875,4.6875 6.28125,4.4083 10.03125,10.0312 10.03125,10.0312 0,0 -4.531812,4.6242 -8.3125,5.625 -2.607051,0.6901 -5.875,2.4214 -5.875,5.5625 0,3.1411 1.73388,4.8125 4.875,4.8125 3.6875,0 4.447241,-1.7597 6.96875,-4.2812 L 53,1020.3622 Z"
       style="color:#31363b;fill:#fcfcfc" />
    <path
       inkscape:connector-curvature="0"
       id="path4264-7"
       d="m 13.692798,1013.0845 c -1.326381,1.7014 -2.137817,3.7077 -0.87232,5.455 1.265439,1.7471 3.707708,2.1377 5.454931,0.8723 1.747222,-1.2655 2.078938,-3.6666 0.872378,-5.455 -1.233531,-1.8283 -2.933363,-4.107 -5.454989,-0.8723 z"
       style="color:#31363b;fill:#fcfcfc" />
    <path
       inkscape:connector-curvature="0"
       id="path20-0"
       d="m 20.6875,1025.3622 c -2.936428,-1.1123 -4.709268,2.029 -4.6875,4.6875 0.0212,2.5887 2.136827,4.2446 4.6875,4.6875 3.217269,0.5586 5.55114,-1.331 4.6875,-4.6875 -0.645102,-2.5072 -2.266531,-3.7705 -4.6875,-4.6875 z"
       style="color:#31363b;fill:#fcfcfc" />
    <path
       inkscape:connector-curvature="0"
       style="color:#000000;clip-rule:nonzero;display:inline;overflow:visible;visibility:visible;opacity:1;isolation:auto;mix-blend-mode:normal;color-interpolation:sRGB;color-interpolation-filters:linearRGB;solid-color:#000000;solid-opacity:1;fill:#023962;fill-opacity:1;fill-rule:nonzero;stroke:none;stroke-width:2;stroke-linecap:butt;stroke-linejoin:miter;stroke-miterlimit:4;stroke-dasharray:none;stroke-dashoffset:0;stroke-opacity:1;color-rendering:auto;image-rendering:auto;shape-rendering:auto;text-rendering:auto;enable-background:accumulate"
       d="M 59.97852,1019.7763 A 28,28 0 0 1 32,1047.3622 28,28 0 0 1 4.02148,1019.9481 a 28,28 0 0 0 -0.0215,0.4141 28,28 0 0 0 28,28 28,28 0 0 0 28,-28 28,28 0 0 0 -0.0215,-0.5859 z"
       id="path4900-93" />
    <path
       inkscape:connector-curvature="0"
       d="m 4,1020.3622 56,0 a 28,28 0 0 1 -0.0352,1 l -55.914,0 a 28,28 0 0 1 -0.051,-1 z"
       style="color:#000000;opacity:0.05;isolation:auto;mix-blend-mode:normal;solid-color:#000000;fill:url(#linearGradient4266);color-rendering:auto;image-rendering:auto;shape-rendering:auto"
       id="rect4873-6" />
    <path
       inkscape:connector-curvature="0"
       d="m 4,1020.3622 a 28,28 0 0 1 0.0352,-1 l 55.914,0 a 28,28 0 0 1 0.051,1 l -56,0 z"
       style="color:#000000;opacity:0.05;isolation:auto;mix-blend-mode:normal;solid-color:#000000;fill:url(#linearGradient4268);color-rendering:auto;image-rendering:auto;shape-rendering:auto"
       id="rect4873-5-0" />
    <path
       inkscape:connector-curvature="0"
       d="m 4,1020.3622 56,0 a 28,28 0 0 1 -28,28 28,28 0 0 1 -28,-28 z"
       style="color:#000000;opacity:0.1;isolation:auto;mix-blend-mode:normal;solid-color:#000000;color-rendering:auto;image-rendering:auto;shape-rendering:auto"
       id="rect4915-62" />
  </g>
</svg>
