<?xml version="1.0" encoding="UTF-8" standalone="no"?>
<svg
   xmlns:dc="http://purl.org/dc/elements/1.1/"
   xmlns:cc="http://creativecommons.org/ns#"
   xmlns:rdf="http://www.w3.org/1999/02/22-rdf-syntax-ns#"
   xmlns:svg="http://www.w3.org/2000/svg"
   xmlns="http://www.w3.org/2000/svg"
   xmlns:sodipodi="http://sodipodi.sourceforge.net/DTD/sodipodi-0.dtd"
   xmlns:inkscape="http://www.inkscape.org/namespaces/inkscape"
   id="svg4143"
   width="22"
   height="22"
   version="1.1"
   viewBox="0 0 22 22"
   inkscape:version="0.91 r13725"
   sodipodi:docname="update.svg">
  <metadata
     id="metadata23">
    <rdf:RDF>
      <cc:Work
         rdf:about="">
        <dc:format>image/svg+xml</dc:format>
        <dc:type
           rdf:resource="http://purl.org/dc/dcmitype/StillImage" />
        <dc:title />
      </cc:Work>
    </rdf:RDF>
  </metadata>
  <defs
     id="defs21" />
  <sodipodi:namedview
     pagecolor="#4c183d"
     bordercolor="#666666"
     borderopacity="1"
     objecttolerance="10"
     gridtolerance="10"
     guidetolerance="10"
     inkscape:pageopacity="0"
     inkscape:pageshadow="2"
     inkscape:window-width="3840"
     inkscape:window-height="2047"
     id="namedview19"
     showgrid="false"
     inkscape:snap-bbox="true"
     inkscape:bbox-nodes="true"
     inkscape:zoom="32"
     inkscape:cx="29.487244"
     inkscape:cy="11.890752"
     inkscape:window-x="0"
     inkscape:window-y="0"
     inkscape:window-maximized="1"
     inkscape:current-layer="update-none">
    <inkscape:grid
       type="xygrid"
       id="grid4178" />
  </sodipodi:namedview>
  <g
     transform="translate(46.529079,-1028.6736)"
     id="update-none">
    <rect
       style="opacity:0.00100002;fill:#000000;fill-opacity:1;fill-rule:nonzero;stroke:none;stroke-width:2;stroke-linecap:round;stroke-linejoin:round;stroke-miterlimit:4;stroke-dasharray:none;stroke-opacity:1"
       y="1028.67"
       x="-46.529999"
       height="22"
       width="22"
       id="rect4136" />
    <path
       style="color:#000000;clip-rule:nonzero;display:inline;overflow:visible;visibility:visible;opacity:1;isolation:auto;mix-blend-mode:normal;color-interpolation:sRGB;color-interpolation-filters:linearRGB;solid-color:#000000;solid-opacity:1;fill:#fcfcfc;fill-opacity:1;fill-rule:nonzero;stroke:none;stroke-width:2;stroke-linecap:butt;stroke-linejoin:miter;stroke-miterlimit:4;stroke-dasharray:none;stroke-dashoffset:0;stroke-opacity:1;color-rendering:auto;image-rendering:auto;shape-rendering:auto;text-rendering:auto;enable-background:accumulate"
       d="m -35.529079,1031.6736 c -2.45324,0 -5.279609,0.6661 -7.052342,1.7764 -0.988026,1.468 -0.98653,3.2319 -0.988888,5.1161 0.0046,4.6243 3.444745,8.525 8.032256,9.1075 4.59463,-0.5742 8.044409,-4.4772 8.050203,-9.1075 -0.0021,-1.8834 2.85e-4,-3.6464 -0.986643,-5.1144 -1.773093,-1.1112 -4.600261,-1.7781 -7.054586,-1.7781 z"
       id="path5529-6"
       inkscape:connector-curvature="0"
       sodipodi:nodetypes="scccccs" />
    <path
       style="color:#000000;clip-rule:nonzero;display:inline;overflow:visible;visibility:visible;opacity:1;isolation:auto;mix-blend-mode:normal;color-interpolation:sRGB;color-interpolation-filters:linearRGB;solid-color:#000000;solid-opacity:1;fill:#343031;fill-opacity:1;fill-rule:nonzero;stroke:none;stroke-width:2;stroke-linecap:butt;stroke-linejoin:miter;stroke-miterlimit:4;stroke-dasharray:none;stroke-dashoffset:0;stroke-opacity:1;color-rendering:auto;image-rendering:auto;shape-rendering:auto;text-rendering:auto;enable-background:accumulate"
       d="m -35.529079,1032.6736 c -2.146585,0 -4.619658,0.5828 -6.170799,1.5543 -0.864523,1.2846 -0.863214,2.8279 -0.865277,4.4766 0.004,4.0463 3.014152,7.4594 7.028224,7.9691 4.020301,-0.5025 7.038858,-3.9175 7.043927,-7.9691 -0.0018,-1.6479 2.5e-4,-3.1906 -0.863312,-4.4751 -1.551457,-0.9723 -4.025229,-1.5558 -6.172763,-1.5558 z"
       id="path5529-6-0"
       inkscape:connector-curvature="0"
       sodipodi:nodetypes="scccccs" />
    <path
       style="color:#000000;font-style:normal;font-variant:normal;font-weight:normal;font-stretch:normal;font-size:medium;line-height:normal;font-family:sans-serif;text-indent:0;text-align:start;text-decoration:none;text-decoration-line:none;text-decoration-style:solid;text-decoration-color:#000000;letter-spacing:normal;word-spacing:normal;text-transform:none;direction:ltr;block-progression:tb;writing-mode:lr-tb;baseline-shift:baseline;text-anchor:start;white-space:normal;clip-rule:nonzero;display:inline;overflow:visible;visibility:visible;opacity:1;isolation:auto;mix-blend-mode:normal;color-interpolation:sRGB;color-interpolation-filters:linearRGB;solid-color:#000000;solid-opacity:1;fill:#60d61a;fill-opacity:1;fill-rule:evenodd;stroke:none;stroke-width:2;stroke-linecap:butt;stroke-linejoin:miter;stroke-miterlimit:4;stroke-dasharray:none;stroke-dashoffset:0;stroke-opacity:1;color-rendering:auto;image-rendering:auto;shape-rendering:auto;text-rendering:auto;enable-background:accumulate"
       d="m -31.336079,1035.9668 -5.292969,5.293 -2.292969,-2.293 -1.414062,1.4141 3.707031,3.707 6.707031,-6.707 z"
       id="path4180"
       inkscape:connector-curvature="0"
       sodipodi:nodetypes="ccccccc" />
  </g>
  <g
     transform="translate(22,-1030.3622)"
     id="update-low">
    <rect
       style="opacity:0.00100002;fill:#000000;fill-opacity:1;fill-rule:nonzero;stroke:none;stroke-width:2;stroke-linecap:round;stroke-linejoin:round;stroke-miterlimit:4;stroke-dasharray:none;stroke-opacity:1"
       y="1030.36"
       x="0"
       height="22"
       width="22"
       id="rect4725" />
    <path
       style="color:#000000;clip-rule:nonzero;display:inline;overflow:visible;visibility:visible;opacity:1;isolation:auto;mix-blend-mode:normal;color-interpolation:sRGB;color-interpolation-filters:linearRGB;solid-color:#000000;solid-opacity:1;fill:#fcfcfc;fill-opacity:1;fill-rule:nonzero;stroke:none;stroke-width:2;stroke-linecap:butt;stroke-linejoin:miter;stroke-miterlimit:4;stroke-dasharray:none;stroke-dashoffset:0;stroke-opacity:1;color-rendering:auto;image-rendering:auto;shape-rendering:auto;text-rendering:auto;enable-background:accumulate"
       d="m 11,1033.3622 c -2.45324,0 -5.279609,0.6661 -7.052342,1.7764 -0.988026,1.468 -0.98653,3.2319 -0.988888,5.1161 0.0046,4.6243 3.444745,8.525 8.032256,9.1075 4.59463,-0.5742 8.044409,-4.4772 8.050203,-9.1075 -0.0021,-1.8834 2.85e-4,-3.6464 -0.986643,-5.1144 -1.773093,-1.1112 -4.600261,-1.7781 -7.054586,-1.7781 z"
       id="path5529-6-3"
       inkscape:connector-curvature="0"
       sodipodi:nodetypes="scccccs" />
    <path
       style="color:#000000;clip-rule:nonzero;display:inline;overflow:visible;visibility:visible;opacity:1;isolation:auto;mix-blend-mode:normal;color-interpolation:sRGB;color-interpolation-filters:linearRGB;solid-color:#000000;solid-opacity:1;fill:#343031;fill-opacity:1;fill-rule:nonzero;stroke:none;stroke-width:2;stroke-linecap:butt;stroke-linejoin:miter;stroke-miterlimit:4;stroke-dasharray:none;stroke-dashoffset:0;stroke-opacity:1;color-rendering:auto;image-rendering:auto;shape-rendering:auto;text-rendering:auto;enable-background:accumulate"
       d="m 11,1034.3622 c -2.146585,0 -4.619658,0.5828 -6.170799,1.5543 -0.864523,1.2846 -0.863214,2.8279 -0.865277,4.4766 0.004,4.0463 3.014152,7.4594 7.028224,7.9691 4.020301,-0.5025 7.038858,-3.9175 7.043927,-7.9691 -0.0018,-1.6479 2.5e-4,-3.1906 -0.863312,-4.4751 -1.551457,-0.9723 -4.025229,-1.5558 -6.172763,-1.5558 z"
       id="path5529-6-0-6"
       inkscape:connector-curvature="0"
       sodipodi:nodetypes="scccccs" />
    <path
       style="color:#000000;clip-rule:nonzero;display:inline;overflow:visible;visibility:visible;opacity:1;isolation:auto;mix-blend-mode:normal;color-interpolation:sRGB;color-interpolation-filters:linearRGB;solid-color:#000000;solid-opacity:1;fill:#fcfcfc;fill-opacity:1;fill-rule:nonzero;stroke:none;stroke-width:2;stroke-linecap:butt;stroke-linejoin:miter;stroke-miterlimit:4;stroke-dasharray:none;stroke-dashoffset:0;stroke-opacity:1;color-rendering:auto;image-rendering:auto;shape-rendering:auto;text-rendering:auto;enable-background:accumulate"
       d="m 10,1035.8704 0,6.4918 -3,0 4,4 4,-4 -3,0 0,-6.4918 z"
       id="rect4205"
       inkscape:connector-curvature="0"
       sodipodi:nodetypes="cccccccc" />
  </g>
  <g
     transform="translate(44,-1030.3622)"
     id="update-medium">
    <rect
       style="opacity:0.00100002;fill:#000000;fill-opacity:1;fill-rule:nonzero;stroke:none;stroke-width:2;stroke-linecap:round;stroke-linejoin:round;stroke-miterlimit:4;stroke-dasharray:none;stroke-opacity:1"
       y="1030.36"
       x="0"
       height="22"
       width="22"
       id="rect4744" />
    <path
       style="color:#000000;clip-rule:nonzero;display:inline;overflow:visible;visibility:visible;opacity:1;isolation:auto;mix-blend-mode:normal;color-interpolation:sRGB;color-interpolation-filters:linearRGB;solid-color:#000000;solid-opacity:1;fill:#fcfcfc;fill-opacity:1;fill-rule:nonzero;stroke:none;stroke-width:2;stroke-linecap:butt;stroke-linejoin:miter;stroke-miterlimit:4;stroke-dasharray:none;stroke-dashoffset:0;stroke-opacity:1;color-rendering:auto;image-rendering:auto;shape-rendering:auto;text-rendering:auto;enable-background:accumulate"
       d="m 11,1033.3622 c -2.45324,0 -5.279609,0.6661 -7.052342,1.7764 -0.988026,1.468 -0.98653,3.2319 -0.988888,5.1161 0.0046,4.6243 3.444745,8.525 8.032256,9.1075 4.59463,-0.5742 8.044409,-4.4772 8.050203,-9.1075 -0.0021,-1.8834 2.85e-4,-3.6464 -0.986643,-5.1144 -1.773093,-1.1112 -4.600261,-1.7781 -7.054586,-1.7781 z"
       id="path5529-6-3-3"
       inkscape:connector-curvature="0"
       sodipodi:nodetypes="scccccs" />
    <path
       style="color:#000000;clip-rule:nonzero;display:inline;overflow:visible;visibility:visible;opacity:1;isolation:auto;mix-blend-mode:normal;color-interpolation:sRGB;color-interpolation-filters:linearRGB;solid-color:#000000;solid-opacity:1;fill:#e4720c;fill-opacity:1;fill-rule:nonzero;stroke:none;stroke-width:2;stroke-linecap:butt;stroke-linejoin:miter;stroke-miterlimit:4;stroke-dasharray:none;stroke-dashoffset:0;stroke-opacity:1;color-rendering:auto;image-rendering:auto;shape-rendering:auto;text-rendering:auto;enable-background:accumulate"
       d="m 11,1034.3622 c -2.146585,0 -4.619658,0.5828 -6.170799,1.5543 -0.864523,1.2846 -0.863214,2.8279 -0.865277,4.4766 0.004,4.0463 3.014152,7.4594 7.028224,7.9691 4.020301,-0.5025 7.038858,-3.9175 7.043927,-7.9691 -0.0018,-1.6479 2.5e-4,-3.1906 -0.863312,-4.4751 -1.551457,-0.9723 -4.025229,-1.5558 -6.172763,-1.5558 z"
       id="path5529-6-0-6-5"
       inkscape:connector-curvature="0"
       sodipodi:nodetypes="scccccs" />
    <path
       style="color:#000000;clip-rule:nonzero;display:inline;overflow:visible;visibility:visible;opacity:1;isolation:auto;mix-blend-mode:normal;color-interpolation:sRGB;color-interpolation-filters:linearRGB;solid-color:#000000;solid-opacity:1;fill:#fcfcfc;fill-opacity:1;fill-rule:nonzero;stroke:none;stroke-width:2;stroke-linecap:butt;stroke-linejoin:miter;stroke-miterlimit:4;stroke-dasharray:none;stroke-dashoffset:0;stroke-opacity:1;color-rendering:auto;image-rendering:auto;shape-rendering:auto;text-rendering:auto;enable-background:accumulate"
       d="m 10,1035.8704 0,6.4918 -3,0 4,4 4,-4 -3,0 0,-6.4918 z"
       id="rect4205-6"
       inkscape:connector-curvature="0"
       sodipodi:nodetypes="cccccccc" />
  </g>
  <g
     transform="translate(66,-1030.3622)"
     id="update-high">
    <rect
       style="opacity:0.00100002;fill:#000000;fill-opacity:1;fill-rule:nonzero;stroke:none;stroke-width:2;stroke-linecap:round;stroke-linejoin:round;stroke-miterlimit:4;stroke-dasharray:none;stroke-opacity:1"
       y="1030.36"
       x="0"
       height="22"
       width="22"
       id="rect4752" />
    <path
       style="color:#000000;clip-rule:nonzero;display:inline;overflow:visible;visibility:visible;opacity:1;isolation:auto;mix-blend-mode:normal;color-interpolation:sRGB;color-interpolation-filters:linearRGB;solid-color:#000000;solid-opacity:1;fill:#fcfcfc;fill-opacity:1;fill-rule:nonzero;stroke:none;stroke-width:2;stroke-linecap:butt;stroke-linejoin:miter;stroke-miterlimit:4;stroke-dasharray:none;stroke-dashoffset:0;stroke-opacity:1;color-rendering:auto;image-rendering:auto;shape-rendering:auto;text-rendering:auto;enable-background:accumulate"
       d="m 11,1033.3622 c -2.45324,0 -5.279609,0.6661 -7.052342,1.7764 -0.988026,1.468 -0.98653,3.2319 -0.988888,5.1161 0.0046,4.6243 3.444745,8.525 8.032256,9.1075 4.59463,-0.5742 8.044409,-4.4772 8.050203,-9.1075 -0.0021,-1.8834 2.85e-4,-3.6464 -0.986643,-5.1144 -1.773093,-1.1112 -4.600261,-1.7781 -7.054586,-1.7781 z"
       id="path5529-6-3-2"
       inkscape:connector-curvature="0"
       sodipodi:nodetypes="scccccs" />
    <path
       style="color:#000000;clip-rule:nonzero;display:inline;overflow:visible;visibility:visible;opacity:1;isolation:auto;mix-blend-mode:normal;color-interpolation:sRGB;color-interpolation-filters:linearRGB;solid-color:#000000;solid-opacity:1;fill:#ac0808;fill-opacity:1;fill-rule:nonzero;stroke:none;stroke-width:2;stroke-linecap:butt;stroke-linejoin:miter;stroke-miterlimit:4;stroke-dasharray:none;stroke-dashoffset:0;stroke-opacity:1;color-rendering:auto;image-rendering:auto;shape-rendering:auto;text-rendering:auto;enable-background:accumulate"
       d="m 11,1034.3622 c -2.146585,0 -4.619658,0.5828 -6.170799,1.5543 -0.864523,1.2846 -0.863214,2.8279 -0.865277,4.4766 0.004,4.0463 3.014152,7.4594 7.028224,7.9691 4.020301,-0.5025 7.038858,-3.9175 7.043927,-7.9691 -0.0018,-1.6479 2.5e-4,-3.1906 -0.863312,-4.4751 -1.551457,-0.9723 -4.025229,-1.5558 -6.172763,-1.5558 z"
       id="path5529-6-0-6-9"
       inkscape:connector-curvature="0"
       sodipodi:nodetypes="scccccs" />
    <path
       style="color:#000000;clip-rule:nonzero;display:inline;overflow:visible;visibility:visible;opacity:1;isolation:auto;mix-blend-mode:normal;color-interpolation:sRGB;color-interpolation-filters:linearRGB;solid-color:#000000;solid-opacity:1;fill:#fcfcfc;fill-opacity:1;fill-rule:nonzero;stroke:none;stroke-width:2;stroke-linecap:butt;stroke-linejoin:miter;stroke-miterlimit:4;stroke-dasharray:none;stroke-dashoffset:0;stroke-opacity:1;color-rendering:auto;image-rendering:auto;shape-rendering:auto;text-rendering:auto;enable-background:accumulate"
       d="m 10,1035.8704 0,6.4918 -3,0 4,4 4,-4 -3,0 0,-6.4918 z"
       id="rect4205-1"
       inkscape:connector-curvature="0"
       sodipodi:nodetypes="cccccccc" />
  </g>
</svg>
