<?xml version="1.0" encoding="UTF-8" standalone="no"?>
<svg id="svg2" xmlns:rdf="http://www.w3.org/1999/02/22-rdf-syntax-ns#" xmlns="http://www.w3.org/2000/svg" height="126" shape-rendering="crispEdges" width="126" version="1.1" xmlns:cc="http://creativecommons.org/ns#" xmlns:xlink="http://www.w3.org/1999/xlink" xmlns:dc="http://purl.org/dc/elements/1.1/">
	<defs id="defs4">
		<style id="current-color-scheme" type="text/css">
			.ColorScheme-Background { color:#FF0000; }
		</style>
	</defs>
	<metadata id="metadata7">
		<rdf:RDF>
			<cc:Work rdf:about="">
				<dc:format>image/svg+xml</dc:format>
				<dc:type rdf:resource="http://purl.org/dc/dcmitype/StillImage"/>
				<dc:title/>
				<dc:creator>
					<cc:Agent>
						<dc:title>obnosim</dc:title>
					</cc:Agent>
				</dc:creator>
				<cc:license rdf:resource="http://creativecommons.org/licenses/by-sa/3.0/"/>
			</cc:Work>
			<cc:License rdf:about="http://creativecommons.org/licenses/by-sa/3.0/">
				<cc:permits rdf:resource="http://creativecommons.org/ns#Reproduction"/>
				<cc:permits rdf:resource="http://creativecommons.org/ns#Distribution"/>
				<cc:requires rdf:resource="http://creativecommons.org/ns#Notice"/>
				<cc:requires rdf:resource="http://creativecommons.org/ns#Attribution"/>
				<cc:permits rdf:resource="http://creativecommons.org/ns#DerivativeWorks"/>
				<cc:requires rdf:resource="http://creativecommons.org/ns#ShareAlike"/>
			</cc:License>
		</rdf:RDF>
	</metadata>
	<rect id="center" class="ColorScheme-Background" style="fill:currentColor" height="30" width="30" y="48" x="48"/>
	<rect id="hint-top-margin" style="fill:#007b00" transform="rotate(90)" height="4" width="2" y="-65" x="43"/>
	<rect id="hint-bottom-margin" style="fill:#007b00" transform="rotate(90)" height="4" width="2" y="-65" x="81"/>
	<rect id="hint-left-margin" style="fill:#007b00" height="4" width="2" y="61" x="43"/>
	<rect id="hint-right-margin" style="fill:#007b00" height="4" width="2" y="61" x="81"/>
	<rect id="south-center" class="ColorScheme-Background" style="fill:currentColor;" height="30" width="30" y="95" x="48"/>
	<rect id="south-hint-top-margin" style="fill:#007b00;" transform="rotate(90)" height="4" width="2" y="-65" x="90"/>
	<rect id="south-hint-left-margin" style="fill:#007b00;" height="4" width="2" y="106" x="43"/>
	<rect id="south-hint-right-margin" style="fill:#007b00;" transform="scale(-1,1)" height="4" width="2" y="106" x="-83"/>
	<rect id="south-hint-bottom-margin" style="fill:#007b00;" transform="matrix(0,-1,-1,0,0,0)" height=".001" width=".001" y="-65" x="-130"/>
	<rect id="south-hint-overlay-tile-horizontal" style="fill:#008000" height="5.375" width="5" y="48.67" x="-189"/>
	<rect id="north-center" class="ColorScheme-Background" style="fill:currentColor;" height="30" width="30" y="0" x="48"/>
	<rect id="north-hint-bottom-margin" style="fill:#007b00;" transform="matrix(0,-1,-1,0,0,0)" height="4" width="2" y="-65" x="-35"/>
	<rect id="north-hint-left-margin" style="fill:#007b00;" height="4" width="2" y="15" x="43"/>
	<rect id="north-hint-right-margin" style="fill:#007b00;" transform="scale(-1,1)" height="4" width="2" y="15" x="-83"/>
	<rect id="north-hint-top-margin" style="fill:#007b00;" transform="rotate(90)" height=".001" width=".001" y="-65" x="0"/>
	<rect id="north-hint-overlay-tile-horizontal" style="fill:#008000" height="5.375" width="5" y="-380.33" x="-189"/>
	<rect id="west-center" class="ColorScheme-Background" style="fill:currentColor;" height="30" width="30" y="48" x="0"/>
	<rect id="west-hint-right-margin" style="fill:#007b00;" transform="scale(-1,1)" height="4" width="2" y="61" x="-35"/>
	<rect id="west-hint-top-margin" style="fill:#007b00;" transform="rotate(90)" height="4" width="2" y="-19" x="43"/>
	<rect id="west-hint-bottom-margin" style="fill:#007b00;" transform="rotate(90)" height="4" width="2" y="-19" x="81"/>
	<rect id="west-hint-left-margin" style="fill:#007b00;" height=".001" width=".001" y="61" x="0"/>
	<rect id="west-hint-overlay-tile-vertical" style="fill:#008000" height="5" width="5" y="-169" x="-409.86"/>
	<rect id="east-center" class="ColorScheme-Background" style="fill:currentColor;" height="30" width="30" y="48" x="95"/>
	<rect id="east-hint-top-margin" style="fill:#007b00;" transform="rotate(90)" height="4" width="2" y="-110" x="43"/>
	<rect id="east-hint-bottom-margin" style="fill:#007b00;" transform="rotate(90)" height="4" width="2" y="-110" x="81"/>
	<rect id="east-hint-left-margin" style="fill:#007b00;" height="4" width="2" y="61" x="90"/>
	<rect id="east-hint-right-margin" style="fill:#007b00;" transform="scale(-1,1)" height=".001" width=".001" y="61" x="-130"/>
</svg>
