<?xml version="1.0" encoding="UTF-8" standalone="no"?>
<svg id="svg3171" xmlns:rdf="http://www.w3.org/1999/02/22-rdf-syntax-ns#" xmlns="http://www.w3.org/2000/svg" height="42" width="42" version="1.1" xmlns:cc="http://creativecommons.org/ns#" xmlns:dc="http://purl.org/dc/elements/1.1/">
	<metadata id="metadata7">
		<rdf:RDF>
			<cc:Work rdf:about="">
				<dc:format>image/svg+xml</dc:format>
				<dc:type rdf:resource="http://purl.org/dc/dcmitype/StillImage"/>
				<dc:title/>
				<dc:creator>
					<cc:Agent>
						<dc:title>obnosim</dc:title>
					</cc:Agent>
				</dc:creator>
				<cc:license rdf:resource="http://creativecommons.org/licenses/by-sa/3.0/"/>
			</cc:Work>
			<cc:License rdf:about="http://creativecommons.org/licenses/by-sa/3.0/">
				<cc:permits rdf:resource="http://creativecommons.org/ns#Reproduction"/>
				<cc:permits rdf:resource="http://creativecommons.org/ns#Distribution"/>
				<cc:requires rdf:resource="http://creativecommons.org/ns#Notice"/>
				<cc:requires rdf:resource="http://creativecommons.org/ns#Attribution"/>
				<cc:permits rdf:resource="http://creativecommons.org/ns#DerivativeWorks"/>
				<cc:requires rdf:resource="http://creativecommons.org/ns#ShareAlike"/>
			</cc:License>
		</rdf:RDF>
	</metadata>
	<defs id="defs3173">
		<style id="current-color-scheme" type="text/css">
			.ColorScheme-Background { color:#FF0000; }
		</style>
		<style id="velours" type="text/css">
			.body {
				fill: currentColor;
			}
			.hint { fill: #00CC00; }
		</style>
	</defs>
	<g id="g6" class="ColorScheme-Background">
		<rect id="center" class="body" height="34" width="34" y="4" x="4"/>
		<rect id="top" class="body" height="3" width="34" y="0" x="4"/>
		<rect id="bottom" class="body" height="3" width="34" y="39" x="4"/>
		<rect id="left" class="body" height="34" width="3" y="4" x="0"/>
		<rect id="right" class="body" height="34" width="3" y="4" x="39"/>
		<path id="topleft" class="body" d="m3 0c-1.662 0-3 1.338-3 3h3v-3z"/>
		<path id="topright" class="body" d="m39 0v3h3c0-1.662-1.338-3-3-3z"/>
		<path id="bottomright" class="body" d="m39 39v3c1.662 0 3-1.338 3-3h-3z"/>
		<path id="bottomleft" class="body" d="m0 39c0 1.662 1.338 3 3 3v-3h-3z"/>
	</g>
	<rect id="hint-left-margin" class="hint" height="3" width="3" y="20" x="4"/>
	<rect id="hint-right-margin" class="hint" height="3" width="3" y="20" x="35"/>
	<rect id="hint-top-margin" class="hint" transform="rotate(90)" height="3" width="3" y="-22" x="4"/>
	<rect id="hint-bottom-margin" class="hint" transform="rotate(90)" height="3" width="3" y="-22" x="35"/>
</svg>
