<?xml version="1.0" encoding="UTF-8" standalone="no"?>
<!DOCTYPE svg PUBLIC "-//W3C//DTD SVG 1.1//EN" "http://www.w3.org/Graphics/SVG/1.1/DTD/svg11.dtd">
<svg width="100%" height="100%" viewBox="0 0 800 800" version="1.1" xmlns="http://www.w3.org/2000/svg" xmlns:xlink="http://www.w3.org/1999/xlink" xml:space="preserve" xmlns:serif="http://www.serif.com/" style="fill-rule:evenodd;clip-rule:evenodd;stroke-linejoin:round;stroke-miterlimit:2;">
    <g transform="matrix(1.28804,0,0,1.28804,-136.683,-140.097)">
        <path d="M416.667,208.858C440.05,208.858 463.437,211.196 491.496,218.208C496.175,206.517 503.188,194.825 510.204,185.471C556.975,197.162 603.742,220.55 627.129,232.242C673.896,302.396 720.667,395.933 720.667,559.625C697.279,606.396 603.742,653.163 556.975,653.163C549.958,643.808 538.267,620.425 533.588,606.396C547.621,601.717 571.004,590.025 580.358,583.008L556.975,559.625C521.896,571.317 475.129,583.008 416.667,583.008C358.204,583.008 311.438,571.317 276.358,559.625L252.975,583.008C262.329,590.025 285.713,601.717 299.746,606.396C295.067,620.425 283.375,643.808 276.358,653.163C229.592,653.163 136.054,606.396 112.667,559.625C112.667,395.933 159.438,302.396 206.204,232.242C229.592,220.55 276.358,197.163 323.129,185.471C330.146,194.825 337.158,206.517 341.838,218.208C369.896,211.196 393.283,208.858 416.667,208.858ZM521.896,489.471C553.958,489.471 580.358,463.071 580.358,431.008C580.358,398.95 553.958,372.55 521.896,372.55C489.838,372.55 463.438,398.95 463.438,431.008C463.438,463.071 489.837,489.471 521.896,489.471ZM311.438,489.471C343.496,489.471 369.896,463.071 369.896,431.008C369.896,398.95 343.496,372.55 311.438,372.55C279.375,372.55 252.975,398.95 252.975,431.008C252.975,463.071 279.375,489.471 311.438,489.471Z" style="fill:rgb(32,240,227);fill-rule:nonzero;"/>
    </g>
</svg>
