<?xml version="1.0" encoding="UTF-8" standalone="no"?><!DOCTYPE svg PUBLIC "-//W3C//DTD SVG 1.1//EN" "http://www.w3.org/Graphics/SVG/1.1/DTD/svg11.dtd"><svg width="100%" height="100%" viewBox="0 0 200 200" version="1.1" xmlns="http://www.w3.org/2000/svg" xmlns:xlink="http://www.w3.org/1999/xlink" xml:space="preserve" xmlns:serif="http://www.serif.com/" style="fill-rule:evenodd;clip-rule:evenodd;stroke-linejoin:round;stroke-miterlimit:2;"><path d="M151.292,20.833c24.412,16.925 40.366,45.13 40.366,77.084c0,51.775 -41.958,93.75 -93.75,93.75c-31.954,-0 -60.158,-15.95 -77.083,-40.367c4.321,7.592 9.608,14.579 15.754,20.704c17.021,15.467 39.642,24.871 64.454,24.871c52.93,-0 95.834,-42.908 95.834,-95.833c-0,-24.809 -9.4,-47.434 -24.871,-64.455c-6.121,-6.145 -13.113,-11.433 -20.704,-15.754Zm20.704,15.754c16.058,17.138 25.912,40.155 25.912,65.496c0,52.929 -42.904,95.834 -95.833,95.834c-25.337,-0 -48.358,-9.85 -65.496,-25.913c17.334,17.267 41.179,27.996 67.579,27.996c52.93,-0 95.834,-42.908 95.834,-95.833c-0,-26.396 -10.73,-50.25 -27.996,-67.58Z" style="fill-opacity:0.05;fill-rule:nonzero;"/><path d="M172,36.588c15.467,17.02 24.871,39.641 24.871,64.454c-0,52.929 -42.904,95.833 -95.833,95.833c-24.809,0 -47.434,-9.4 -64.455,-24.871c17.138,16.059 40.155,25.913 65.496,25.913c52.929,-0 95.834,-42.909 95.834,-95.834c-0,-25.337 -9.85,-48.358 -25.913,-65.495Z" style="fill-opacity:0.1;fill-rule:nonzero;"/><path d="M130.208,9.896c35.896,13.142 61.459,47.571 61.459,88.042c-0,51.775 -41.959,93.75 -93.75,93.75c-40.45,-0 -74.88,-25.563 -88,-61.459c12.792,39.388 49.734,66.231 91.146,66.231c52.409,0 95.595,-42.99 95.833,-95.397c-0.061,-41.528 -27.109,-78.507 -66.667,-91.146l-0.021,-0.021Z" style="fill-opacity:0.2;fill-rule:nonzero;"/><path d="M4.167,100c-0,-52.929 42.904,-95.833 95.833,-95.833c52.929,-0 95.833,42.904 95.833,95.833c0,52.929 -42.904,95.833 -95.833,95.833c-52.929,0 -95.833,-42.904 -95.833,-95.833Z" style="fill:#3f3b7d;fill-rule:nonzero;"/><path d="M166.792,31.379c15.466,17.017 24.871,39.642 24.871,64.454c-0,52.93 -42.905,95.834 -95.834,95.834c-24.808,-0 -47.433,-9.4 -64.454,-24.871c17.408,17.879 41.708,29.037 68.621,29.037c52.929,0 95.833,-42.908 95.833,-95.833c0,-26.925 -11.154,-51.213 -29.037,-68.621Z" style="fill-opacity:0.1;fill-rule:nonzero;"/><path d="M87.5,50c-2.083,0 -9.375,8.333 -10.417,8.333l-5.208,0c-2.083,0 -9.375,7.292 -9.375,9.375l0,6.25c0,1.042 -8.288,8.334 -8.333,10.417c-0.046,2.083 14.583,51.042 16.666,53.125c2.084,2.083 25,20.833 31.25,20.833l4.167,0c6.25,0 29.167,-18.75 31.25,-20.833c2.083,-2.083 16.708,-51.042 16.667,-53.125c-0.046,-2.071 -8.334,-9.375 -8.334,-10.417l0,-6.25c0,-2.083 -7.291,-9.375 -9.375,-9.375l-5.208,0c-1.042,0 -8.333,-8.333 -10.417,-8.333l-33.333,0Z" style="fill-opacity:0.1;fill-rule:nonzero;"/><path d="M78.338,29.598c-2.708,0 -12.185,10.831 -13.539,10.831l-6.769,0c-2.708,0 -12.185,9.477 -12.185,12.185l-0,8.123c-0,1.354 -10.772,10.832 -10.831,13.539c-0.06,2.708 18.954,66.34 21.662,69.048c2.708,2.708 32.493,27.078 40.616,27.078l5.416,-0c8.123,-0 37.908,-24.37 40.616,-27.078c2.708,-2.708 21.716,-66.34 21.662,-69.048c-0.059,-2.691 -10.831,-12.185 -10.831,-13.539l0,-8.123c0,-2.708 -9.477,-12.185 -12.185,-12.185l-6.769,0c-1.354,0 -10.831,-10.831 -13.539,-10.831l-43.324,0Z" style="fill:#3c586b;fill-rule:nonzero;"/><path d="M105.416,53.925c-2.697,-0 -5.383,0.926 -8.124,2.751c-8.123,5.415 -18.954,-2.708 -21.662,-2.708c-2.708,0 -18.954,19.729 -18.954,27.078c-0,5.415 20.308,17.871 20.308,21.662c0,2.708 -4.062,4.007 -4.062,9.753c0,3.786 5.416,10.555 10.831,10.555c5.416,-0 18.966,-10.631 18.955,-13.263l-0,-1.63c-0,-3.249 -12.185,-7.343 -12.185,-13.539c-0,-5.415 4.061,-7.419 4.061,-13.538c0,-5.264 -10.831,-6.77 -18.954,-8.124c-2.708,0 8.123,-8.908 23.016,0.721c3.769,2.437 -4.062,12.071 -2.708,20.941c2.031,1.896 5.757,2.844 9.478,2.844c3.725,-0 7.446,-0.948 9.477,-2.844c1.354,-8.87 -6.477,-18.504 -2.708,-20.941c14.893,-9.629 25.724,-0.721 23.016,-0.721c-8.123,1.354 -18.954,2.86 -18.954,8.124c-0,6.119 4.061,8.123 4.061,13.538c0,6.196 -12.185,10.29 -12.185,13.539l0,1.63c-0.011,2.632 13.539,13.263 18.955,13.263c5.415,-0 10.831,-6.769 10.831,-10.555c-0,-5.74 -4.062,-7.045 -4.062,-9.753c-0,-3.791 20.308,-16.247 20.308,-21.662c0,-7.349 -16.246,-27.078 -18.954,-27.078c-2.708,0 -13.539,8.123 -21.662,2.708c-2.74,-1.825 -5.416,-2.751 -8.123,-2.751Zm-0,64.488c-5.416,-0 -17.601,8.394 -17.601,10.018c0,1.625 12.185,14.893 17.601,14.893c5.415,0 17.6,-13.268 17.6,-14.893c-0,-1.624 -12.185,-10.018 -17.6,-10.018Z" style="fill-opacity:0.1;fill-rule:nonzero;"/><path d="M100,48.509c-2.697,0 -5.383,0.926 -8.123,2.751c-8.124,5.416 -18.955,-2.707 -21.662,-2.707c-2.708,-0 -18.955,19.728 -18.955,27.077c0,5.416 20.309,17.871 20.309,21.662c-0,2.708 -4.062,4.008 -4.062,9.754c-0,3.785 5.415,10.554 10.831,10.554c5.415,0 18.965,-10.63 18.954,-13.262l0,-1.63c0,-3.25 -12.185,-7.344 -12.185,-13.539c0,-5.416 4.062,-7.419 4.062,-13.539c-0,-5.264 -10.831,-6.769 -18.954,-8.123c-2.708,-0 8.123,-8.909 23.016,0.72c3.769,2.437 -4.062,12.071 -2.708,20.942c2.031,1.895 5.757,2.843 9.477,2.843c3.726,0 7.446,-0.948 9.477,-2.843c1.354,-8.871 -6.477,-18.505 -2.708,-20.942c14.893,-9.629 25.724,-0.72 23.016,-0.72c-8.123,1.354 -18.954,2.859 -18.954,8.123c0,6.12 4.062,8.123 4.062,13.539c-0,6.195 -12.185,10.289 -12.185,13.539l-0,1.63c-0.011,2.632 13.539,13.262 18.954,13.262c5.416,0 10.831,-6.769 10.831,-10.554c0,-5.741 -4.062,-7.046 -4.062,-9.754c0,-3.791 20.309,-16.246 20.309,-21.662c-0,-7.349 -16.247,-27.077 -18.955,-27.077c-2.707,-0 -13.538,8.123 -21.662,2.707c-2.74,-1.825 -5.415,-2.751 -8.123,-2.751Zm0,64.488c-5.416,0 -17.6,8.394 -17.6,10.019c-0,1.625 12.184,14.893 17.6,14.893c5.416,-0 17.6,-13.268 17.6,-14.893c0,-1.625 -12.184,-10.019 -17.6,-10.019Z" style="fill:#7dbde8;fill-rule:nonzero;"/></svg>