<?xml version="1.0" encoding="UTF-8" standalone="no"?><!DOCTYPE svg PUBLIC "-//W3C//DTD SVG 1.1//EN" "http://www.w3.org/Graphics/SVG/1.1/DTD/svg11.dtd"><svg width="100%" height="100%" viewBox="0 0 48 48" version="1.1" xmlns="http://www.w3.org/2000/svg" xmlns:xlink="http://www.w3.org/1999/xlink" xml:space="preserve" xmlns:serif="http://www.serif.com/" style="fill-rule:evenodd;clip-rule:evenodd;stroke-linejoin:round;stroke-miterlimit:2;"><path d="M36.31,5c5.859,4.062 9.688,10.831 9.688,18.5c0,12.426 -10.07,22.5 -22.5,22.5c-7.669,0 -14.438,-3.828 -18.5,-9.688c1.037,1.822 2.306,3.499 3.781,4.969c4.085,3.712 9.514,5.969 15.469,5.969c12.703,0 23,-10.298 23,-23c0,-5.954 -2.256,-11.384 -5.969,-15.469c-1.469,-1.475 -3.147,-2.744 -4.969,-3.781Zm4.969,3.781c3.854,4.113 6.219,9.637 6.219,15.719c0,12.703 -10.297,23 -23,23c-6.081,0 -11.606,-2.364 -15.719,-6.219c4.16,4.144 9.883,6.719 16.219,6.719c12.703,0 23,-10.298 23,-23c0,-6.335 -2.575,-12.06 -6.719,-16.219Z" style="fill-opacity:0.05;fill-rule:nonzero;"/><path d="M41.28,8.781c3.712,4.085 5.969,9.514 5.969,15.469c0,12.703 -10.297,23 -23,23c-5.954,0 -11.384,-2.256 -15.469,-5.969c4.113,3.854 9.637,6.219 15.719,6.219c12.703,0 23,-10.298 23,-23c0,-6.081 -2.364,-11.606 -6.219,-15.719Z" style="fill-opacity:0.1;fill-rule:nonzero;"/><path d="M31.25,2.375c8.615,3.154 14.75,11.417 14.75,21.13c0,12.426 -10.07,22.5 -22.5,22.5c-9.708,0 -17.971,-6.135 -21.12,-14.75c3.07,9.453 11.936,15.895 21.875,15.895c12.578,0 22.943,-10.317 23,-22.895c-0.015,-9.967 -6.506,-18.842 -16,-21.875l-0.005,-0.005Z" style="fill-opacity:0.2;fill-rule:nonzero;"/><circle cx="24" cy="24" r="23" style="fill:#444;"/><path d="M40.03,7.531c3.712,4.084 5.969,9.514 5.969,15.469c0,12.703 -10.297,23 -23,23c-5.954,0 -11.384,-2.256 -15.469,-5.969c4.178,4.291 10.01,6.969 16.469,6.969c12.703,0 23,-10.298 23,-23c0,-6.462 -2.677,-12.291 -6.969,-16.469Z" style="fill-opacity:0.1;fill-rule:nonzero;"/><path d="M24.756,9.767c1.539,0 3.078,0.154 4.924,0.616c0.308,-0.769 0.77,-1.539 1.231,-2.154c3.078,0.769 6.156,2.308 7.694,3.077c3.078,4.617 6.156,10.772 6.156,21.544c-1.539,3.078 -7.694,6.155 -10.772,6.155c-0.462,-0.615 -1.231,-2.154 -1.539,-3.077c0.923,-0.308 2.462,-1.078 3.078,-1.539l-1.539,-1.539c-2.308,0.769 -5.386,1.539 -9.233,1.539c-3.847,-0 -6.925,-0.77 -9.233,-1.539l-1.539,1.539c0.616,0.461 2.154,1.231 3.078,1.539c-0.308,0.923 -1.077,2.462 -1.539,3.077c-3.078,0 -9.233,-3.077 -10.772,-6.155c0,-10.772 3.078,-16.927 6.155,-21.544c1.539,-0.769 4.617,-2.308 7.695,-3.077c0.461,0.615 0.923,1.385 1.231,2.154c1.846,-0.462 3.385,-0.616 4.924,-0.616Zm6.925,18.466c2.109,0 3.847,-1.737 3.847,-3.847c-0,-2.109 -1.738,-3.847 -3.847,-3.847c-2.11,0 -3.847,1.738 -3.847,3.847c-0,2.11 1.737,3.847 3.847,3.847Zm-13.85,0c2.11,0 3.847,-1.737 3.847,-3.847c0,-2.109 -1.737,-3.847 -3.847,-3.847c-2.11,0 -3.847,1.738 -3.847,3.847c0,2.11 1.737,3.847 3.847,3.847Z" style="fill-opacity:0.34;fill-rule:nonzero;"/><path d="M23.741,9.173c1.503,-0 3.007,0.15 4.811,0.601c0.3,-0.752 0.751,-1.503 1.202,-2.105c3.007,0.752 6.014,2.255 7.517,3.007c3.007,4.51 6.014,10.524 6.014,21.048c-1.503,3.006 -7.517,6.013 -10.524,6.013c-0.451,-0.601 -1.203,-2.105 -1.503,-3.007c0.902,-0.3 2.405,-1.052 3.007,-1.503l-1.504,-1.503c-2.255,0.751 -5.262,1.503 -9.02,1.503c-3.759,0 -6.765,-0.752 -9.021,-1.503l-1.503,1.503c0.601,0.451 2.105,1.203 3.007,1.503c-0.301,0.902 -1.052,2.406 -1.504,3.007c-3.006,0 -9.02,-3.007 -10.523,-6.013c-0,-10.524 3.007,-16.538 6.013,-21.048c1.504,-0.752 4.51,-2.255 7.517,-3.007c0.451,0.602 0.902,1.353 1.203,2.105c1.804,-0.451 3.307,-0.601 4.811,-0.601Zm6.765,18.04c2.061,0 3.759,-1.697 3.759,-3.758c-0,-2.061 -1.698,-3.758 -3.759,-3.758c-2.061,-0 -3.758,1.697 -3.758,3.758c-0,2.061 1.697,3.758 3.758,3.758Zm-13.53,0c2.061,0 3.758,-1.697 3.758,-3.758c0,-2.061 -1.697,-3.758 -3.758,-3.758c-2.062,-0 -3.759,1.697 -3.759,3.758c0,2.061 1.697,3.758 3.759,3.758Z" style="fill:#1f1f1f;fill-rule:nonzero;"/></svg>