<?xml version="1.0" encoding="UTF-8" standalone="no"?><!DOCTYPE svg PUBLIC "-//W3C//DTD SVG 1.1//EN" "http://www.w3.org/Graphics/SVG/1.1/DTD/svg11.dtd"><svg width="100%" height="100%" viewBox="0 0 200 200" version="1.1" xmlns="http://www.w3.org/2000/svg" xmlns:xlink="http://www.w3.org/1999/xlink" xml:space="preserve" xmlns:serif="http://www.serif.com/" style="fill-rule:evenodd;clip-rule:evenodd;stroke-linejoin:round;stroke-miterlimit:2;"><path d="M151.292,20.833c24.412,16.925 40.366,45.13 40.366,77.084c0,51.775 -41.958,93.75 -93.75,93.75c-31.954,-0 -60.158,-15.95 -77.083,-40.367c4.321,7.592 9.608,14.579 15.754,20.704c17.021,15.467 39.642,24.871 64.454,24.871c52.929,-0 95.834,-42.908 95.834,-95.833c-0,-24.809 -9.4,-47.434 -24.871,-64.455c-6.121,-6.145 -13.113,-11.433 -20.704,-15.754Zm20.704,15.754c16.058,17.138 25.912,40.155 25.912,65.496c0,52.929 -42.904,95.834 -95.833,95.834c-25.338,-0 -48.358,-9.85 -65.496,-25.913c17.333,17.267 41.179,27.996 67.579,27.996c52.929,-0 95.834,-42.908 95.834,-95.833c-0,-26.396 -10.73,-50.25 -27.996,-67.58Z" style="fill-opacity:0.05;fill-rule:nonzero;"/><path d="M172,36.588c15.467,17.02 24.871,39.641 24.871,64.454c-0,52.929 -42.904,95.833 -95.834,95.833c-24.808,0 -47.433,-9.4 -64.454,-24.871c17.138,16.059 40.155,25.913 65.496,25.913c52.929,-0 95.834,-42.909 95.834,-95.834c-0,-25.337 -9.851,-48.358 -25.913,-65.495Z" style="fill-opacity:0.1;fill-rule:nonzero;"/><path d="M130.208,9.896c35.896,13.142 61.459,47.571 61.459,88.042c-0,51.775 -41.959,93.75 -93.75,93.75c-40.45,-0 -74.88,-25.563 -88,-61.459c12.791,39.388 49.733,66.229 91.146,66.229c52.408,0 95.595,-42.987 95.833,-95.395c-0.063,-41.53 -27.108,-78.509 -66.667,-91.146l-0.021,-0.021Z" style="fill-opacity:0.2;fill-rule:nonzero;"/><circle cx="100" cy="100" r="95.833" style="fill:#3f3b7d;"/><path d="M166.792,31.379c15.466,17.017 24.871,39.642 24.871,64.454c-0,52.93 -42.905,95.834 -95.834,95.834c-24.808,-0 -47.433,-9.4 -64.454,-24.871c17.408,17.879 41.708,29.037 68.621,29.037c52.929,0 95.833,-42.908 95.833,-95.833c0,-26.925 -11.154,-51.213 -29.037,-68.621Z" style="fill-opacity:0.1;fill-rule:nonzero;"/><g><clipPath id="_clip1"><rect x="31.145" y="85.8" width="157.934" height="57.951"/></clipPath><g clip-path="url(#_clip1)"><path d="M90.37,85.8c-19.009,-0 -22.562,28.202 -42.304,28.202c-11.281,0 -11.281,-11.281 -16.921,-11.281c-0,16.922 19.741,28.203 36.663,28.203c28.202,-0 25.382,-16.922 42.304,-16.922c16.921,0 14.101,16.922 42.303,16.922c16.922,-0 36.664,-11.281 36.664,-28.203c-5.641,0 -5.641,11.281 -16.922,11.281c-19.742,0 -23.295,-28.202 -42.304,-28.202c-8.46,-0 -8.46,5.64 -19.741,5.64c-11.281,0 -11.281,-5.64 -19.742,-5.64Zm19.742,56.405c-5.946,-0 -16.922,-0.006 -16.922,5.64c0,14.101 11.281,39.484 16.922,39.484c5.64,-0 16.921,-25.383 16.921,-39.484c0,-5.646 -10.976,-5.64 -16.921,-5.64Z" style="fill-opacity:0.1;"/></g></g><g><clipPath id="_clip2"><rect x="10.219" y="74.086" width="179.563" height="51.827"/></clipPath><g clip-path="url(#_clip2)"><path d="M77.555,74.086c-21.612,0 -25.652,32.065 -48.097,32.065c-12.826,0 -12.826,-12.826 -19.239,-12.826c-0,19.239 22.445,32.065 41.684,32.065c32.065,0 28.858,-19.239 48.097,-19.239c19.239,0 16.032,19.239 48.097,19.239c19.239,0 41.684,-12.826 41.684,-32.065c-6.413,0 -6.413,12.826 -19.239,12.826c-22.445,0 -26.485,-32.065 -48.097,-32.065c-9.619,0 -9.619,6.413 -22.445,6.413c-12.826,0 -12.826,-6.413 -22.445,-6.413Zm22.445,64.13c-6.759,-0 -19.239,-0.006 -19.239,6.413c0,16.032 12.826,44.891 19.239,44.891c6.413,-0 19.239,-28.859 19.239,-44.891c-0,-6.419 -12.48,-6.413 -19.239,-6.413Z" style="fill:#7dbde8;"/></g></g></svg>