<?xml version="1.0" encoding="UTF-8" standalone="no"?><!DOCTYPE svg PUBLIC "-//W3C//DTD SVG 1.1//EN" "http://www.w3.org/Graphics/SVG/1.1/DTD/svg11.dtd"><svg width="100%" height="100%" viewBox="0 0 834 834" version="1.1" xmlns="http://www.w3.org/2000/svg" xmlns:xlink="http://www.w3.org/1999/xlink" xml:space="preserve" xmlns:serif="http://www.serif.com/" style="fill-rule:evenodd;clip-rule:evenodd;stroke-linejoin:round;stroke-miterlimit:2;"><path d="M630.383,86.804c101.717,70.521 168.192,188.042 168.192,321.184c0,215.729 -174.825,390.625 -390.625,390.625c-133.142,-0 -250.658,-66.459 -321.179,-168.196c18.004,31.633 40.033,60.746 65.642,86.266c70.92,64.446 165.175,103.63 268.558,103.63c220.542,-0 399.308,-178.784 399.308,-399.305c0,-103.37 -39.166,-197.641 -103.629,-268.562c-25.504,-25.604 -54.637,-47.638 -86.267,-65.642Zm86.267,65.642c66.908,71.408 107.967,167.312 107.967,272.9c-0,220.537 -178.767,399.308 -399.304,399.308c-105.571,0 -201.492,-41.041 -272.9,-107.971c72.225,71.946 171.579,116.65 281.579,116.65c220.541,0 399.308,-178.783 399.308,-399.304c0,-109.983 -44.708,-209.375 -116.65,-281.583Z" style="fill-opacity:0.05;fill-rule:nonzero;"/><path d="M716.667,152.45c64.446,70.917 103.629,165.171 103.629,268.558c-0,220.538 -178.767,399.305 -399.304,399.305c-103.371,-0 -197.642,-39.167 -268.563,-103.63c71.409,66.913 167.313,107.971 272.9,107.971c220.538,0 399.309,-178.787 399.309,-399.308c-0,-105.571 -41.042,-201.492 -107.971,-272.896Z" style="fill-opacity:0.1;fill-rule:nonzero;"/><path d="M542.533,41.233c149.567,54.759 256.08,198.213 256.08,366.842c-0,215.729 -174.83,390.625 -390.626,390.625c-168.541,0 -312,-106.513 -366.666,-256.079c53.3,164.116 207.225,275.962 379.775,275.962c218.371,0 398.312,-179.125 399.304,-397.487c-0.254,-173.034 -112.954,-327.113 -277.779,-379.775l-0.088,-0.088Z" style="fill-opacity:0.2;fill-rule:nonzero;"/><circle cx="416.667" cy="416.667" r="399.304" style="fill:#444;"/><path d="M694.967,130.746c64.441,70.904 103.629,165.175 103.629,268.558c-0,220.542 -178.771,399.309 -399.308,399.309c-103.367,-0 -197.638,-39.167 -268.559,-103.63c72.534,74.496 173.784,120.988 285.921,120.988c220.538,-0 399.304,-178.783 399.304,-399.304c0,-112.188 -46.475,-213.388 -120.987,-285.921Z" style="fill-opacity:0.1;fill-rule:nonzero;"/><path d="M415.671,149.783c-36.992,0 -66.775,29.784 -66.775,66.775l-0,66.78l-89.038,-0c-24.662,-0 -44.516,19.854 -44.516,44.516l-0,89.038l66.775,-0c36.996,-0 66.779,29.783 66.779,66.775c-0,36.995 -29.783,66.779 -66.779,66.779l-66.775,-0l-0,89.037c-0,24.663 19.854,44.517 44.516,44.517l89.038,0l-0,-66.775c-0,-36.996 29.783,-66.779 66.775,-66.779c36.996,-0 66.779,29.783 66.779,66.779l0,66.775l89.038,0c24.662,0 44.516,-19.854 44.516,-44.517l0,-89.037l66.775,-0c36.996,-0 66.779,-29.783 66.779,-66.779c0,-36.992 -29.783,-66.775 -66.779,-66.775l-66.775,-0l0,-89.038c0,-24.662 -19.854,-44.516 -44.516,-44.516l-89.038,-0l0,-66.78c0,-36.991 -29.783,-66.775 -66.779,-66.775Z" style="fill-opacity:0.1;fill-rule:nonzero;"/><path d="M397.458,130.746c-36.996,-0 -66.779,29.783 -66.779,66.775l0,66.779l-89.037,0c-24.663,0 -44.517,19.854 -44.517,44.517l-0,89.037l66.775,0c36.996,0 66.779,29.783 66.779,66.779c0,36.992 -29.783,66.775 -66.779,66.775l-66.775,0l-0,89.038c-0,24.662 19.854,44.516 44.517,44.516l89.037,0l0,-66.774c0,-36.996 29.783,-66.78 66.779,-66.78c36.992,0 66.775,29.784 66.775,66.779l0,66.775l89.038,0c24.662,0 44.516,-19.854 44.516,-44.516l0,-89.038l66.78,0c36.991,0 66.775,-29.783 66.775,-66.775c-0,-36.996 -29.784,-66.779 -66.775,-66.779l-66.779,0l-0,-89.037c-0,-24.663 -19.855,-44.517 -44.517,-44.517l-89.038,0l0,-66.779c0,-36.992 -29.783,-66.775 -66.775,-66.775Z" style="fill:#7dbde8;fill-rule:nonzero;"/></svg>