<?xml version="1.0" encoding="UTF-8" standalone="no"?><!DOCTYPE svg PUBLIC "-//W3C//DTD SVG 1.1//EN" "http://www.w3.org/Graphics/SVG/1.1/DTD/svg11.dtd"><svg width="100%" height="100%" viewBox="0 0 200 200" version="1.1" xmlns="http://www.w3.org/2000/svg" xmlns:xlink="http://www.w3.org/1999/xlink" xml:space="preserve" xmlns:serif="http://www.serif.com/" style="fill-rule:evenodd;clip-rule:evenodd;stroke-linejoin:round;stroke-miterlimit:2;"><path d="M151.292,20.833c24.412,16.925 40.366,45.13 40.366,77.084c0,51.775 -41.958,93.75 -93.75,93.75c-31.954,-0 -60.158,-15.95 -77.083,-40.367c4.321,7.592 9.608,14.579 15.754,20.704c17.021,15.467 39.642,24.871 64.454,24.871c52.93,-0 95.834,-42.908 95.834,-95.833c-0,-24.809 -9.4,-47.434 -24.871,-64.455c-6.121,-6.145 -13.113,-11.433 -20.704,-15.754Zm20.704,15.754c16.058,17.138 25.912,40.155 25.912,65.496c0,52.929 -42.904,95.834 -95.833,95.834c-25.337,-0 -48.358,-9.85 -65.496,-25.913c17.334,17.267 41.179,27.996 67.579,27.996c52.93,-0 95.834,-42.908 95.834,-95.833c-0,-26.396 -10.73,-50.25 -27.996,-67.58Z" style="fill-opacity:0.05;fill-rule:nonzero;"/><path d="M172,36.588c15.467,17.02 24.871,39.641 24.871,64.454c-0,52.929 -42.904,95.833 -95.833,95.833c-24.809,0 -47.434,-9.4 -64.455,-24.871c17.138,16.059 40.155,25.913 65.496,25.913c52.929,-0 95.834,-42.909 95.834,-95.834c-0,-25.337 -9.85,-48.358 -25.913,-65.495Z" style="fill-opacity:0.1;fill-rule:nonzero;"/><path d="M130.208,9.896c35.896,13.142 61.459,47.571 61.459,88.042c-0,51.775 -41.959,93.75 -93.75,93.75c-40.45,-0 -74.88,-25.563 -88,-61.459c12.792,39.388 49.734,66.231 91.146,66.231c52.409,0 95.595,-42.99 95.833,-95.397c-0.061,-41.528 -27.109,-78.507 -66.667,-91.146l-0.021,-0.021Z" style="fill-opacity:0.2;fill-rule:nonzero;"/><path d="M100,4.167c52.929,-0 95.833,42.904 95.833,95.833c0,52.929 -42.904,95.833 -95.833,95.833c-52.929,0 -95.833,-42.904 -95.833,-95.833c-0,-52.929 42.904,-95.833 95.833,-95.833Z" style="fill:#444;fill-rule:nonzero;"/><path d="M56.751,51.663l-15.265,15.264l30.529,25.441l-30.529,25.44l15.265,15.265l45.793,-40.705l-45.793,-40.705Zm45.793,81.41l0,20.352l61.058,0l-0,-20.352l-61.058,-0Z" style="fill-opacity:0.1;fill-rule:nonzero;"/><path d="M51.663,46.575l-15.265,15.264l30.529,25.441l-30.529,25.44l15.265,15.265l45.793,-40.705l-45.793,-40.705Zm45.793,81.41l-0,20.352l61.058,0l-0,-20.352l-61.058,-0Z" style="fill:#7dbde8;fill-rule:nonzero;"/><path d="M166.792,31.379c15.466,17.017 24.871,39.642 24.871,64.454c-0,52.93 -42.905,95.834 -95.834,95.834c-24.808,-0 -47.433,-9.4 -64.454,-24.871c17.408,17.879 41.708,29.037 68.621,29.037c52.929,0 95.833,-42.908 95.833,-95.833c0,-26.925 -11.154,-51.213 -29.037,-68.621Z" style="fill-opacity:0.1;fill-rule:nonzero;"/></svg>