<?xml version="1.0" encoding="UTF-8" standalone="no"?><!DOCTYPE svg PUBLIC "-//W3C//DTD SVG 1.1//EN" "http://www.w3.org/Graphics/SVG/1.1/DTD/svg11.dtd"><svg width="100%" height="100%" viewBox="0 0 834 834" version="1.1" xmlns="http://www.w3.org/2000/svg" xmlns:xlink="http://www.w3.org/1999/xlink" xml:space="preserve" xmlns:serif="http://www.serif.com/" style="fill-rule:evenodd;clip-rule:evenodd;stroke-linejoin:round;stroke-miterlimit:2;"><path d="M630.383,86.804c101.717,70.521 168.192,188.042 168.192,321.184c0,215.729 -174.825,390.625 -390.625,390.625c-133.142,-0 -250.658,-66.459 -321.179,-168.196c18.004,31.633 40.033,60.746 65.642,86.266c70.92,64.446 165.175,103.63 268.558,103.63c220.542,-0 399.308,-178.784 399.308,-399.305c0,-103.37 -39.166,-197.641 -103.629,-268.562c-25.504,-25.604 -54.637,-47.638 -86.267,-65.642Zm86.267,65.642c66.908,71.408 107.967,167.312 107.967,272.9c-0,220.537 -178.767,399.308 -399.304,399.308c-105.571,0 -201.492,-41.041 -272.9,-107.971c72.225,71.946 171.579,116.65 281.579,116.65c220.541,0 399.308,-178.783 399.308,-399.304c0,-109.983 -44.708,-209.375 -116.65,-281.583Z" style="fill-opacity:0.05;fill-rule:nonzero;"/><path d="M716.667,152.45c64.446,70.917 103.629,165.171 103.629,268.558c-0,220.538 -178.767,399.305 -399.304,399.305c-103.371,-0 -197.642,-39.167 -268.563,-103.63c71.409,66.913 167.313,107.971 272.9,107.971c220.538,0 399.309,-178.787 399.309,-399.308c-0,-105.571 -41.042,-201.492 -107.971,-272.896Z" style="fill-opacity:0.1;fill-rule:nonzero;"/><path d="M542.533,41.233c149.567,54.759 256.08,198.213 256.08,366.842c-0,215.729 -174.83,390.625 -390.626,390.625c-168.541,0 -312,-106.513 -366.666,-256.079c53.3,164.116 207.225,275.962 379.775,275.962c218.371,0 398.312,-179.125 399.304,-397.487c-0.254,-173.034 -112.954,-327.113 -277.779,-379.775l-0.088,-0.088Z" style="fill-opacity:0.2;fill-rule:nonzero;"/><circle cx="416.667" cy="416.667" r="399.304" style="fill:#444;"/><path d="M694.967,130.746c64.441,70.904 103.629,165.175 103.629,268.558c-0,220.542 -178.771,399.309 -399.308,399.309c-103.367,-0 -197.638,-39.167 -268.559,-103.63c72.534,74.496 173.784,120.988 285.921,120.988c220.538,-0 399.304,-178.783 399.304,-399.304c0,-112.188 -46.475,-213.388 -120.987,-285.921Z" style="fill-opacity:0.1;fill-rule:nonzero;"/><path d="M235.408,210.808c-12.617,-0 -22.771,10.154 -22.771,22.771l0,273.241c0,109.3 113.854,198.109 219.654,248.655c2.838,1.354 5.475,1.82 8.05,1.82c2.579,0 5.213,-0.466 8.05,-1.82c105.804,-50.542 219.654,-139.355 219.654,-248.655l0,-273.245c0,-12.613 -10.154,-22.767 -22.77,-22.767l-409.867,-0Zm204.933,68.308l159.392,0l-0,239.092c-0,53.592 -91.079,133.6 -159.392,159.392l0,-398.484Z" style="fill-opacity:0.1;fill-rule:nonzero;"/><path d="M211.733,186.823c-12.616,-0 -22.77,10.154 -22.77,22.771l-0,273.246c-0,109.295 113.85,198.108 219.654,248.65c2.837,1.354 5.471,1.825 8.05,1.825c2.579,-0 5.212,-0.471 8.05,-1.825c105.804,-50.542 219.654,-139.35 219.654,-248.65l-0,-273.246c-0,-12.617 -10.154,-22.771 -22.771,-22.771l-409.867,-0Zm204.934,68.312l159.391,0l0,239.088c0,47.862 -91.079,133.604 -159.391,159.392l-0,-398.48Z" style="fill:#7dbde8;fill-rule:nonzero;"/></svg>