<?xml version="1.0" encoding="UTF-8" standalone="no"?><!DOCTYPE svg PUBLIC "-//W3C//DTD SVG 1.1//EN" "http://www.w3.org/Graphics/SVG/1.1/DTD/svg11.dtd"><svg width="100%" height="100%" viewBox="0 0 48 48" version="1.1" xmlns="http://www.w3.org/2000/svg" xmlns:xlink="http://www.w3.org/1999/xlink" xml:space="preserve" xmlns:serif="http://www.serif.com/" style="fill-rule:evenodd;clip-rule:evenodd;stroke-linejoin:round;stroke-miterlimit:2;"><path d="M36.31,5c5.859,4.062 9.688,10.831 9.688,18.5c0,12.426 -10.07,22.5 -22.5,22.5c-7.669,0 -14.438,-3.828 -18.5,-9.688c1.037,1.822 2.306,3.499 3.781,4.969c4.085,3.712 9.514,5.969 15.469,5.969c12.703,0 23,-10.298 23,-23c0,-5.954 -2.256,-11.384 -5.969,-15.469c-1.469,-1.475 -3.147,-2.744 -4.969,-3.781Zm4.969,3.781c3.854,4.113 6.219,9.637 6.219,15.719c0,12.703 -10.297,23 -23,23c-6.081,0 -11.606,-2.364 -15.719,-6.219c4.16,4.144 9.883,6.719 16.219,6.719c12.703,0 23,-10.298 23,-23c0,-6.335 -2.575,-12.06 -6.719,-16.219Z" style="fill-opacity:0.05;fill-rule:nonzero;"/><path d="M41.28,8.781c3.712,4.085 5.969,9.514 5.969,15.469c0,12.703 -10.297,23 -23,23c-5.954,0 -11.384,-2.256 -15.469,-5.969c4.113,3.854 9.637,6.219 15.719,6.219c12.703,0 23,-10.298 23,-23c0,-6.081 -2.364,-11.606 -6.219,-15.719Z" style="fill-opacity:0.1;fill-rule:nonzero;"/><path d="M31.25,2.375c8.615,3.154 14.75,11.417 14.75,21.13c0,12.426 -10.07,22.5 -22.5,22.5c-9.708,0 -17.971,-6.135 -21.12,-14.75c3.07,9.453 11.936,15.895 21.875,15.895c12.578,0 22.943,-10.317 23,-22.895c-0.015,-9.967 -6.506,-18.842 -16,-21.875l-0.005,-0.005Z" style="fill-opacity:0.2;fill-rule:nonzero;"/><circle cx="24" cy="24" r="23" style="fill:#444;"/><path d="M40.03,7.531c3.712,4.084 5.969,9.514 5.969,15.469c0,12.703 -10.297,23 -23,23c-5.954,0 -11.384,-2.256 -15.469,-5.969c4.178,4.291 10.01,6.969 16.469,6.969c12.703,0 23,-10.298 23,-23c0,-6.462 -2.677,-12.291 -6.969,-16.469Z" style="fill-opacity:0.1;fill-rule:nonzero;"/><path d="M25,16c1,0 2,0.1 3.2,0.4c0.2,-0.5 0.5,-1 0.8,-1.4c2,0.5 4,1.5 5,2c2,3 4,7 4,14c-1,2 -5,4 -7,4c-0.3,-0.4 -0.8,-1.4 -1,-2c0.6,-0.2 1.6,-0.7 2,-1l-1,-1c-1.5,0.5 -3.5,1 -6,1c-2.5,0 -4.5,-0.5 -6,-1l-1,1c0.4,0.3 1.4,0.8 2,1c-0.2,0.6 -0.7,1.6 -1,2c-2,0 -6,-2 -7,-4c0,-7 2,-11 4,-14c1,-0.5 3,-1.5 5,-2c0.3,0.4 0.6,0.9 0.8,1.4c1.2,-0.3 2.2,-0.4 3.2,-0.4Zm4.5,12c1.371,0 2.5,-1.129 2.5,-2.5c0,-1.371 -1.129,-2.5 -2.5,-2.5c-1.371,0 -2.5,1.129 -2.5,2.5c0,1.371 1.129,2.5 2.5,2.5Zm-9,0c1.371,0 2.5,-1.129 2.5,-2.5c0,-1.371 -1.129,-2.5 -2.5,-2.5c-1.371,0 -2.5,1.129 -2.5,2.5c0,1.371 1.129,2.5 2.5,2.5Z" style="fill-opacity:0.34;fill-rule:nonzero;"/><path d="M24,15c1,0 2,0.1 3.2,0.4c0.2,-0.5 0.5,-1 0.8,-1.4c2,0.5 4,1.5 5,2c2,3 4,7 4,14c-1,2 -5,4 -7,4c-0.3,-0.4 -0.8,-1.4 -1,-2c0.6,-0.2 1.6,-0.7 2,-1l-1,-1c-1.5,0.5 -3.5,1 -6,1c-2.5,0 -4.5,-0.5 -6,-1l-1,1c0.4,0.3 1.4,0.8 2,1c-0.2,0.6 -0.7,1.6 -1,2c-2,0 -6,-2 -7,-4c0,-7 2,-11 4,-14c1,-0.5 3,-1.5 5,-2c0.3,0.4 0.6,0.9 0.8,1.4c1.2,-0.3 2.2,-0.4 3.2,-0.4Zm4.5,12c1.371,0 2.5,-1.129 2.5,-2.5c0,-1.371 -1.129,-2.5 -2.5,-2.5c-1.371,0 -2.5,1.129 -2.5,2.5c0,1.371 1.129,2.5 2.5,2.5Zm-9,0c1.371,0 2.5,-1.129 2.5,-2.5c0,-1.371 -1.129,-2.5 -2.5,-2.5c-1.371,0 -2.5,1.129 -2.5,2.5c0,1.371 1.129,2.5 2.5,2.5Z" style="fill:#0c0c0c;fill-rule:nonzero;"/></svg>