<?xml version="1.0" encoding="UTF-8" standalone="no"?><!DOCTYPE svg PUBLIC "-//W3C//DTD SVG 1.1//EN" "http://www.w3.org/Graphics/SVG/1.1/DTD/svg11.dtd"><svg width="100%" height="100%" viewBox="0 0 834 834" version="1.1" xmlns="http://www.w3.org/2000/svg" xmlns:xlink="http://www.w3.org/1999/xlink" xml:space="preserve" xmlns:serif="http://www.serif.com/" style="fill-rule:evenodd;clip-rule:evenodd;stroke-linejoin:round;stroke-miterlimit:2;"><path d="M630.383,86.804c101.717,70.521 168.192,188.042 168.192,321.184c0,215.729 -174.825,390.625 -390.625,390.625c-133.142,-0 -250.658,-66.459 -321.179,-168.196c18.004,31.633 40.033,60.746 65.642,86.266c70.92,64.446 165.175,103.63 268.558,103.63c220.542,-0 399.308,-178.784 399.308,-399.305c0,-103.37 -39.166,-197.641 -103.629,-268.562c-25.504,-25.604 -54.637,-47.638 -86.267,-65.642Zm86.267,65.642c66.908,71.408 107.967,167.312 107.967,272.9c-0,220.537 -178.767,399.308 -399.304,399.308c-105.571,0 -201.492,-41.041 -272.9,-107.971c72.225,71.946 171.579,116.65 281.579,116.65c220.541,0 399.308,-178.783 399.308,-399.304c0,-109.983 -44.708,-209.375 -116.65,-281.583Z" style="fill-opacity:0.05;fill-rule:nonzero;"/><path d="M716.667,152.45c64.446,70.917 103.629,165.171 103.629,268.558c-0,220.538 -178.767,399.305 -399.304,399.305c-103.371,-0 -197.642,-39.167 -268.563,-103.63c71.409,66.913 167.313,107.971 272.9,107.971c220.538,0 399.309,-178.787 399.309,-399.308c-0,-105.571 -41.042,-201.492 -107.971,-272.896Z" style="fill-opacity:0.1;fill-rule:nonzero;"/><path d="M542.533,41.233c149.567,54.759 256.08,198.213 256.08,366.842c-0,215.729 -174.83,390.625 -390.626,390.625c-168.541,0 -312,-106.513 -366.666,-256.079c53.296,164.116 207.221,275.954 379.775,275.954c218.367,-0 398.312,-179.113 399.304,-397.483c-0.262,-173.038 -112.954,-327.117 -277.779,-379.771l-0.088,-0.088Z" style="fill-opacity:0.2;fill-rule:nonzero;"/><circle cx="416.667" cy="416.667" r="399.304" style="fill:#3f3b7d;"/><path d="M694.967,130.746c64.441,70.904 103.629,165.175 103.629,268.558c-0,220.542 -178.771,399.309 -399.308,399.309c-103.367,-0 -197.638,-39.167 -268.559,-103.63c72.534,74.496 173.784,120.988 285.921,120.988c220.538,-0 399.304,-178.783 399.304,-399.304c0,-112.188 -46.475,-213.388 -120.987,-285.921Z" style="fill-opacity:0.1;fill-rule:nonzero;"/><path d="M429.763,219.396c23.937,-0 47.87,2.392 76.595,9.575c4.788,-11.971 11.967,-23.938 19.15,-33.513c47.871,11.971 95.742,35.905 119.679,47.875c47.871,71.805 95.742,167.55 95.742,335.1c-23.933,47.871 -119.679,95.746 -167.55,95.746c-7.183,-9.575 -19.15,-33.512 -23.937,-47.875c14.362,-4.787 38.3,-16.754 47.871,-23.933l-23.934,-23.938c-35.904,11.967 -83.775,23.938 -143.616,23.938c-59.838,-0 -107.713,-11.971 -143.613,-23.938l-23.937,23.938c9.575,7.179 33.508,19.146 47.87,23.933c-4.787,14.363 -16.754,38.3 -23.933,47.875c-47.875,0 -143.617,-47.875 -167.554,-95.746c-0,-167.55 47.875,-263.295 95.746,-335.1c23.933,-11.97 71.808,-35.904 119.679,-47.875c7.179,9.575 14.362,21.542 19.146,33.513c28.725,-7.183 52.662,-9.575 76.596,-9.575Zm107.712,287.229c32.817,0 59.837,-27.021 59.837,-59.837c0,-32.817 -27.02,-59.842 -59.837,-59.842c-32.817,-0 -59.842,27.025 -59.842,59.841c0,32.817 27.025,59.838 59.842,59.838Zm-215.425,0c32.817,0 59.842,-27.021 59.842,-59.838c-0,-32.816 -27.025,-59.841 -59.842,-59.841c-32.813,-0 -59.837,27.025 -59.837,59.841c-0,32.817 27.024,59.838 59.837,59.838Z" style="fill-opacity:0.34;fill-rule:nonzero;"/><path d="M416.667,208.858c23.383,0 46.77,2.338 74.829,9.35c4.679,-11.691 11.692,-23.383 18.708,-32.737c46.771,11.691 93.538,35.079 116.925,46.771c46.767,70.154 93.538,163.691 93.538,327.383c-23.388,46.771 -116.925,93.538 -163.692,93.538c-7.017,-9.355 -18.708,-32.738 -23.387,-46.767c14.033,-4.679 37.416,-16.371 46.77,-23.388l-23.383,-23.383c-35.079,11.692 -81.846,23.383 -140.308,23.383c-58.463,0 -105.229,-11.691 -140.309,-23.383l-23.383,23.383c9.354,7.017 32.738,18.709 46.771,23.388c-4.679,14.029 -16.371,37.412 -23.388,46.767c-46.766,-0 -140.304,-46.767 -163.691,-93.538c-0,-163.692 46.771,-257.229 93.537,-327.383c23.388,-11.692 70.154,-35.079 116.925,-46.771c7.017,9.354 14.029,21.046 18.709,32.737c28.058,-7.012 51.445,-9.35 74.829,-9.35Zm105.229,280.613c32.062,-0 58.462,-26.4 58.462,-58.463c0,-32.058 -26.4,-58.458 -58.462,-58.458c-32.058,0 -58.458,26.4 -58.458,58.458c-0,32.063 26.399,58.463 58.458,58.463Zm-210.458,-0c32.058,-0 58.458,-26.4 58.458,-58.463c-0,-32.058 -26.4,-58.458 -58.458,-58.458c-32.063,0 -58.463,26.4 -58.463,58.458c0,32.063 26.4,58.463 58.463,58.463Z" style="fill:#7dbde8;fill-rule:nonzero;"/></svg>