<?xml version="1.0" encoding="UTF-8" standalone="no"?><!DOCTYPE svg PUBLIC "-//W3C//DTD SVG 1.1//EN" "http://www.w3.org/Graphics/SVG/1.1/DTD/svg11.dtd"><svg width="100%" height="100%" viewBox="0 0 200 200" version="1.1" xmlns="http://www.w3.org/2000/svg" xmlns:xlink="http://www.w3.org/1999/xlink" xml:space="preserve" xmlns:serif="http://www.serif.com/" style="fill-rule:evenodd;clip-rule:evenodd;stroke-linejoin:round;stroke-miterlimit:2;"><path d="M151.25,20.833c24.417,16.917 40.375,45 40.375,77.084c0,51.666 -42.083,93.75 -93.75,93.75c-31.958,-0 -60,-15.959 -77.083,-40.375c4.333,7.583 9.625,14.583 15.75,20.708c17,15.458 39.625,24.875 64.583,24.875c52.917,0 95.833,-42.917 95.833,-95.833c0,-24.792 -9.416,-47.5 -24.875,-64.584c-6.125,-6.166 -13.125,-11.416 -20.708,-15.75l-0.125,0.125Zm20.708,15.75c16.042,17.125 25.917,40.167 25.917,65.417c0,52.917 -42.917,95.833 -95.833,95.833c-25.334,0 -48.334,-9.833 -65.417,-25.916c17.333,17.25 41.167,28 67.5,28c52.917,-0 95.833,-42.917 95.833,-95.834c0,-26.416 -10.75,-50.416 -28,-67.5Z" style="fill-opacity:0.05;fill-rule:nonzero;"/><path d="M172.083,36.583c15.459,17 24.875,39.625 24.875,64.584c0,52.916 -42.916,95.833 -95.833,95.833c-24.792,0 -47.5,-9.417 -64.583,-24.875c17.125,16.042 40.166,25.917 65.416,25.917c52.917,-0 95.834,-42.917 95.834,-95.834c-0,-25.333 -9.834,-48.333 -25.917,-65.416l0.208,-0.209Z" style="fill-opacity:0.1;fill-rule:nonzero;"/><path d="M130,9.917c35.917,13.125 61.667,47.5 61.667,87.916c-0,51.667 -42.084,93.75 -93.75,93.75c-40.459,0 -75,-25.583 -87.917,-61.666c12.691,39.548 49.715,66.551 91.25,66.551c52.529,-0 95.77,-43.189 95.833,-95.718c-0.016,-41.566 -27.072,-78.6 -66.666,-91.25l-0.417,0.417Z" style="fill-opacity:0.2;fill-rule:nonzero;"/><circle cx="100" cy="100" r="95.833" style="fill:#3f3b7d;"/><path d="M166.667,31.375c15.458,17 24.875,39.625 24.875,64.583c-0,52.917 -42.917,95.834 -95.834,95.834c-24.791,-0 -47.5,-9.417 -64.583,-24.875c17.417,17.875 41.667,29.041 68.75,29.041c52.917,0 95.833,-42.916 95.833,-95.833c0,-26.917 -11.166,-51.25 -29.041,-68.75Z" style="fill-opacity:0.1;fill-rule:nonzero;"/><path d="M94.965,61.876l-66.347,66.347c-4.318,4.318 -4.318,11.335 -0,15.647c4.318,4.318 11.334,4.318 15.647,0l38.094,-38.094c-1.111,-2.665 -1.691,-5.518 -1.708,-8.404c-0,-12.219 9.897,-22.116 22.116,-22.116c12.219,-0 22.116,9.897 22.116,22.116l-1.709,8.404l38.095,38.094c4.318,4.318 11.334,4.318 15.647,0c4.318,-4.318 4.318,-11.334 -0,-15.647l-66.348,-66.347l-15.603,-0Zm7.796,24.383l-11.058,11.057c0,6.082 4.949,11.058 11.058,11.058c6.11,0 11.058,-4.948 11.058,-11.058c0,-6.109 -4.948,-11.057 -11.058,-11.057Zm-33.174,44.231l14.32,14.32l11.058,-11.058c4.319,-4.318 11.335,-4.318 15.647,0l11.058,11.058l14.32,-14.32l-17.582,-17.582l-48.821,17.582Z" style="fill-opacity:0.1;fill-rule:nonzero;"/><path d="M95.518,53.029c-2.303,0.367 -4.432,1.453 -6.082,3.102l-66.347,66.348c-2.076,2.073 -3.243,4.889 -3.243,7.823c-0,2.934 1.167,5.75 3.243,7.824c2.073,2.075 4.89,3.243 7.823,3.243c2.934,-0 5.751,-1.168 7.824,-3.243l38.094,-38.095c-1.112,-2.663 -1.692,-5.518 -1.708,-8.404c-0,-12.132 9.983,-22.116 22.116,-22.116c12.132,0 22.116,9.984 22.116,22.116c-0.016,2.886 -0.596,5.741 -1.709,8.404l38.095,38.095c2.073,2.075 4.889,3.243 7.823,3.243c2.934,-0 5.75,-1.168 7.824,-3.243c2.075,-2.074 3.243,-4.89 3.243,-7.824c-0,-2.934 -1.168,-5.75 -3.243,-7.823l-66.348,-66.348c-2.505,-2.505 -6.067,-3.66 -9.565,-3.102l0.044,0Zm1.725,27.479c-6.066,0 -11.058,4.992 -11.058,11.058c0,6.067 4.992,11.058 11.058,11.058c6.067,0 11.058,-4.991 11.058,-11.058c0,-6.066 -4.991,-11.058 -11.058,-11.058Zm-15.591,26.65l-17.582,17.582l14.32,14.32l11.057,-11.058c4.319,-4.318 11.335,-4.318 15.647,0l11.058,11.058l14.32,-14.32l-17.582,-17.582c-4.127,4.152 -9.738,6.499 -15.591,6.524c-5.854,-0.025 -11.465,-2.372 -15.592,-6.524l-0.055,-0Z" style="fill:#7dbde8;fill-rule:nonzero;"/></svg>