<?xml version="1.0" encoding="UTF-8" standalone="no"?><!DOCTYPE svg PUBLIC "-//W3C//DTD SVG 1.1//EN" "http://www.w3.org/Graphics/SVG/1.1/DTD/svg11.dtd"><svg width="100%" height="100%" viewBox="0 0 834 834" version="1.1" xmlns="http://www.w3.org/2000/svg" xmlns:xlink="http://www.w3.org/1999/xlink" xml:space="preserve" xmlns:serif="http://www.serif.com/" style="fill-rule:evenodd;clip-rule:evenodd;stroke-linejoin:round;stroke-miterlimit:2;"><path d="M630.208,86.804c101.738,70.488 168.23,187.5 168.23,321.184c-0,215.274 -175.346,390.625 -390.625,390.625c-133.159,-0 -250,-66.496 -321.18,-168.23c18.055,31.596 40.105,60.763 65.625,86.284c70.834,64.408 165.105,103.646 269.096,103.646c220.488,-0 399.304,-178.821 399.304,-399.305c0,-103.3 -39.233,-197.916 -103.645,-269.1c-25.521,-25.691 -54.688,-47.566 -86.284,-65.625l-0.521,0.521Zm86.284,65.625c66.841,71.354 107.987,167.363 107.987,272.571c0,220.488 -178.821,399.304 -399.304,399.304c-105.558,0 -201.392,-40.971 -272.571,-107.983c72.221,71.875 171.529,116.666 281.25,116.666c220.488,0 399.304,-178.82 399.304,-399.308c0,-110.067 -44.791,-210.067 -116.666,-281.25Z" style="fill-opacity:0.05;fill-rule:nonzero;"/><path d="M717.013,152.429c64.412,70.834 103.645,165.104 103.645,269.1c0,220.484 -178.816,399.304 -399.304,399.304c-103.3,0 -197.916,-39.237 -269.096,-103.646c71.355,66.842 167.359,107.988 272.567,107.988c220.488,-0 399.308,-178.821 399.308,-399.308c0,-105.555 -40.975,-201.388 -107.987,-272.567l0.866,-0.871Z" style="fill-opacity:0.1;fill-rule:nonzero;"/><path d="M541.667,41.321c149.654,54.687 256.946,197.917 256.946,366.317c-0,215.279 -175.351,390.625 -390.626,390.625c-168.579,-0 -312.5,-106.596 -366.32,-256.942c52.879,164.783 207.146,277.296 380.208,277.296c218.871,-0 399.042,-179.954 399.304,-398.825c-0.067,-173.192 -112.8,-327.5 -277.775,-380.209l-1.737,1.738Z" style="fill-opacity:0.2;fill-rule:nonzero;"/><circle cx="416.667" cy="416.667" r="399.304" style="fill:#3f3b7d;"/><path d="M694.446,130.729c64.408,70.834 103.646,165.104 103.646,269.096c-0,220.487 -178.821,399.308 -399.309,399.308c-103.295,0 -197.916,-39.237 -269.095,-103.645c72.57,74.479 173.612,121.004 286.458,121.004c220.487,-0 399.304,-178.817 399.304,-399.305c0,-112.154 -46.525,-213.541 -121.004,-286.458Z" style="fill-opacity:0.1;fill-rule:nonzero;"/><path d="M202.239,385.84l0,277.78l121.529,-121.53l104.167,104.167l104.167,-104.167l121.525,121.53l-0,-260.417l-17.359,-17.363l-434.029,0Z" style="fill-opacity:0.1;fill-rule:nonzero;"/><path d="M292.432,188.905l-62.117,207.054l62.117,103.532l124.235,124.235l41.41,-186.352l-41.41,-124.235l-124.235,-124.234Zm248.469,-0l-41.41,207.054l41.41,103.532l144.942,144.938l0,-310.587l-144.942,-144.937Z" style="fill:#565e6c;fill-rule:nonzero;"/><path d="M292.432,188.905l-144.942,144.937l-0,310.587l144.942,-144.938l-0,-310.586Zm248.469,-0l-124.234,124.234l-0,310.587l124.234,-124.235l0,-310.586Z" style="fill:#e46262;fill-rule:nonzero;"/></svg>