<?xml version="1.0" encoding="UTF-8" standalone="no"?><!DOCTYPE svg PUBLIC "-//W3C//DTD SVG 1.1//EN" "http://www.w3.org/Graphics/SVG/1.1/DTD/svg11.dtd"><svg width="100%" height="100%" viewBox="0 0 834 834" version="1.1" xmlns="http://www.w3.org/2000/svg" xmlns:xlink="http://www.w3.org/1999/xlink" xml:space="preserve" xmlns:serif="http://www.serif.com/" style="fill-rule:evenodd;clip-rule:evenodd;stroke-linejoin:round;stroke-miterlimit:2;"><path d="M630.383,86.804c101.717,70.521 168.192,188.042 168.192,321.184c0,215.729 -174.825,390.625 -390.625,390.625c-133.142,-0 -250.658,-66.459 -321.179,-168.196c18.004,31.633 40.033,60.746 65.642,86.266c70.92,64.446 165.175,103.63 268.558,103.63c220.542,-0 399.308,-178.784 399.308,-399.305c0,-103.37 -39.166,-197.641 -103.629,-268.562c-25.504,-25.604 -54.637,-47.638 -86.267,-65.642Zm86.267,65.642c66.908,71.408 107.967,167.312 107.967,272.9c-0,220.537 -178.767,399.308 -399.304,399.308c-105.571,0 -201.492,-41.041 -272.9,-107.971c72.225,71.946 171.579,116.65 281.579,116.65c220.541,0 399.308,-178.783 399.308,-399.304c0,-109.983 -44.708,-209.375 -116.65,-281.583Z" style="fill-opacity:0.05;fill-rule:nonzero;"/><path d="M716.667,152.45c64.446,70.917 103.629,165.171 103.629,268.558c-0,220.538 -178.767,399.305 -399.304,399.305c-103.371,-0 -197.642,-39.167 -268.563,-103.63c71.409,66.913 167.313,107.971 272.9,107.971c220.538,0 399.309,-178.787 399.309,-399.308c-0,-105.571 -41.042,-201.492 -107.971,-272.896Z" style="fill-opacity:0.1;fill-rule:nonzero;"/><path d="M542.533,41.233c149.567,54.759 256.08,198.213 256.08,366.842c-0,215.729 -174.83,390.625 -390.626,390.625c-168.541,0 -312,-106.513 -366.666,-256.079c53.3,164.116 207.225,275.962 379.775,275.962c218.371,0 398.312,-179.125 399.304,-397.487c-0.254,-173.034 -112.954,-327.113 -277.779,-379.775l-0.088,-0.088Z" style="fill-opacity:0.2;fill-rule:nonzero;"/><path d="M416.667,17.363c220.537,-0 399.304,178.766 399.304,399.304c-0,220.537 -178.767,399.304 -399.304,399.304c-220.538,-0 -399.304,-178.767 -399.304,-399.304c-0,-220.538 178.766,-399.304 399.304,-399.304Z" style="fill:#3f3b7d;fill-rule:nonzero;"/><path d="M694.967,130.746c64.441,70.904 103.629,165.175 103.629,268.558c-0,220.542 -178.771,399.309 -399.308,399.309c-103.367,-0 -197.638,-39.167 -268.559,-103.63c72.534,74.496 173.784,120.988 285.921,120.988c220.538,-0 399.304,-178.783 399.304,-399.304c0,-112.188 -46.475,-213.388 -120.987,-285.921Z" style="fill-opacity:0.1;fill-rule:nonzero;"/><path d="M225.696,578.471c-0,29.112 0.212,29.162 30.958,29.162l354.946,0c30.85,0 30.754,0.005 30.754,-29.162l0,-253.625l-34.721,-22.313l0,-76.837l-121.529,-0l-260.408,352.775Z" style="fill-opacity:0.1;fill-rule:nonzero;"/><path d="M416.667,173.613l-208.334,133.866l0,5.088l208.334,173.546l208.333,-173.613l0,-5.021l-208.333,-133.867Z" style="fill:#7dbde8;fill-rule:nonzero;"/><rect x="243.054" y="208.333" width="347.221" height="347.221" style="fill:#f9f9f9;"/><path d="M625,312.5l0,248.613l-399.304,-14.242l399.304,-234.371Z" style="fill:#7bb1d6;fill-rule:nonzero;"/><path d="M208.333,312.5l416.667,248.613c0,29.108 -0.212,29.158 -30.958,29.158l-354.95,-0c-30.85,-0 -30.755,0.008 -30.755,-29.159l-0.004,-248.612Z" style="fill:#7dbde8;fill-rule:nonzero;"/></svg>