<?xml version="1.0" encoding="UTF-8" standalone="no"?>
<!DOCTYPE svg PUBLIC "-//W3C//DTD SVG 1.1//EN" "http://www.w3.org/Graphics/SVG/1.1/DTD/svg11.dtd">
<svg width="100%" height="100%" viewBox="0 0 48 48" version="1.1" xmlns="http://www.w3.org/2000/svg" xmlns:xlink="http://www.w3.org/1999/xlink" xml:space="preserve" xmlns:serif="http://www.serif.com/" style="fill-rule:evenodd;clip-rule:evenodd;stroke-linejoin:round;stroke-miterlimit:2;">
    <path d="M36.3,5C42.16,9.06 45.99,15.8 45.99,23.5C45.99,35.9 35.89,46 23.49,46C15.82,46 9.09,42.17 4.99,36.31C6.03,38.13 7.3,39.81 8.77,41.28C12.85,44.99 18.28,47.25 24.27,47.25C36.97,47.25 47.27,36.95 47.27,24.25C47.27,18.3 45.01,12.85 41.3,8.75C39.83,7.27 38.15,6.01 36.33,4.97L36.3,5ZM41.27,8.78C45.12,12.89 47.49,18.42 47.49,24.48C47.49,37.18 37.19,47.48 24.49,47.48C18.41,47.48 12.89,45.12 8.79,41.26C12.95,45.4 18.67,47.98 24.99,47.98C37.69,47.98 47.99,37.68 47.99,24.98C47.99,18.64 45.41,12.88 41.27,8.78Z" style="fill-opacity:0.05;fill-rule:nonzero;"/>
    <path d="M41.3,8.78C45.01,12.86 47.27,18.29 47.27,24.28C47.27,36.98 36.97,47.28 24.27,47.28C18.32,47.28 12.87,45.02 8.77,41.31C12.88,45.16 18.41,47.53 24.47,47.53C37.17,47.53 47.47,37.23 47.47,24.53C47.47,18.45 45.11,12.93 41.25,8.83L41.3,8.78Z" style="fill-opacity:0.1;fill-rule:nonzero;"/>
    <path d="M31.2,2.38C39.82,5.53 46,13.78 46,23.48C46,35.88 35.9,45.98 23.5,45.98C13.79,45.98 5.5,39.84 2.4,31.18C5.446,40.672 14.332,47.152 24.3,47.152C36.907,47.152 47.285,36.787 47.3,24.18C47.296,14.204 40.803,5.316 31.3,2.28L31.2,2.38Z" style="fill-opacity:0.2;fill-rule:nonzero;"/>
    <path d="M24,1C36.7,1 47,11.3 47,24C47,36.7 36.7,47 24,47C11.3,47 1,36.7 1,24C1,11.3 11.3,1 24,1Z" style="fill:rgb(63,59,125);fill-rule:nonzero;"/>
    <path d="M40,7.53C43.71,11.61 45.97,17.04 45.97,23.03C45.97,35.73 35.67,46.03 22.97,46.03C17.02,46.03 11.57,43.77 7.47,40.06C11.65,44.35 17.47,47.03 23.97,47.03C36.67,47.03 46.97,36.73 46.97,24.03C46.97,17.57 44.29,11.73 40,7.53Z" style="fill-opacity:0.1;fill-rule:nonzero;"/>
    <path d="M13,32.5C13,33.88 14.12,35 15.5,35L34.5,35C35.88,35 37,33.88 37,32.5L37,17.5C37,16.12 35.88,15 34.5,15L13,32.5Z" style="fill-opacity:0.1;fill-rule:nonzero;"/>
    <g transform="matrix(1.15944,0,0,1.15944,-3.82653,-3.82653)">
        <path d="M14.5,16C13.12,16 12,17.12 12,18.5L12,28L33,28L32,16L14.5,16Z" style="fill:rgb(85,163,215);fill-rule:nonzero;"/>
    </g>
    <g transform="matrix(1.15944,0,0,1.15944,-3.82653,-3.82653)">
        <path d="M14.5,16C13.12,16 12,17.12 12,18.5L12,19.5C12,18.12 13.12,17 14.5,17L32,17L32,16L14.5,16Z" style="fill:white;fill-opacity:0.2;fill-rule:nonzero;"/>
    </g>
    <g transform="matrix(1.15944,0,0,1.15944,-3.82653,-3.82653)">
        <path d="M27,14C23,14 25,20 19,20L14.5,20C13.12,20 12,21.12 12,22.5L12,31.5C12,32.88 13.12,34 14.5,34L33.5,34C34.88,34 36,32.88 36,31.5L36,16.5C36,15.12 34.88,14 33.5,14L27,14Z" style="fill:rgb(125,189,232);fill-rule:nonzero;"/>
    </g>
    <g transform="matrix(1.15944,0,0,1.15944,-3.82653,-3.82653)">
        <path d="M12,30.5L12,31.5C12,32.88 13.12,34 14.5,34L33.5,34C34.88,34 36,32.88 36,31.5L36,30.5C36,31.88 34.88,33 33.5,33L14.5,33C13.12,33 12,31.88 12,30.5Z" style="fill-opacity:0.15;fill-rule:nonzero;"/>
    </g>
</svg>
