<?xml version="1.0" encoding="UTF-8" standalone="no"?><!DOCTYPE svg PUBLIC "-//W3C//DTD SVG 1.1//EN" "http://www.w3.org/Graphics/SVG/1.1/DTD/svg11.dtd"><svg width="100%" height="100%" viewBox="0 0 200 200" version="1.1" xmlns="http://www.w3.org/2000/svg" xmlns:xlink="http://www.w3.org/1999/xlink" xml:space="preserve" xmlns:serif="http://www.serif.com/" style="fill-rule:evenodd;clip-rule:evenodd;stroke-linejoin:round;stroke-miterlimit:2;"><path d="M151.25,20.833c24.417,16.917 40.375,45 40.375,77.084c0,51.666 -42.083,93.75 -93.75,93.75c-31.958,-0 -60,-15.959 -77.083,-40.375c4.333,7.583 9.625,14.583 15.75,20.708c17,15.458 39.625,24.875 64.583,24.875c52.917,0 95.833,-42.917 95.833,-95.833c0,-24.792 -9.416,-47.5 -24.875,-64.584c-6.125,-6.166 -13.125,-11.416 -20.708,-15.75l-0.125,0.125Zm20.708,15.75c16.042,17.125 25.917,40.167 25.917,65.417c0,52.917 -42.917,95.833 -95.833,95.833c-25.334,0 -48.334,-9.833 -65.417,-25.916c17.333,17.25 41.167,28 67.5,28c52.917,-0 95.833,-42.917 95.833,-95.834c0,-26.416 -10.75,-50.416 -28,-67.5Z" style="fill-opacity:0.05;fill-rule:nonzero;"/><path d="M172.083,36.583c15.459,17 24.875,39.625 24.875,64.584c0,52.916 -42.916,95.833 -95.833,95.833c-24.792,0 -47.5,-9.417 -64.583,-24.875c17.125,16.042 40.166,25.917 65.416,25.917c52.917,-0 95.834,-42.917 95.834,-95.834c-0,-25.333 -9.834,-48.333 -25.917,-65.416l0.208,-0.209Z" style="fill-opacity:0.1;fill-rule:nonzero;"/><path d="M130,9.917c35.917,13.125 61.667,47.5 61.667,87.916c-0,51.667 -42.084,93.75 -93.75,93.75c-40.459,0 -75,-25.583 -87.917,-61.666c12.691,39.548 49.715,66.551 91.25,66.551c52.529,-0 95.77,-43.189 95.833,-95.718c-0.016,-41.566 -27.072,-78.6 -66.666,-91.25l-0.417,0.417Z" style="fill-opacity:0.2;fill-rule:nonzero;"/><path d="M4.167,100c-0,-52.917 42.916,-95.833 95.833,-95.833c52.917,-0 95.833,42.916 95.833,95.833c0,52.917 -42.916,95.833 -95.833,95.833c-52.917,0 -95.833,-42.916 -95.833,-95.833Z" style="fill:#3f3b7d;fill-rule:nonzero;"/><path d="M166.667,31.375c15.458,17 24.875,39.625 24.875,64.583c-0,52.917 -42.917,95.834 -95.834,95.834c-24.791,-0 -47.5,-9.417 -64.583,-24.875c17.417,17.875 41.667,29.041 68.75,29.041c52.917,0 95.833,-42.916 95.833,-95.833c0,-26.917 -11.166,-51.25 -29.041,-68.75Z" style="fill-opacity:0.1;fill-rule:nonzero;"/><path d="M88.071,54.246c-15.634,0 -31.161,2.29 -46.053,6.784c-4.112,1.24 -6.465,5.67 -5.257,9.91c1.219,4.218 5.512,6.624 9.645,5.405c13.461,-4.054 27.504,-6.147 41.654,-6.147c26.232,-0 51.934,7.154 74.192,20.72c1.208,0.758 2.576,1.092 3.89,1.097l0.021,0c2.655,-0.01 5.268,-1.377 6.73,-3.889c2.178,-3.821 0.938,-8.691 -2.761,-10.917c-24.854,-14.998 -53.524,-22.947 -82.141,-22.947m-0.032,32.963c-13.672,-0 -27.133,2.167 -40.064,6.412c-3.661,1.219 -5.67,5.262 -4.515,9.009c1.177,3.784 5.109,5.829 8.744,4.626c11.553,-3.783 23.583,-5.723 35.772,-5.723c21.939,0 43.402,6.306 62.003,18.23c1.155,0.726 2.448,1.076 3.704,1.076c2.311,-0 4.579,-1.177 5.883,-3.344c2.051,-3.376 1.054,-7.79 -2.215,-9.91c-20.774,-13.355 -44.728,-20.403 -69.423,-20.403l0.111,0.027Zm0.011,32.644c-11.712,0 -23.212,2.088 -34.129,6.201c-3.206,1.218 -4.864,4.886 -3.683,8.161c1.182,3.312 4.743,5.013 7.95,3.81c9.539,-3.593 19.607,-5.405 29.835,-5.405c17.753,-0 34.818,5.511 49.391,15.845c1.071,0.763 2.321,1.134 3.519,1.139c1.961,0 3.9,-0.975 5.103,-2.755c1.945,-2.899 1.262,-6.89 -1.574,-8.851c-16.64,-11.87 -36.142,-18.124 -56.704,-18.124l0.292,-0.021Z" style="fill-opacity:0.09;fill-rule:nonzero;"/><path d="M83.743,50.38c-15.585,-0 -31.064,2.282 -45.91,6.762c-4.099,1.236 -6.445,5.653 -5.23,9.879c1.215,4.206 5.494,6.604 9.615,5.389c13.419,-4.041 27.419,-6.128 41.578,-6.128c26.151,-0 51.774,7.185 74.491,20.709c1.21,0.761 2.568,1.094 3.889,1.094l-0.021,-0.01c2.657,-0 5.273,-1.358 6.709,-3.878c2.167,-3.809 0.925,-8.664 -2.763,-10.883c-24.777,-14.951 -53.359,-22.876 -81.887,-22.876l-0.471,-0.058Zm-0.041,32.86c-13.63,0 -27.049,2.161 -39.94,6.393c-3.651,1.215 -5.653,5.246 -4.501,8.981c1.173,3.772 5.093,5.812 8.717,4.612c11.517,-3.772 23.509,-5.705 35.661,-5.705c21.871,-0 43.268,6.286 61.811,18.173c1.152,0.724 2.425,1.073 3.683,1.073l-0,0.01c2.303,0 4.57,-1.178 5.917,-3.344c2.039,-3.365 1.051,-7.766 -2.209,-9.879c-20.709,-13.314 -44.589,-20.34 -69.208,-20.34l0.069,0.026Zm0.01,32.544c-11.675,0 -23.14,2.082 -34.023,6.181c-3.191,1.215 -4.839,4.871 -3.661,8.136c1.178,3.297 4.718,4.988 7.925,3.788c9.509,-3.582 19.547,-5.388 29.743,-5.388c17.699,-0 34.71,5.494 49.239,15.796c1.067,0.766 2.314,1.13 3.508,1.136c1.949,-0.004 3.877,-0.972 5.077,-2.747c1.938,-2.89 1.257,-6.868 -1.569,-8.823c-16.589,-11.834 -36.031,-18.068 -56.529,-18.068l0.29,-0.011Z" style="fill:#7dbde8;fill-rule:nonzero;"/></svg>