<?xml version="1.0" encoding="UTF-8" standalone="no"?>
<!DOCTYPE svg PUBLIC "-//W3C//DTD SVG 1.1//EN" "http://www.w3.org/Graphics/SVG/1.1/DTD/svg11.dtd">
<svg width="100%" height="100%" viewBox="0 0 96 96" version="1.1" xmlns="http://www.w3.org/2000/svg" xmlns:xlink="http://www.w3.org/1999/xlink" xml:space="preserve" xmlns:serif="http://www.serif.com/" style="fill-rule:evenodd;clip-rule:evenodd;stroke-linejoin:round;stroke-miterlimit:2;">
    <g transform="matrix(2,0,0,2,0,0)">
        <g transform="matrix(1.80868,0,0,1.80868,-17.5995,-19.4082)">
            <path d="M25,19L25,28.62L28.68,29.577L32.97,22.837L29.35,22.837L25,18.997" style="fill:rgb(32,240,227);fill-rule:nonzero;"/>
        </g>
        <g transform="matrix(1.80868,0,0,1.80868,-17.5995,-19.4082)">
            <path d="M30,12C26.708,12 24,14.708 24,18C24,21.292 26.708,24 30,24C33.292,24 36,21.292 36,18C36,14.708 33.292,12 30,12ZM30,14C32.194,14 34,15.806 34,18C34,20.194 32.194,22 30,22C27.806,22 26,20.194 26,18C26,15.806 27.806,14 30,14ZM30,16C28.903,16 28,16.903 28,18C28,19.097 28.903,20 30,20C31.097,20 32,19.097 32,18C32,16.903 31.097,16 30,16Z" style="fill:rgb(32,240,227);fill-rule:nonzero;"/>
        </g>
        <g transform="matrix(1.80868,0,0,1.80868,-17.5995,-19.4082)">
            <path d="M14,22C11.806,22 10,23.806 10,26C10,28.194 11.806,30 14,30C16.194,30 18,28.194 18,26C18,23.806 16.194,22 14,22ZM14,23C15.646,23 17,24.354 17,26C17,27.646 15.646,29 14,29C12.354,29 11,27.646 11,26C11,24.354 12.354,23 14,23Z" style="fill:rgb(32,240,227);fill-rule:nonzero;"/>
        </g>
        <g transform="matrix(1.61515,0.813904,-0.828374,1.60791,-17.5995,-19.4082)">
            <path d="M39.8,16.006L39.8,17.794C39.8,18.405 39.305,18.9 38.694,18.9L23.506,18.9C22.895,18.9 22.4,18.405 22.4,17.794L22.4,16.006C22.4,15.395 22.895,14.9 23.506,14.9L38.694,14.9C39.305,14.9 39.8,15.395 39.8,16.006Z" style="fill:rgb(32,240,227);"/>
        </g>
        <g transform="matrix(1.80868,0,0,1.80868,-17.5995,-19.4082)">
            <path d="M26,28C23.806,28 22,29.806 22,32C22,34.194 23.806,36 26,36C28.194,36 30,34.194 30,32C30,29.806 28.194,28 26,28ZM26,29C27.646,29 29,30.354 29,32C29,33.646 27.646,35 26,35C24.354,35 23,33.646 23,32C23,30.354 24.354,29 26,29Z" style="fill:rgb(32,240,227);fill-rule:nonzero;"/>
        </g>
    </g>
</svg>
