<?xml version="1.0" encoding="UTF-8" standalone="no"?>
<svg id="svg2" xmlns:rdf="http://www.w3.org/1999/02/22-rdf-syntax-ns#" xmlns="http://www.w3.org/2000/svg" height="32" width="32" version="1.1" xmlns:cc="http://creativecommons.org/ns#" xmlns:dc="http://purl.org/dc/elements/1.1/">
	<metadata id="metadata7">
		<rdf:RDF>
			<cc:Work rdf:about="">
				<dc:format>image/svg+xml</dc:format>
				<dc:type rdf:resource="http://purl.org/dc/dcmitype/StillImage"/>
				<dc:title/>
				<dc:creator>
					<cc:Agent>
						<dc:title>obnosim</dc:title>
					</cc:Agent>
				</dc:creator>
				<cc:license rdf:resource="http://creativecommons.org/licenses/by-sa/3.0/"/>
			</cc:Work>
			<cc:License rdf:about="http://creativecommons.org/licenses/by-sa/3.0/">
				<cc:permits rdf:resource="http://creativecommons.org/ns#Reproduction"/>
				<cc:permits rdf:resource="http://creativecommons.org/ns#Distribution"/>
				<cc:requires rdf:resource="http://creativecommons.org/ns#Notice"/>
				<cc:requires rdf:resource="http://creativecommons.org/ns#Attribution"/>
				<cc:permits rdf:resource="http://creativecommons.org/ns#DerivativeWorks"/>
				<cc:requires rdf:resource="http://creativecommons.org/ns#ShareAlike"/>
			</cc:License>
		</rdf:RDF>
	</metadata>
	<path style="opacity:.375;fill:#000000" d="m20 17a4 4 0 0 1 -4 4 4 4 0 0 1 -4 -4 4 4 0 0 1 4 -4 4 4 0 0 1 4 4z"/>
	<path style="opacity:.375;fill:#000000" d="m9 17a4 4 0 0 1 -4 4 4 4 0 0 1 -4 -4 4 4 0 0 1 4 -4 4 4 0 0 1 4 4z"/>
	<path style="opacity:.375;fill:#000000" d="m31 17a4 4 0 0 1 -4 4 4 4 0 0 1 -4 -4 4 4 0 0 1 4 -4 4 4 0 0 1 4 4z"/>
	<path style="fill:#0184ff" d="m20 16a4 4 0 0 1 -4 4 4 4 0 0 1 -4 -4 4 4 0 0 1 4 -4 4 4 0 0 1 4 4z"/>
	<path style="fill:#ff2121" d="m9 16a4 4 0 0 1 -4 4 4 4 0 0 1 -4 -4 4 4 0 0 1 4 -4 4 4 0 0 1 4 4z"/>
	<path style="fill:#37ff01" d="m31 16a4 4 0 0 1 -4 4 4 4 0 0 1 -4 -4 4 4 0 0 1 4 -4 4 4 0 0 1 4 4z"/>
</svg>
