<?xml version="1.0" encoding="UTF-8" standalone="no"?>
<svg id="svg2" xmlns:rdf="http://www.w3.org/1999/02/22-rdf-syntax-ns#" xmlns="http://www.w3.org/2000/svg" height="15" width="69.232" version="1.1" xmlns:cc="http://creativecommons.org/ns#" xmlns:dc="http://purl.org/dc/elements/1.1/">
	<defs>
		<style id="current-color-scheme" type="text/css">
			.ColorScheme-Text { color:#0000FF; }
		</style>
	</defs>
	<metadata id="metadata7">
		<rdf:RDF>
			<cc:Work rdf:about="">
				<dc:format>image/svg+xml</dc:format>
				<dc:type rdf:resource="http://purl.org/dc/dcmitype/StillImage"/>
				<dc:title/>
				<dc:creator>
					<cc:Agent>
						<dc:title>obnosim</dc:title>
					</cc:Agent>
				</dc:creator>
				<cc:license rdf:resource="http://creativecommons.org/licenses/by-sa/3.0/"/>
			</cc:Work>
			<cc:License rdf:about="http://creativecommons.org/licenses/by-sa/3.0/">
				<cc:permits rdf:resource="http://creativecommons.org/ns#Reproduction"/>
				<cc:permits rdf:resource="http://creativecommons.org/ns#Distribution"/>
				<cc:requires rdf:resource="http://creativecommons.org/ns#Notice"/>
				<cc:requires rdf:resource="http://creativecommons.org/ns#Attribution"/>
				<cc:permits rdf:resource="http://creativecommons.org/ns#DerivativeWorks"/>
				<cc:requires rdf:resource="http://creativecommons.org/ns#ShareAlike"/>
			</cc:License>
		</rdf:RDF>
	</metadata>
	<g id="brilliant" style="fill:currentColor" transform="translate(-148.12,-580.7)">
		<path class="ColorScheme-Text" style="opacity:.875;fill:currentColor" d="m153.96 595.51-4.2068-12.069c-.0698-.20303-.14594-.37118-.22843-.50444-.0825-.13323-.17766-.23793-.28553-.31408-.10787-.0761-.2316-.13007-.37119-.16181-.1396-.0317-.30457-.0476-.49493-.0476h-.25698v-.81853h5.3585v.81853h-.44734c-.39341.00001-.68846.0762-.88515.22842-.19036.14595-.28554.38072-.28554.70432 0 .10788.0127.21892.0381.33312.0317.11422.073.2443.12373.39023l2.1415 6.3293c.1967.57742.36485 1.139.50445 1.6846.13958.53934.26331 1.0438.37119 1.5133.10151-.46954.22207-.96764.36167-1.4943.13959-.52664.31726-1.0945.533-1.7037l2.151-6.1961c.0508-.15862.092-.31091.12374-.45686.0317-.14592.0476-.27283.0476-.38071-.00001-.33628-.10787-.5774-.3236-.72335-.2094-.15227-.52983-.22841-.96129-.22842h-.44734v-.81853h4.7494v.81853h-.3712c-.19036.000010-.35534.019-.49492.0571-.13326.0381-.25699.11423-.37119.22843-.10788.10788-.20941.26016-.30457.45685-.0952.19671-.19671.45369-.30457.77094l-4.0355 11.583h-1.4277"/>
		<path class="ColorScheme-Text" style="opacity:.875;fill:currentColor" d="m165.47 585.92c-.72335.00001-1.2817.29506-1.6751.88516-.38706.58376-.61548 1.4404-.68528 2.5698h4.4829c0-.51395-.0381-.98349-.11421-1.4086-.0761-.42512-.19671-.78996-.36168-1.0945-.16498-.30456-.38389-.53933-.65672-.70431-.2665-.16497-.59645-.24746-.98985-.24747m.23795 9.7843c-.70432 0-1.3388-.11739-1.9036-.35216-.55838-.24112-1.0311-.5901-1.4182-1.047-.38705-.45686-.68528-1.0152-.89467-1.6751-.20304-.66624-.30457-1.4213-.30456-2.2652-.00001-1.8211.37436-3.1916 1.1231-4.1117.74873-.92005 1.8147-1.3801 3.198-1.3801.62817.000010 1.1929.0984 1.6942.29505.50127.19671.92639.49176 1.2754.88515.34897.38707.61547.87247.79949 1.4562.19034.57742.28552 1.25.28553 2.0178v.89467h-6.4911c.0127.71066.0825 1.323.20939 1.8369.13325.50761.32043.92639.56155 1.2563.24746.32995.54886.57424.90419.73287.35533.15228.76459.22843 1.2278.22843.33629 0 .6472-.0381.93274-.11422.29187-.0761.5552-.17766.78998-.30457.23476-.1269.44098-.26966.61865-.4283.184-.16497.33312-.33629.44734-.51395.0888.0381.17131.11738.24746.23794.0825.12056.12372.26333.12373.4283-.00001.1967-.0698.40926-.20939.63769-.1396.22208-.35217.4283-.63769.61865-.28554.19036-.64404.34899-1.0755.47589-.42513.12691-.9264.19036-1.5038.19036"/>
		<path class="ColorScheme-Text" style="opacity:.875;fill:currentColor" d="m171.04 594.69c.22208.000010.4283-.0159.61866-.0476.1967-.0317.36484-.0952.50444-.19036.14594-.10152.26015-.24429.34264-.4283.0888-.18401.13325-.4283.13325-.73287v-10.451c0-.28552-.0444-.51394-.13325-.68527-.0825-.17766-.1967-.31408-.34264-.40927-.14594-.0952-.31726-.15544-.51396-.18084-.19036-.0317-.3934-.0476-.60914-.0476h-.24746v-.81853h3.6834v12.592c-.00001.30457.0412.54886.12373.73287.0825.18401.19669.32678.34264.4283.14593.0952.31408.15863.50444.19036.19669.0317.40608.0476.62817.0476h.24746v.81853h-5.5298v-.81853h.24746"/>
		<path class="ColorScheme-Text" style="opacity:.875;fill:currentColor" d="m186.77 590.26c-.00001 1.8338-.39024 3.198-1.1707 4.0926-.77412.89467-1.9099 1.342-3.4074 1.342-.70432 0-1.3357-.11104-1.894-.33312-.55838-.22209-1.0343-.55838-1.4277-1.0089-.38706-.4505-.68528-1.0152-.89467-1.6942-.20305-.68528-.30457-1.4848-.30457-2.3985 0-1.8211.38388-3.1758 1.1516-4.0641.77411-.88832 1.9162-1.3325 3.4264-1.3325.70431.000010 1.3357.11105 1.894.33312.55837.21575 1.0311.54887 1.4182.99937.39339.44417.69161 1.0057.89467 1.6846.20938.6726.31407 1.4657.31408 2.3794m-7.2145 0c-.00001.72336.0476 1.361.14276 1.9131.0952.55204.24746 1.0152.45685 1.3896.21574.36802.49175.64721.82805.83756.34264.19036.75824.28554 1.2468.28553.48857.000010.90101-.0952 1.2373-.28553.33628-.19035.60913-.46954.81853-.83756.20938-.37437.35849-.83756.44733-1.3896.0952-.55202.14276-1.1897.14277-1.9131-.00001-.72334-.0476-1.3579-.14277-1.9036-.0952-.54568-.24747-.99936-.45685-1.361-.2094-.36801-.48542-.64403-.82805-.82805-.3363-.184-.74874-.276-1.2373-.27601-.48858.000010-.90102.092-1.2373.27601-.3363.18402-.60914.46004-.81853.82805-.20939.36168-.36167.81536-.45685 1.361-.0952.54569-.14277 1.1802-.14276 1.9036"/>
		<path class="ColorScheme-Text" style="opacity:.875;fill:currentColor" d="m198.13 593.39c-.00001.28554.0412.51713.12373.6948.0888.17132.2062.30139.35215.39023.14593.0888.31408.14911.50445.18083.19668.0254.4029.0381.61865.0381h.0571v.81853h-3.0933l-.25698-1.58h-.0952c-.19671.36802-.41562.66625-.65673.89467-.23478.22843-.48541.40927-.7519.54252-.26651.1269-.5457.21256-.83757.25698-.29188.0508-.59645.0761-.9137.0761-.51397 0-.97082-.073-1.3706-.21891-.39975-.14594-.73605-.37437-1.0089-.68528s-.48224-.70749-.62818-1.1897c-.13959-.48223-.20939-1.0565-.20939-1.7227v-4.6732c0-.28552-.0444-.51395-.13325-.68528-.0825-.17766-.1967-.31408-.34264-.40926-.14594-.0952-.31726-.15862-.51396-.19036-.19035-.0317-.3934-.0476-.60913-.0476h-.0571v-.81853h3.493v6.7291c0 .42513.0317.80266.0952 1.1326.0698.32995.18083.60914.33312.83756.15863.22843.36802.40292.62817.52348.2665.11421.59644.17132.98985.17132.43147 0 .79949-.0761 1.1041-.22843.31091-.15228.56471-.36484.76142-.63769.20304-.27918.35215-.6123.44734-.99936.0952-.38705.14276-.81535.14276-1.2849v-4.0165c0-.30456-.0444-.54885-.13324-.73287-.0825-.19034-.19671-.33311-.34264-.4283-.13961-.10151-.30775-.16813-.50445-.19987-.19036-.0317-.39658-.0476-.61865-.0476h-.0571v-.81853h3.4835v8.328"/>
		<path class="ColorScheme-Text" style="opacity:.875;fill:currentColor" d="m206.51 595.51h-5.625v-.81853h.0571c.22208.000010.4283-.0159.61865-.0476.1967-.0317.36485-.0952.50444-.19036.14594-.10152.26015-.24429.34264-.4283.0888-.18401.13325-.4283.13325-.73287v-6.0818c0-.28552-.0444-.51395-.13325-.68528-.0825-.17766-.1967-.31408-.34264-.40926-.14594-.0952-.31726-.15862-.51396-.19036-.19035-.0317-.3934-.0476-.60913-.0476h-.0571v-.81853h2.9981l.37119 1.9321h.0952c.1269-.29187.25697-.56471.39023-.81853.13324-.26014.29504-.48539.4854-.67576.1967-.19669.43781-.34897.72335-.45685.28553-.1142.64403-.17131 1.0755-.17132.71065.000010 1.2373.12374 1.58.37119.34897.24747.52347.59646.52348 1.047-.00001.20305-.0349.39023-.1047.56154-.0635.17133-.16816.32044-.31409.44734-.14594.12057-.33313.21574-.56154.28553-.22844.0635-.50763.0952-.83757.0952 0-.53933-.0762-.92639-.22842-1.1612-.15229-.2411-.41879-.36166-.7995-.36167-.24112.000010-.45685.0698-.6472.20939-.19036.13326-.35851.31409-.50445.54251-.13959.22209-.26015.47907-.36167.77094-.0952.29189-.1745.59328-.23795.90419-.0571.30457-.0984.60914-.12373.9137-.0254.30458-.0381.58059-.0381.82805v3.0647c0 .28554.0412.51713.12373.6948.0888.17132.20622.30139.35216.39023.14594.0888.31408.14911.50444.18083.1967.0254.40292.0381.61866.0381h.54251v.81853"/>
		<path class="ColorScheme-Text" style="opacity:.875;fill:currentColor" d="m213.5 595.7c-.48859 0-.93275-.0444-1.3325-.13325-.3934-.0825-.7297-.20939-1.0089-.38071-.27919-.17767-.49493-.3934-.64721-.64721-.15229-.26015-.22843-.56155-.22843-.90419 0-.26015.0412-.47588.12373-.64721.0888-.17766.19353-.31725.31409-.41878.1269-.10152.26015-.17131.39975-.20939.14593-.0444.27601-.0666.39022-.0666 0 .34264.0349.66307.1047.96129.0698.29823.18718.56155.35216.78998.16497.22208.3807.39974.6472.53299.27284.12691.60597.19036.99937.19036.34898 0 .65672-.0412.92322-.12373.2665-.0888.48858-.20939.66625-.36168.184-.15863.32359-.34581.41878-.56155.0952-.22208.14276-.46319.14277-.72335-.00001-.24111-.0381-.44733-.11422-.61865-.0698-.17766-.1967-.34264-.38071-.49493-.17767-.15228-.42196-.30773-.73287-.46637-.31092-.15862-.70114-.33946-1.1707-.54251-.50127-.22208-.93909-.43464-1.3134-.63769-.36803-.20939-.67259-.43464-.91371-.67576-.24112-.24111-.42196-.51395-.54251-.81853-.12056-.31091-.18084-.67893-.18084-1.1041 0-.44415.0857-.83756.25698-1.1802.17766-.34263.4283-.62817.7519-.8566.32361-.23476.71066-.41243 1.1612-.533.45051-.12055.95177-.18082 1.5038-.18084.46319.00002.87245.0476 1.2278.14277.35532.0952.65355.22527.89467.39023.24111.15864.42195.34899.54251.57107.12055.21574.18083.44417.18084.68527-.000010.35534-.12374.64088-.37119.8566-.24113.2094-.58694.3141-1.0374.31409-.00001-.65354-.13643-1.1612-.40926-1.5228-.26651-.36167-.68846-.54251-1.2659-.54252-.32995.000010-.61231.0381-.84708.11422-.23477.0761-.4283.18402-.58058.3236-.14594.13961-.25381.30458-.32361.49493-.0698.19036-.10469.39975-.10469.62817 0 .24747.0444.4632.13325.64721.0888.17767.22842.34264.41878.49492.1967.15229.44733.3014.7519.44734.31091.1396.68211.29823 1.1136.47588.51396.21575.95495.42831 1.323.63769.36802.2094.66941.43783.90419.68528.24111.24747.41877.52666.53299.83757.11421.31091.17132.66942.17132 1.0755 0 .50762-.092.95178-.27601 1.3325-.18402.38071-.44417.70114-.78046.9613-.3363.2538-.74239.44416-1.2183.57106-.46955.12691-.99303.19036-1.5704.19036"/>
	</g>
</svg>
