<?xml version="1.0" encoding="UTF-8" standalone="no"?>
<svg xmlns:rdf="http://www.w3.org/1999/02/22-rdf-syntax-ns#" xmlns="http://www.w3.org/2000/svg" height="22" width="22" version="1.0" xmlns:cc="http://creativecommons.org/ns#" xmlns:xlink="http://www.w3.org/1999/xlink" xmlns:dc="http://purl.org/dc/elements/1.1/">
	<defs>
		<style id="current-color-scheme" type="text/css">
			.ColorScheme-Text {	color:#0000FF; }
			.ColorScheme-Highlight { color:#FF00FF; }
		</style>
	</defs>
	<metadata>
		<rdf:RDF>
			<cc:Work rdf:about="">
				<dc:format>image/svg+xml</dc:format>
				<dc:type rdf:resource="http://purl.org/dc/dcmitype/StillImage"/>
				<dc:title/>
				<dc:creator>
					<cc:Agent>
						<dc:title>obnosim</dc:title>
					</cc:Agent>
				</dc:creator>
				<cc:license rdf:resource="http://creativecommons.org/licenses/by-sa/3.0/"/>
			</cc:Work>
			<cc:License rdf:about="http://creativecommons.org/licenses/by-sa/3.0/">
				<cc:permits rdf:resource="http://creativecommons.org/ns#Reproduction"/>
				<cc:permits rdf:resource="http://creativecommons.org/ns#Distribution"/>
				<cc:requires rdf:resource="http://creativecommons.org/ns#Notice"/>
				<cc:requires rdf:resource="http://creativecommons.org/ns#Attribution"/>
				<cc:permits rdf:resource="http://creativecommons.org/ns#DerivativeWorks"/>
				<cc:requires rdf:resource="http://creativecommons.org/ns#ShareAlike"/>
			</cc:License>
		</rdf:RDF>
	</metadata>
	<rect id="hint-rotation-angle" style="fill:#60a500" height="5" width="11.25" y="-3.4229" x="148.06"/>
	<g id="pause" transform="translate(92,77)">
		<rect style="opacity:.25;fill:none" height="22" width="22" y="-77" x="-33"/>
		<path style="opacity:.875;fill:currentColor" d="m-20-74h6v16h-6zm-10 0h6v16h-6z" class="ColorScheme-Text"/>
	</g>
	<g id="busywidget" transform="translate(36)">
		<rect style="fill:none" height="22" width="22" y="0" x="-36"/>
		<path class="ColorScheme-Text" d="m-25 1a10 10 0 0 0 -10 10 10 10 0 0 0 10 10 10 10 0 0 0 10 -10 10 10 0 0 0 -10 -10zm0 2a8 8 0 0 1 8 8 8 8 0 0 1 -8 8 8 8 0 0 1 -8 -8 8 8 0 0 1 8 -8z" style="opacity:0.187;fill-rule:evenodd;fill:currentColor"/>
		<path class="ColorScheme-Highlight" d="m-31.364 4.636c3.5147-3.5147 9.2132-3.5147 12.728-2e-7" style="opacity:.875;stroke:currentColor;stroke-linecap:round;stroke-width:2;fill:none"/>
	</g>
	<g id="32-32-busywidget" transform="translate(36)">
		<rect style="fill:none" height="32" width="32" y="-34" x="-36"/>
		<path class="ColorScheme-Text" style="opacity:0.187;fill-rule:evenodd;fill:currentColor" d="m-20-32a14 14 0 0 0 -14 14 14 14 0 0 0 14 14 14 14 0 0 0 14 -14 14 14 0 0 0 -14 -14zm0 2a12 12 0 0 1 12 12 12 12 0 0 1 -12 12 12 12 0 0 1 -12 -12 12 12 0 0 1 12 -12z"/>
		<path class="ColorScheme-Highlight" style="opacity:.875;stroke:currentColor;stroke-linecap:round;stroke-width:2;fill:none" d="m-39.87 1.4142c0-7.1797 5.8203-13 13-13" transform="rotate(45)"/>
	</g>
	<g id="16-16-busywidget" transform="translate(36)">
		<rect style="fill:none" height="16" width="16" y="26" x="-36"/>
		<path class="ColorScheme-Text" style="opacity:0.187;fill-rule:evenodd;fill:currentColor" d="m-28 27a7 7 0 0 0 -7 7 7 7 0 0 0 7 7 7 7 0 0 0 7 -7 7 7 0 0 0 -7 -7zm0 2a5 5 0 0 1 5 5 5 5 0 0 1 -5 5 5 5 0 0 1 -5 -5 5 5 0 0 1 5 -5z"/>
		<path class="ColorScheme-Highlight" style="opacity:.875;stroke:currentColor;stroke-linecap:round;stroke-width:2;fill:none" d="m-1.7574 43.841c0-3.3137 2.6863-6 6-6" transform="rotate(45)"/>
	</g>
</svg>
