<?xml version="1.0" encoding="UTF-8"?>
<svg id="svg2" width="46" height="18" version="1.0" xmlns="http://www.w3.org/2000/svg" xmlns:cc="http://creativecommons.org/ns#" xmlns:dc="http://purl.org/dc/elements/1.1/" xmlns:rdf="http://www.w3.org/1999/02/22-rdf-syntax-ns#" xmlns:xlink="http://www.w3.org/1999/xlink">
	<metadata id="metadata7">
		<rdf:RDF>
			<cc:Work rdf:about="">
				<dc:format>image/svg+xml</dc:format>
				<dc:type rdf:resource="http://purl.org/dc/dcmitype/StillImage"/>
				<dc:title/>
				<dc:creator>
					<cc:Agent>
						<dc:title>obnosim</dc:title>
					</cc:Agent>
				</dc:creator>
				<cc:license rdf:resource="http://creativecommons.org/licenses/by-sa/4.0/"/>
			</cc:Work>
			<cc:License rdf:about="http://creativecommons.org/licenses/by-sa/4.0/">
				<cc:permits rdf:resource="http://creativecommons.org/ns#Reproduction"/>
				<cc:permits rdf:resource="http://creativecommons.org/ns#Distribution"/>
				<cc:requires rdf:resource="http://creativecommons.org/ns#Notice"/>
				<cc:requires rdf:resource="http://creativecommons.org/ns#Attribution"/>
				<cc:permits rdf:resource="http://creativecommons.org/ns#DerivativeWorks"/>
				<cc:requires rdf:resource="http://creativecommons.org/ns#ShareAlike"/>
			</cc:License>
		</rdf:RDF>
	</metadata>
	<defs id="defs3615">
		<style id="current-color-scheme" type="text/css">
			.ColorScheme-ButtonText { color:#FF0000; }
		</style>
		<linearGradient id="linearGradient3224" x1="25" x2="25" y1="17" y2="3" gradientTransform="matrix(.068182 0 0 1 46.795 -4.1507e-6)" gradientUnits="userSpaceOnUse" xlink:href="#linearGradient4631"/>
		<linearGradient id="linearGradient4631">
			<stop id="stop4940" style="stop-color:#ffffff;stop-opacity:.75294" offset="0"/>
			<stop id="stop4942" style="stop-color:#ffffff;stop-opacity:.87843" offset="1"/>
		</linearGradient>
		<linearGradient id="linearGradient3226" x1="25" x2="25" y1="17" y2="3" gradientTransform="matrix(.068182 0 0 1 -.20455 -4.1507e-6)" gradientUnits="userSpaceOnUse" xlink:href="#linearGradient4631"/>
		<linearGradient id="linearGradient3228" x1="25" x2="25" y1="17" y2="3" gradientTransform="matrix(.27272 0 0 .85714 30.182 .42866)" gradientUnits="userSpaceOnUse" xlink:href="#linearGradient4631"/>
		<linearGradient id="linearGradient4278" x1="24" x2="24" y1="39.556" y2="48.445" gradientUnits="userSpaceOnUse">
			<stop id="stop4274" style="stop-color:#000000;stop-opacity:.12549" offset="0"/>
			<stop id="stop4276" style="stop-color:#000000;stop-opacity:0" offset="1"/>
		</linearGradient>
		<linearGradient id="linearGradient3364" x1="8" x2="8" y1="16" gradientTransform="matrix(2,0,0,2,52,-64)" gradientUnits="userSpaceOnUse">
			<stop id="stop4940-4" style="stop-color:#ffffff;stop-opacity:.75294" offset="0"/>
			<stop id="stop4942-4" style="stop-color:#ffffff;stop-opacity:.87843" offset="1"/>
		</linearGradient>
	</defs>
	<g transform="matrix(.5625 0 0 .5625 11.25 9)">
		<circle cx="-4" r="16" style="fill-rule:evenodd;fill:url(#linearGradient3364)"/>
		<path d="m10.207-7.192a17 17 0 0 0 -14.282 -7.808 17 17 0 0 0 -14.132 7.578 16 16 0 0 1 14.132 -8.578 16 16 0 0 1 14.282 8.808z" style="fill-rule:evenodd;fill:#ffffff;opacity:.5"/>
	</g>
	<g transform="translate(28)" style="opacity:.875">
		<path d="m3 0c-1.662 0-3 1.338-3 3h3v-3z" style="fill-opacity:.87843;fill:#ffffff"/>
		<path d="m3 0c-1.662 0-3 1.338-3 3 0-1.108 1.338-2 3-2v-1z" style="fill:#ffffff;opacity:.5"/>
	</g>
	<rect x="31" y="3.0001" width="12" height="12" style="fill:url(#linearGradient3228);opacity:.875"/>
	<g transform="translate(-4)" style="opacity:.875">
		<path d="m47 0c1.662 0 3 1.338 3 3h-3v-3z" style="fill-opacity:.87843;fill:#ffffff"/>
		<path d="m47 0v1c1.662 0 3 .892 3 2 0-1.662-1.338-3-3-3z" style="fill:#ffffff;opacity:.5"/>
	</g>
	<g transform="translate(28,-2)" style="opacity:.875">
		<path d="m3 20c-1.662 0-3-1.338-3-3h3v3z" style="fill-opacity:.75294;fill:#ffffff"/>
		<path d="m3 20c-1.662 0-3-1.338-3-3 0 1.108 1.338 2 3 2v1z" style="fill:#000000;opacity:.1645"/>
	</g>
	<g transform="translate(-4,-2)" style="opacity:.875">
		<path d="m47 20c1.662 0 3-1.338 3-3h-3v3z" style="fill-opacity:.75294;fill:#ffffff"/>
		<path d="m47 20v-1c1.662 0 3-.892 3-2 0 1.662-1.338 3-3 3z" style="fill:#000000;opacity:.1645"/>
	</g>
	<g transform="matrix(.27272 0 0 1 30.182 0)" style="opacity:.875">
		<rect transform="rotate(90)" y="-47" width="3" height="44" style="fill-opacity:.87843;fill:#ffffff"/>
		<path d="m3 0v1h44v-1h-44z" style="fill:#ffffff;opacity:.5"/>
	</g>
	<g transform="matrix(1 0 0 .85714 28 .42866)">
		<rect x="-1.7881e-7" y="3" width="3" height="14" style="fill:url(#linearGradient3226);opacity:.875"/>
	</g>
	<g transform="matrix(.27272 0 0 1 30.182 -2)" style="opacity:.875">
		<rect transform="matrix(0,-1,-1,0,0,0)" x="-20" y="-47" width="3" height="44" style="fill-opacity:.75294;fill:#ffffff"/>
		<path d="m3 20v-1h44v1h-44z" style="fill:#000000;opacity:.165"/>
	</g>
	<g transform="matrix(1 0 0 .85714 -4 .42866)">
		<rect x="47" y="3" width="3" height="14" style="fill:url(#linearGradient3224);opacity:.875"/>
	</g>
	<g id="checkbox" transform="matrix(1.125,0,0,1.125,10,-40.5)">
		<rect x="15.111" y="35.111" width="17.778" height="17.778" style="fill:none;stroke-width:1.1111"/>
		<rect class="ColorScheme-ButtonText" x="19.556" y="39.556" width="8.8889" height="8.8889" ry=".88844" style="fill-opacity:.65882;fill-rule:evenodd;fill:currentColor"/>
		<rect x="19.556" y="39.556" width="8.8889" height="8.8889" ry=".88844" style="fill-rule:evenodd;fill:url(#linearGradient4278);opacity:.75"/>
		<path transform="matrix(.88889 0 0 .88889 0 36)" d="m22 13.002v1c0 .554.446.998 1 .998h8.002c.554 0 .998-.444.998-.998v-1c0 .554-.444.998-.998.998h-8.002c-.55372 0-1-.44432-1-.99805z" style="fill-rule:evenodd;fill:#ffffff;opacity:.125"/>
		<path transform="matrix(.88889 0 0 .88889 0 36)" d="m23 4c-.55372 0-1 .44628-1 1v8.002c0 .554.446.998 1 .998h1c-.55372 0-1-.44628-1-1v-6c0-.55372.44628-1 1-1h6c.55372 0 1 .44628 1 1v6c0 .55372-.44628 1-1 1h1.002c.554 0 .998-.444.998-.998v-8.002c0-.5537-.444-1-.998-1h-8.002z" style="fill-rule:evenodd;fill:#000000;opacity:.125"/>
	</g>
	<g id="radiobutton" transform="matrix(1.125,0,0,1.125,-18,-40.5)">
		<rect x="16" y="36" width="16" height="16" style="fill:none"/>
		<rect x="19.556" y="39.556" width="8.8889" height="8.8889" ry="4.4444" style="fill-rule:evenodd;fill:url(#linearGradient4278);opacity:.75"/>
		<rect class="ColorScheme-ButtonText" x="19.556" y="39.556" width="8.8889" height="8.8889" ry="4.4444" style="fill-opacity:.65882;fill-rule:evenodd;fill:currentColor"/>
		<path transform="matrix(.88889 0 0 .88889 16 36)" d="m4.0117 9.2383c-.0037.0875-.0117.1731-.0117.2617 0 3.047 2.23 5.5 5 5.5s5-2.453 5-5.5c0-.088604-.008-.17417-.01172-.26172-.124 2.6577-2.298 4.7617-4.988 4.7617-2.6897 0-4.8641-2.104-4.9883-4.7617z" style="fill-rule:evenodd;fill:#ffffff;opacity:.125"/>
		<path d="m24 39.556c-2.4622 0-4.4444 1.9822-4.4444 4.4444 0 2.3418 1.7948 4.2461 4.0885 4.4271a3.5556 3.5556 0 0 1 -3.2 -3.539 3.5556 3.5556 0 0 1 3.556 -3.556 3.5556 3.5556 0 0 1 3.556 3.556 3.5556 3.5556 0 0 1 -3.254 3.54c2.32-.155 4.142-2.069 4.142-4.429 0-2.462-1.982-4.444-4.444-4.444z" style="fill-rule:evenodd;fill:currentColor;opacity:.125"/>
	</g>
</svg>
