<?xml version="1.0" encoding="UTF-8" standalone="no"?>
<svg id="svg2" xmlns:rdf="http://www.w3.org/1999/02/22-rdf-syntax-ns#" xmlns="http://www.w3.org/2000/svg" height="44.039" width="38.028" version="1.0" xmlns:cc="http://creativecommons.org/ns#" xmlns:xlink="http://www.w3.org/1999/xlink" xmlns:dc="http://purl.org/dc/elements/1.1/">
	<defs id="defs4">
		<style id="current-color-scheme" type="text/css">.ColorScheme-Text { color:#0000FF; }</style>
		<g class="ColorScheme-Text">
			<linearGradient id="linearGradient5934">
				<stop id="stop5936" style="stop-color:currentColor" offset="0"/>
				<stop id="stop5938" style="stop-color:currentColor;stop-opacity:0" offset="1"/>
			</linearGradient>
		</g>
		<g class="ColorScheme-Text">
		<linearGradient id="linearGradient5918" x1="24" gradientUnits="userSpaceOnUse" x2="5" y1="52" y2="52">
			<stop id="stop5914" style="stop-color:currentColor;stop-opacity:0" offset="0"/>
			<stop id="stop5920" style="stop-color:currentColor;stop-opacity:0" offset=".052632"/>
			<stop id="stop5916" style="stop-color:currentColor;stop-opacity:0" offset="1"/>
		</linearGradient>
		</g>
		<linearGradient id="linearGradient5952" x1="24" xlink:href="#linearGradient5934" gradientUnits="userSpaceOnUse" y1="86" gradientTransform="translate(-48,-24)" x2="43" y2="86"/>
		<linearGradient id="linearGradient5956" x1="24" xlink:href="#linearGradient5934" gradientUnits="userSpaceOnUse" y1="86" gradientTransform="translate(-.0000076294 -24)" x2="43" y2="86"/>
	</defs>
	<metadata id="metadata7">
		<rdf:RDF>
			<cc:Work rdf:about="">
				<dc:format>image/svg+xml</dc:format>
				<dc:type rdf:resource="http://purl.org/dc/dcmitype/StillImage"/>
				<dc:title/>
				<dc:creator>
					<cc:Agent>
						<dc:title>obnosim</dc:title>
					</cc:Agent>
				</dc:creator>
				<cc:license rdf:resource="http://creativecommons.org/licenses/by-sa/3.0/"/>
			</cc:Work>
			<cc:License rdf:about="http://creativecommons.org/licenses/by-sa/3.0/">
				<cc:permits rdf:resource="http://creativecommons.org/ns#Reproduction"/>
				<cc:permits rdf:resource="http://creativecommons.org/ns#Distribution"/>
				<cc:requires rdf:resource="http://creativecommons.org/ns#Notice"/>
				<cc:requires rdf:resource="http://creativecommons.org/ns#Attribution"/>
				<cc:permits rdf:resource="http://creativecommons.org/ns#DerivativeWorks"/>
				<cc:requires rdf:resource="http://creativecommons.org/ns#ShareAlike"/>
			</cc:License>
		</rdf:RDF>
	</metadata>
	<rect id="hint-stretch-borders" style="fill:#008000" height="5" width="5" y="-118.43" x="-83.405"/>
	<g id="south-minslider" transform="translate(-5 -51.961)">
		<rect style="fill:none" ry="1" height="20" width="38" y="52" x="5"/>
		<rect style="opacity:.25;fill:url(#linearGradient5952)" transform="scale(-1,1)" height="20" width="19" y="52" x="-24"/>
		<path class="ColorScheme-Text" style="opacity:.875;stroke:currentColor;stroke-width:2;stroke-linecap:round;stroke-dashoffset:2.6;fill:none" d="m24 53v18m-18-9h15m-5-5 5 5-5 5"/>
	</g>
	<g id="south-maxslider" transform="matrix(-1 0 0 1 43 -27.961)">
		<rect style="fill:url(#linearGradient5918)" ry="1" height="20" width="38" y="52" x="5"/>
		<rect style="opacity:.25;fill:url(#linearGradient5956)" height="20" width="19" y="52" x="24"/>
		<path class="ColorScheme-Text" style="opacity:.875;stroke:currentColor;stroke-width:2;stroke-linecap:round;stroke-dashoffset:2.6;fill:none" d="m24 53v18m-18-9h15m-5-5 5 5-5 5"/>
	</g>
	<g id="east-minslider" transform="matrix(0 1 1 0 -5 -47.961)">
		<rect style="fill:none" ry="1" height="20" width="38" y="52" x="5"/>
		<rect style="opacity:.25;fill:url(#linearGradient5952)" transform="scale(-1,1)" height="20" width="19" y="52" x="-24"/>
		<path class="ColorScheme-Text" style="opacity:.875;stroke:currentColor;stroke-width:2;stroke-linecap:round;stroke-dashoffset:2.6;fill:none" d="m24 53v18m-18-9h15m-5-5 5 5-5 5"/>
	</g>
	<g id="east-maxslider" transform="matrix(0 -1 1 0 19 .038501)">
		<rect style="fill:url(#linearGradient5918)" ry="1" height="20" width="38" y="52" x="5"/>
		<rect style="opacity:.25;fill:url(#linearGradient5956)" height="20" width="19" y="52" x="24"/>
		<path class="ColorScheme-Text" style="opacity:.875;stroke:currentColor;stroke-width:2;stroke-linecap:round;stroke-dashoffset:2.6;fill:none" d="m24 53v18m-18-9h15m-5-5 5 5-5 5"/>
	</g>
	<g id="north-minslider" transform="translate(-5 -149.96)">
		<rect style="fill:none" ry="1" height="20" width="38" y="52" x="5"/>
		<rect style="opacity:.25;fill:url(#linearGradient5952)" transform="scale(-1,1)" height="20" width="19" y="52" x="-24"/>
		<path class="ColorScheme-Text" style="opacity:.875;stroke:currentColor;stroke-width:2;stroke-linecap:round;stroke-dashoffset:2.6;fill:none" d="m24 53v18m-18-9h15m-5-5 5 5-5 5"/>
	</g>
	<g id="north-maxslider" transform="matrix(-1 0 0 1 43 -125.96)">
		<rect style="fill:url(#linearGradient5918)" ry="1" height="20" width="38" y="52" x="5"/>
		<rect style="opacity:.25;fill:url(#linearGradient5956)" height="20" width="19" y="52" x="24"/>
		<path class="ColorScheme-Text" style="opacity:.875;stroke:currentColor;stroke-width:2;stroke-linecap:round;stroke-dashoffset:2.6;fill:none" d="m24 53v18m-18-9h15m-5-5 5 5-5 5"/>
	</g>
	<g id="west-minslider" transform="matrix(0 1 1 0 -121 -47.961)">
		<rect style="fill:none" ry="1" height="20" width="38" y="52" x="5"/>
		<rect style="opacity:.25;fill:url(#linearGradient5952)" transform="scale(-1,1)" height="20" width="19" y="52" x="-24"/>
		<path class="ColorScheme-Text" style="opacity:.875;stroke:currentColor;stroke-width:2;stroke-linecap:round;stroke-dashoffset:2.6;fill:none" d="m24 53v18m-18-9h15m-5-5 5 5-5 5"/>
	</g>
	<g id="west-maxslider" transform="matrix(0 -1 1 0 -97 .038501)">
		<rect style="fill:url(#linearGradient5918)" ry="1" height="20" width="38" y="52" x="5"/>
		<rect style="opacity:.25;fill:url(#linearGradient5956)" height="20" width="19" y="52" x="24"/>
		<path class="ColorScheme-Text" style="opacity:.875;stroke:currentColor;stroke-width:2;stroke-linecap:round;stroke-dashoffset:2.6;fill:none" d="m24 53v18m-18-9h15m-5-5 5 5-5 5"/>
	</g>
	<g id="west-offsetslider" transform="translate(-5 -221.96)">
		<rect style="fill:none" height="20" width="20" y="185" x="-90"/>
		<path class="ColorScheme-Text" style="opacity:.875;stroke-linejoin:round;stroke:currentColor;stroke-linecap:round;fill:none;stroke-width:2" d="m-89 195h18"/>
	</g>
	<g id="east-offsetslider" transform="translate(115 -221.96)">
		<rect style="fill:none" height="20" width="20" y="185" x="-90"/>
		<path class="ColorScheme-Text" style="opacity:.875;stroke-linejoin:round;stroke:currentColor;stroke-linecap:round;fill:none;stroke-width:2" d="m-89 195h18"/>
	</g>
	<g id="south-offsetslider" transform="matrix(0 1 -1 0 205 66.039)">
		<rect style="fill:none" height="20" width="20" y="185" x="-90"/>
		<path class="ColorScheme-Text" style="opacity:.875;stroke-linejoin:round;stroke:currentColor;stroke-linecap:round;fill:none;stroke-width:2" d="m-89 195h18"/>
	</g>
	<g id="north-offsetslider" transform="matrix(0 1 -1 0 205 -31.962)">
		<rect style="fill:none" height="20" width="20" y="185" x="-90"/>
		<path class="ColorScheme-Text" style="opacity:.875;stroke-linejoin:round;stroke:currentColor;stroke-linecap:round;fill:none;stroke-width:2" d="m-89 195h18"/>
	</g>
	<path id="vertical-centerindicator" class="ColorScheme-Text" style="opacity:.25;stroke:currentColor;stroke-linecap:round;fill:none;stroke-width:2" d="m-43.986 25.024h-18"/>
	<path id="horizontal-centerindicator" class="ColorScheme-Text" style="opacity:.25;stroke:currentColor;stroke-linecap:round;fill:none;stroke-width:2" d="m-70.986 34.024v-18"/>
</svg>
