<?xml version="1.0" encoding="UTF-8" standalone="no"?>
<svg id="svg2" xmlns:rdf="http://www.w3.org/1999/02/22-rdf-syntax-ns#" xmlns="http://www.w3.org/2000/svg" height="18" width="60" version="1.0" xmlns:cc="http://creativecommons.org/ns#" xmlns:dc="http://purl.org/dc/elements/1.1/">
	<metadata id="metadata7">
		<rdf:RDF>
			<cc:Work rdf:about="">
				<dc:format>image/svg+xml</dc:format>
				<dc:type rdf:resource="http://purl.org/dc/dcmitype/StillImage"/>
				<dc:title/>
				<dc:creator>
					<cc:Agent>
						<dc:title>obnosim</dc:title>
					</cc:Agent>
				</dc:creator>
				<cc:license rdf:resource="http://creativecommons.org/licenses/by-sa/3.0/"/>
			</cc:Work>
			<cc:License rdf:about="http://creativecommons.org/licenses/by-sa/3.0/">
				<cc:permits rdf:resource="http://creativecommons.org/ns#Reproduction"/>
				<cc:permits rdf:resource="http://creativecommons.org/ns#Distribution"/>
				<cc:requires rdf:resource="http://creativecommons.org/ns#Notice"/>
				<cc:requires rdf:resource="http://creativecommons.org/ns#Attribution"/>
				<cc:permits rdf:resource="http://creativecommons.org/ns#DerivativeWorks"/>
				<cc:requires rdf:resource="http://creativecommons.org/ns#ShareAlike"/>
			</cc:License>
		</rdf:RDF>
	</metadata>
	<path id="normal-center" style="fill:none" d="m25 5v10h10v-10h-10z"/>
	<path id="pressed-center" style="fill:none" d="m1.9997 5v10h10v-10h-10z"/>
	<rect id="hint-stretch-borders" style="fill:#008000" rx="0" ry="3" height="3" width="3" y="0" x="17"/>
	<rect id="pressed-hint-top-margin" style="fill:#008000" height="6" width="2" y="2.0003" x="6"/>
	<rect id="pressed-hint-bottom-margin" style="fill:#008000" height="6" width="2" y="12" x="6"/>
	<rect id="pressed-hint-left-margin" style="fill:#008000" height="2" width="4" y="9.0003" x="0"/>
	<rect id="pressed-hint-right-margin" style="fill:#008000" height="2" width="4" y="9.0003" x="10"/>
	<rect id="normal-hint-left-margin" style="fill:#008000" height="2" width="4" y="9" x="23"/>
	<rect id="normal-hint-top-margin" style="fill:#008000" height="6" width="2" y="2" x="29"/>
	<rect id="normal-hint-bottom-margin" style="fill:#008000" height="6" width="2" y="12" x="29"/>
	<rect id="normal-hint-right-margin" style="fill:#008000" height="2" width="4" y="9" x="33"/>
	<rect id="section-center" style="opacity:0.062;fill:none" height="10" width="10" y="5" x="47.999"/>
	<rect id="section-hint-bottom-margin" style="fill:#008000" height="6" width="2" y="2" x="52"/>
	<rect id="section-hint-top-margin" style="fill:#008000" height="6" width="2" y="12" x="51.999"/>
	<rect id="section-hint-left-margin" style="fill:#008000" height="2" width="4" y="9" x="46"/>
	<rect id="section-hint-right-margin" style="fill:#008000" height="2" width="4" y="9" x="56"/>
</svg>
