<?xml version="1.0" encoding="UTF-8" standalone="no"?>
<svg id="svg2" xmlns:rdf="http://www.w3.org/1999/02/22-rdf-syntax-ns#" xmlns="http://www.w3.org/2000/svg" height="62" width="62" version="1.0" xmlns:cc="http://creativecommons.org/ns#" xmlns:dc="http://purl.org/dc/elements/1.1/">
	<defs id="defs3173">
		<style id="current-color-scheme" type="text/css">
			.ColorScheme-Background { color:#FF0000; }
		</style>
	</defs>
	<metadata id="metadata7">
		<rdf:RDF>
			<cc:Work rdf:about="">
				<dc:format>image/svg+xml</dc:format>
				<dc:type rdf:resource="http://purl.org/dc/dcmitype/StillImage"/>
				<dc:title/>
				<dc:creator>
					<cc:Agent>
						<dc:title>obnosim</dc:title>
					</cc:Agent>
				</dc:creator>
				<cc:license rdf:resource="http://creativecommons.org/licenses/by-sa/3.0/"/>
			</cc:Work>
			<cc:License rdf:about="http://creativecommons.org/licenses/by-sa/3.0/">
				<cc:permits rdf:resource="http://creativecommons.org/ns#Reproduction"/>
				<cc:permits rdf:resource="http://creativecommons.org/ns#Distribution"/>
				<cc:requires rdf:resource="http://creativecommons.org/ns#Notice"/>
				<cc:requires rdf:resource="http://creativecommons.org/ns#Attribution"/>
				<cc:permits rdf:resource="http://creativecommons.org/ns#DerivativeWorks"/>
				<cc:requires rdf:resource="http://creativecommons.org/ns#ShareAlike"/>
			</cc:License>
		</rdf:RDF>
	</metadata>
	<g id="left" transform="translate(-190.57 -152.76)">
		<rect style="opacity:.875;fill-rule:evenodd;fill:currentColor" class="ColorScheme-Background" height="30" width="16" y="168.76" x="190.57"/>
		<rect style="opacity:.375;fill:currentColor;fill-rule:evenodd" class="ColorScheme-Background" height="30" width="2" y="168.76" x="190.57"/>
	</g>
	<g id="bottom" transform="translate(-292 -260)">
		<rect style="opacity:.875;fill-rule:evenodd;fill:currentColor" class="ColorScheme-Background" height="16" width="30" y="306" x="308"/>
		<rect style="opacity:.375;fill:currentColor;fill-rule:evenodd" class="ColorScheme-Background" height="2" width="30" y="320" x="308"/>
	</g>
	<g id="top" transform="translate(-179.57 -163.76)">
		<rect style="opacity:.875;fill-rule:evenodd;fill:currentColor" class="ColorScheme-Background" height="16" width="30" y="163.76" x="195.57"/>
		<rect style="opacity:.375;fill:currentColor;fill-rule:evenodd" class="ColorScheme-Background" height="2" width="30" y="163.76" x="195.57"/>
	</g>
	<g id="right" transform="translate(-168.57 -152.76)">
		<rect style="opacity:.875;fill-rule:evenodd;fill:currentColor" class="ColorScheme-Background" height="30" width="16" y="168.76" x="214.57"/>
		<rect style="opacity:.375;fill:currentColor;fill-rule:evenodd" class="ColorScheme-Background" height="30" width="2" y="168.76" x="228.57"/>
	</g>
	<rect id="base" style="opacity:.875;fill:none" height="10" width="10" y="68" x="28"/>
	<g id="topleft" transform="translate(0,1.6785e-6)">
		<g id="g4200" transform="translate(-190.57,-163.76)">
			<path d="m5 0c-2.77 0-5 2.23-5 5v11h16v-16z" style="opacity:.875;fill-rule:evenodd;fill:currentColor" class="ColorScheme-Background" transform="translate(190.57,163.76)"/>
			<path d="m5 0c-2.7614 0-5 2.2386-5 5v11h2v-11c0-1.6569 1.3431-3 3-3h11v-2h-11z" style="opacity:.375;fill:currentColor" class="ColorScheme-Background" transform="translate(190.57,163.76)"/>
		</g>
	</g>
	<g id="topright" transform="translate(0,1.6785e-6)">
		<g id="g4202" transform="translate(-168.57,-163.76)">
			<path d="m46 0v16h16v-11c0-2.77-2.23-5-5-5z" style="opacity:.875;fill-rule:evenodd;fill:currentColor" class="ColorScheme-Background" transform="translate(168.57,163.76)"/>
			<path d="m46 0v2h11c1.657 0 3 1.3431 3 3v11h2v-11c0-2.7614-2.239-5-5-5h-11z" style="opacity:.375;fill:currentColor" class="ColorScheme-Background" transform="translate(168.57,163.76)"/>
		</g>
	</g>
	<g id="bottomleft" transform="translate(0,1.6785e-6)">
		<g id="g4206" transform="translate(-303,-268)">
			<path d="m5.0039 62h11l-.004-16h-16v11c0 2.77 2.23 5 5 5" style="opacity:.875;fill-rule:evenodd;fill:currentColor" class="ColorScheme-Background" transform="translate(303,268)"/>
			<path d="m0 46v11c0 2.7614 2.2386 5 5 5v-2c-1.6569 0-3-1.343-3-3v-11zm5.0039 14v2h10.996v-2z" style="opacity:.375;fill:currentColor" class="ColorScheme-Background" transform="translate(303,268)"/>
		</g>
	</g>
	<g id="bottomright" transform="translate(0,1.6785e-6)">
		<g id="g4204" transform="translate(-168.57,-141.76)">
			<path d="m46 46 .002 16h11c2.769-.001 4.998-2.231 4.998-5v-11z" style="opacity:.875;fill-rule:evenodd;fill:currentColor" class="ColorScheme-Background" transform="translate(168.57,141.76)"/>
			<path d="m60 46v11c0 1.656-1.344 2.999-3 3h-10.998v2h11c2.76-.001 4.998-2.239 4.998-5v-11h-2z" style="opacity:.375;fill:currentColor" class="ColorScheme-Background" transform="translate(168.57,141.76)"/>
		</g>
	</g>
	<rect id="center" style="opacity:.875;fill:currentColor" class="ColorScheme-Background" height="30" width="30" y="16" x="16"/>
	<rect id="glass" style="opacity:.875;fill:none" height="10" width="10" y="-13" x="80"/>
</svg>
