<?xml version="1.0" encoding="UTF-8" standalone="no"?>
<svg id="svg3856" xmlns:rdf="http://www.w3.org/1999/02/22-rdf-syntax-ns#" xmlns="http://www.w3.org/2000/svg" height="100" width="100" version="1.1" xmlns:cc="http://creativecommons.org/ns#" xmlns:xlink="http://www.w3.org/1999/xlink" xmlns:dc="http://purl.org/dc/elements/1.1/">
	<defs id="defs3858">
		<linearGradient id="linearGradient3870">
			<stop id="stop3872" style="stop-color:#000000" offset="0"/>
			<stop id="stop3874" style="stop-color:#000000;stop-opacity:0" offset="1"/>
		</linearGradient>
		<linearGradient id="linearGradient3856" y2="95" gradientUnits="userSpaceOnUse" y1="5" x2="40" x1="40">
			<stop id="stop3849" style="stop-color:#6e8bea" offset="0"/>
			<stop id="stop3851" style="stop-color:#698cff" offset="1"/>
		</linearGradient>
		<radialGradient id="radialGradient3876" xlink:href="#linearGradient3870" gradientUnits="userSpaceOnUse" cy="71.552" cx="28.4" gradientTransform="matrix(0,6.1042,-1.4731,5.8601e-7,155.41,-168.36)" r="48"/>
		<linearGradient id="linearGradient3890" y2="95" gradientUnits="userSpaceOnUse" y1="5" x2="40" x1="40">
			<stop id="stop3894" style="stop-color:#5be020" offset="0"/>
			<stop id="stop3896" style="stop-color:#7bff41" offset="1"/>
		</linearGradient>
		<linearGradient id="linearGradient3910" y2="95" gradientUnits="userSpaceOnUse" y1="5" x2="40" x1="40">
			<stop id="stop3914" style="stop-color:#e07c20" offset="0"/>
			<stop id="stop3916" style="stop-color:#ff9c41" offset="1"/>
		</linearGradient>
		<linearGradient id="linearGradient3930" y2="95" gradientUnits="userSpaceOnUse" y1="5" x2="40" x1="40">
			<stop id="stop3934" style="stop-color:#e33535" offset="0"/>
			<stop id="stop3936" style="stop-color:#ff4141" offset="1"/>
		</linearGradient>
		<linearGradient id="linearGradient3950" y2="95" gradientUnits="userSpaceOnUse" y1="5" x2="40" x1="40">
			<stop id="stop3954" style="stop-color:#e33572" offset="0"/>
			<stop id="stop3956" style="stop-color:#ff4184" offset="1"/>
		</linearGradient>
		<linearGradient id="linearGradient3980" y2="95" gradientUnits="userSpaceOnUse" y1="5" x2="40" x1="40">
			<stop id="stop3988" style="stop-color:#080808" offset="0"/>
			<stop id="stop3990" style="stop-color:#101010" offset="1"/>
		</linearGradient>
		<linearGradient id="linearGradient3984" y2="95" gradientUnits="userSpaceOnUse" y1="5" x2="40" x1="40">
			<stop id="stop3994" style="stop-color:#e0e0e0" offset="0"/>
			<stop id="stop3996" style="stop-color:#ffffff" offset="1"/>
		</linearGradient>
		<linearGradient id="linearGradient4010" y2="95" gradientUnits="userSpaceOnUse" y1="5" x2="40" x1="40">
			<stop id="stop4014" style="stop-color:#e0c320" offset="0"/>
			<stop id="stop4016" style="stop-color:#ffe341" offset="1"/>
		</linearGradient>
		<radialGradient id="radialGradient3426-6" xlink:href="#linearGradient3870" gradientUnits="userSpaceOnUse" cy="71.552" cx="28.4" gradientTransform="matrix(0,6.1042,-1.4731,5.8601e-7,355.41,-68.36)" r="48"/>
	</defs>
	<metadata id="metadata7">
		<rdf:RDF>
			<cc:Work rdf:about="">
				<dc:format>image/svg+xml</dc:format>
				<dc:type rdf:resource="http://purl.org/dc/dcmitype/StillImage"/>
				<dc:title/>
				<dc:creator>
					<cc:Agent>
						<dc:title>obnosim</dc:title>
					</cc:Agent>
				</dc:creator>
				<cc:license rdf:resource="http://creativecommons.org/licenses/by-sa/3.0/"/>
			</cc:Work>
			<cc:License rdf:about="http://creativecommons.org/licenses/by-sa/3.0/">
				<cc:permits rdf:resource="http://creativecommons.org/ns#Reproduction"/>
				<cc:permits rdf:resource="http://creativecommons.org/ns#Distribution"/>
				<cc:requires rdf:resource="http://creativecommons.org/ns#Notice"/>
				<cc:requires rdf:resource="http://creativecommons.org/ns#Attribution"/>
				<cc:permits rdf:resource="http://creativecommons.org/ns#DerivativeWorks"/>
				<cc:requires rdf:resource="http://creativecommons.org/ns#ShareAlike"/>
			</cc:License>
		</rdf:RDF>
	</metadata>
	<g id="blue-notes" transform="translate(40.286,70.857)">
		<path style="opacity:.5;fill:url(#radialGradient3876)" d="m5 5h90c0 30-4 63-2 93-28-3-58-3-86 0 2-28-2-63-2-93z" transform="translate(-40.286,-70.857)"/>
		<rect style="fill:url(#linearGradient3856)" transform="translate(-40.286,-70.857)" height="90" width="90" y="5" x="5"/>
		<rect style="opacity:0.033;fill:#000000" transform="translate(-40.286,-70.857)" height="8" width="90" y="5" x="5"/>
	</g>
	<g id="green-notes" transform="translate(140.29 70.857)">
		<path style="opacity:.5;fill:url(#radialGradient3876)" d="m5 5h90c0 30-4 63-2 93-28-3-58-3-86 0 2-28-2-63-2-93z" transform="translate(-40.286,-70.857)"/>
		<rect style="fill:url(#linearGradient3890)" transform="translate(-40.286,-70.857)" height="90" width="90" y="5" x="5"/>
		<rect style="opacity:0.033;fill:#000000" transform="translate(-40.286,-70.857)" height="8" width="90" y="5" x="5"/>
	</g>
	<g id="orange-notes" transform="translate(340.29 70.857)">
		<path style="opacity:.5;fill:url(#radialGradient3876)" d="m5 5h90c0 30-4 63-2 93-28-3-58-3-86 0 2-28-2-63-2-93z" transform="translate(-40.286,-70.857)"/>
		<rect style="fill:url(#linearGradient3910)" transform="translate(-40.286,-70.857)" height="90" width="90" y="5" x="5"/>
		<rect style="opacity:0.033;fill:#000000" transform="translate(-40.286,-70.857)" height="8" width="90" y="5" x="5"/>
	</g>
	<g id="red-notes" transform="translate(440.29 70.857)">
		<path style="opacity:.5;fill:url(#radialGradient3876)" d="m5 5h90c0 30-4 63-2 93-28-3-58-3-86 0 2-28-2-63-2-93z" transform="translate(-40.286,-70.857)"/>
		<rect style="fill:url(#linearGradient3930)" transform="translate(-40.286,-70.857)" height="90" width="90" y="5" x="5"/>
		<rect style="opacity:0.033;fill:#000000" transform="translate(-40.286,-70.857)" height="8" width="90" y="5" x="5"/>
	</g>
	<g id="pink-notes" transform="translate(540.29 70.857)">
		<path style="opacity:.5;fill:url(#radialGradient3876)" d="m5 5h90c0 30-4 63-2 93-28-3-58-3-86 0 2-28-2-63-2-93z" transform="translate(-40.286,-70.857)"/>
		<rect style="fill:url(#linearGradient3950)" transform="translate(-40.286,-70.857)" height="90" width="90" y="5" x="5"/>
		<rect style="opacity:0.033;fill:#000000" transform="translate(-40.286,-70.857)" height="8" width="90" y="5" x="5"/>
	</g>
	<g id="black-notes" transform="translate(40.286 170.86)">
		<path style="opacity:.5;fill:url(#radialGradient3876)" d="m5 5h90c0 30-4 63-2 93-28-3-58-3-86 0 2-28-2-63-2-93z" transform="translate(-40.286,-70.857)"/>
		<rect style="fill:url(#linearGradient3980)" transform="translate(-40.286,-70.857)" height="90" width="90" y="5" x="5"/>
		<rect style="opacity:0.033;fill:#000000" transform="translate(-40.286,-70.857)" height="8" width="90" y="5" x="5"/>
	</g>
	<g id="white-notes" transform="translate(140.29 170.86)">
		<path style="opacity:.5;fill:url(#radialGradient3876)" d="m5 5h90c0 30-4 63-2 93-28-3-58-3-86 0 2-28-2-63-2-93z" transform="translate(-40.286,-70.857)"/>
		<rect style="fill:url(#linearGradient3984)" transform="translate(-40.286,-70.857)" height="90" width="90" y="5" x="5"/>
		<rect style="opacity:0.033;fill:#000000" transform="translate(-40.286,-70.857)" height="8" width="90" y="5" x="5"/>
	</g>
	<g id="yellow-notes" transform="translate(240.29 70.857)">
		<path style="opacity:.5;fill:url(#radialGradient3876)" d="m5 5h90c0 30-4 63-2 93-28-3-58-3-86 0 2-28-2-63-2-93z" transform="translate(-40.286,-70.857)"/>
		<rect style="fill:url(#linearGradient4010)" transform="translate(-40.286,-70.857)" height="90" width="90" y="5" x="5"/>
		<rect style="opacity:0.033;fill:#000000" transform="translate(-40.286,-70.857)" height="8" width="90" y="5" x="5"/>
	</g>
	<g id="translucent-notes" transform="translate(240.29 170.86)">
		<path id="path3972-9" style="opacity:.5;fill:url(#radialGradient3426-6)" d="m207.17 195c-.05 1-.10 2.01-.17 3 28-3 58-3 86 0-.07-.99-.11-2-.16-3h-85.67z" transform="translate(-240.29 -170.86)"/>
		<rect style="opacity:.375;fill:#ffffff" height="90" width="90" y="-65.857" x="-35.286"/>
		<rect id="rect3976-6" style="opacity:0.033;fill:#000000" height="8" width="90" y="-65.857" x="-35.286"/>
	</g>
</svg>
