<?xml version="1.0" encoding="UTF-8" standalone="no"?>
<svg xmlns:rdf="http://www.w3.org/1999/02/22-rdf-syntax-ns#" xmlns="http://www.w3.org/2000/svg" height="16" width="16" version="1.1" xmlns:cc="http://creativecommons.org/ns#" xmlns:xlink="http://www.w3.org/1999/xlink" xmlns:dc="http://purl.org/dc/elements/1.1/">
	<defs>
		<style id="current-color-scheme" type="text/css">
			.ColorScheme-Text { color:#0000FF; }
		</style>
		<g class="ColorScheme-Text">
			<linearGradient id="linearGradient4709">
				<stop style="stop-color:currentColor;stop-opacity:.33" offset="0"/>
				<stop style="stop-color:currentColor;stop-opacity:.21" offset="1"/>
			</linearGradient>
		</g>
		<linearGradient id="linearGradient4715" x1="44" xlink:href="#linearGradient4709" gradientUnits="userSpaceOnUse" y1="-13" gradientTransform="translate(-16)" x2="44" y2="-3"/>
		<linearGradient id="linearGradient4731" x1="37.5" xlink:href="#linearGradient4709" gradientUnits="userSpaceOnUse" y1="-13" gradientTransform="translate(-16)" x2="37.5" y2="-2.9998"/>
		<linearGradient id="linearGradient4723" x1="50.5" xlink:href="#linearGradient4709" gradientUnits="userSpaceOnUse" y1="-13" gradientTransform="translate(-16)" x2="50.5" y2="-2.9998"/>
	</defs>
	<metadata>
		<rdf:RDF>
			<cc:Work rdf:about="">
				<dc:format>image/svg+xml</dc:format>
				<dc:type rdf:resource="http://purl.org/dc/dcmitype/StillImage"/>
				<dc:title/>
				<dc:creator>
					<cc:Agent>
						<dc:title>obnosim</dc:title>
					</cc:Agent>
				</dc:creator>
				<cc:license rdf:resource="http://creativecommons.org/licenses/by-sa/3.0/"/>
			</cc:Work>
			<cc:License rdf:about="http://creativecommons.org/licenses/by-sa/3.0/">
				<cc:permits rdf:resource="http://creativecommons.org/ns#Reproduction"/>
				<cc:permits rdf:resource="http://creativecommons.org/ns#Distribution"/>
				<cc:requires rdf:resource="http://creativecommons.org/ns#Notice"/>
				<cc:requires rdf:resource="http://creativecommons.org/ns#Attribution"/>
				<cc:permits rdf:resource="http://creativecommons.org/ns#DerivativeWorks"/>
				<cc:requires rdf:resource="http://creativecommons.org/ns#ShareAlike"/>
			</cc:License>
		</rdf:RDF>
		</metadata>
	<rect id="hint-stretch-borders" style="fill:#008000" ry="0" height="5" width="5" y="-13" x="-16"/>
	<g id="picker" class="ColorScheme-Text" transform="translate(-20)">
		<rect id="center" style="fill:url(#linearGradient4715)" transform="scale(1,-1)" height="10" width="10" y="-13" x="23"/>
		<g id="topleft" transform="translate(-16)">
			<path style="opacity:0.21;fill:currentColor" d="m39 0c-1.662 0-3 1.338-3 3h3v-3z"/>
			<path style="color:#000000;opacity:.375;fill-opacity:.125;fill:#000000" d="m39 0c-1.657 0-3 1.343-3 3 0-.552 1.343-1 3-1v-2z"/>
		</g>
		<g id="topright" transform="translate(-16)">
			<path style="opacity:0.21;fill:currentColor" d="m49 0c1.662 0 3 1.338 3 3h-3v-3z"/>
			<path style="color:#000000;opacity:.375;fill-opacity:.125;fill:#000000" d="m49 0v2c1.6569 0 3 .44772 3 1 0-1.6569-1.3431-3-3-3z"/>
		</g>
		<g id="bottomleft" transform="translate(-20)">
			<path style="opacity:0.33;fill:currentColor" d="m43 16c-1.662 0-3-1.338-3-3h3v3z"/>
			<path d="m43 16c-1.662 0-3-1.338-3-3 0 1.108 1.338 2 3 2v1z" style="opacity:.125;fill:currentColor"/>
		</g>
		<g id="bottomright" transform="translate(-20)">
			<path style="opacity:0.33;fill:currentColor" d="m53 16c1.662 0 3-1.338 3-3h-3v3z"/>
			<path d="m53 16v-1c1.662 0 3-.892 3-2 0 1.662-1.338 3-3 3z" style="opacity:.125;fill:currentColor"/>
		</g>
		<g id="top" transform="translate(-16)">
			<rect style="opacity:0.21;fill:currentColor" transform="rotate(90)" height="9.9999" width="3" y="-49" x="0"/>
			<path style="opacity:.375;fill-opacity:.125;fill:#000000" d="m39 0v2h9.9999v-2h-10z"/>
		</g>
		<rect id="left" style="fill:url(#linearGradient4731)" transform="scale(1,-1)" height="10" width="3" y="-13" x="20"/>
		<g id="bottom" transform="translate(-20)">
			<rect style="opacity:0.33;fill:currentColor" transform="matrix(0,-1,-1,0,0,0)" height="9.9999" width="3" y="-53" x="-16"/>
			<path d="m43 16v-1h9.9999v1h-10z" style="opacity:.125;fill:currentColor"/>
		</g>
		<rect id="right" style="fill:url(#linearGradient4723)" transform="scale(1,-1)" height="10" width="3" y="-13" x="33"/>
	</g>
</svg>
