<?xml version="1.0" encoding="UTF-8" standalone="no"?>
<svg id="svg2396" xmlns:rdf="http://www.w3.org/1999/02/22-rdf-syntax-ns#" xmlns="http://www.w3.org/2000/svg" height="40" width="40" version="1.0" xmlns:cc="http://creativecommons.org/ns#" xmlns:xlink="http://www.w3.org/1999/xlink" xmlns:dc="http://purl.org/dc/elements/1.1/">
	<defs id="defs2398">
		<style id="current-color-scheme" type="text/css">.ColorScheme-Text { color:#0000FF; }</style>
		<radialGradient id="radialGradient3361" gradientUnits="userSpaceOnUse" cy="-119.67" cx="35" gradientTransform="matrix(0 1 -.33333 0 -39.889 -15)" r="15">
			<stop id="stop3838" style="stop-color:#000000" offset="0"/>
			<stop id="stop3840" style="stop-color:#000000;stop-opacity:0" offset="1"/>
		</radialGradient>
	</defs>
	<metadata id="metadata7">
		<rdf:RDF>
			<cc:Work rdf:about="">
				<dc:format>image/svg+xml</dc:format>
				<dc:type rdf:resource="http://purl.org/dc/dcmitype/StillImage"/>
				<dc:title/>
				<dc:creator>
					<cc:Agent>
						<dc:title>obnosim</dc:title>
					</cc:Agent>
				</dc:creator>
				<cc:license rdf:resource="http://creativecommons.org/licenses/by-sa/3.0/"/>
			</cc:Work>
			<cc:License rdf:about="http://creativecommons.org/licenses/by-sa/3.0/">
				<cc:permits rdf:resource="http://creativecommons.org/ns#Reproduction"/>
				<cc:permits rdf:resource="http://creativecommons.org/ns#Distribution"/>
				<cc:requires rdf:resource="http://creativecommons.org/ns#Notice"/>
				<cc:requires rdf:resource="http://creativecommons.org/ns#Attribution"/>
				<cc:permits rdf:resource="http://creativecommons.org/ns#DerivativeWorks"/>
				<cc:requires rdf:resource="http://creativecommons.org/ns#ShareAlike"/>
			</cc:License>
		</rdf:RDF>
	</metadata>
	<g id="border-left" transform="matrix(0 -1 .5 0 59.5 55)">
		<rect style="fill:none" height="10" width="34" y="-119" x="18"/>
		<path style="opacity:.375;fill:url(#radialGradient3361);fill-rule:evenodd" transform="matrix(0,2,-1,0,55,-119)" d="m1 5.0977v29.804c2.2501-.828 4-7.181 4-14.902s-1.7499-14.074-4-14.902z"/>
		<path style="opacity:.187;fill:#000000;fill-rule:evenodd" transform="matrix(0,2,-1,0,55,-119)" d="m0 5a1 15 0 0 1 1 15 1 15 0 0 1 -1 15 2 15 0 0 0 2 -15 2 15 0 0 0 -2 -15z"/>
		<path d="m0 5v30a1 15 0 0 0 1 -15 1 15 0 0 0 -1 -15z" style="opacity:.187;fill:currentColor;fill-rule:evenodd" transform="matrix(0,2,-1,0,55,-119)" class="ColorScheme-Text"/>
	</g>
	<g id="border-right" transform="matrix(0 -1 -.5 0 -19.5 55)">
		<rect style="fill:none" height="10" width="34" y="-119" x="18"/>
		<path style="opacity:.375;fill-rule:evenodd;fill:url(#radialGradient3361)" transform="matrix(0,2,-1,0,55,-119)" d="m1 5.0977v29.804c2.2501-.828 4-7.181 4-14.902s-1.7499-14.074-4-14.902z"/>
		<path style="opacity:.187;fill:#000000;fill-rule:evenodd" transform="matrix(0,2,-1,0,55,-119)" d="m0 5a1 15 0 0 1 1 15 1 15 0 0 1 -1 15 2 15 0 0 0 2 -15 2 15 0 0 0 -2 -15z"/>
		<path d="m0 5v30a1 15 0 0 0 1 -15 1 15 0 0 0 -1 -15z" style="opacity:.187;fill:currentColor;fill-rule:evenodd" transform="matrix(0,2,-1,0,55,-119)" class="ColorScheme-Text"/>
	</g>
	<g id="border-top" transform="matrix(1 0 0 .5 -15 59.5)">
		<rect style="fill:none" height="10" width="34" y="-119" x="18"/>
		<path style="opacity:.375;fill-rule:evenodd;fill:url(#radialGradient3361)" transform="matrix(0,2,-1,0,55,-119)" d="m1 5.0977v29.804c2.2501-.828 4-7.181 4-14.902s-1.7499-14.074-4-14.902z"/>
		<path style="opacity:.187;fill:#000000;fill-rule:evenodd" transform="matrix(0,2,-1,0,55,-119)" d="m0 5a1 15 0 0 1 1 15 1 15 0 0 1 -1 15 2 15 0 0 0 2 -15 2 15 0 0 0 -2 -15z"/>
		<path d="m0 5v30a1 15 0 0 0 1 -15 1 15 0 0 0 -1 -15z" style="opacity:.187;fill:currentColor;fill-rule:evenodd" transform="matrix(0,2,-1,0,55,-119)" class="ColorScheme-Text"/>
	</g>
	<g id="border-bottom" transform="matrix(1 0 0 -.5 -15 -19.5)">
		<rect style="fill:none" height="10" width="34" y="-119" x="18"/>
		<path style="opacity:.375;fill-rule:evenodd;fill:url(#radialGradient3361)" transform="matrix(0,2,-1,0,55,-119)" d="m1 5.0977v29.804c2.2501-.828 4-7.181 4-14.902s-1.7499-14.074-4-14.902z"/>
		<path d="m0 5a1 15 0 0 1 1 15 1 15 0 0 1 -1 15 2 15 0 0 0 2 -15 2 15 0 0 0 -2 -15z" style="opacity:.187;fill:#000000;fill-rule:evenodd" transform="matrix(0,2,-1,0,55,-119)"/>
		<path d="m0 5v30a1 15 0 0 0 1 -15 1 15 0 0 0 -1 -15z" style="opacity:.187;fill:currentColor;fill-rule:evenodd" transform="matrix(0,2,-1,0,55,-119)" class="ColorScheme-Text"/>
	</g>
</svg>
