<?xml version="1.0" encoding="UTF-8" standalone="no"?>
<svg id="svg2" xmlns:rdf="http://www.w3.org/1999/02/22-rdf-syntax-ns#" xmlns="http://www.w3.org/2000/svg" height="11" width="103.51" version="1.1" xmlns:cc="http://creativecommons.org/ns#" xmlns:dc="http://purl.org/dc/elements/1.1/">
	<defs id="defs3615">
		<style id="current-color-scheme" type="text/css">
			.ColorScheme-Text { color:#0000FF; }
		</style>
	</defs>
	<metadata id="metadata7">
		<rdf:RDF>
			<cc:Work rdf:about="">
				<dc:format>image/svg+xml</dc:format>
				<dc:type rdf:resource="http://purl.org/dc/dcmitype/StillImage"/>
				<dc:title/>
				<dc:creator>
					<cc:Agent>
						<dc:title>obnosim</dc:title>
					</cc:Agent>
				</dc:creator>
				<cc:license rdf:resource="http://creativecommons.org/licenses/by-sa/3.0/"/>
			</cc:Work>
			<cc:License rdf:about="http://creativecommons.org/licenses/by-sa/3.0/">
				<cc:permits rdf:resource="http://creativecommons.org/ns#Reproduction"/>
				<cc:permits rdf:resource="http://creativecommons.org/ns#Distribution"/>
				<cc:requires rdf:resource="http://creativecommons.org/ns#Notice"/>
				<cc:requires rdf:resource="http://creativecommons.org/ns#Attribution"/>
				<cc:permits rdf:resource="http://creativecommons.org/ns#DerivativeWorks"/>
				<cc:requires rdf:resource="http://creativecommons.org/ns#ShareAlike"/>
			</cc:License>
		</rdf:RDF>
	</metadata>
	<rect id="separatorC" style="fill:none" height="11" width="7.508" y="0" x="80"/>
	<g id="0" transform="translate(1685.9 1647.1)">
		<rect style="fill:none" height="11" width="7.508" y="-1647.1" x="-1685.9"/>
		<path style="fill:currentColor" class="ColorScheme-Text" d="m-1679.4-1641.6c0 .6914-.051 1.3106-.1523 1.8574-.098.5469-.2578 1.0098-.4805 1.3887-.2187.3789-.5019.668-.8496.8672-.3476.1992-.7695.2988-1.2656.2988-.4609 0-.8633-.1-1.207-.2988-.3399-.1992-.6231-.4883-.8496-.8672-.2227-.3789-.3907-.8418-.504-1.3887-.1093-.5468-.164-1.166-.164-1.8574s.049-1.3105.1465-1.8574c.1015-.5469.2597-1.0078.4746-1.3828.2187-.3789.5-.668.8437-.8672.3477-.1992.7676-.2988 1.2598-.2988.4648 0 .8691.1 1.2129.2988.3437.1953.6289.4824.8555.8613.2265.375.3964.836.5097 1.3828.1133.5469.1699 1.168.1699 1.8633m-4.3886 0c0 .586.029 1.0977.088 1.5352s.1523.8027.2812 1.0957c.1289.289.2969.5078.5039.6562.211.1446.4668.2168.7676.2168s.5566-.072.7676-.2168c.2109-.1445.3828-.3613.5156-.6504.1367-.289.2344-.6523.293-1.0898.062-.4414.094-.957.094-1.5469 0-.5859-.031-1.0976-.094-1.5351-.059-.4375-.1563-.8008-.293-1.0899-.1328-.289-.3047-.5058-.5156-.6504-.211-.1445-.4668-.2168-.7676-.2168s-.5566.072-.7676.2168c-.207.1446-.375.3614-.5039.6504-.1289.2891-.2226.6524-.2812 1.0899-.059.4375-.088.9492-.088 1.5351"/>
	</g>
	<g id="1" transform="translate(1685.9 1647.1)">
		<rect style="fill:none" height="11" width="7.508" y="-1647.1" x="-1677.9"/>
		<path style="fill:currentColor" class="ColorScheme-Text" d="m-1672.6-1637.3h-1.0313v-5.3496-.539c0-.1914.01-.3809.012-.5684.01-.1914.014-.373.018-.5449.01-.1758.014-.3301.018-.4629-.066.07-.125.1309-.1758.1816-.051.051-.1035.1-.1582.1465-.051.047-.1055.098-.1641.1524-.059.051-.1289.1113-.2109.1816l-.8672.709-.5625-.7207 2.2442-1.752h.8789v8.5664"/>
	</g>
	<g id="2" transform="translate(1685.9 1647.1)">
		<rect style="fill:none" height="11" width="7.508" y="-1647.1" x="-1669.9"/>
		<path style="fill:currentColor" class="ColorScheme-Text" d="m-1663.4-1637.2h-5.3438v-.914l2.0508-2.2324c.293-.3164.5547-.6055.7852-.8672.2304-.2617.4257-.5176.5859-.7676.1641-.25.2891-.5.375-.75.086-.2539.1289-.5293.1289-.8262 0-.2304-.033-.4336-.1-.6094-.066-.1757-.1621-.3242-.2871-.4453-.1211-.125-.2656-.2187-.4336-.2812-.168-.062-.3555-.094-.5625-.094-.3711 0-.707.076-1.0078.2286-.2969.1484-.5801.3398-.8496.5742l-.5977-.6973c.1563-.1406.3242-.2715.5039-.3926.1797-.125.3731-.2324.5801-.3222.207-.09.4258-.1602.6562-.211.2305-.055.4727-.082.7266-.082.375 0 .7129.053 1.0137.1582.3047.1055.5625.2578.7734.457.2109.1953.3731.4356.4863.7207.1172.2813.1758.5996.1758.9551 0 .332-.053.6485-.1582.9492-.1015.3008-.2441.5977-.4277.8907-.1797.289-.3965.58-.6504.873-.25.293-.5215.5977-.8145.9141l-1.6464 1.7519v.047h4.0371v.9726"/>
	</g>
	<g id="3" transform="translate(1685.9 1647.1)">
		<rect style="fill:none" height="11" width="7.508" y="-1647.1" x="-1661.9"/>
		<path style="fill:currentColor" class="ColorScheme-Text" d="m-1655.7-1643.9c-.00010.2852-.045.545-.1348.7793-.09.2344-.2168.4375-.3809.6094-.1601.1719-.3535.3145-.5801.4278-.2265.1093-.4785.1875-.7558.2343v.035c.6914.086 1.2168.3066 1.5762.6621.3593.3516.539.8105.539 1.3769 0 .375-.064.7188-.1933 1.0313-.125.3125-.3164.582-.5743.8086-.2578.2266-.5839.4023-.9785.5273-.3945.125-.8613.1875-1.4004.1875-.4257 0-.8281-.033-1.207-.1-.375-.066-.7285-.1875-1.0605-.3633v-.9961c.3398.1797.707.3184 1.1015.4161.3985.098.7793.1464 1.1426.1464.3594 0 .6699-.039.9316-.1171.2618-.078.4766-.1895.6446-.334.1718-.1446.2968-.3223.375-.5332.082-.211.123-.4473.123-.709 0-.2656-.053-.4922-.1582-.6797-.1015-.1914-.248-.3477-.4394-.4687-.1914-.125-.4258-.2168-.7032-.2754-.2734-.059-.5839-.088-.9316-.088h-.7793v-.8848h.7793c.3164 0 .5977-.039.8437-.1172.2461-.078.4512-.1894.6153-.334.1679-.1445.2949-.3164.3808-.5156.086-.1992.1289-.418.1289-.6562 0-.2032-.035-.3848-.1054-.545-.07-.1601-.1699-.2949-.2988-.4043-.129-.1132-.2833-.1992-.4629-.2578-.1797-.059-.3789-.088-.5977-.088-.418 0-.7871.066-1.1074.1993-.3164.1289-.6192.2988-.9082.5097l-.5391-.7324c.1485-.1211.3125-.2344.4922-.3398.1836-.1055.3828-.1973.5977-.2754.2148-.082.4433-.1465.6855-.1934.2461-.047.5059-.07.7793-.07.4219 0 .791.053 1.1074.1582.3203.1055.5879.2539.8028.4453.2148.1875.3769.4121.4863.6738.1094.2579.164.5411.1641.8496"/>
	</g>
	<g id="4" transform="translate(1685.9 1647.1)">
		<rect style="fill:none" height="11" width="7.508" y="-1647.1" x="-1653.9"/>
		<path style="fill:currentColor" class="ColorScheme-Text" d="m-1647-1639.2h-1.248v1.9218h-1.0313v-1.9218h-3.9551v-.9317l3.8848-5.7597h1.1016v5.7187h1.248v.9727m-2.2793-.9727v-2.0859c0-.2188 0-.4473.01-.6856.01-.2422.016-.4765.023-.7031.01-.2305.016-.4453.023-.6445.012-.1992.02-.3653.024-.4981h-.053c-.027.078-.062.166-.1054.2637-.039.094-.084.1895-.1348.2871-.047.094-.096.1856-.1465.2754-.051.09-.098.166-.1406.2285l-2.4082 3.5625h2.9121"/>
	</g>
	<g id="5" transform="translate(1685.9 1647.1)">
		<rect style="fill:none" height="11" width="7.508" y="-1647.1" x="-1645.9"/>
		<path style="fill:currentColor" class="ColorScheme-Text" d="m-1642.3-1642.6c.3867 0 .7461.055 1.0781.164.336.1055.627.2637.8731.4747.25.2109.4453.4726.5859.7851s.2109.6738.2109 1.084c0 .4453-.066.8457-.1992 1.2012-.1328.3554-.3301.6562-.5918.9023s-.5859.4356-.9726.5684c-.3828.1289-.8242.1933-1.3242.1933-.1993 0-.3965-.01-.5918-.029-.1914-.02-.377-.049-.5567-.088-.1758-.035-.3437-.082-.5039-.1406-.1601-.059-.3047-.1269-.4336-.2051v-1.0078c.1289.09.2793.17.4512.2403.1758.07.3594.1289.5508.1757.1914.047.3828.084.5742.1114.1953.023.375.035.5391.035.3085 0 .5839-.035.8261-.1054.2422-.074.4473-.1875.6153-.3399.1679-.1523.2968-.3437.3867-.5742.09-.2305.1347-.5039.1347-.8203 0-.5586-.1718-.9844-.5156-1.2774-.3437-.2968-.8437-.4453-1.5-.4453-.1054 0-.2207.01-.3457.018-.1211.01-.2441.02-.3691.035-.1211.016-.2383.033-.3516.053-.1094.016-.2051.031-.2871.047l-.5273-.334.3222-4.0313h4.043v.9727h-3.1172l-.2285 2.4551c.125-.024.2891-.049.4922-.076.207-.027.4511-.041.7324-.041"/>
	</g>
	<g id="6" transform="translate(1685.9 1647.1)">
		<rect style="fill:none" height="11" width="7.508" y="-1647.1" x="-1637.9"/>
		<path style="fill:currentColor" class="ColorScheme-Text" d="m-1636.8-1640.9c0-.4101.02-.8183.059-1.2246.043-.4062.1153-.7949.2168-1.166.1055-.375.2481-.7226.4278-1.043.1796-.3203.4082-.5976.6855-.832.2773-.2383.6094-.4238.9961-.5566.3867-.1367.8398-.2051 1.3594-.2051.074 0 .1562 0 .2461.01.09 0 .1796.012.2695.023.094.01.1816.02.2637.035.086.012.1621.027.2285.047v.9082c-.1367-.047-.291-.082-.4629-.1054-.1719-.024-.3418-.035-.5098-.035-.3515 0-.6621.043-.9316.1289-.2656.082-.4961.1992-.6914.3516-.1953.1523-.3594.334-.4922.5449-.1289.2109-.2344.4453-.3164.7031-.082.2539-.1426.5254-.1817.8145-.039.289-.064.5898-.076.9023h.07c.078-.1406.1719-.2715.2812-.3926.1133-.125.2442-.2304.3926-.3164.1484-.09.3145-.1601.4981-.2109.1875-.051.3964-.076.6269-.076.3711 0 .707.059 1.0078.1758.3008.1133.5567.2813.7676.5039.2109.2227.373.4961.4863.8203.1172.3203.1758.6875.1758 1.1016 0 .4453-.061.8457-.1816 1.2012-.1211.3554-.295.6582-.5215.9082-.2266.246-.5.4355-.8203.5683s-.6797.1992-1.0782.1992c-.3906 0-.7578-.076-1.1015-.2285-.3399-.1523-.6348-.3847-.8848-.6972s-.4472-.7051-.5918-1.1778c-.1445-.4726-.2168-1.0312-.2168-1.6758m2.7832 2.8828c.2344 0 .4473-.039.6387-.1171.1953-.082.3633-.2032.5039-.3633.1406-.1641.2481-.3692.3223-.6153.078-.25.1172-.5449.1172-.8847 0-.2735-.033-.5176-.1-.7324-.063-.2188-.1583-.4043-.2872-.5567-.1289-.1523-.291-.2695-.4863-.3515-.1914-.082-.416-.1231-.6738-.1231-.2617 0-.502.047-.7207.1406-.2149.09-.3985.209-.5508.3575-.1523.1445-.2715.3105-.3574.498-.082.1875-.1231.375-.1231.5625 0 .2617.035.5234.1055.7852.074.2578.1816.4902.3223.6972.1445.2071.3242.377.539.5098.2149.1289.4649.1933.75.1933"/>
	</g>
	<g id="7" transform="translate(1685.9 1647.1)">
		<rect style="fill:none" height="11" width="7.508" y="-1647.1" x="-1629.9"/>
		<path style="fill:currentColor" class="ColorScheme-Text" d="m-1627.8-1637.3 3.2988-7.5937h-4.418v-.9727h5.5078v.8496l-3.2519 7.7168h-1.1367"/>
	</g>
	<g id="8" transform="translate(1685.9 1647.1)">
		<rect style="fill:none" height="11" width="7.508" y="-1647.1" x="-1621.9"/>
		<path style="fill:currentColor" class="ColorScheme-Text" d="m-1618.1-1646c.3281 0 .6367.043.9258.1289.293.086.5488.2148.7676.3867.2226.1719.3984.3867.5273.6445s.1934.5586.1934.9024c0 .2617-.039.498-.1172.709-.078.2109-.1856.4023-.3223.5742-.1367.168-.2988.3203-.4863.457-.1875.1328-.3906.2539-.6094.3633.2266.1211.4473.2559.6621.4043.2188.1484.4121.3164.5801.5039.1719.1836.3086.3906.4102.6211.1054.2305.1582.4883.1582.7734 0 .3594-.066.6856-.1993.9785-.1289.2891-.3125.5352-.5507.7383-.2344.2031-.5176.3594-.8496.4688-.3282.1093-.6915.164-1.0899.164-.4297 0-.8125-.053-1.1484-.1582-.3321-.1054-.6133-.2558-.8438-.4511-.2265-.1993-.4004-.4414-.5215-.7266-.1171-.2852-.1757-.6074-.1757-.9668 0-.293.043-.5566.1289-.791.09-.2344.209-.4453.3574-.6328s.3242-.3535.5273-.4981c.2032-.1445.418-.2715.6446-.3808-.1914-.1211-.3711-.252-.5391-.3926-.168-.1445-.3145-.3047-.4395-.4805-.121-.1758-.2187-.3691-.2929-.5801-.07-.2148-.1055-.4511-.1055-.7089 0-.3399.064-.6368.1934-.8907.1328-.2578.3105-.4726.5332-.6445.2226-.1719.4785-.3008.7676-.3867.2929-.086.5976-.1289.914-.1289m-1.6406 6.5273c0 .2071.031.3985.094.5742.062.1719.1602.3203.293.4453.1328.1211.3008.2168.5039.2872.2031.066.4453.1.7266.1.2734 0 .5136-.033.7207-.1.2109-.07.3867-.168.5273-.293.1406-.1289.2461-.2832.3164-.4629.07-.1797.1055-.3789.1055-.5977 0-.2031-.039-.3867-.1172-.5507-.074-.1641-.1836-.3164-.3281-.4571-.1406-.1406-.3106-.2734-.5098-.3984s-.4219-.2481-.6679-.3691l-.1758-.082c-.4922.2344-.8633.5039-1.1133.8086-.25.3008-.375.666-.375 1.0957m1.6289-5.6367c-.4141 0-.7441.1035-.9902.3105-.2422.2071-.3633.5079-.3633.9024 0 .2227.033.4141.1.5742.07.1602.166.3027.2871.4277s.2656.2383.4336.3399c.1719.098.3574.1934.5566.2871.1875-.086.3633-.1797.5274-.2813.1679-.1015.3125-.2167.4336-.3457.125-.1289.2226-.2753.2929-.4394.07-.1641.1055-.3516.1055-.5625 0-.3945-.123-.6953-.3691-.9024-.2461-.207-.584-.3105-1.0137-.3105"/>
	</g>
	<g id="g4048" transform="translate(1685.9 1647.1)">
		<rect style="fill:none" height="11" width="7.508" y="-1647.1" x="-1613.9"/>
		<path id="9" style="fill:currentColor" class="ColorScheme-Text" d="m-1607.4-1642.2c0 .4101-.022.8203-.064 1.2305-.039.4062-.1113.7949-.2168 1.166-.1015.3711-.2422.7187-.4218 1.0429-.1797.3204-.4083.5977-.6856.8321-.2773.2343-.6094.4199-.9961.5566-.3867.1328-.8398.1992-1.3594.1992-.074 0-.1562 0-.2461-.01-.09 0-.1796-.012-.2695-.024-.09-.01-.1777-.017-.2637-.029s-.1621-.027-.2285-.047v-.9141c.1367.051.291.088.4629.1113.1719.024.3418.035.5098.035.5273 0 .9609-.092 1.3008-.2754.3398-.1836.6093-.4316.8086-.7441.1992-.3164.3398-.6836.4218-1.1016.086-.418.1387-.8594.1582-1.3242h-.076c-.078.1406-.1719.2715-.2813.3926-.1094.121-.2383.2265-.3867.3164-.1484.09-.3164.1601-.5039.2109-.1875.051-.3965.076-.627.076-.3711 0-.707-.057-1.0078-.17-.3008-.1171-.5566-.2871-.7676-.5097-.2109-.2227-.375-.4942-.4921-.8145-.1133-.3242-.17-.6933-.17-1.1074 0-.4453.061-.8457.1817-1.2012.125-.3593.2988-.6621.5215-.9082.2265-.25.5-.4414.8203-.5742.3242-.1328.6855-.1992 1.084-.1992.3945 0 .7617.076 1.1015.2285.3399.1524.6348.3848.8848.6973s.4472.707.5918 1.1836c.1445.4726.2168 1.0293.2168 1.6699m-2.7832-2.877c-.2344 0-.4492.039-.6446.1172-.1914.078-.3574.1992-.498.3633s-.25.3711-.3281.6211c-.074.2461-.1114.5391-.1114.8789 0 .2734.031.5195.094.7383.066.2148.1641.3984.293.5508.1289.1523.289.2695.4804.3515.1953.082.4219.1231.6797.1231.2656 0 .5059-.045.7207-.1348.2149-.094.3985-.2129.5508-.3574.1523-.1484.2695-.3164.3516-.5039.086-.1875.1289-.375.1289-.5625 0-.2617-.037-.5215-.1114-.7793-.07-.2617-.1777-.4961-.3222-.7031-.1406-.211-.3184-.3809-.5332-.5098-.2149-.1289-.4649-.1934-.75-.1934"/>
	</g>
	<g id="separatorB" transform="translate(1685.9 1647.1)">
		<rect style="fill:none" height="11" width="7.508" y="-1647.1" x="-1597.9"/>
		<path style="fill:currentColor" class="ColorScheme-Text" d="m-1594.9-1637.9c0-.1485.02-.2735.059-.375.039-.1055.092-.1895.1582-.252.066-.066.1446-.1133.2344-.1406.09-.031.1875-.047.293-.047.1015 0 .1972.016.2871.047.094.027.1738.074.2402.1406.066.062.1192.1465.1582.252.039.1015.059.2265.059.375 0 .1445-.019.2695-.059.375-.039.1015-.092.1855-.1582.2519-.066.066-.1465.1152-.2402.1465-.09.031-.1856.047-.2871.047-.1055 0-.2032-.016-.293-.047-.09-.031-.168-.08-.2344-.1465-.066-.066-.1191-.1504-.1582-.2519-.039-.1055-.059-.2305-.059-.375"/>
	</g>
	<g id="separator" transform="translate(1685.9 1647.1)">
		<rect style="fill:none" height="11" width="7.508" y="-1647.1" x="-1589.9"/>
		<path style="fill:currentColor" class="ColorScheme-Text" d="m-1585.4-1639.7.088.1348c-.055.2109-.1211.4355-.1992.6738-.074.2383-.1582.4785-.2519.7207-.09.2422-.1856.4824-.2872.7207-.098.2422-.1953.4727-.2929.6914h-.8086c.059-.2383.1152-.4863.1699-.7441.059-.2578.1133-.5156.1641-.7735.055-.2539.1035-.5019.1465-.7441.043-.2461.08-.4727.1113-.6797h1.1601m-1.2597-4.3887c0-.1523.02-.2792.059-.3808.039-.1055.092-.1895.1582-.252.066-.066.1445-.1132.2343-.1406.09-.027.1875-.041.293-.041.1016 0 .1973.014.2871.041.094.027.1738.074.2403.1406.066.062.1191.1465.1582.252.039.1016.059.2285.059.3808 0 .1446-.02.2676-.059.3692s-.092.1855-.1582.2519c-.067.066-.1465.1153-.2403.1465-.09.031-.1855.047-.2871.047-.1055 0-.2031-.016-.293-.047-.09-.031-.1679-.08-.2343-.1465-.066-.066-.1192-.1503-.1582-.2519s-.059-.2246-.059-.3692"/>
	</g>
</svg>
