<?xml version="1.0" encoding="UTF-8" standalone="no"?>
<svg id="svg2" xmlns:rdf="http://www.w3.org/1999/02/22-rdf-syntax-ns#" xmlns="http://www.w3.org/2000/svg" height="15" width="15" version="1.0" xmlns:cc="http://creativecommons.org/ns#" xmlns:dc="http://purl.org/dc/elements/1.1/">
	<metadata id="metadata7">
		<rdf:RDF>
			<cc:Work rdf:about="">
				<dc:format>image/svg+xml</dc:format>
				<dc:type rdf:resource="http://purl.org/dc/dcmitype/StillImage"/>
				<dc:title/>
				<dc:creator>
					<cc:Agent>
						<dc:title>obnosim</dc:title>
					</cc:Agent>
				</dc:creator>
				<cc:license rdf:resource="http://creativecommons.org/licenses/by-sa/3.0/"/>
			</cc:Work>
			<cc:License rdf:about="http://creativecommons.org/licenses/by-sa/3.0/">
				<cc:permits rdf:resource="http://creativecommons.org/ns#Reproduction"/>
				<cc:permits rdf:resource="http://creativecommons.org/ns#Distribution"/>
				<cc:requires rdf:resource="http://creativecommons.org/ns#Notice"/>
				<cc:requires rdf:resource="http://creativecommons.org/ns#Attribution"/>
				<cc:permits rdf:resource="http://creativecommons.org/ns#DerivativeWorks"/>
				<cc:requires rdf:resource="http://creativecommons.org/ns#ShareAlike"/>
			</cc:License>
		</rdf:RDF>
	</metadata>
	<defs id="defs5">
		<style id="current-color-scheme" type="text/css">
			.ColorScheme-Background { color:#FF0000; }
		</style>
	</defs>
	<rect id="hint-tile-center" style="fill:#4e9a06" height="2.0771" width="2.0329" y="-5.3402" x="-3.7397"/>
	<path id="center" style="opacity:.875;fill:currentColor" d="m2.0001 2.0003v11h11v-11h-11z" class="ColorScheme-Background"/>
	<path id="right" style="opacity:.875;fill:currentColor" d="m13 2.0003v11h2c.000668-.0183 0-.0344 0-.0529v-10.894c0-.0185.000668-.03453 0-.05288h-2z" class="ColorScheme-Background"/>
	<path id="top" style="opacity:.875;fill:currentColor" d="m2.0001.00029778v2h11v-2c-.0041-.00067.0042 0 .0000010 0h-10.988c-.004 0-.008-.00067-.0119 0z" class="ColorScheme-Background"/>
	<path id="left" style="opacity:.875;fill:currentColor" d="m.000376 2.0003c-.00067.01835 0 .03439 0 .05288v10.894c0 .0185-.00067.0345 0 .0529h2v-11h-2z" class="ColorScheme-Background"/>
	<path id="bottom" style="opacity:.875;fill:currentColor" d="m2.0001 13v2h11v-1.9997z" class="ColorScheme-Background"/>
	<path id="topleft" style="opacity:.875;fill:currentColor" d="m.000043.00029778v2h1.9998v-2c-.000746-.00067.000763 0 0 0h-1.9976c-.000728 0-.0015-.00067-.0022 0z" class="ColorScheme-Background"/>
	<path id="topright" style="opacity:.875;fill:currentColor" d="m13 .00064278v1.9997h1.9998v-1.9997c-.000746-0.00067.000763 0 0 0h-1.9976c-.000728 0-.0015-0.00067-.0022 0z" class="ColorScheme-Background"/>
	<path id="bottomright" style="opacity:.875;fill:currentColor" d="m13 13v1.9997h1.9998v-1.9997c-.000746-.00067.000763 0 0 0h-1.9976c-.000728 0-.0015-.00067-.0022 0z" class="ColorScheme-Background"/>
	<path id="bottomleft" style="opacity:.875;fill:currentColor" d="m.000083 13v1.9997h1.9998v-1.9997c-.000746-.00067.000763 0 0 0h-1.9976c-.000728 0-.0015-.00067-.0022 0z" class="ColorScheme-Background"/>
</svg>
