<?xml version="1.0" encoding="UTF-8"?>
<svg version="1.1" viewBox="0 0 84 36" xmlns="http://www.w3.org/2000/svg" xmlns:cc="http://creativecommons.org/ns#" xmlns:dc="http://purl.org/dc/elements/1.1/" xmlns:rdf="http://www.w3.org/1999/02/22-rdf-syntax-ns#" xmlns:xlink="http://www.w3.org/1999/xlink">
	<defs>
		<style id="current-color-scheme" type="text/css">.ColorScheme-Text { color:#0000FF; }
			.ColorScheme-Highlight { color:#FF00FF; }</style>
		<g class="ColorScheme-Text">
			<linearGradient id="linearGradient4112">
				<stop style="stop-color:currentColor" offset="0"/>
				<stop style="stop-color:currentColor;stop-opacity:.75" offset="1"/>
			</linearGradient>
			<linearGradient id="linearGradient4309" x1="-54" x2="-54" y1="51" y2="61" gradientTransform="translate(74,-28)" gradientUnits="userSpaceOnUse" xlink:href="#linearGradient4112"/>
			<linearGradient id="linearGradient4312" x1="-37" x2="-37" y1="51" y2="61" gradientTransform="translate(74,-28)" gradientUnits="userSpaceOnUse" xlink:href="#linearGradient4112"/>
			<linearGradient id="linearGradient4315" x1="-73" x2="-73" y1="51" y2="61" gradientTransform="translate(74,-28)" gradientUnits="userSpaceOnUse" xlink:href="#linearGradient4112"/>
			<linearGradient id="linearGradient4336" x1="-54" x2="-54" y1="51" y2="61" gradientTransform="translate(74,-48)" gradientUnits="userSpaceOnUse" xlink:href="#linearGradient4112"/>
			<linearGradient id="linearGradient4339" x1="-37" x2="-37" y1="51" y2="61" gradientTransform="translate(74,-48)" gradientUnits="userSpaceOnUse" xlink:href="#linearGradient4112"/>
			<linearGradient id="linearGradient4342" x1="-73" x2="-73" y1="51" y2="61" gradientTransform="translate(74,-48)" gradientUnits="userSpaceOnUse" xlink:href="#linearGradient4112"/>
			<linearGradient id="linearGradient4391" x1="-54" x2="-54" y1="51" y2="61" gradientTransform="translate(118,-28)" gradientUnits="userSpaceOnUse" xlink:href="#linearGradient4112"/>
			<linearGradient id="linearGradient4476" x1="-37" x2="-37" y1="51" y2="61" gradientTransform="translate(118,-28)" gradientUnits="userSpaceOnUse" xlink:href="#linearGradient4112"/>
			<linearGradient id="linearGradient4478" x1="-73" x2="-73" y1="51" y2="61" gradientTransform="translate(118,-28)" gradientUnits="userSpaceOnUse" xlink:href="#linearGradient4112"/>
		</g>
	</defs>
	<metadata>
		<rdf:RDF>
			<cc:Work rdf:about="">
				<dc:format>image/svg+xml</dc:format>
				<dc:type rdf:resource="http://purl.org/dc/dcmitype/StillImage"/>
				<dc:creator>
					<cc:Agent>
						<dc:title>obnosim</dc:title>
					</cc:Agent>
				</dc:creator>
				<cc:license rdf:resource="http://creativecommons.org/licenses/by-sa/3.0/"/>
			</cc:Work>
			<cc:License rdf:about="http://creativecommons.org/licenses/by-sa/3.0/">
				<cc:permits rdf:resource="http://creativecommons.org/ns#Reproduction"/>
				<cc:permits rdf:resource="http://creativecommons.org/ns#Distribution"/>
				<cc:requires rdf:resource="http://creativecommons.org/ns#Notice"/>
				<cc:requires rdf:resource="http://creativecommons.org/ns#Attribution"/>
				<cc:permits rdf:resource="http://creativecommons.org/ns#DerivativeWorks"/>
				<cc:requires rdf:resource="http://creativecommons.org/ns#ShareAlike"/>
			</cc:License>
		</rdf:RDF>
	</metadata>
	<rect id="hint-stretch-borders" x="-5" y="-5" width="5" height="5" style="fill:#008000"/>
	<g id="normal-left" class="ColorScheme-Text">
		<rect y="3" width="3" height="10" style="fill:url(#linearGradient4342);opacity:.06125"/>
	</g>
	<g id="normal-right" class="ColorScheme-Text">
		<rect x="37" y="3" width="3" height="10" style="fill:url(#linearGradient4339);opacity:.06125"/>
	</g>
	<g id="normal-center" class="ColorScheme-Text">
		<rect x="3" y="3" width="34" height="10" style="fill:url(#linearGradient4336);opacity:.06125"/>
	</g>
	<g id="normal-top" class="ColorScheme-Text">
		<rect transform="scale(1,-1)" x="3" y="-3" width="34" height="3" style="fill:currentColor;opacity:.06125"/>
		<rect x="3" width="34" height="1" style="fill:currentColor;opacity:.031"/>
	</g>
	<g id="normal-topleft" class="ColorScheme-Text">
		<path d="m0 3c0-1.7 1-3 3-3v3z" style="fill:currentColor;opacity:.06125"/>
		<path d="m3 0c-2 0-3 1.3-3 3 0-1.1 1-2 3-2z" style="fill:currentColor;opacity:.031"/>
	</g>
	<g id="normal-topright" class="ColorScheme-Text">
		<path d="m40 3c0-1.7-1-3-3-3v3z" style="fill:currentColor;opacity:.06125"/>
		<path d="m37 0c2 0 3 1.3 3 3 0-1.1-1-2-3-2z" style="fill:currentColor;opacity:.031"/>
	</g>
	<g id="normal-bottom" class="ColorScheme-Text">
		<rect x="3" y="13" width="34" height="3" style="fill-opacity:.75;fill:currentColor;opacity:.06125"/>
		<rect transform="scale(1,-1)" x="3" y="-16" width="34" height="1" style="opacity:.031"/>
	</g>
	<g id="normal-bottomleft" class="ColorScheme-Text">
		<path d="m0 13c0 1.7 1 3 3 3v-3z" style="fill-opacity:.75;fill:currentColor;opacity:.06125"/>
		<path d="m3 16c-2 0-3-1.3-3-3 0 1.1 1 2 3 2z" style="opacity:.031"/>
	</g>
	<g id="normal-bottomright" class="ColorScheme-Text">
		<path d="m40 13c0 1.7-1 3-3 3v-3z" style="fill-opacity:.75;fill:currentColor;opacity:.06125"/>
		<path d="m37 16c2 0 3-1.3 3-3 0 1.1-1 2-3 2z" style="opacity:.031"/>
	</g>
	<g id="hover-left" class="ColorScheme-Text">
		<rect y="23" width="3" height="10" style="fill:url(#linearGradient4315);opacity:.125"/>
	</g>
	<g id="hover-right" class="ColorScheme-Text">
		<rect x="37" y="23" width="3" height="10" style="fill:url(#linearGradient4312);opacity:.125"/>
	</g>
	<g id="hover-center" class="ColorScheme-Text">
		<rect x="3" y="23" width="34" height="10" style="fill:url(#linearGradient4309);opacity:.125"/>
	</g>
	<g id="hover-top" class="ColorScheme-Text">
		<rect transform="scale(1,-1)" x="3" y="-23" width="34" height="3" style="fill:currentColor;opacity:.125"/>
		<rect x="3" y="20" width="34" height="1" style="fill:currentColor;opacity:.06125"/>
	</g>
	<g id="hover-topleft" class="ColorScheme-Text">
		<path d="m0 23c0-1.7 1-3 3-3v3z" style="fill:currentColor;opacity:.125"/>
		<path d="m3 20c-2 0-3 1.3-3 3 0-1.1 1-2 3-2z" style="fill:currentColor;opacity:.06125"/>
	</g>
	<g id="hover-topright" class="ColorScheme-Text">
		<path d="m40 23c0-1.7-1-3-3-3v3z" style="fill:currentColor;opacity:.125"/>
		<path d="m37 20c2 0 3 1.3 3 3 0-1.1-1-2-3-2z" style="fill:currentColor;opacity:.06125"/>
	</g>
	<g id="hover-bottom" class="ColorScheme-Text">
		<rect x="3" y="33" width="34" height="3" style="fill-opacity:.75;fill:currentColor;opacity:.125"/>
		<rect transform="scale(1,-1)" x="3" y="-36" width="34" height="1" style="opacity:.06125"/>
	</g>
	<g id="hover-bottomleft" class="ColorScheme-Text">
		<path d="m0 33c0 1.7 1 3 3 3v-3z" style="fill-opacity:.75;fill:currentColor;opacity:.125"/>
		<path d="m3 36c-2 0-3-1.3-3-3 0 1.1 1 2 3 2z" style="opacity:.06125"/>
	</g>
	<g id="hover-bottomright" class="ColorScheme-Text">
		<path d="m40 33c0 1.7-1 3-3 3v-3z" style="fill-opacity:.75;fill:currentColor;opacity:.125"/>
		<path d="m37 36c2 0 3-1.3 3-3 0 1.1-1 2-3 2z" style="opacity:.06125"/>
	</g>
	<g id="selected+hover-center">
		<rect class="ColorScheme-Text" x="47" y="23" width="34" height="10" style="fill:url(#linearGradient4391);opacity:.125"/>
	</g>
	<g id="selected+hover-top">
		<rect class="ColorScheme-Text" transform="scale(1,-1)" x="47" y="-23" width="34" height="3" style="fill:currentColor;opacity:.125"/>
		<rect class="ColorScheme-Highlight" x="47" y="20" width="34" height="2" style="fill:currentColor;opacity:.375"/>
	</g>
	<g id="selected+hover-bottom">
		<rect class="ColorScheme-Text" x="47" y="33" width="34" height="3" style="fill-opacity:.75;fill:currentColor;opacity:.125"/>
		<rect class="ColorScheme-Highlight" transform="scale(1,-1)" x="47" y="-36" width="34" height="2" style="fill:currentColor;opacity:.375"/>
	</g>
	<g id="selected+hover-topleft">
		<path class="ColorScheme-Text" d="m44 23c0-1.7 1.3-3 3-3v3z" style="fill:currentColor;opacity:.125"/>
		<path class="ColorScheme-Highlight" d="m47 20c-1.7 0-3 1.3-3 3h2c0-0.5 0.4-1 1-1z" style="color:fuchsia;fill:currentColor;opacity:.375"/>
	</g>
	<g id="selected+hover-bottomleft">
		<path class="ColorScheme-Text" d="m44 33c0 1.7 1.3 3 3 3v-3z" style="fill-opacity:.75;fill:currentColor;opacity:.125"/>
		<path class="ColorScheme-Highlight" d="m44 33c0 1.7 1.3 3 3 3v-2c-0.6 0-1-0.4-1-1z" style="color:fuchsia;fill:currentColor;opacity:.375"/>
	</g>
	<g id="selected+hover-topright">
		<path class="ColorScheme-Text" d="m84 23c0-1.7-1.3-3-3-3v3z" style="fill:currentColor;opacity:.125"/>
		<path class="ColorScheme-Highlight" d="m81 20v2c0.6 0 1 0.5 1 1h2c0-1.7-1.3-3-3-3z" style="color:fuchsia;fill:currentColor;opacity:.375"/>
	</g>
	<g id="selected+hover-bottomright">
		<path class="ColorScheme-Text" d="m84 33c0 1.7-1.3 3-3 3v-3z" style="fill-opacity:.75;fill:currentColor;opacity:.125"/>
		<path class="ColorScheme-Highlight" d="m82 33c0 0.6-0.4 1-1 1v2c1.7 0 3-1.3 3-3z" style="color:fuchsia;fill:currentColor;opacity:.375"/>
	</g>
	<g id="selected+hover-left">
		<rect class="ColorScheme-Text" x="44" y="23" width="3" height="10" style="fill:url(#linearGradient4478);opacity:.125"/>
		<rect class="ColorScheme-Highlight" x="44" y="23" width="2" height="10" style="fill:currentColor;opacity:.375"/>
	</g>
	<g id="selected+hover-right">
		<rect class="ColorScheme-Text" x="81" y="23" width="3" height="10" style="fill:url(#linearGradient4476);opacity:.125"/>
		<rect class="ColorScheme-Highlight" x="82" y="23" width="2" height="10" style="fill:currentColor;opacity:.375"/>
	</g>
	<g id="selected-center">
		<rect x="47" y="3" width="34" height="10" style="fill:none"/>
	</g>
	<g id="selected-top">
		<rect x="47" width="34" height="3" style="fill:none;opacity:.5"/>
		<rect class="ColorScheme-Highlight" x="47" width="34" height="2" style="fill:currentColor;opacity:.375"/>
	</g>
	<g id="selected-bottom">
		<rect x="47" y="13.2" width="34" height="3" style="fill:none;opacity:.5"/>
		<rect class="ColorScheme-Highlight" transform="scale(1,-1)" x="47" y="-16" width="34" height="2" style="fill:currentColor;opacity:.375"/>
	</g>
	<g id="selected-topleft">
		<path class="ColorScheme-Highlight" d="m47 0c-1.7 0-3 1.3-3 3h2c0-0.55 0.4-1 1-1v-2z" style="fill:currentColor;opacity:.375"/>
	</g>
	<g id="selected-bottomleft">
		<path class="ColorScheme-Highlight" d="m44 13c0 1.7 1.3 3 3 3v-2c-0.6 0-1-0.4-1-1h-2z" style="fill:currentColor;opacity:.375"/>
	</g>
	<g id="selected-topright">
		<path class="ColorScheme-Highlight" d="m81 0v2c0.6 0 1 0.45 1 1h2c0-1.7-1.3-3-3-3z" style="fill:currentColor;opacity:.375"/>
	</g>
	<g id="selected-bottomright">
		<path class="ColorScheme-Highlight" d="m82 13c0 0.6-0.4 1-1 1v2c1.7 0 3-1.3 3-3h-2z" style="fill:currentColor;opacity:.375"/>
	</g>
	<g id="selected-left">
		<rect x="44" y="3" width="3" height="10" style="fill:none;opacity:.5"/>
		<rect class="ColorScheme-Highlight" x="44" y="3" width="2" height="10" style="fill:currentColor;opacity:.375"/>
	</g>
	<g id="selected-right">
		<rect x="81" y="3" width="3" height="10" style="fill:none;opacity:.5"/>
		<rect class="ColorScheme-Highlight" x="82" y="3" width="2" height="10" style="fill:currentColor;opacity:.375"/>
	</g>
</svg>
