<?xml version="1.0" encoding="UTF-8" standalone="no"?>
<svg id="svg2" xmlns:rdf="http://www.w3.org/1999/02/22-rdf-syntax-ns#" xmlns="http://www.w3.org/2000/svg" height="22" width="22" version="1.1" xmlns:cc="http://creativecommons.org/ns#" xmlns:dc="http://purl.org/dc/elements/1.1/">
	<defs id="defs3615">
		<style id="current-color-scheme" type="text/css">
			.ColorScheme-Text { color:#0000FF; }
		</style>
	</defs>
	<metadata id="metadata7">
		<rdf:RDF>
			<cc:Work rdf:about="">
				<dc:format>image/svg+xml</dc:format>
				<dc:type rdf:resource="http://purl.org/dc/dcmitype/StillImage"/>
				<dc:title/>
				<dc:creator>
					<cc:Agent>
						<dc:title>obnosim</dc:title>
					</cc:Agent>
				</dc:creator>
				<cc:license rdf:resource="http://creativecommons.org/licenses/by-sa/3.0/"/>
			</cc:Work>
			<cc:License rdf:about="http://creativecommons.org/licenses/by-sa/3.0/">
				<cc:permits rdf:resource="http://creativecommons.org/ns#Reproduction"/>
				<cc:permits rdf:resource="http://creativecommons.org/ns#Distribution"/>
				<cc:requires rdf:resource="http://creativecommons.org/ns#Notice"/>
				<cc:requires rdf:resource="http://creativecommons.org/ns#Attribution"/>
				<cc:permits rdf:resource="http://creativecommons.org/ns#DerivativeWorks"/>
				<cc:requires rdf:resource="http://creativecommons.org/ns#ShareAlike"/>
			</cc:License>
		</rdf:RDF>
	</metadata>
	<g id="22-22-amarok">
		<rect style="fill:none" height="22" width="22" y="0" x="0"/>
		<path class="ColorScheme-Text" style="opacity:.875;fill:currentColor" d="m11 1v14.506c-.74-.330-1.61-.506-2.5-.506-2.4853 0-4.5 1.343-4.5 3 0 1.6569 2.0147 3 4.5 3s4.5-1.3431 4.5-3v-13c4 2 4 5 3 7h1c.5-1 .75-1.75.875-2.375s.125-1.125.125-1.625c0-3-5-5-5-7z"/>
	</g>
	<g id="amarok" transform="matrix(1.3333 0 0 1.3333 25.333 -8.6667)">
		<rect style="fill:none" height="24" width="24" y="-1" x="-1"/>
		<path class="ColorScheme-Text" style="opacity:.875;fill:currentColor" d="m40-7v19.918a5.5 4 0 0 0 -3.5 -.918 5.5 4 0 0 0 -5.5 4 5.5 4 0 0 0 5.5 4 5.5 4 0 0 0 5.5 -4v-18c6 3 6 5 5 9h1c1-2 1-5 1-5 0-4-7-6-7-9h-2z" transform="matrix(0.75 0 0 0.75 -19 6.5)"/>
	</g>
</svg>
