<?xml version="1.0" encoding="UTF-8" standalone="no"?>
<svg id="svg3613" xmlns:rdf="http://www.w3.org/1999/02/22-rdf-syntax-ns#" xmlns="http://www.w3.org/2000/svg" height="32" width="32" version="1.1" xmlns:cc="http://creativecommons.org/ns#" xmlns:dc="http://purl.org/dc/elements/1.1/">
	<defs id="defs3615">
		<style id="current-color-scheme" type="text/css">.ColorScheme-Text { color:#0000FF; }</style>
	</defs>
	<metadata id="metadata7">
		<rdf:RDF>
			<cc:Work rdf:about="">
				<dc:format>image/svg+xml</dc:format>
				<dc:type rdf:resource="http://purl.org/dc/dcmitype/StillImage"/>
				<dc:title/>
				<dc:creator>
					<cc:Agent>
						<dc:title>obnosim</dc:title>
					</cc:Agent>
				</dc:creator>
				<cc:license rdf:resource="http://creativecommons.org/licenses/by-sa/3.0/"/>
			</cc:Work>
			<cc:License rdf:about="http://creativecommons.org/licenses/by-sa/3.0/">
				<cc:permits rdf:resource="http://creativecommons.org/ns#Reproduction"/>
				<cc:permits rdf:resource="http://creativecommons.org/ns#Distribution"/>
				<cc:requires rdf:resource="http://creativecommons.org/ns#Notice"/>
				<cc:requires rdf:resource="http://creativecommons.org/ns#Attribution"/>
				<cc:permits rdf:resource="http://creativecommons.org/ns#DerivativeWorks"/>
				<cc:requires rdf:resource="http://creativecommons.org/ns#ShareAlike"/>
			</cc:License>
		</rdf:RDF>
	</metadata>
	<g id="22-22-applications-other" class="ColorScheme-Text" transform="translate(-22,10)">
		<rect id="rect7" style="fill:none" height="22" width="22" y="0" x="0"/>
		<path id="path9" style="opacity:.875;fill:currentColor" d="m2 4v14c0 1 0 1 1 1h16c1 0 1 0 1-1v-14c0-1 0-1-1-1h-16c-1 0-1 0-1 1zm2 3h14v10h-14z"/>
	</g>
	<g id="applications-other" class="ColorScheme-Text" transform="translate(0,10)">
		<rect id="rect12" style="fill:none" height="32" width="32" y="-10" x="0"/>
		<path id="path14" style="opacity:.875;fill:currentColor" d="m2-5v22c0 2 0 2 2 2h24c2 0 2 0 2-2v-22c0-2 0-2-2-2h-24c-2 0-2 0-2 2zm2 2h24v20h-24z"/>
	</g>
	<g id="48-48-applications-other" class="ColorScheme-Text">
		<rect id="rect3389" style="fill:none" height="48" width="48" y="-16" x="35"/>
		<path id="path3391" style="opacity:.875;fill:currentColor" d="m37-9v34c0 2 0 2 2 2h40c2 0 2 0 2-2v-34c0-2 0-2-2-2h-40c-2 0-2 0-2 2zm2 2h40v32h-40z"/>
	</g>
	<g id="64-64-applications-other" class="ColorScheme-Text">
		<rect id="rect4195" style="fill:none" height="64" width="64" y="-32" x="83"/>
		<path id="path4197" style="opacity:.875;fill:currentColor" d="m86-24v47c0 2 0 2 2 2h54c2 0 2 0 2-2v-47c0-2 0-2-2-2h-54c-2 0-2 0-2 2zm2 2h54v45h-54z"/>
	</g>
</svg>
