<?xml version="1.0" encoding="UTF-8" standalone="no"?>
<svg id="svg2" xmlns:rdf="http://www.w3.org/1999/02/22-rdf-syntax-ns#" xmlns="http://www.w3.org/2000/svg" height="22" viewBox="0 0 22 22" width="22" version="1.1" xmlns:cc="http://creativecommons.org/ns#" xmlns:dc="http://purl.org/dc/elements/1.1/">
	<defs id="defs3615">
		<style id="current-color-scheme" type="text/css">
			.ColorScheme-Text { color:#0000FF; }
		</style>
	</defs>
	<metadata id="metadata7">
		<rdf:RDF>
			<cc:Work rdf:about="">
				<dc:format>image/svg+xml</dc:format>
				<dc:type rdf:resource="http://purl.org/dc/dcmitype/StillImage"/>
				<dc:title/>
				<dc:creator>
					<cc:Agent>
						<dc:title>obnosim</dc:title>
					</cc:Agent>
				</dc:creator>
				<cc:license rdf:resource="http://creativecommons.org/licenses/by-sa/3.0/"/>
			</cc:Work>
			<cc:License rdf:about="http://creativecommons.org/licenses/by-sa/3.0/">
				<cc:permits rdf:resource="http://creativecommons.org/ns#Reproduction"/>
				<cc:permits rdf:resource="http://creativecommons.org/ns#Distribution"/>
				<cc:requires rdf:resource="http://creativecommons.org/ns#Notice"/>
				<cc:requires rdf:resource="http://creativecommons.org/ns#Attribution"/>
				<cc:permits rdf:resource="http://creativecommons.org/ns#DerivativeWorks"/>
				<cc:requires rdf:resource="http://creativecommons.org/ns#ShareAlike"/>
			</cc:License>
		</rdf:RDF>
	</metadata>
	<g id="22-22-apport" transform="matrix(0,-1,1,0,0,22)">
		<rect style="fill:none" ry=".5" height="22" width="22" y="0" x="0"/>
		<path style="opacity:0.875;fill:currentColor" d="m10.5 3c-.277 0-.5.223-.5.5v.6855a9 7 0 0 0 -2.2773 .6641 6 10 0 0 1 1.2402 5.1504h11.933a9 7 0 0 0 -3.896 -4.8047v-.6953c0-.277-.223-.5-.5-.5s-.5.223-.5.5v.2441a9 7 0 0 0 -2 -.5664v-.6777c0-.277-.223-.5-.5-.5s-.5.223-.5.5v.5488a9 7 0 0 0 -1 -.0488 9 7 0 0 0 -1 .0488v-.5488c0-.277-.223-.5-.5-.5zm-4.2109 2.5977a9 7 0 0 0 -1.3223 1.0468 2 2 0 0 1 .0332 .3555 2 2 0 0 1 -.2793 1.0137l-.7559-.7559a1 1 0 0 0 .0352 -.2578 1 1 0 0 0 -1 -1 1 1 0 0 0 -1 1 1 1 0 0 0 1 1 1 1 0 0 0 .2578 -.0352l.7539.754a2 2 0 0 1 -.6113 .2382 9 7 0 0 0 -.4004 2.043 9 7 0 0 0 .3945 2.039 2 2 0 0 1 .6192 .24l-.7559.756a1 1 0 0 0 -.2578 -.035 1 1 0 0 0 -1 1 1 1 0 0 0 1 1 1 1 0 0 0 1 -1 1 1 0 0 0 -.0352 -.258l.7559-.756a2 2 0 0 1 .2793 1.014 2 2 0 0 1 -.0332 .352 9 7 0 0 0 1.3203 1.052 4.4688 8 0 0 0 1.1817 -5.404 4.4688 8 0 0 0 -1.1797 -5.4023zm2.6797 6.4023a6 10 0 0 1 -1.2442 5.158 9 7 0 0 0 2.2754 .660v.682c0 .277.223.5.5.5s.5-.223.5-.5v-.549a9 7 0 0 0 1 .049 9 7 0 0 0 1 -.047v.547c0 .277.223.5.5.5s.5-.223.5-.5v-.684a9 7 0 0 0 2 -.558v.242c0 .277.223.5.5.5s.5-.223.5-.5v-.688a9 7 0 0 0 3.898 -4.812h-11.929z" class="ColorScheme-Text" transform="matrix(0,1,-1,0,22,0)"/>
	</g>
	<g id="apport">
		<rect ry=".72727" style="fill:none" transform="rotate(-90)" height="32" width="32" y="24" x="-22"/>
		<path class="ColorScheme-Text" style="opacity:.875;fill:currentColor" d="m38.5-6c-.277 0-.5.223-.5.5v1.6836a13.5 10 0 0 0 -3.803 .9863 8 14 0 0 1 1.776 7.8301h17.959a13.5 10 0 0 0 -4.932 -6.7617v-1.7383c0-.2770-.223-0.5-0.5-0.5s-0.5.2230-0.5 0.5v1.1953a13.5 10 0 0 0 -4 -1.3496v-1.8457c0-.2770-.223-0.5-0.5-0.5s-0.5.2230-0.5 0.5v1.6797a13.5 10 0 0 0 -2.5 -.1797 13.5 10 0 0 0 -1.5 .0703v-1.5703c0-.2770-.223-0.5-0.5-0.5zm-6.041 3.9941a13.5 10 0 0 0 -2.555 1.8282 2.5 2.5 0 0 1 .096 .6777 2.5 2.5 0 0 1 -.416 1.377l-.732-.7325a1.5 1.5 0 0 0 .148 -.6445 1.5 1.5 0 0 0 -1.5 -1.5 1.5 1.5 0 0 0 -1.5 1.5 1.5 1.5 0 0 0 1.5 1.5 1.5 1.5 0 0 0 .645 -.1484l.730.7304a2.5 2.5 0 0 1 -1.246 .4121 13.5 10 0 0 0 -.629 3.0059 13.5 10 0 0 0 .641 3.0039 2.5 2.5 0 0 1 1.236 .4121l-.732.7320a1.5 1.5 0 0 0 -.645 -.148 1.5 1.5 0 0 0 -1.5 1.5 1.5 1.5 0 0 0 1.5 1.5 1.5 1.5 0 0 0 1.5 -1.5 1.5 1.5 0 0 0 -.148 -.645l.73242-.73242a2.5 2.5 0 0 1 .416 1.377 2.5 2.5 0 0 1 -0.1 .691 13.5 10 0 0 0 2.555 1.827 6 12 0 0 0 1.545 -8.018 6 12 0 0 0 -1.541 -8.0059zm3.521 9.0059a8 14 0 0 1 -1.779 7.836 13.5 10 0 0 0 3.799 .986v1.678c0 .277.223.5.5.5s.5-.223.5-.5v-1.5723a13.5 10 0 0 0 1.5 .072 13.5 10 0 0 0 2.5 -.182v1.682c0 .277.223.5.5.5s.5-.223.5-.5v-1.8574a13.5 10 0 0 0 4 -1.3398v1.197c0 .277.223.5.5.5s.5-.223.5-.5v-1.75a13.5 10 0 0 0 4.918 -6.75h-17.938z"/>
	</g>
</svg>
