<?xml version="1.0" encoding="UTF-8"?>
<svg version="1.1" viewBox="0 0 22 22" xmlns="http://www.w3.org/2000/svg" xmlns:cc="http://creativecommons.org/ns#" xmlns:dc="http://purl.org/dc/elements/1.1/" xmlns:rdf="http://www.w3.org/1999/02/22-rdf-syntax-ns#">
	<defs>
		<style id="current-color-scheme" type="text/css">.ColorScheme-Text { color:#0000FF; }</style>
	</defs>
	<metadata>
		<rdf:RDF>
			<cc:Work rdf:about="">
				<dc:format>image/svg+xml</dc:format>
				<dc:type rdf:resource="http://purl.org/dc/dcmitype/StillImage"/>
				<dc:creator>
					<cc:Agent>
						<dc:title>obnosim</dc:title>
					</cc:Agent>
				</dc:creator>
				<cc:license rdf:resource="http://creativecommons.org/licenses/by-sa/4.0/"/>
			</cc:Work>
			<cc:License rdf:about="http://creativecommons.org/licenses/by-sa/4.0/">
				<cc:permits rdf:resource="http://creativecommons.org/ns#Reproduction"/>
				<cc:permits rdf:resource="http://creativecommons.org/ns#Distribution"/>
				<cc:requires rdf:resource="http://creativecommons.org/ns#Notice"/>
				<cc:requires rdf:resource="http://creativecommons.org/ns#Attribution"/>
				<cc:permits rdf:resource="http://creativecommons.org/ns#DerivativeWorks"/>
				<cc:requires rdf:resource="http://creativecommons.org/ns#ShareAlike"/>
			</cc:License>
		</rdf:RDF>
	</metadata>
	<g id="audio-volume-muted" class="ColorScheme-Text">
		<rect x="-96" y="-36" width="32" height="32" style="fill:none"/>
		<path d="m-68-11c0 0.6 0.4 1 1 1s1-0.4 1-1v-5h-2zm0-6h2v-6h-2zm0-7h2v-5c0-0.5-0.4-1-1-1s-1 0.5-1 1z" style="fill:currentColor;opacity:.375"/>
		<path d="m-75-35-10 10h-4c-1.1 0-2 0.9-2 2v6c0 1.1 0.9 2 2 2h4l10 10h2c0.6 0 1-0.5 1-1v-28c0-0.6-0.4-1-1-1zm-10 12c0.5 0 1-0.2 1.4-0.6l9.4-9.4h0.2v26h-0.2l-9.4-9.4c-0.4-0.4-0.9-0.6-1.4-0.6zm-1 6h-3v-6h3z" style="fill:currentColor;opacity:.875;stroke-linecap:round;stroke-linejoin:round;stroke-width:2"/>
	</g>
	<g id="audio-volume-low" class="ColorScheme-Text">
		<rect x="-64" y="-36" width="32" height="32" style="fill:none"/>
		<path d="m-36-17h2v-6h-2zm0-7h2v-5c0-0.5-0.4-1-1-1s-1 0.5-1 1z" style="fill:currentColor;opacity:.25"/>
		<path d="m-36-11c0 0.6 0.4 1 1 1s1-0.4 1-1v-5h-2z" style="fill:currentColor;opacity:.875"/>
		<path d="m-53-25 10-10h2c0.6 0 1 0.4 1 1v28c0 0.5-0.4 1-1 1h-2l-10-10zm-1 10h-3c-1.1 0-2-0.9-2-2v-6c0-1.1 0.9-2 2-2h3z" style="fill:currentColor;opacity:.875;stroke-linecap:round;stroke-linejoin:round;stroke-width:2"/>
	</g>
	<g id="audio-volume-medium" class="ColorScheme-Text">
		<rect x="-32" y="-36" width="32" height="32" style="fill:none"/>
		<path d="m-4-24h2v-5c0-0.5-0.4-1-1-1s-1 0.5-1 1z" style="fill:currentColor;opacity:.25"/>
		<path d="m-4-11c0 0.6 0.4 1 1 1s1-0.4 1-1v-5h-2zm0-6h2v-6h-2z" style="fill:currentColor;opacity:.875"/>
		<path d="m-21-25 10-10h2c0.6 0 1 0.4 1 1v28c0 0.5-0.4 1-1 1h-2l-10-10zm-1 10h-3c-1.1 0-2-0.9-2-2v-6c0-1.1 0.9-2 2-2h3z" style="fill:currentColor;opacity:.875;stroke-linecap:round;stroke-linejoin:round;stroke-width:2"/>
	</g>
	<g id="audio-volume-high" class="ColorScheme-Text">
		<rect y="-36" width="32" height="32" style="fill:none"/>
		<path d="m28-11c0 0.6 0.4 1 1 1s1-0.4 1-1v-5h-2zm0-6h2v-6h-2zm0-7h2v-5c0-0.5-0.4-1-1-1s-1 0.5-1 1z" style="fill:currentColor;opacity:.875"/>
		<path d="m11-25 10-10h2c0.6 0 1 0.4 1 1v28c0 0.55-0.4 1-1 1h-2l-10-10zm-1 10h-3c-1.1 0-2-0.9-2-2v-6c0-1.1 0.9-2 2-2h3z" style="fill:currentColor;opacity:.875;stroke-linecap:round;stroke-linejoin:round;stroke-width:2"/>
	</g>
	<g id="22-22-audio-volume-muted" class="ColorScheme-Text">
		<rect x="-66" width="22" height="22" style="fill:none"/>
		<path d="m-53 1-6 6h-3c-1.1 0-2 0.92-2 2.02v3.98c0 1.1 0.9 2 2 2h3l6 6h2c0.6 0 1-0.4 1-1v-18c0-0.55-0.4-1-1-1zm1 1.83v16.37l-5.6-5.6c-0.4-0.4-0.9-0.6-1.4-0.6v-3.98c0.5 0 1-0.22 1.4-0.59zm-10 6.19h2v3.98h-2z" style="fill:currentColor;opacity:.875;stroke-linecap:round;stroke-linejoin:round;stroke-width:2"/>
		<path d="m-48 17c0 0.6 0.4 1 1 1s1-0.4 1-1v-3h-2zm0-4h2v-4h-2zm0-5h2v-3c0-0.5-0.4-1-1-1s-1 0.5-1 1z" style="fill:currentColor;opacity:.375"/>
	</g>
	<g id="22-22-audio-volume-low" class="ColorScheme-Text">
		<rect x="-44" width="22" height="22" style="fill:none"/>
		<path d="m-26 17c0 0.6 0.4 1 1 1s1-0.4 1-1v-3h-2z" style="fill:currentColor;opacity:.875"/>
		<path d="m-26 8h2v-3c0-0.5-0.4-1-1-1s-1 0.5-1 1zm0 5h2v-4h-2z" style="fill:currentColor;opacity:.25"/>
		<path d="m-31 1-6 6v8l6 6h2c0.6 0 1-0.4 1-1v-18c0-0.55-0.4-1-1-1zm-9 6c-1.1 0-2 0.92-2 2.02v3.98c0 1.1 0.9 2 2 2h2v-8z" style="fill:currentColor;opacity:.875;stroke-linecap:round;stroke-linejoin:round;stroke-width:2"/>
	</g>
	<g id="22-22-audio-volume-medium" class="ColorScheme-Text">
		<rect x="-22" width="22" height="22" style="fill:none"/>
		<path d="m-4 17c0 0.6 0.4 1 1 1s1-0.4 1-1v-3h-2zm0-4h2v-4h-2z" style="fill:currentColor;opacity:.875"/>
		<path d="m-4 8h2v-3c0-0.5-0.4-1-1-1s-1 0.5-1 1z" style="fill:currentColor;opacity:.25"/>
		<path d="m-9 1-6 6.04v7.96l6 6h2c0.6 0 1-0.4 1-1v-18c0-0.55-0.4-1-1-1zm-9 6.04c-1.1 0-2 0.9-2 2v3.96c0 1.1 0.9 2 2 2h2v-7.96z" style="fill:currentColor;opacity:.875;stroke-linecap:round;stroke-linejoin:round;stroke-width:2"/>
	</g>
	<g id="22-22-audio-volume-high" class="ColorScheme-Text">
		<rect width="22" height="22" style="fill:none"/>
		<path d="m18 17c0 0.6 0.4 1 1 1s1-0.4 1-1v-3h-2zm0-4h2v-4h-2zm0-5h2v-3c0-0.5-0.4-1-1-1s-1 0.5-1 1z" style="fill:currentColor;opacity:.875"/>
		<path d="m13 1-6 6v8l6 6h2c0.6 0 1-0.4 1-1v-18c0-0.55-0.4-1-1-1zm-9 6c-1.11 0-2 0.89-2 2v4c0 1.1 0.89 2 2 2h2v-8z" style="fill:currentColor;opacity:.875;stroke-linecap:round;stroke-linejoin:round;stroke-width:2"/>
	</g>
	<g id="16-16-audio-volume-muted" class="ColorScheme-Text">
		<rect x="-56" y="28" width="16" height="16" style="fill:none"/>
		<path d="m-42 39.5c0 0.3 0.2 0.5 0.5 0.5s0.5-0.2 0.5-0.5v-1.5h-1zm0-2.5h1v-2h-1zm0-3h1v-1.5c0-0.2-0.2-0.5-0.5-0.5s-0.5 0.3-0.5 0.5z" style="fill:currentColor;opacity:.375"/>
		<path d="m-51 38 5 5h1.5c0.3 0 0.5-0.2 0.5-0.5v-13c0-0.3-0.2-0.5-0.5-0.5h-1.5l-5 5zm-1-4h-1c-0.5 0-1 0.4-1 1v2c0 0.6 0.5 1 1 1h1z" style="fill:currentColor;opacity:.875;stroke-linecap:round;stroke-linejoin:round;stroke-width:2"/>
	</g>
	<g id="16-16-audio-volume-low" class="ColorScheme-Text">
		<rect x="-40" y="28" width="16" height="16" style="fill:none"/>
		<path d="m-26 37h1v-2h-1zm0-3h1v-1.5c0-0.2-0.2-0.5-0.5-0.5s-0.5 0.3-0.5 0.5z" style="fill:currentColor;opacity:.25"/>
		<path d="m-26 39.5c0 0.3 0.2 0.5 0.5 0.5s0.5-0.2 0.5-0.5v-1.5h-1z" style="fill:currentColor;opacity:.875"/>
		<path d="m-35 38 5 5h1.5c0.3 0 0.5-0.2 0.5-0.5v-13c0-0.3-0.2-0.5-0.5-0.5h-1.5l-5 5zm-1-4h-1c-0.5 0-1 0.4-1 1v2c0 0.6 0.5 1 1 1h1z" style="fill:currentColor;opacity:.875;stroke-linecap:round;stroke-linejoin:round;stroke-width:2"/>
	</g>
	<g id="16-16-audio-volume-medium" class="ColorScheme-Text">
		<rect x="-24" y="28" width="16" height="16" style="fill:none"/>
		<path d="m-10 34h1v-1.5c0-0.2-0.2-0.5-0.5-0.5s-0.5 0.3-0.5 0.5z" style="fill:currentColor;opacity:.25"/>
		<path d="m-10 39.5c0 0.3 0.2 0.5 0.5 0.5s0.5-0.2 0.5-0.5v-1.5h-1zm0-2.5h1v-2h-1z" style="fill:currentColor;opacity:.875"/>
		<path d="m-19 38 5 5h1.5c0.3 0 0.5-0.2 0.5-0.5v-13c0-0.3-0.2-0.5-0.5-0.5h-1.5l-5 5zm-1-4h-1c-0.6 0-1 0.4-1 1v2c0 0.6 0.4 1 1 1h1z" style="fill:currentColor;opacity:.875;stroke-linecap:round;stroke-linejoin:round;stroke-width:2"/>
	</g>
	<g id="16-16-audio-volume-high" class="ColorScheme-Text">
		<rect x="-8" y="28" width="16" height="16" style="fill:none"/>
		<path d="m6 39.5c0 0.3 0.2 0.5 0.5 0.5s0.5-0.2 0.5-0.5v-1.5h-1zm0-2.5h1v-2h-1zm0-3h1v-1.5c0-0.2-0.2-0.5-0.5-0.5s-0.5 0.3-0.5 0.5z" style="fill:currentColor;opacity:.875"/>
		<path d="m-3 38 5 5h1.5c0.28 0 0.5-0.2 0.5-0.5v-13c0-0.3-0.22-0.5-0.5-0.5h-1.5l-5 5zm-1-4h-1c-0.55 0-1 0.4-1 1v2c0 0.6 0.45 1 1 1h1z" style="fill:currentColor;opacity:.875;stroke-linecap:round;stroke-linejoin:round;stroke-width:2"/>
	</g>
	<g id="audio-headphones" class="ColorScheme-Text" style="opacity:.875">
		<rect x="48" y="-36" width="31.9" height="31.9" style="fill:none"/>
		<path d="m64-33c-5.5 0-10 4.5-10 10v0.1c-2.8 0.6-5 3.6-5 7.4 0 4.2 2.7 7.5 6 7.5a1 1 0 0 0 1-1c0.6 0 1-0.45 1-1v-11c0-0.6-0.4-1-1-1v-1c0-4.5 3.5-8 8-8s8 3.5 8 8v1c-0.6 0-1 0.4-1 1v11c0 0.55 0.4 1 1 1a1 1 0 0 0 1 1c3.3 0 6-3.3 6-7.5 0-3.8-2.2-6.8-5-7.4v-0.1c0-5.5-4.5-10-10-10z" style="fill:currentColor;stroke-linecap:round;stroke-linejoin:round"/>
	</g>
	<g id="audio-headset" class="ColorScheme-Text" style="opacity:.875">
		<rect x="88" y="-36" width="31.9" height="31.9" style="fill:none"/>
		<path d="m104-33c-5.5 0-10 4.5-10 10v0.1c-2.8 0.6-5 3.6-5 7.4 0 4.2 2.7 7.5 6 7.5a1 1 0 0 0 1-1c0.6 0 1-0.45 1-1v-11c0-0.6-0.4-1-1-1v-1c0-4.5 3.5-8 8-8 5 0 8 3.5 8 8v1c-1 0-1 0.4-1 1v11c0 0.55 0 1 1 1a1 1 0 0 0 1 1c3 0 6-3.3 6-7.5 0-3.8-2-6.8-5-7.4v-0.1c0-5.5-4-10-10-10z" style="fill:currentColor;stroke-linecap:round;stroke-linejoin:round"/>
		<path d="m114-11.5v4c0 1.11-1 2-3 2h-5" style="fill:none;stroke-linecap:round;stroke-linejoin:round;stroke:currentColor"/>
	</g>
	<g id="22-22-audio-headphones" class="ColorScheme-Text" style="opacity:.875">
		<rect x="48" width="22" height="22" style="fill:none"/>
		<path d="m59 2c-3.8 0-7 3.14-7 7v0.16c-1.7 0.55-3 2.44-3 4.84 0 2.8 1.8 5 4 5a1 1 0 0 0 1-1c0.6 0 1-0.4 1-1v-6c0-0.6-0.4-1-1-1v-1c0-2.78 2.2-5 5-5s5 2.22 5 5v1c-0.6 0-1 0.4-1 1v6c0 0.6 0.4 1 1 1a1 1 0 0 0 1 1c2.2 0 4-2.2 4-5 0-2.4-1.3-4.29-3-4.84v-0.16c0-3.86-3.2-7-7-7z" style="fill:currentColor;stroke-linecap:round;stroke-linejoin:round"/>
	</g>
	<g id="22-22-audio-headset" class="ColorScheme-Text" style="opacity:.875">
		<rect x="74" width="22" height="22" style="fill:none"/>
		<path d="m85 2c-3.8 0-7 3.14-7 7v0.16c-1.7 0.55-3 2.44-3 4.84 0 2.8 1.8 5 4 5a1 1 0 0 0 1-1c0.6 0 1-0.4 1-1v-6c0-0.6-0.4-1-1-1v-1c0-2.78 2.2-5 5-5s5 2.22 5 5v1c-0.6 0-1 0.4-1 1v6c0 0.6 0.4 1 1 1a1 1 0 0 0 0.9 1c-0.1 0.2-0.3 0.3-0.5 0.5-0.5 0.3-1.1 0.5-1.9 0.5h-2a0.5 0.5 0 0 0-0.5 0.5 0.5 0.5 0 0 0 0.5 0.5h2c0.9 0 1.8-0.2 2.4-0.7 0.6-0.3 1-0.9 1.1-1.4 1.7-0.6 3-2.5 3-4.9s-1.3-4.29-3-4.84v-0.16c0-3.86-3.2-7-7-7z" style="fill:currentColor;stroke-linecap:round;stroke-linejoin:round"/>
	</g>
	<g id="16-16-audio-headphones" class="ColorScheme-Text" style="opacity:.875">
		<rect x="48" y="28" width="16" height="16" style="fill:none;stroke-linecap:square;stroke-linejoin:round;stroke-width:2"/>
		<path d="m56 29c-3.3 0-6 2.7-6 6v0.2c-1.2 0.6-2 2.1-2 3.8 0 2.2 1.3 4 3 4a1 1 0 0 0 1-1c0.6 0 1-0.4 1-1v-4c0-0.5-0.4-1-1-1v-1c0-2.3 1.7-4 4-4s4 1.7 4 4v1c-0.6 0-1 0.5-1 1v4c0 0.6 0.4 1 1 1a1 1 0 0 0 1 1c1.7 0 3-1.8 3-4 0-1.7-0.8-3.2-2-3.8v-0.2c0-3.3-2.7-6-6-6z" style="fill:currentColor;stroke-linecap:round;stroke-linejoin:round"/>
	</g>
	<g id="16-16-audio-headset" class="ColorScheme-Text" style="opacity:.875">
		<rect x="68" y="28" width="16" height="16" style="fill:none;stroke-linecap:square;stroke-linejoin:round;stroke-width:2"/>
		<path d="m76 29c-3.3 0-6 2.7-6 6v0.2c-1.2 0.6-2 2.1-2 3.8 0 2.2 1.3 4 3 4a1 1 0 0 0 1-1c0.6 0 1-0.4 1-1v-4c0-0.5-0.4-1-1-1v-1c0-2.3 1.7-4 4-4s4 1.7 4 4v1c-0.6 0-1 0.5-1 1v4c0 0.6 0.4 1 1 1a1 1 0 0 0 0.3 0.7c-0.2 0.2-0.5 0.3-0.8 0.3h-3a0.5 0.5 0 0 0-0.5 0.5 0.5 0.5 0 0 0 0.5 0.5h3c0.9 0 1.6-0.4 2.1-1.1 1.4-0.3 2.4-1.9 2.4-3.9 0-1.7-0.8-3.2-2-3.8v-0.2c0-3.3-2.7-6-6-6z" style="fill:currentColor;stroke-linecap:round;stroke-linejoin:round"/>
	</g>
</svg>
