<?xml version="1.0" encoding="UTF-8" standalone="no"?>
<svg id="svg2" xmlns:rdf="http://www.w3.org/1999/02/22-rdf-syntax-ns#" xmlns="http://www.w3.org/2000/svg" height="32" width="32" version="1.0" xmlns:cc="http://creativecommons.org/ns#" xmlns:dc="http://purl.org/dc/elements/1.1/">
	<defs id="defs4">
		<style id="local" type="text/css">.negative { color:#ff2121; }</style>
		<style id="current-color-scheme" type="text/css">.ColorScheme-Text { color:#0000FF; }</style>
	</defs>
	<metadata id="metadata8">
		<rdf:RDF>
			<cc:Work rdf:about="">
				<dc:format>image/svg+xml</dc:format>
				<dc:type rdf:resource="http://purl.org/dc/dcmitype/StillImage"/>
				<dc:title/>
				<dc:creator>
					<cc:Agent>
						<dc:title>obnosim</dc:title>
					</cc:Agent>
				</dc:creator>
				<cc:license rdf:resource="http://creativecommons.org/licenses/by-sa/3.0/"/>
			</cc:Work>
			<cc:License rdf:about="http://creativecommons.org/licenses/by-sa/3.0/">
				<cc:permits rdf:resource="http://creativecommons.org/ns#Reproduction"/>
				<cc:permits rdf:resource="http://creativecommons.org/ns#Distribution"/>
				<cc:requires rdf:resource="http://creativecommons.org/ns#Notice"/>
				<cc:requires rdf:resource="http://creativecommons.org/ns#Attribution"/>
				<cc:permits rdf:resource="http://creativecommons.org/ns#DerivativeWorks"/>
				<cc:requires rdf:resource="http://creativecommons.org/ns#ShareAlike"/>
			</cc:License>
		</rdf:RDF>
	</metadata>
	<g id="22-22-Unavailable">
		<rect id="rect11" style="opacity:.5;fill:none" height="22" width="22" y="10" x="-167"/>
		<path id="path13" d="m-152 17-8 8m8 0-8-8" style="stroke-linejoin:round;stroke:currentColor;stroke-width:2;stroke-linecap:round;fill:none" class="negative"/>
		<rect id="rect3435" style="opacity:.875;fill:currentColor" class="ColorScheme-Text" height="4" width="1" y="19" x="-167"/>
	</g>
	<g id="32-32-AcAdapter" transform="translate(-86,10)" class="ColorScheme-Text">
		<rect id="rect92" style="fill:none" height="32" width="32" y="-10" x="128"/>
		<path id="path94" style="opacity:.875;stroke:currentColor;stroke-width:2;fill:none" d="m130 4v-2c0-1.662 1.338-3 3-3h22c1.662 0 3 1.338 3 3v8c0 1.662-1.338 3-3 3h-22c-1.662 0-3-1.338-3-3v-2"/>
	</g>
	<g id="32-32-Unavailable" transform="translate(-86,10)">
		<rect id="rect97" style="fill:none" transform="translate(64)" height="32" width="32" y="-10" x="96"/>
		<path id="path99" d="m171 1 10 10m0-10-10 10" style="stroke-linejoin:round;stroke-dashoffset:1;stroke:currentColor;stroke-linecap:round;stroke-width:2;fill:none" class="negative"/>
		<rect id="rect3447" style="opacity:.875;fill:currentColor" class="ColorScheme-Text" height="4" width="2" y="4" x="161"/>
	</g>
	<g id="22-22-AcAdapter" transform="translate(-95,10)" class="ColorScheme-Text">
		<rect id="rect16" style="fill:none" height="22" width="22" y="0" x="22"/>
		<path id="path18" d="m35 5c-1.108 0-2 .892-2 2v2h1v-2c0-.554.446-1 1-1h18c.554 0 1 .446 1 1v8c0 .554-.446 1-1 1h-18c-.554 0-1-.446-1-1v-2h-1v2c0 1.108.892 2 2 2h18c1.108 0 2-.892 2-2v-8c0-1.108-.892-2-2-2h-18z" style="opacity:.875;fill:currentColor;fill-rule:evenodd" transform="translate(-11)"/>
	</g>
	<g id="22-22-Battery" class="ColorScheme-Text" transform="translate(-106,10)">
		<rect id="rect168" style="fill:none" height="22" width="22" y="0" x="-30"/>
		<path id="path170" style="opacity:.187;fill:currentColor" d="m-28 6c-.554 0-1 .446-1 1v2h-1v4h1v2c0 .554.446 1 1 1h18c.554 0 1-.446 1-1v-8c0-.554-.446-1-1-1zm8 3h8v.5l-6 .5v3h-8v-.5l6-.5z"/>
	</g>
	<g id="22-22-Fill100" transform="translate(-76,10)" class="ColorScheme-Text">
		<rect id="rect103" style="fill:none" height="22" width="22" y="0" x="-30"/>
		<path id="path105" style="opacity:.875;fill:currentColor" d="m-28 6c-.554 0-1 .446-1 1v2h-1v4h1v2c0 .554.446 1 1 1h18c.554 0 1-.446 1-1v-8c0-.554-.446-1-1-1zm8 3h8v.5l-6 .5v3h-8v-.5l6-.5z"/>
	</g>
	<g id="22-22-Fill90" transform="translate(-76,10)" class="ColorScheme-Text">
		<rect id="rect109" style="fill:none" height="22" width="22" y="-22" x="-30"/>
		<path id="path111" style="opacity:.875;fill:currentColor" d="m-20-13h8v.5l-6 .5v3h-8v-.5l6-.5zm-8-3c-.554 0-1 .446-1 1v2h-1v4h1v2c0 .554.446 1 1 1h18c.554 0 1-.446 1-1v-1c0 .554-.446 1-1 1s-1-.446-1-1v-6c0-.554.446-1 1-1s1 .446 1 1v-1c0-.554-.446-1-1-1h-18z"/>
	</g>
	<g id="22-22-Fill80" transform="translate(-76,10)" class="ColorScheme-Text">
		<rect id="rect115" style="fill:none" height="22" width="22" y="-44" x="-30"/>
		<path id="path117" style="opacity:.875;fill:currentColor" d="m-20-35h8v.5l-6 .5v3h-8v-.5l6-.5zm-8-3c-.554 0-1 .446-1 1v2h-1v4h1v2c0 .554.446 1 1 1h16c-.554 0-1-.446-1-1v-8c0-.554.446-1 1-1h-16z"/>
	</g>
	<g id="22-22-Fill70" transform="translate(-76,10)" class="ColorScheme-Text">
		<rect id="rect121" style="fill:none" height="22" width="22" y="-66" x="-30"/>
		<path id="path123" style="opacity:.875;fill:currentColor" d="m-20-57h8v.5l-6 .5v3h-8v-.5l6-.5zm-8-3c-.554 0-1 .446-1 1v2h-1v4h1v2c0 .554.446 1 1 1h14c-.554 0-1-.446-1-1v-8c0-.554.446-1 1-1h-14z"/>
	</g>
	<g id="22-22-Fill60" transform="translate(-76,10)" class="ColorScheme-Text">
		<rect id="rect127" style="fill:none" height="22" width="22" y="-88" x="-30"/>
		<path id="path129" style="opacity:.875;fill:currentColor" d="m-20-79h8v.5l-6 .5v3h-8v-.5l6-.5zm-8-3c-.554 0-1 .446-1 1v2h-1v4h1v2c0 .554.446 1 1 1h12c-.554 0-1-.446-1-1v-8c0-.554.446-1 1-1h-12z"/>
	</g>
	<g id="22-22-Fill50" transform="translate(-76,10)" class="ColorScheme-Text">
		<rect id="rect133" style="fill:none" height="22" width="22" y="-110" x="-30"/>
		<path id="path135" style="opacity:.875;fill:currentColor" d="m-20-101h8v.5l-6 .5v3h-8v-.5l6-.5zm-8-3c-.554 0-1 .446-1 1v2h-1v4h1v2c0 .554.446 1 1 1h10c-.554 0-1-.446-1-1v-8c0-.554.446-1 1-1h-10z"/>
	</g>
	<g id="22-22-Fill40" transform="translate(-76,10)" class="ColorScheme-Text">
		<rect id="rect139" style="fill:none" height="22" width="22" y="-132" x="-30"/>
		<path id="path141" style="opacity:.875;fill:currentColor" d="m-20-123h8v.5l-6 .5v3h-8v-.5l6-.5zm-8-3c-.554 0-1 .446-1 1v2h-1v4h1v2c0 .554.446 1 1 1h8c-.554 0-1-.446-1-1v-8c0-.554.446-1 1-1h-8z"/>
	</g>
	<g id="22-22-Fill30" transform="translate(-76,10)" class="ColorScheme-Text">
		<rect id="rect145" style="fill:none" height="22" width="22" y="-154" x="-30"/>
		<path id="path147" style="opacity:.875;fill:currentColor" d="m-20-145h8v.5l-6 .5v3h-8v-.5l6-.5zm-8-3c-.554 0-1 .446-1 1v2h-1v4h1v2c0 .554.446 1 1 1h6c-.554 0-1-.446-1-1v-8c0-.554.446-1 1-1h-6z"/>
	</g>
	<g id="22-22-Fill20" transform="translate(-76,10)" class="ColorScheme-Text">
		<rect id="rect151" style="fill:none" height="22" width="22" y="-176" x="-30"/>
		<path id="path153" style="opacity:.875;fill:currentColor" d="m-20-167h8v.5l-6 .5v3h-8v-.5l6-.5zm-8-3c-.554 0-1 .446-1 1v2h-1v4h1v2c0 .554.446 1 1 1h4c-.554 0-1-.446-1-1v-8c0-.554.446-1 1-1h-4z"/>
	</g>
	<g id="22-22-Fill10" transform="translate(-76,10)" class="ColorScheme-Text">
		<rect id="rect157" style="fill:none" height="22" width="22" y="-198" x="-30"/>
		<path id="path159" style="opacity:.875;fill:currentColor" d="m-20-189h8v.5l-6 .5v3h-8v-.5l6-.5zm-8-3c-.554 0-1 .446-1 1v2h-1v4h1v2c0 .554.446 1 1 1h2c-.554 0-1-.446-1-1v-8c0-.554.446-1 1-1h-2z"/>
	</g>
	<g id="22-22-Fill0" transform="translate(-76,10)" class="ColorScheme-Text">
		<rect id="rect163" style="fill:none" height="22" width="22" y="-220" x="-30"/>
		<path id="path165" style="opacity:.875;fill:currentColor" d="m-20-211h8v.5l-6 .5v3h-8v-.5l6-.5zm-10 0v4h1v-4h-1z"/>
	</g>
	<g id="32-32-Fill100" class="ColorScheme-Text" transform="translate(-136,10)">
		<rect id="rect3421" style="fill:none" height="32" width="32" y="-10" x="136"/>
		<path id="path3509" style="opacity:.875;fill:currentColor" d="m141 0c-1.108 0-2 .892-2 2v2h-2v4h2v2c0 1.108.892 2 2 2h22c1.108 0 2-.892 2-2v-8c0-1.108-.892-2-2-2zm10 4h10v.59961l-8 .4004v3h-10v-.5l8-.5z"/>
	</g>
	<g id="32-32-Fill90" class="ColorScheme-Text" transform="translate(-136,10)">
		<rect id="rect3427" style="fill:none" height="32" width="32" y="-42" x="136"/>
		<path id="path3564" style="opacity:.875;fill:currentColor" d="m151-28h10v.59961l-8 .40039v3h-10v-.5l8-.5zm-10-4c-1.108 0-2 .892-2 2v2h-2v4h2v2c0 1.108.892 2 2 2h22c1.108 0 2-.892 2-2 0 .554-.446 1-1 1s-1-.446-1-1v-8c0-.554.446-1 1-1s1 .446 1 1c0-1.108-.892-2-2-2z"/>
	</g>
	<g id="32-32-Fill80" class="ColorScheme-Text" transform="translate(-136,10)">
		<rect id="rect3433" style="fill:none" height="32" width="32" y="-74" x="136"/>
		<path id="path3573" style="opacity:.875;fill:currentColor" d="m151-60h10v.59961l-8 .40039v3h-10v-.5l8-.5zm-10-4c-1.108 0-2 .892-2 2v2h-2v4h2v2c0 1.108.892 2 2 2h21c-1.108 0-2-.892-2-2v-8.0004c0-1.108.892-2 2-2z"/>
	</g>
	<g id="32-32-Fill70" class="ColorScheme-Text" transform="translate(-136,10)">
		<rect id="rect3439" style="fill:none" height="32" width="32" y="-106" x="136"/>
		<path id="path3575" style="opacity:.875;fill:currentColor" d="m151-92h10v.59961l-8 .40039v3h-10v-.5l8-.5zm-10-4c-1.108 0-2 .892-2 2v2h-2v4h2v2c0 1.108.892 2 2 2h18c-1.108 0-2-.892-2-2v-7.9998c0-1.108.892-2 2-2z"/>
	</g>
	<g id="32-32-Fill60" class="ColorScheme-Text" transform="translate(-136,10)">
		<rect id="rect3445" style="fill:none" height="32" width="32" y="-138" x="136"/>
		<path id="path3577" style="opacity:.875;fill:currentColor" d="m151-124h10v.59961l-8 .40039v3h-10v-.5l8-.5zm-10-4c-1.108 0-2 .892-2 2v2h-2v4h2v2c0 1.108.892 2 2 2h15c-1.108 0-2-.892-2-2v-8c0-1.108.892-2 2-2z"/>
	</g>
	<g id="32-32-Fill50" class="ColorScheme-Text" transform="translate(-136,10)">
		<rect id="rect3451" style="fill:none" height="32" width="32" y="-170" x="136"/>
		<path id="path3579" style="opacity:.875;fill:currentColor" d="m151-156h10v.59961l-8 .40039v3h-10v-.5l8-.5zm-10-4c-1.108 0-2 .892-2 2v2h-2v4h2v2c0 1.108.892 2 2 2h12c-1.108 0-2-.892-2-2v-8c0-1.108.892-2 2-2z"/>
	</g>
	<g id="32-32-Fill40" class="ColorScheme-Text" transform="translate(-136,10)">
		<rect id="rect3457" style="fill:none" height="32" width="32" y="-202" x="136"/>
		<path id="path3581" style="opacity:.875;fill:currentColor" d="m151-188h10v.59961l-8 .40039v3h-10v-.5l8-.5zm-10-4c-1.108 0-2 .892-2 2v2h-2v4h2v2c0 1.108.892 2 2 2h9c-1.108 0-2-.892-2-2v-8c0-1.108.892-2 2-2z"/>
	</g>
	<g id="32-32-Fill30" class="ColorScheme-Text" transform="translate(-136,10)">
		<rect id="rect3463" style="fill:none" height="32" width="32" y="-234" x="136"/>
		<path id="path3583" style="opacity:.875;fill:currentColor" d="m151-220h10v.59961l-8 .40039v3h-10v-.5l8-.5zm-10-4c-1.108 0-2 .892-2 2v2h-2v4h2v2c0 1.108.892 2 2 2h6c-1.108 0-2-.892-2-2v-8c0-1.108.892-2 2-2z"/>
	</g>
	<g id="32-32-Fill20" class="ColorScheme-Text" transform="translate(-136,10)">
		<rect id="rect3469" style="fill:none" height="32" width="32" y="-266" x="136"/>
		<path id="path3585" style="opacity:.875;fill:currentColor" d="m151-252h10v.59961l-8 .40039v3h-10v-.5l8-.5zm-10-4c-1.108 0-2 .892-2 2v2h-2v4h2v2c0 1.108.892 2 2 2h3c-1.108 0-2-.892-2-2v-8c0-1.108.892-2 2-2z"/>
	</g>
	<g id="32-32-Fill10" class="ColorScheme-Text" transform="translate(-136,10)">
		<rect id="rect3475" style="fill:none" height="32" width="32" y="-298" x="136"/>
		<path id="path3587" style="opacity:.875;fill:currentColor" d="m151-284h10v.59961l-8 .40039v3h-10v-.5l8-.5zm-11-3c-.554 0-1 .446-1 1v2h-2v4h2v2c0 .554.446 1 1 1s1-.446 1-1v-8c0-.554-.446-1-1-1z"/>
	</g>
	<g id="32-32-Fill0" class="ColorScheme-Text" transform="translate(-136,10)">
		<rect id="rect3481" style="fill:none" height="32" width="32" y="-330" x="136"/>
		<path id="path3620" style="opacity:.875;fill:currentColor" d="m151-316h10v.59961l-8 .40039v3h-10v-.5l8-.5zm-14 0v4h2v-4z"/>
	</g>
	<g id="32-32-Battery" class="ColorScheme-Text" transform="translate(-176,10)">
		<rect id="rect3428" style="fill:none" height="32" width="32" y="-10" x="136"/>
		<path id="path3430" style="opacity:.1875;fill:currentColor" d="m141 0c-1.108 0-2 .892-2 2v2h-2v4h2v2c0 1.108.892 2 2 2h22c1.108 0 2-.892 2-2v-8c0-1.108-.892-2-2-2zm10 4h10v.59961l-8 .4004v3h-10v-.5l8-.5z"/>
	</g>
</svg>
