<?xml version="1.0" encoding="UTF-8"?>
<svg id="svg" version="1.1" viewBox="0 0 22 22" xmlns="http://www.w3.org/2000/svg" xmlns:cc="http://creativecommons.org/ns#" xmlns:dc="http://purl.org/dc/elements/1.1/" xmlns:rdf="http://www.w3.org/1999/02/22-rdf-syntax-ns#">
	<defs>
		<style id="current-color-scheme" type="text/css">.ColorScheme-Text { color:#0000FF; }</style>
	</defs>
	<metadata>
		<rdf:RDF>
			<cc:Work rdf:about="">
				<dc:format>image/svg+xml</dc:format>
				<dc:type rdf:resource="http://purl.org/dc/dcmitype/StillImage"/>
				<dc:creator>
					<cc:Agent>
						<dc:title>obnosim</dc:title>
					</cc:Agent>
				</dc:creator>
				<cc:license rdf:resource="http://creativecommons.org/licenses/by-sa/3.0/"/>
			</cc:Work>
			<cc:License rdf:about="http://creativecommons.org/licenses/by-sa/3.0/">
				<cc:permits rdf:resource="http://creativecommons.org/ns#Reproduction"/>
				<cc:permits rdf:resource="http://creativecommons.org/ns#Distribution"/>
				<cc:requires rdf:resource="http://creativecommons.org/ns#Notice"/>
				<cc:requires rdf:resource="http://creativecommons.org/ns#Attribution"/>
				<cc:permits rdf:resource="http://creativecommons.org/ns#DerivativeWorks"/>
				<cc:requires rdf:resource="http://creativecommons.org/ns#ShareAlike"/>
			</cc:License>
		</rdf:RDF>
	</metadata>
	<g id="16-16-configure" class="ColorScheme-Text" style="opacity:.875">
		<rect x="-16" y="4" width="16" height="16" style="fill:none"/>
		<path d="m-8.32 5.95-0.21 1.13c-0.03 0.16-0.14 0.26-0.29 0.36l-1.78 0.77c-0.1 0.1-0.3 0.1-0.4 0l-1.1-0.6-0.3 0.31 0.6 0.97c0.1 0.13 0.2 0.3 0.1 0.46l-0.8 1.75c-0.1 0.2-0.2 0.3-0.4 0.3l-1.1 0.3v0.6l1.1 0.2c0.2 0.1 0.3 0.2 0.4 0.3l0.8 1.8c0.1 0.2 0 0.4-0.1 0.5l-0.6 0.9 0.3 0.4 1.1-0.6c0.1-0.1 0.3-0.1 0.4-0.1l1.79 0.8c0.16 0.1 0.28 0.3 0.28 0.4l0.22 1.1h0.63l0.21-1.1c0.02-0.1 0.13-0.3 0.29-0.4l1.82-0.8c0.16 0 0.33 0 0.46 0.1l0.97 0.6 0.32-0.4-0.6-0.9c-0.1-0.1-0.1-0.3 0-0.5l0.8-1.8c0.06-0.1 0.2-0.2 0.36-0.3l1.13-0.2v-0.6l-1.16-0.3c-0.15 0-0.23-0.1-0.33-0.3l-0.8-1.75c-0.1-0.14-0.1-0.32 0-0.46l0.59-0.95-0.32-0.33-0.97 0.59c-0.14 0.1-0.32 0.1-0.46 0l-1.82-0.77c-0.15-0.07-0.29-0.21-0.29-0.37l-0.21-1.11h-0.63zm0.31 3.55a2.5 2.5 0 0 1 2.5 2.5 2.5 2.5 0 0 1-2.5 2.5 2.5 2.5 0 0 1-2.49-2.5 2.5 2.5 0 0 1 2.49-2.5z" style="fill:currentColor;stroke-linecap:round;stroke-linejoin:round;stroke:currentColor"/>
	</g>
	<g id="22-22-configure" class="ColorScheme-Text" style="opacity:.875">
		<rect x="0" width="22" height="22" style="fill:none"/>
		<path d="m10.4 2.5h1.2l0.3 1.7c0 0.2 0.1 0.3 0.3 0.4l2.5 1c0.1 0 0.3 0 0.4-0.1l1.5-0.8 0.7 0.7-0.9 1.3c-0.1 0.1-0.2 0.3-0.1 0.5l1.1 2.5c0.1 0.2 0.2 0.3 0.4 0.3l1.7 0.4v1.1l-1.7 0.4c-0.2 0-0.3 0.1-0.4 0.3l-1.1 2.5c-0.1 0.2 0 0.4 0.1 0.5l0.9 1.4-0.7 0.7-1.4-0.9c-0.1-0.1-0.3-0.2-0.5-0.1l-2.5 1.1c-0.2 0.1-0.3 0.2-0.3 0.4l-0.3 1.7h-1.2l-0.3-1.7c0-0.2-0.14-0.3-0.3-0.4l-2.5-1.1c-0.16 0-0.33 0-0.46 0.1l-1.47 0.9-0.64-0.7 0.9-1.4c0.1-0.2 0.1-0.3 0-0.5l-1.1-2.5c-0.1-0.2-0.19-0.3-0.35-0.3l-1.71-0.4v-1.1l1.71-0.4c0.16 0 0.29-0.1 0.35-0.3l1.1-2.5c0.1-0.2 0.1-0.3 0-0.5l-0.88-1.3 0.63-0.7 1.47 0.9c0.13 0.1 0.3 0.1 0.46 0.1l2.5-1.1c0.16-0.1 0.29-0.2 0.29-0.4zm0.6 5c-1.95 0-3.5 1.5-3.5 3.5s1.55 3.5 3.5 3.5c2 0 3.5-1.5 3.5-3.5s-1.5-3.5-3.5-3.5z" style="fill:currentColor;stroke-linecap:round;stroke-linejoin:round;stroke:currentColor"/>
	</g>
	<g id="configure" class="ColorScheme-Text" style="opacity:.875">
		<rect x="22" y="-6" width="32" height="32" style="fill:none"/>
		<path d="m37.2-2.5h1.6l0.7 2.824c0 0.155 0.2 0.281 0.3 0.34l3.6 1.506c0.2 0.1 0.3 0.1 0.5 0l2.2-1.559 1.4 1.299-1.6 2.27c-0.1 0.13-0.1 0.31-0.1 0.47l1.5 3.57c0.1 0.16 0.2 0.27 0.4 0.29l2.8 0.69v1.7l-2.8 0.6c-0.2 0.1-0.3 0.2-0.4 0.3l-1.5 3.6c-0.1 0.2 0 0.4 0.1 0.5l1.6 2.2-1.4 1.4-2.2-1.6c-0.1-0.1-0.3-0.1-0.5-0.1l-3.6 1.5c-0.2 0.1-0.3 0.3-0.3 0.4l-0.7 2.8h-1.6l-0.7-2.8c0-0.1-0.1-0.3-0.3-0.4l-3.6-1.5c-0.2 0-0.4 0-0.5 0.1l-2.2 1.6-1.4-1.4 1.6-2.1c0.1-0.2 0.2-0.4 0.1-0.5l-1.5-3.6c-0.1-0.2-0.2-0.3-0.4-0.4l-2.8-0.6v-1.7l2.8-0.69c0.2-0 0.3-0.13 0.4-0.29l1.5-3.57c0-0.16 0-0.34-0.1-0.47l-1.6-2.27 1.4-1.299 2.2 1.559c0.2 0.1 0.3 0.1 0.5 0l3.6-1.506c0.1-0.06 0.3-0.185 0.3-0.34zm0.8 8c-2.5 0-4.5 2.02-4.5 4.5 0 2.5 2 4.5 4.5 4.5s4.5-2 4.5-4.5c0-2.48-2-4.5-4.5-4.5z" style="fill:currentColor;stroke-linecap:round;stroke-linejoin:round;stroke:currentColor"/>
	</g>
</svg>
