<?xml version="1.0" encoding="UTF-8" standalone="no"?>
<svg id="svg7826" xmlns:rdf="http://www.w3.org/1999/02/22-rdf-syntax-ns#" xmlns="http://www.w3.org/2000/svg" height="22" shape-rendering="crispEdges" width="22" version="1.1" xmlns:cc="http://creativecommons.org/ns#" xmlns:dc="http://purl.org/dc/elements/1.1/">
	<defs id="defs3615">
		<style id="current-color-scheme" type="text/css">.ColorScheme-Text { color:#0000FF; }</style>
	</defs>
	<metadata id="metadata7">
		<rdf:RDF>
			<cc:Work rdf:about="">
				<dc:format>image/svg+xml</dc:format>
				<dc:type rdf:resource="http://purl.org/dc/dcmitype/StillImage"/>
				<dc:title/>
				<dc:creator>
					<cc:Agent>
						<dc:title>obnosim</dc:title>
					</cc:Agent>
				</dc:creator>
				<cc:license rdf:resource="http://creativecommons.org/licenses/by-sa/3.0/"/>
			</cc:Work>
			<cc:License rdf:about="http://creativecommons.org/licenses/by-sa/3.0/">
				<cc:permits rdf:resource="http://creativecommons.org/ns#Reproduction"/>
				<cc:permits rdf:resource="http://creativecommons.org/ns#Distribution"/>
				<cc:requires rdf:resource="http://creativecommons.org/ns#Notice"/>
				<cc:requires rdf:resource="http://creativecommons.org/ns#Attribution"/>
				<cc:permits rdf:resource="http://creativecommons.org/ns#DerivativeWorks"/>
				<cc:requires rdf:resource="http://creativecommons.org/ns#ShareAlike"/>
			</cc:License>
		</rdf:RDF>
	</metadata>
	<g id="22-22-device-notifier" class="ColorScheme-Text">
		<rect id="rect4200" style="fill:none" ry="1" height="22" width="22" y="0" x="0"/>
		<path id="rect4184" style="opacity:.875;fill:currentColor" d="m10 3c-1.3523-.0191-1.3523 2.0191 0 2h2c2.233 0 4 1.7667 4 4v4c0 2.233-1.767 4-4 4h-2c-1.3523-.019-1.3523 2.019 0 2h2c2.965 0 5.429-2.168 5.908-5h1.092c1.108 0 2-.892 2-2v-.918c.004-.056.004-.108 0-.164v-.918c0-1.108-.892-2-2-2h-1.092c-.479-2.832-2.943-5-5.908-5zm-7 4c-1.108 0-2 .892-2 2v4c0 1.108.892 2 2 2h5 4c1.091 0 2-.909 2-2v-4c0-1.0907-.909-2-2-2h-4zm5 2h4v4h-4z"/>
	</g>
	<g id="device-notifier" class="ColorScheme-Text" transform="translate(0,-29)">
		<rect id="rect3379" style="fill:none" height="32" width="32" y="-5" x="-5"/>
		<path id="rect3396" style="opacity:.875;fill:currentColor" d="m11 2a1.0001 1.0001 0 1 0 0 2h3c2.2333 0 4 1.7667 4 4v6c0 2.2333-1.7667 4-4 4h-3a1.0001 1.0001 0 1 0 0 2h3c3.3067 0 6-2.6933 6-6h2c1.108 0 2-.892 2-2v-2c0-1.108-.892-2-2-2h-2c0-3.3067-2.693-6-6-6h-3zm-11 4c-1.108 0-2 .892-2 2v6c0 1.108.892 2 2 2h14c1.108 0 2-.892 2-2v-6c0-1.108-.892-2-2-2h-14zm8 2h6v6h-6v-6z"/>
	</g>
</svg>
