<?xml version="1.0" encoding="UTF-8"?>
<svg version="1.1" viewBox="0 0 22 22" xmlns="http://www.w3.org/2000/svg" xmlns:cc="http://creativecommons.org/ns#" xmlns:dc="http://purl.org/dc/elements/1.1/" xmlns:rdf="http://www.w3.org/1999/02/22-rdf-syntax-ns#">
	<defs>
		<style id="current-color-scheme" type="text/css">.ColorScheme-Text { color:#0000FF; }</style>
	</defs>
	<metadata>
		<rdf:RDF>
			<cc:Work rdf:about="">
				<dc:format>image/svg+xml</dc:format>
				<dc:type rdf:resource="http://purl.org/dc/dcmitype/StillImage"/>
				<dc:creator>
					<cc:Agent>
						<dc:title>obnosim</dc:title>
					</cc:Agent>
				</dc:creator>
				<cc:license rdf:resource="http://creativecommons.org/licenses/by-sa/3.0/"/>
			</cc:Work>
			<cc:License rdf:about="http://creativecommons.org/licenses/by-sa/3.0/">
				<cc:permits rdf:resource="http://creativecommons.org/ns#Reproduction"/>
				<cc:permits rdf:resource="http://creativecommons.org/ns#Distribution"/>
				<cc:requires rdf:resource="http://creativecommons.org/ns#Notice"/>
				<cc:requires rdf:resource="http://creativecommons.org/ns#Attribution"/>
				<cc:permits rdf:resource="http://creativecommons.org/ns#DerivativeWorks"/>
				<cc:requires rdf:resource="http://creativecommons.org/ns#ShareAlike"/>
			</cc:License>
		</rdf:RDF>
	</metadata>
	<g id="22-22-dialog-error" class="ColorScheme-Text" style="opacity:.875">
		<rect x="-28" width="22" height="22" style="fill:none"/>
		<path class="ColorScheme-Text" d="m-21 15 8-8m-8 0 8 8m6-4c0 5.5-4.5 10-10 10s-10-4.5-10-10 4.5-10 10-10 10 4.5 10 10z" style="fill:none;stroke-linecap:round;stroke-linejoin:round;stroke-width:2;stroke:currentColor"/>
	</g>
	<g id="22-22-dialog-ok" class="ColorScheme-Text" style="opacity:.875">
		<rect width="22" height="22" style="fill:none"/>
		<path class="ColorScheme-Text" d="m7 12 3 3 6-7m5 3c0 5.5-4.5 10-10 10s-10-4.5-10-10 4.5-10 10-10 10 4.5 10 10z" style="fill:none;stroke-linecap:round;stroke-width:2;stroke:currentColor"/>
	</g>
	<g id="dialog-error" class="ColorScheme-Text" style="opacity:.875">
		<rect x="-32" y="-34" width="31.9" height="31.9" style="fill:none"/>
		<path class="ColorScheme-Text" d="m-3.01-18c0 7.2-5.85 13.01-12.99 13.01-7.2 0-13-5.81-13-13.01s5.8-13 13-13c7.14 0 12.99 5.8 12.99 13zm-17.99-4.9 10 9.9m-10 0 10-9.9" style="fill:none;stroke-linecap:round;stroke-width:1.995;stroke:currentColor"/>
	</g>
	<g id="dialog-ok" class="ColorScheme-Text" style="opacity:.875">
		<rect x="-.06" y="-34" width="31.9" height="31.9" style="fill:none"/>
		<path class="ColorScheme-Text" d="m28.8-18c0 7.2-5.7 13.01-12.9 13.01-7.18 0-12.9-5.81-12.9-13.01s5.72-13 12.9-13c7.2 0 12.9 5.8 12.9 13zm-20.88 0 5.98 6 9-10" style="fill:none;stroke-linecap:round;stroke-width:1.995;stroke:currentColor"/>
	</g>
	<g id="dialog-cancel" class="ColorScheme-Text" style="opacity:.875">
		<rect x="-64" y="-34" width="31.9" height="31.9" style="fill:none"/>
		<path d="m-60-30 24 24m-24 0 24-24" style="fill:none;stroke-linecap:round;stroke-width:1.995;stroke:currentColor"/>
	</g>
	<g id="22-22-dialog-cancel" class="ColorScheme-Text" style="opacity:.875">
		<rect x="-60" width="22" height="22" style="fill:none"/>
		<path d="m-56 18 14-14m-14 0 14 14" style="fill:none;stroke-linecap:round;stroke-linejoin:round;stroke-width:2;stroke:currentColor"/>
	</g>
	<g id="16-16-dialog-cancel" class="ColorScheme-Text" style="opacity:.875">
		<rect x="-58" y="24" width="16" height="16" style="fill:none"/>
		<path d="m-55 37 10-10m-10 0 10 10" style="fill:none;stroke-linecap:round;stroke-linejoin:round;stroke-width:1.9992;stroke:currentColor"/>
	</g>
</svg>
