<?xml version="1.0" encoding="UTF-8" standalone="no"?>
<svg id="svg3869" xmlns:rdf="http://www.w3.org/1999/02/22-rdf-syntax-ns#" xmlns="http://www.w3.org/2000/svg" height="22" viewBox="0 0 22 22" width="22" version="1.1" xmlns:cc="http://creativecommons.org/ns#" xmlns:dc="http://purl.org/dc/elements/1.1/">
	<defs id="defs3871">
		<style id="current-color-scheme" type="text/css">
			.ColorScheme-Text { color:#0000FF; }
		</style>
	</defs>
	<metadata id="metadata7">
		<rdf:RDF>
			<cc:Work rdf:about="">
				<dc:format>image/svg+xml</dc:format>
				<dc:type rdf:resource="http://purl.org/dc/dcmitype/StillImage"/>
				<dc:title/>
				<dc:creator>
					<cc:Agent>
						<dc:title>obnosim</dc:title>
					</cc:Agent>
				</dc:creator>
				<cc:license rdf:resource="http://creativecommons.org/licenses/by-sa/3.0/"/>
			</cc:Work>
			<cc:License rdf:about="http://creativecommons.org/licenses/by-sa/3.0/">
				<cc:permits rdf:resource="http://creativecommons.org/ns#Reproduction"/>
				<cc:permits rdf:resource="http://creativecommons.org/ns#Distribution"/>
				<cc:requires rdf:resource="http://creativecommons.org/ns#Notice"/>
				<cc:requires rdf:resource="http://creativecommons.org/ns#Attribution"/>
				<cc:permits rdf:resource="http://creativecommons.org/ns#DerivativeWorks"/>
				<cc:requires rdf:resource="http://creativecommons.org/ns#ShareAlike"/>
			</cc:License>
		</rdf:RDF>
	</metadata>
	<g id="drive-harddisk">
		<rect style="fill:none" height="22" width="22" y="0" x="0"/>
		<path class="ColorScheme-Text" style="opacity:.875;fill:currentColor" d="m5 1-4 16v3c0 1 0 1 1 1h18c1 0 1 0 1-1v-3l-4-16h-12zm6.3828 3c3.1577.13459 5.6159 1.8808 5.6172 3.9902 0 .52675-.16710 1.0239-.44531 1.4844l-.866-.4590c.347-.4614.561-.9735.561-1.5254 0-1.8338-2.124-3.3565-4.867-3.4902zm-.90625.00781c-2.6837.1793-4.7269 1.6846-4.727 3.4824 7e-7 1.933 2.3505 3.5 5.25 3.5.4566 0 .89212-.05002 1.3145-.12305l-2.076-2.0955c-.0018-.00182-.0041-.00208-.0059-.00391-.0062-.00632-.0117-.013062-.01758-.019531-.01276-.014711-.02593-.029554-.03711-.044922l-.0059-.00781c-.0012-.000464-.0026.00047-.0039 0-.0089-.013434-.01578-.027195-.02344-.041016-.0069-.010755-.01345-.022206-.01953-.033203-.0056-.010759-.01078-.022256-.01563-.033203-.0043-.00807-.0078-.015256-.01172-.023437-.0044-.011639-.01011-.023369-.01367-.035156-.0044-.013397-.0064-.027453-.0098-.041016-.0032-.013837-.0078-.027067-.0098-.041016-.000549-.00447.0005-.00919 0-.013672-.0023-.017817-.0035-.036808-.0039-.054688.000057-.00802-.000444-.015427 0-.023437.00063-.010238.0027-.021046.0039-.03125-.000061-.01198-.000787-.023194 0-.035156.0024-.011556.0046-.023709.0078-.035156.0035-.012884.0091-.0244.01367-.037109.0057-.017347.01202-.035772.01953-.052734.0079-.019138.01717-.038092.02734-.056641.0019-.00351.0039-.00627.0059-.00977.01204-.01921.02464-.038335.03906-.056641.01165-.016018.02376-.031589.03711-.046875.0043-.00525.0092-.010459.01367-.015625.01689-.016612.03386-.033404.05273-.048828.01696-.014793.03609-.027325.05469-.041016.003-.00218.0047-.00566.0078-.00781.000706-.000513.0012-.0015.002-.00195l4.1895 4.2285c.08443.10070.17958.19545.28516.28320.01534.01432.03061.02936.04688.04297.0039.003.0078.0048.01172.0078.0077.0055.01564.01218.02344.01758.0086.0068.01669.01283.02539.01953.0062.0043.01333.0095.01953.01367.96168.69697 2.3298.67286 3.0371-.05078.14034-.14428.23307-.30564.29883-.47461.18647.51219.10592 1.0585-.29883 1.4746-.70727.72364-2.0754.74775-3.0371.05078-.0062-.0042-.01337-.0094-.01953-.01367-.0087-.0067-.01684-.01278-.02539-.01953-.0078-.0054-.01577-.01203-.02344-.01758-.0039-.003-.0079-.0048-.01172-.0078-.01627-.01361-.03153-.02865-.04688-.04297-.10557-.08775-.20072-.18250-.28516-.28320l-1.38-1.394c-.670.172-1.392.277-2.154.277-3.3137 0-6-1.7909-6-4 .00181-2.073 2.3789-3.8016 5.4766-3.9824zm-8.477 13.992h10v2h-10v-2zm11 0h1v2h-1v-2zm2 0h1v2h-1v-2zm2 0h1v2h-1v-2zm2 0h1v2h-1v-2z"/>
	</g>
</svg>
