<?xml version="1.0" encoding="UTF-8"?>
<svg id="svg" version="1.1" viewBox="0 0 22 22" xmlns="http://www.w3.org/2000/svg" xmlns:cc="http://creativecommons.org/ns#" xmlns:dc="http://purl.org/dc/elements/1.1/" xmlns:rdf="http://www.w3.org/1999/02/22-rdf-syntax-ns#">
	<defs>
		<style id="current-color-scheme" type="text/css">.ColorScheme-Text { color:#0000FF; }
			.ColorScheme-Highlight { color:#FF00FF; }
			.ColorScheme-Background { color:#FF0000; }</style>
	</defs>
	<metadata>
		<rdf:RDF>
			<cc:Work rdf:about="">
				<dc:format>image/svg+xml</dc:format>
				<dc:type rdf:resource="http://purl.org/dc/dcmitype/StillImage"/>
				<dc:creator>
					<cc:Agent>
						<dc:title>obnosim</dc:title>
					</cc:Agent>
				</dc:creator>
				<cc:license rdf:resource="http://creativecommons.org/licenses/by-sa/3.0/"/>
			</cc:Work>
			<cc:License rdf:about="http://creativecommons.org/licenses/by-sa/3.0/">
				<cc:permits rdf:resource="http://creativecommons.org/ns#Reproduction"/>
				<cc:permits rdf:resource="http://creativecommons.org/ns#Distribution"/>
				<cc:requires rdf:resource="http://creativecommons.org/ns#Notice"/>
				<cc:requires rdf:resource="http://creativecommons.org/ns#Attribution"/>
				<cc:permits rdf:resource="http://creativecommons.org/ns#DerivativeWorks"/>
				<cc:requires rdf:resource="http://creativecommons.org/ns#ShareAlike"/>
			</cc:License>
		</rdf:RDF>
	</metadata>
	<g id="22-22-edit-delete" class="ColorScheme-Highlight" style="opacity:.875">
		<rect width="22" height="22" style="fill:none"/>
		<path d="m18 11h-14" style="fill:none;stroke-linecap:round;stroke-width:2;stroke:currentColor"/>
	</g>
	<g id="edit-delete" class="ColorScheme-Highlight" style="opacity:.875">
		<rect x="24" y="-10" width="32" height="32" style="fill:none"/>
		<rect x="30" y="5" width="20" height="2" ry="1" style="fill:currentColor"/>
	</g>
	<g id="16-16-edit-clear-locationbar-rtl" class="ColorScheme-Background" style="opacity:.875">
		<rect x="-20" y="40" width="16" height="16" style="fill:none"/>
		<path d="m-14 42c-0.3 0-0.5 0.1-0.7 0.3l-5 5c-0.4 0.4-0.4 1 0 1.4l5 5c0.2 0.2 0.4 0.3 0.7 0.3h7c1.66 0 3-1.3 3-3v-6c0-1.7-1.34-3-3-3zm1 2.3c0.2 0 0.4 0.1 0.5 0.2l2.5 2.5 2.5-2.5c0.13-0.1 0.31-0.2 0.5-0.2s0.37 0.1 0.5 0.2c0.28 0.3 0.28 0.7 0 1l-2.5 2.5 2.5 2.5c0.28 0.3 0.28 0.7 0 1s-0.72 0.3-1 0l-2.5-2.5-2.5 2.5c-0.3 0.3-0.7 0.3-1 0s-0.3-0.7 0-1l2.5-2.5-2.5-2.5c-0.3-0.3-0.3-0.7 0-1 0.1-0.1 0.3-0.2 0.5-0.2z" style="fill:currentColor"/>
	</g>
	<g id="22-22-edit-clear-locationbar-rtl" class="ColorScheme-Background" style="opacity:.875">
		<rect y="34" width="22" height="22" style="fill:none"/>
		<path d="m8 37c-0.26 0-0.51 0.1-0.7 0.3l-7.007 7c-0.385 0.4-0.385 1 0 1.4l7.007 7c0.19 0.2 0.44 0.3 0.7 0.3h11c1.7 0 3-1.3 3-3v-10c0-1.7-1.3-3-3-3zm1.5 2.8c0.19 0 0.37 0.1 0.5 0.2l4 4 4-4c0.1-0.1 0.3-0.2 0.5-0.2s0.4 0.1 0.5 0.2c0.3 0.3 0.3 0.7 0 1l-4 4 4 4c0.3 0.3 0.3 0.7 0 1s-0.7 0.3-1 0l-4-4-4 4c-0.28 0.3-0.72 0.3-1 0s-0.28-0.7 0-1l4-4-4-4c-0.28-0.3-0.28-0.7 0-1 0.13-0.1 0.31-0.2 0.5-0.2z" style="fill:currentColor"/>
	</g>
	<g id="edit-clear-locationbar-rtl" class="ColorScheme-Background" style="opacity:.875">
		<rect x="26" y="24" width="32" height="32" style="fill:none"/>
		<path d="m38 28c-0.3 0-0.5 0.1-0.7 0.3l-11 11c-0.4 0.4-0.4 1 0 1.4l11 11c0.2 0.2 0.4 0.3 0.7 0.3h17c1.7 0 3-1.3 3-3v-18c0-1.7-1.3-3-3-3zm2 5.3c0.2 0 0.4 0.1 0.5 0.2l5.5 5.5 5.5-5.5c0.1-0.1 0.3-0.2 0.5-0.2s0.4 0.1 0.5 0.2c0.3 0.3 0.3 0.7 0 1l-5.5 5.5 5.5 5.5c0.3 0.3 0.3 0.7 0 1s-0.7 0.3-1 0l-5.5-5.5-5.5 5.5c-0.3 0.3-0.7 0.3-1 0s-0.3-0.7 0-1l5.5-5.5-5.5-5.5c-0.3-0.3-0.3-0.7 0-1 0.1-0.1 0.3-0.2 0.5-0.2z" style="fill:currentColor"/>
	</g>
	<g id="16-16-edit-clear-locationbar-ltr" class="ColorScheme-Background" style="opacity:.875">
		<rect x="-20" y="80" width="16" height="16" style="fill:none"/>
		<path d="m-17 82c-1.7 0-3 1.3-3 3v6c0 1.7 1.3 3 3 3h7c0.26 0 0.51-0.1 0.7-0.3l5-5c0.39-0.4 0.39-1 0-1.4l-5-5c-0.19-0.2-0.44-0.3-0.7-0.3zm0 2.3c0.2 0 0.4 0.1 0.5 0.2l2.5 2.5 2.5-2.5c0.1-0.1 0.3-0.2 0.5-0.2s0.4 0.1 0.5 0.2c0.3 0.3 0.3 0.7 0 1l-2.5 2.5 2.5 2.5c0.3 0.3 0.3 0.7 0 1s-0.7 0.3-1 0l-2.5-2.5-2.5 2.5c-0.3 0.3-0.7 0.3-1 0s-0.3-0.7 0-1l2.5-2.5-2.5-2.5c-0.3-0.3-0.3-0.7 0-1 0.1-0.1 0.3-0.2 0.5-0.2z" style="fill:currentColor"/>
	</g>
	<g id="22-22-edit-clear-locationbar-ltr" class="ColorScheme-Background" style="opacity:.875">
		<rect y="74" width="22" height="22" style="fill:none"/>
		<path d="m3 77c-1.66 0-3 1.3-3 3v10c0 1.7 1.34 3 3 3h11c0.3 0 0.5-0.1 0.7-0.3l7-7c0.4-0.4 0.4-1 0-1.4l-7-7c-0.2-0.2-0.4-0.3-0.7-0.3zm0.5 2.8c0.19 0 0.37 0.1 0.5 0.2l4 4 4-4c0.1-0.1 0.3-0.2 0.5-0.2s0.4 0.1 0.5 0.2c0.3 0.3 0.3 0.7 0 1l-4 4 4 4c0.3 0.3 0.3 0.7 0 1s-0.7 0.3-1 0l-4-4-4 4c-0.28 0.3-0.72 0.3-1 0s-0.28-0.7 0-1l4-4-4-4c-0.28-0.3-0.28-0.7 0-1 0.13-0.1 0.31-0.2 0.5-0.2z" style="fill:currentColor"/>
	</g>
	<g id="edit-clear-locationbar-ltr" class="ColorScheme-Background" style="opacity:.875">
		<rect x="26" y="64" width="32" height="32" style="fill:none"/>
		<path d="m29 68c-1.7 0-3 1.3-3 3v18c0 1.7 1.3 3 3 3h17c0.3 0 0.5-0.1 0.7-0.3l11-11c0.4-0.4 0.4-1 0-1.4l-11-11c-0.2-0.2-0.4-0.3-0.7-0.3zm3 5.3c0.2 0 0.4 0.1 0.5 0.2l5.5 5.5 5.5-5.5c0.1-0.1 0.3-0.2 0.5-0.2s0.4 0.1 0.5 0.2c0.3 0.3 0.3 0.7 0 1l-5.5 5.5 5.5 5.5c0.3 0.3 0.3 0.7 0 1s-0.7 0.3-1 0l-5.5-5.5-5.5 5.5c-0.3 0.3-0.7 0.3-1 0s-0.3-0.7 0-1l5.5-5.5-5.5-5.5c-0.3-0.3-0.3-0.7 0-1 0.1-0.1 0.3-0.2 0.5-0.2z" style="fill:currentColor"/>
	</g>
	<g id="22-22-edit-none" class="ColorScheme-Text" style="opacity:.875">
		<rect y="-66" width="22" height="22" rx=".5" ry=".5" style="fill:none"/>
		<path class="ColorScheme-Text" d="m3-64c-0.55 0-1 0.5-1 1v1h2v-2zm3 0v2h2v-2zm4 0v2h2v-2zm4 0v2h2v-2zm4 0v2h2v-1c0-0.5-0.4-1-1-1zm-16 4v2h2v-2zm16 0v2h2v-2zm-16 4v2h2v-2zm16 0v2h2v-2zm-16 4v2h2v-2zm16 0v2h2v-2zm-16 4v1c0 0.6 0.45 1 1 1h1v-2zm4 0v2h2v-2zm4 0v2h2v-2zm4 0v2h2v-2zm4 0v2h1c0.6 0 1-0.4 1-1v-1z" style="fill:currentColor"/>
	</g>
	<g id="32-32-edit-none" class="ColorScheme-Text" style="opacity:.875">
		<rect x="24" y="-76" width="32" height="32" style="fill:none"/>
		<path class="ColorScheme-Text" d="m28-73c-0.6 0-1 0.5-1 1v1h2v-2zm23 0v2h2v-1c0-0.5-0.4-1-1-1zm-24 24v1c0 0.6 0.4 1 1 1h1v-2zm24 0v2h1c0.6 0 1-0.4 1-1v-1zm-20-24v2h2v-2zm4 0v2h2v-2zm4 0v2h2v-2zm4 0v2h2v-2zm4 0v2h2v-2zm-20 4v2h2v-2zm24 0v2h2v-2zm-24 4v2h2v-2zm24 0v2h2v-2zm-24 4v2h2v-2zm24 0v2h2v-2zm-24 4v2h2v-2zm24 0v2h2v-2zm-24 4v2h2v-2zm24 0v2h2v-2zm-20 4v2h2v-2zm4 0v2h2v-2zm4 0v2h2v-2zm4 0v2h2v-2zm4 0v2h2v-2z" style="fill:currentColor"/>
	</g>
	<g id="edit-none" class="ColorScheme-Text" style="opacity:.875">
		<rect x="60" y="-92" width="48" height="48" style="fill:none"/>
		<path class="ColorScheme-Text" d="m66-87c-0.6 0-1 0.5-1 1v1h2v-2zm35 0v2h2v-1c0-0.5 0-1-1-1zm-36 36v1c0 0.6 0.4 1 1 1h1v-2zm36 0v2h1c1 0 1-0.4 1-1v-1zm-32-36v2h2v-2zm4 0v2h2v-2zm4 0v1.8l2 0.2v-2zm4 0v2h2v-2zm4 0v2h2v-2zm-20 4v2h2v-2zm36 0v2h2v-2zm-36 4v2h2v-2zm36 0v2h2v-2zm-36 4v2h2v-2zm36 0v2h2v-2zm-36 4v2h2v-2zm36 0v2h2v-2zm-36 4v2h2v-2zm36 0v2h2v-2zm-32 16v2h2v-2zm4 0v2h2v-2zm4 0v2h2v-2zm4 0v2h2v-2zm4 0v2h2v-2zm4-36v2h2v-2zm4 0v2h2v-2zm4 0v2h2v-2zm-32 24v2h2v-2zm0 4v2h2v-2zm0 4v2h2v-2zm36-8v2h2v-2zm0 4v2h2v-2zm0 4v2h2v-2zm-12 4v2h2v-2zm4 0v2h2v-2zm4 0v2h2v-2z" style="fill:currentColor"/>
	</g>
	<g id="edit-paste" class="ColorScheme-Text" style="opacity:.875">
		<rect x="60" y="-142" width="48" height="48" style="fill:none"/>
		<path class="ColorScheme-Text" d="m67-126c-0.6 0-1 0-1 1v1h2v-2zm-1 24v1c0 1 0.4 1 1 1h1v-2zm24 0v2h1c0.6 0 1 0 1-1v-1zm-20-24v2h2v-2zm4 0v2h2v-2zm-8 4v2h2v-2zm0 4v2h2v-2zm0 4v2h2v-2zm0 4v2h2v-2zm24 0v2h2v-2zm-24 4v2h2v-2zm24 0v2h2v-2zm-20 4v2h2v-2zm4 0v2h2v-2zm4 0v2h2v-2zm4 0v2h2v-2zm4 0v2h2v-2z" style="fill:currentColor"/>
		<rect x="78" y="-138" width="25" height="25" style="fill:none;stroke-linejoin:round;stroke-width:2;stroke:currentColor"/>
	</g>
	<g id="32-32-edit-paste" class="ColorScheme-Text" style="opacity:.875">
		<rect x="24" y="-126" width="32" height="32" style="fill:none"/>
		<path class="ColorScheme-Text" d="m28-115c-0.5 0-1 0-1 1v1h2v-2zm3 0v2h2v-2zm-4 4v2h2v-2zm0 4v2h2v-2zm0 4v2h2v-2zm16 0v2h2v-2zm-16 4v1c0 0.6 0.5 1 1 1h1v-2zm4 0v2h2v-2zm4 0v2h2v-2zm4 0v2h2v-2zm4 0v2h1c0.6 0 1-0.4 1-1v-1z" style="fill:currentColor"/>
		<rect x="36" y="-122" width="16" height="16" style="fill:none;stroke-linejoin:round;stroke-width:2;stroke:currentColor"/>
	</g>
	<g id="22-22-edit-paste" class="ColorScheme-Text" style="opacity:.875">
		<rect y="-116" width="22" height="22" rx=".5" ry=".5" style="fill:none"/>
		<path class="ColorScheme-Text" d="m3-110c-0.55 0-1 0-1 1v1h2v-2zm-1 4v2h2v-2zm0 4v2h2v-2zm0 4v1c0 0.6 0.45 1 1 1h1v-2zm4 0v2h2v-2zm4 0v2h2v-2zm4 0v2h1c0.6 0 1-0.4 1-1v-1z" style="fill:currentColor"/>
		<rect x="7" y="-113" width="12" height="12" style="fill:none;stroke-linejoin:round;stroke-width:2;stroke:currentColor"/>
	</g>
	<g id="64-64-edit-none" class="ColorScheme-Text" style="opacity:.875">
		<rect x="112" y="-92" width="64" height="64" style="fill:none"/>
		<path class="ColorScheme-Text" d="m118-87c-1 0-1 0.5-1 1v1h2v-2zm51 0v2h2v-1c0-0.5 0-1-1-1zm-52 52v1c0 0.6 0 1 1 1h1v-2zm52 0v2h1c1 0 1-0.4 1-1v-1zm-48-52v2h2v-2zm4 0v2h2v-2zm4 0v1.8l2 0.2v-2zm4 0v2h2v-2zm4 0v2h2v-2zm-20 4v2h2v-2zm52 0v2h2v-2zm-52 4v2h2v-2zm52 0v2h2v-2zm-52 4v2h2v-2zm52 0v2h2v-2zm-52 4v2h2v-2zm52 0v2h2v-2zm-52 4v2h2v-2zm52 0v2h2v-2zm-48 32v2h2v-2zm4 0v2h2v-2zm4 0v2h2v-2zm4 0v2h2v-2zm4 0v2h2v-2zm4-52v2h2v-2zm4 0v2h2v-2zm4 0v2h2v-2zm-32 24v2h2v-2zm0 4v2h2v-2zm0 4v2h2v-2zm52-8v2h2v-2zm0 4v2h2v-2zm0 4v2h2v-2zm-28 20v2h2v-2zm4 0v2h2v-2zm4 0v2h2v-2zm4-52v2h2v-2zm4 0v2h2v-2zm4 0v2h2v-2zm4 0v2h2v-2zm-12 52v2h2v-2zm4 0v2h2v-2zm4 0v2h2v-2zm4 0v2h2v-2zm-48-16v2h2v-2zm0 4v2h2v-2zm0 4v2h2v-2zm0 4v2h2v-2zm52-12v2h2v-2zm0 4v2h2v-2zm0 4v2h2v-2zm0 4v2h2v-2z" style="fill:currentColor"/>
	</g>
	<g id="64-64-edit-paste" class="ColorScheme-Text" style="opacity:.875">
		<rect x="112" y="-160" width="64" height="64" style="fill:none"/>
		<path class="ColorScheme-Text" d="m120-136c-1 0-1 0-1 1v1h2v-2zm-1 32v1c0 1 0 1 1 1h1v-2zm32 0v2h1c1 0 1 0 1-1v-1zm-28-32v2h2v-2zm4 0v2h2v-2zm-8 12v2h2v-2zm0 4v2h2v-2zm0 4v2h2v-2zm0 4v2h2v-2zm32 0v2h2v-2zm-32 4v2h2v-2zm32 0v2h2v-2zm-28 4v2h2v-2zm4 0v2h2v-2zm4 0v2h2v-2zm4 0v2h2v-2zm4 0v2h2v-2zm12-12v2h2v-2zm-20-20v2h2v-2zm12 32v2h2v-2zm4 0v2h2v-2zm-28-28v2h2v-2zm0 4v2h2v-2z" style="fill:currentColor"/>
		<rect x="136" y="-152" width="32" height="32" style="fill:none;stroke-linejoin:round;stroke-width:2;stroke:currentColor"/>
	</g>
	<g id="22-22-edit-clear-history" class="ColorScheme-Text">
		<rect x="68" y="-2" width="22" height="22" style="fill:none"/>
		<path d="m81.266-1.4176e-4c-0.50773 7.1e-9 -1.0153 0.19481-1.4044 0.58385l-9.2777 9.2777c-0.77809 0.77809-0.77809 2.0326 0 2.8106l4.7445 4.7445c0.77809 0.77809 2.0326 0.77809 2.8106 0l9.2777-9.2777c0.77809-0.77809 0.77809-2.0326 0-2.8106l-4.7445-4.7445c-0.38905-0.38905-0.89857-0.58385-1.4063-0.58385zm-4.9657 6.9539 4.7465 4.7445-4.3139 4.3139-4.7465-4.7465z" style="fill:currentColor"/>
		<path d="m76.969 17h9.9063" style="fill:none;opacity:.875;stroke-linecap:round;stroke-width:2;stroke:currentColor"/>
		<path d="m70.969 17h5.9063" style="fill:none;opacity:.375;stroke-linecap:round;stroke-width:2;stroke:currentColor"/>
	</g>
	<g id="edit-clear-history" class="ColorScheme-Text">
		<rect x="92" y="-12" width="32" height="32" style="fill:none"/>
		<path d="m104.97 16h14.906" style="fill:none;stroke-linecap:round;stroke-width:2;stroke:currentColor"/>
		<path d="m111.13-9c-0.76969 0-1.5391 0.29499-2.1289 0.88477l-13.113 13.113c-1.1796 1.1796-1.1796 3.0783 0 4.2578l6.8594 6.8594c1.1796 1.1796 3.0783 1.1796 4.2578 0l13.113-13.113c1.1796-1.1796 1.1796-3.0783 0-4.2578l-6.8594-6.8594c-0.58978-0.58978-1.3592-0.88477-2.1289-0.88477zm-8 9.9844c0.25234 5e-9 0.50457 0.10418 0.71484 0.31445l6.8594 6.8594c0.42055 0.42055 0.42055 1.0091 0 1.4297l-5.1133 5.1133c-0.42055 0.42055-1.0091 0.42055-1.4297 0l-6.8594-6.8594c-0.42055-0.42055-0.42055-1.0091 0-1.4297l5.1133-5.1133c0.21027-0.21027 0.4625-0.31445 0.71484-0.31445z" style="fill:currentColor;opacity:.875;stroke-linecap:round;stroke-linejoin:round;stroke-width:2"/>
		<path d="m94.969 16h9.9062" style="fill:none;opacity:.375;stroke-linecap:round;stroke-width:2;stroke:currentColor"/>
	</g>
</svg>
