<?xml version="1.0" encoding="UTF-8"?>
<svg id="svg" width="32" height="32" version="1.1" viewBox="0 0 32 32" xmlns="http://www.w3.org/2000/svg" xmlns:cc="http://creativecommons.org/ns#" xmlns:dc="http://purl.org/dc/elements/1.1/" xmlns:rdf="http://www.w3.org/1999/02/22-rdf-syntax-ns#">
	<defs id="defs3615">
		<style id="current-color-scheme" type="text/css">.ColorScheme-Text { color:#0000FF; }</style>
	</defs>
	<metadata id="metadata7">
		<rdf:RDF>
			<cc:Work rdf:about="">
				<dc:format>image/svg+xml</dc:format>
				<dc:type rdf:resource="http://purl.org/dc/dcmitype/StillImage"/>
				<dc:creator>
					<cc:Agent>
						<dc:title>obnosim</dc:title>
					</cc:Agent>
				</dc:creator>
				<cc:license rdf:resource="http://creativecommons.org/licenses/by-sa/4.0/"/>
			</cc:Work>
			<cc:License rdf:about="http://creativecommons.org/licenses/by-sa/4.0/">
				<cc:permits rdf:resource="http://creativecommons.org/ns#Reproduction"/>
				<cc:permits rdf:resource="http://creativecommons.org/ns#Distribution"/>
				<cc:requires rdf:resource="http://creativecommons.org/ns#Notice"/>
				<cc:requires rdf:resource="http://creativecommons.org/ns#Attribution"/>
				<cc:permits rdf:resource="http://creativecommons.org/ns#DerivativeWorks"/>
				<cc:requires rdf:resource="http://creativecommons.org/ns#ShareAlike"/>
			</cc:License>
		</rdf:RDF>
	</metadata>
	<g id="22-22-input-mouse-battery" class="ColorScheme-Text" style="opacity:.875">
		<rect y="32" width="22" height="22" style="fill:none"/>
		<path d="m10 32c-3.9 0-7 3-7 7v8c0 4 3.1 7 7 7h2c3.9 0 7-3 7-7v-8c0-4-3.1-7-7-7v1c0.6 1 1 1 1 2v5c0 1-0.4 1-1 2v2c0 1-0.4 1-1 1s-1 0-1-1v-2c-0.6-1-1-1-1-2v-5c0-1 0.4-1 1-2zm1 2c-0.6 0-1 0-1 1v4c0 1 0.4 1 1 1s1 0 1-1v-4c0-1-0.4-1-1-1zm-1 13 6 3h-4v2l-6-3h4z" style="fill-rule:evenodd;fill:currentColor"/>
	</g>
	<g id="22-22-input-keyboard-battery" class="ColorScheme-Text" style="opacity:.875">
		<rect y="54" width="22" height="22" style="fill:none"/>
		<path d="m5 55c-2.2 0-4 1.8-4 4v12c0 2.2 1.8 4 4 4h12c2.2 0 4-1.8 4-4v-12c0-2.2-1.8-4-4-4zm0 1h12c1.7 0 3 1.3 3 3v11c0 1.7-1.3 3-3 3h-12c-1.7 0-3-1.3-3-3v-11c0-1.7 1.3-3 3-3z" style="fill:currentColor"/>
		<path d="m10 61 8 2h-6v3l-8-2h6z" style="fill-rule:evenodd;fill:currentColor"/>
		<rect x="8" y="70" width="6" height="1" rx=".5" ry=".5" style="fill:currentColor"/>
	</g>
	<g id="22-22-input-keyboard-brightness" class="ColorScheme-Text" style="opacity:.875">
		<rect y="76" width="22" height="22" style="fill:none"/>
		<path d="m11 82a3 3 0 0 0-3 3 3 3 0 0 0 3 3 3 3 0 0 0 3-3 3 3 0 0 0-3-3z" style="fill:currentColor"/>
		<path d="m5 77c-2.2 0-4 1.8-4 4v12c0 2.2 1.8 4 4 4h12c2.2 0 4-1.8 4-4v-12c0-2.2-1.8-4-4-4zm0 1h12c1.7 0 3 1.3 3 3v11c0 1.7-1.3 3-3 3h-12c-1.7 0-3-1.3-3-3v-11c0-1.7 1.3-3 3-3zm3.5 14h5c0.3 0 0.5 0.2 0.5 0.5s-0.2 0.5-0.5 0.5h-5c-0.3 0-0.5-0.2-0.5-0.5s0.2-0.5 0.5-0.5z" style="fill:currentColor"/>
		<path d="m11 79.3-1.1 1.9a4 4 0 0 1 1.1-0.2 4 4 0 0 1 1.1 0.2zm-4 1.7 0.5 2a4 4 0 0 1 1.6-1.5zm8 0-2 0.5a4 4 0 0 1 1.5 1.5zm-7.8 2.9-1.9 1.1 1.8 1.1a4 4 0 0 1-0.1-1.1 4 4 0 0 1 0.2-1.1zm7.6 0a4 4 0 0 1 0.2 1.1 4 4 0 0 1-0.2 1.1l1.9-1.1-1.8-1.1zm-7.3 3-0.5 2.1 2-0.5a4 4 0 0 1-1.5-1.6zm7 0.1a4 4 0 0 1-1.6 1.5l2.1 0.5zm-4.6 1.8 1.1 1.9 1.1-1.9a4 4 0 0 1-1.1 0.2 4 4 0 0 1-1.1-0.2z" style="fill:currentColor"/>
	</g>
	<g id="input-keyboard-battery" class="ColorScheme-Text" style="opacity:.875">
		<rect y="-96" width="32" height="32" style="fill:none"/>
		<path d="m5-95c-2.22 0-4 1.8-4 4v22c0 2.2 1.78 4 4 4h22c2.2 0 4-1.8 4-4v-22c0-2.2-1.8-4-4-4zm0 1h22c1.7 0 3 1.3 3 3v21c0 1.7-1.3 3-3 3h-22c-1.66 0-3-1.3-3-3v-21c0-1.7 1.34-3 3-3z" style="fill:currentColor"/>
		<rect x="12" y="-71" width="8" height="1" rx=".5" ry=".5" style="fill:currentColor"/>
		<path d="m4-82h10v-5l14 5h-10v5z" style="fill:currentColor"/>
	</g>
	<g id="input-keyboard-brightness" class="ColorScheme-Text" style="opacity:.875">
		<rect y="-64" width="32" height="32" style="fill:none"/>
		<path d="m5-63c-2.2 0-4 1.8-4 4v22c0 2.2 1.8 4 4 4h22c2.2 0 4-1.8 4-4v-22c0-2.2-1.8-4-4-4zm0 1h22c1.7 0 3 1.3 3 3v21c0 1.7-1.3 3-3 3h-22c-1.7 0-3-1.3-3-3v-21c0-1.7 1.3-3 3-3z" style="fill:currentColor"/>
		<rect x="12" y="-39" width="8" height="1" rx=".5" ry=".5" style="fill:currentColor"/>
		<circle cx="16" cy="-51" r="5" style="fill:currentColor"/>
		<path d="m16-61-1.1 3.1a7 7 0 0 1 1.1-0.1 7 7 0 0 1 1.1 0.1zm-7.1 2.9 1.4 3a7 7 0 0 1 1.6-1.6zm14.2 0-3 1.4a7 7 0 0 1 1.6 1.6zm-14 6-3.1 1.1 3.1 1.1a7 7 0 0 1-0.1-1.1 7 7 0 0 1 0.1-1.1zm13.8 0a7 7 0 0 1 0.1 1.1 7 7 0 0 1-0.1 1.1l3.1-1.1zm-12.6 5.2-1.4 3 3-1.4a7 7 0 0 1-1.6-1.6zm11.4 0a7 7 0 0 1-1.6 1.6l3 1.4zm-6.8 2.8 1.1 3.1 1.1-3.1a7 7 0 0 1-1.1 0.1 7 7 0 0 1-1.1-0.1z" style="fill:currentColor"/>
	</g>
	<g id="input-mouse-battery" class="ColorScheme-Text" style="opacity:.875">
		<rect x="1.53e-6" y="-128" width="32" height="32" style="fill:none;stroke-width:1.3135"/>
		<path d="m15-127c-5.5 0-10 4-10 10v10c0 5 4.5 10 10 10h2c5.5 0 10-5 10-10v-10c0-6-4.5-10-10-10v2c1.2 1 2 2 2 3v4c0 1-0.8 2-2 3v4c0 1-0.4 1-1 1s-1 0-1-1v-4c-1.2-1-2-2-2-3v-4c0-1 0.8-2 2-3zm1 3c-1.1 0-2 1-2 2v3c0 1 0.9 2 2 2s2-1 2-2v-3c0-1-0.9-2-2-2zm-1 17 8 4h-6v3l-8-4h6z" style="fill:currentColor;stroke-width:.99694"/>
	</g>
	<g id="input-caps-on" class="ColorScheme-Text" style="opacity:.875">
		<rect y="-32" width="32" height="32" style="fill:none"/>
		<path d="m5-31c-2.2 0-4 1.8-4 4v22c0 2.2 1.8 4 4 4h22c2 0 4-1.8 4-4v-22c0-2.2-2-4-4-4zm0 1h22c2 0 3 1.3 3 3v21c0 1.7-1 3-3 3h-22c-1.7 0-3-1.3-3-3v-21c0-1.7 1.3-3 3-3z" style="fill:currentColor"/>
		<rect x="12" y="-7" width="8" height="1" rx=".5" ry=".5" style="fill:currentColor"/>
		<text x="16" y="-11" style="fill:currentColor;font-family:system-ui, sans-serif;font-size:21.333px;text-align:center;text-anchor:middle">A</text>
	</g>
	<g id="input-num-on" class="ColorScheme-Text" style="opacity:.875">
		<rect width="32" height="32" style="fill:none"/>
		<path d="m5 1c-2 0-4 1.8-4 4v22c0 2.2 2 4 4 4h22c2 0 4-1.8 4-4v-22c0-2.2-2-4-4-4zm0 1h22c2 0 3 1.3 3 3v21c0 1.7-1 3-3 3h-22c-2 0-3-1.3-3-3v-21c0-1.7 1-3 3-3z" style="fill:currentColor"/>
		<rect x="12" y="25" width="8" height="1" rx=".5" ry=".5" style="fill:currentColor"/>
		<text x="16" y="21" style="fill:currentColor;font-family:system-ui, sans-serif;font-size:21.333px;text-align:center;text-anchor:middle">1</text>
	</g>
	<g id="22-22-input-caps-on" class="ColorScheme-Text" style="opacity:.875">
		<rect y="98" width="22" height="22" style="fill:none"/>
		<path d="m5 99c-2.2 0-4 2-4 4v12c0 2 1.8 4 4 4h12c2.2 0 4-2 4-4v-12c0-2-1.8-4-4-4zm0 1h12c1.7 0 3 1 3 3v11c0 2-1.3 3-3 3h-12c-1.7 0-3-1-3-3v-11c0-2 1.3-3 3-3z" style="fill:currentColor"/>
		<text x="11" y="112" style="fill:currentColor;font-family:system-ui, sans-serif;font-size:14.667px;text-align:center;text-anchor:middle">A</text>
		<rect x="8" y="114" width="6" height="1" rx=".5" ry=".5" style="fill:currentColor"/>
	</g>
	<g id="22-22-input-num-on" class="ColorScheme-Text" style="opacity:.875">
		<rect y="120" width="22" height="22" style="fill:none"/>
		<path d="m5 121c-2 0-4 2-4 4v12c0 2 2 4 4 4h12c2 0 4-2 4-4v-12c0-2-2-4-4-4zm0 1h12c2 0 3 1 3 3v11c0 2-1 3-3 3h-12c-2 0-3-1-3-3v-11c0-2 1-3 3-3z" style="fill:currentColor"/>
		<text x="11" y="134" style="fill:currentColor;font-family:system-ui, sans-serif;font-size:14.667px;text-align:center;text-anchor:middle">1</text>
		<rect x="8" y="136" width="6" height="1" rx=".5" ry=".5" style="fill:currentColor"/>
	</g>
</svg>
