<?xml version="1.0" encoding="UTF-8" standalone="no"?>
<svg id="svg3045" xmlns:rdf="http://www.w3.org/1999/02/22-rdf-syntax-ns#" xmlns="http://www.w3.org/2000/svg" height="22" width="22" version="1.1" xmlns:cc="http://creativecommons.org/ns#" xmlns:dc="http://purl.org/dc/elements/1.1/">
	<defs id="defs3615">
		<style id="current-color-scheme" type="text/css">
			.ColorScheme-Text { color:#0000FF; }
		</style>
	</defs>
	<metadata id="metadata7">
		<rdf:RDF>
			<cc:Work rdf:about="">
				<dc:format>image/svg+xml</dc:format>
				<dc:type rdf:resource="http://purl.org/dc/dcmitype/StillImage"/>
				<dc:title/>
				<dc:creator>
					<cc:Agent>
						<dc:title>obnosim</dc:title>
					</cc:Agent>
				</dc:creator>
				<cc:license rdf:resource="http://creativecommons.org/licenses/by-sa/3.0/"/>
			</cc:Work>
			<cc:License rdf:about="http://creativecommons.org/licenses/by-sa/3.0/">
				<cc:permits rdf:resource="http://creativecommons.org/ns#Reproduction"/>
				<cc:permits rdf:resource="http://creativecommons.org/ns#Distribution"/>
				<cc:requires rdf:resource="http://creativecommons.org/ns#Notice"/>
				<cc:requires rdf:resource="http://creativecommons.org/ns#Attribution"/>
				<cc:permits rdf:resource="http://creativecommons.org/ns#DerivativeWorks"/>
				<cc:requires rdf:resource="http://creativecommons.org/ns#ShareAlike"/>
			</cc:License>
		</rdf:RDF>
	</metadata>
	<g id="kdeconnect" transform="translate(-1,-9)">
		<rect style="fill:none" height="22" width="22" y="9" x="1"/>
		<path style="fill:currentColor;opacity:.875" class="ColorScheme-Text" d="m12 29c.34366 0 .66636-.025 1-.0625-3.5011-.394-6.3899-2.801-7.5-6.032.2364-.348.3362-.780.2188-1.218-.2145-.801-1.0436-1.277-1.8438-1.063-.80020.21441-1.2769 1.0436-1.0625 1.8438.12731.47512.48214.83045.90625 1 1.3541 3.252 4.5373 5.531 8.2812 5.531zm0-18c-.34366 0-.66636.025-1 .0625 3.5011.39354 6.3899 2.8005 7.5 6.0312-.23636.34809-.33620.78044-.21875 1.2188.21441.80020 1.0436 1.2769 1.8438 1.0625.80020-.21441 1.2769-1.0436 1.0625-1.8438-.12731-.47512-.48214-.83045-.90625-1-1.354-3.252-4.537-5.531-8.281-5.531zm-3.7533 5.0001c-.13132-.0015-.24825.12008-.24670.2514v7.4999c-.0025.13132.11537.25015.24670.24860h1.6172c.074749.0005.14890-.03513.19530-.09375l1.9615-2.4922 2.1646 2.5c.04625.05376.11657.08599.18750.08594h1.3516c.18367 0 .30782-.25325.19532-.39843l-2.7947-3.6015 2.7947-3.6015c.11275-.14552-.0125-.39937-.19657-.39843h-1.3516c-.07092-.000055-.14125.03217-.18750.08594l-4.1873 4.8437-.0077-4.6797c.0025-.13132-.11867-.25155-0.25-0.25h-1.4922z"/>
	</g>
</svg>
