<?xml version="1.0" encoding="UTF-8" standalone="no"?>
<svg id="svg2" xmlns:rdf="http://www.w3.org/1999/02/22-rdf-syntax-ns#" xmlns="http://www.w3.org/2000/svg" height="22" width="22" version="1.1" xmlns:cc="http://creativecommons.org/ns#" xmlns:dc="http://purl.org/dc/elements/1.1/">
	<defs id="defs3615">
		<style id="current-color-scheme" type="text/css">
			.ColorScheme-Text { color:#0000FF; }
		</style>
	</defs>
	<metadata id="metadata7">
		<rdf:RDF>
			<cc:Work rdf:about="">
				<dc:format>image/svg+xml</dc:format>
				<dc:type rdf:resource="http://purl.org/dc/dcmitype/StillImage"/>
				<dc:title/>
				<dc:creator>
					<cc:Agent>
						<dc:title>obnosim</dc:title>
					</cc:Agent>
				</dc:creator>
				<cc:license rdf:resource="http://creativecommons.org/licenses/by-sa/3.0/"/>
			</cc:Work>
			<cc:License rdf:about="http://creativecommons.org/licenses/by-sa/3.0/">
				<cc:permits rdf:resource="http://creativecommons.org/ns#Reproduction"/>
				<cc:permits rdf:resource="http://creativecommons.org/ns#Distribution"/>
				<cc:requires rdf:resource="http://creativecommons.org/ns#Notice"/>
				<cc:requires rdf:resource="http://creativecommons.org/ns#Attribution"/>
				<cc:permits rdf:resource="http://creativecommons.org/ns#DerivativeWorks"/>
				<cc:requires rdf:resource="http://creativecommons.org/ns#ShareAlike"/>
			</cc:License>
		</rdf:RDF>
	</metadata>
	<g id="22-22-kgpg" transform="translate(115,-933)">
		<rect style="opacity:.375;fill:none" height="22" width="22" y="933" x="-115"/>
		<path d="m-104 934c-3.414 0-6 3.2288-6 7v3 8c0 1.108.892 2 2 2h8c1.108 0 2-.892 2-2v-8-3c0-3.7712-2.586-7-6-7zm0 2c2.126 0 4 2.1232 4 5v3h-8v-3c0-2.8768 1.874-5 4-5zm0 11c.55228 0 1 .44772 1 1 0 .36497-.208.66914-.5.84375v2.1562h-1v-2.1562c-.292-.17461-.5-.47878-.5-.84375 0-.55228.44772-1 1-1z" style="opacity:.875;fill:currentColor" class="ColorScheme-Text"/>
	</g>
	<g id="kgpg" transform="translate(80,22)">
		<rect style="fill:none" height="32" width="32" y="-32" x="-56"/>
		<path d="m-40-29c-4.432 0-8 3.568-8 8v16.938c0 .5881.474 1.062 1.062 1.062h13.875c.589 0 1.063-.4739 1.063-1.0625v-16.938c0-4.432-3.568-8-8-8zm0 2c3.324 0 6 2.676 6 6v5h-12v-5c0-3.324 2.676-6 6-6zm0 16c.55228 0 1 .44772 1 1-.000528.36875-.20395.70729-.5293.88086l.529 2.1191h-2l.5293-2.1191c-.325-.1736-.528-.5121-.529-.8809 0-.55228.44772-1 1-1z" class="ColorScheme-Text" style="opacity:.875;fill:currentColor"/>
	</g>
</svg>
