<?xml version="1.0" encoding="UTF-8" standalone="no"?>
<svg id="svg3066" xmlns:rdf="http://www.w3.org/1999/02/22-rdf-syntax-ns#" xmlns="http://www.w3.org/2000/svg" height="22" width="22" version="1.1" xmlns:cc="http://creativecommons.org/ns#" xmlns:dc="http://purl.org/dc/elements/1.1/">
	<defs id="defs3615">
		<style id="current-color-scheme" type="text/css">
			.ColorScheme-Text { color:#0000FF; }
		</style>
	</defs>
	<metadata id="metadata7">
		<rdf:RDF>
			<cc:Work rdf:about="">
				<dc:format>image/svg+xml</dc:format>
				<dc:type rdf:resource="http://purl.org/dc/dcmitype/StillImage"/>
				<dc:title/>
				<dc:creator>
					<cc:Agent>
						<dc:title>obnosim</dc:title>
					</cc:Agent>
				</dc:creator>
				<cc:license rdf:resource="http://creativecommons.org/licenses/by-sa/3.0/"/>
			</cc:Work>
			<cc:License rdf:about="http://creativecommons.org/licenses/by-sa/3.0/">
				<cc:permits rdf:resource="http://creativecommons.org/ns#Reproduction"/>
				<cc:permits rdf:resource="http://creativecommons.org/ns#Distribution"/>
				<cc:requires rdf:resource="http://creativecommons.org/ns#Notice"/>
				<cc:requires rdf:resource="http://creativecommons.org/ns#Attribution"/>
				<cc:permits rdf:resource="http://creativecommons.org/ns#DerivativeWorks"/>
				<cc:requires rdf:resource="http://creativecommons.org/ns#ShareAlike"/>
			</cc:License>
		</rdf:RDF>
	</metadata>
	<g id="kmess" transform="translate(-1 -1)">
		<rect style="fill:none" height="22" width="22" y="1" x="1"/>
		<path style="fill:currentColor;opacity:.875" class="ColorScheme-Text" d="m4.3438 2.9375c-2.1027-.0166-3.8679 2.9616-3.1876 5.6875.68158 2.7308 2.8551 4.4503 5.375 5.0938-1.1844.65804-2.1084 1.7438-2.4688 3.1875-.72384 2.9001 2.3467 6.1839 4.4375 2.5625l3.5001-6.063-4.7812-8.281c-.8933-1.5472-1.9193-2.18-2.875-2.1875zm7.6562 10.468l3.5 6.0625c2.0908 3.6214 5.1613.33764 4.4375-2.5625-.36033-1.4437-1.2844-2.5295-2.4688-3.1875 2.5199-.64342 4.6934-2.363 5.375-5.0938.98960-3.9649-3.204-8.451-6.0625-3.5l-4.781 8.282z"/>
	</g>
</svg>
