<?xml version="1.0" encoding="UTF-8" standalone="no"?>
<svg id="svg2" xmlns:rdf="http://www.w3.org/1999/02/22-rdf-syntax-ns#" xmlns="http://www.w3.org/2000/svg" height="22" width="22" version="1.1" xmlns:cc="http://creativecommons.org/ns#" xmlns:dc="http://purl.org/dc/elements/1.1/">
	<defs id="defs3615">
		<style id="current-color-scheme" type="text/css">
			.ColorScheme-Text { color:#0000FF; }
		</style>
	</defs>
	<metadata id="metadata7">
		<rdf:RDF>
			<cc:Work rdf:about="">
				<dc:format>image/svg+xml</dc:format>
				<dc:type rdf:resource="http://purl.org/dc/dcmitype/StillImage"/>
				<dc:title/>
				<dc:creator>
					<cc:Agent>
						<dc:title>obnosim</dc:title>
					</cc:Agent>
				</dc:creator>
				<cc:license rdf:resource="http://creativecommons.org/licenses/by-sa/3.0/"/>
			</cc:Work>
			<cc:License rdf:about="http://creativecommons.org/licenses/by-sa/3.0/">
				<cc:permits rdf:resource="http://creativecommons.org/ns#Reproduction"/>
				<cc:permits rdf:resource="http://creativecommons.org/ns#Distribution"/>
				<cc:requires rdf:resource="http://creativecommons.org/ns#Notice"/>
				<cc:requires rdf:resource="http://creativecommons.org/ns#Attribution"/>
				<cc:permits rdf:resource="http://creativecommons.org/ns#DerivativeWorks"/>
				<cc:requires rdf:resource="http://creativecommons.org/ns#ShareAlike"/>
			</cc:License>
		</rdf:RDF>
	</metadata>
	<g id="knotes" transform="translate(-1,-1)">
		<rect style="opacity:.125;fill:none" height="22" width="22" y="1" x="1"/>
		<path style="fill:currentColor;opacity:.875" class="ColorScheme-Text" d="m4 4c0 4 0 12-3 15h16c3-3 3-11 3-15h-16zm1.5 2h1c.277 0 .5.223.5.5s-.223.5-.5.5h-1c-.277 0-.5-.223-.5-.5s.223-.5.5-.5zm3 0h1c.277 0 .5.223.5.5s-.223.5-.5.5h-1c-.277 0-.5-.223-.5-.5s.223-.5.5-.5zm3 0h1c.277 0 .5.223.5.5s-.223.5-.5.5h-1c-.277 0-.5-.223-.5-.5s.223-.5.5-.5zm3 0h1c.277 0 .5.223.5.5s-.223.5-.5.5h-1c-.277 0-.5-.223-.5-.5s.223-.5.5-.5zm3 0h1c.277 0 .5.223.5.5s-.223.5-.5.5h-1c-.277 0-.5-.223-.5-.5s.223-.5.5-.5zm3.5-2c0 2 .01154 5.0365-.375 8s-1.092 5.9045-2.9062 7.7188l-.313.281h-.406-13l1 1h17v-16z"/>
	</g>
</svg>
