<?xml version="1.0" encoding="UTF-8" standalone="no"?>
<svg id="svg3013" xmlns:rdf="http://www.w3.org/1999/02/22-rdf-syntax-ns#" xmlns="http://www.w3.org/2000/svg" height="22" width="22" version="1.1" xmlns:cc="http://creativecommons.org/ns#" xmlns:dc="http://purl.org/dc/elements/1.1/">
	<defs id="defs3615">
		<style id="current-color-scheme" type="text/css">
			.ColorScheme-Text { color:#0000FF; }
		</style>
	</defs>
	<metadata id="metadata7">
		<rdf:RDF>
			<cc:Work rdf:about="">
				<dc:format>image/svg+xml</dc:format>
				<dc:type rdf:resource="http://purl.org/dc/dcmitype/StillImage"/>
				<dc:title/>
				<dc:creator>
					<cc:Agent>
						<dc:title>obnosim</dc:title>
					</cc:Agent>
				</dc:creator>
				<cc:license rdf:resource="http://creativecommons.org/licenses/by-sa/3.0/"/>
			</cc:Work>
			<cc:License rdf:about="http://creativecommons.org/licenses/by-sa/3.0/">
				<cc:permits rdf:resource="http://creativecommons.org/ns#Reproduction"/>
				<cc:permits rdf:resource="http://creativecommons.org/ns#Distribution"/>
				<cc:requires rdf:resource="http://creativecommons.org/ns#Notice"/>
				<cc:requires rdf:resource="http://creativecommons.org/ns#Attribution"/>
				<cc:permits rdf:resource="http://creativecommons.org/ns#DerivativeWorks"/>
				<cc:requires rdf:resource="http://creativecommons.org/ns#ShareAlike"/>
			</cc:License>
		</rdf:RDF>
	</metadata>
	<g id="konqueror" transform="translate(-1,-1)">
		<rect style="opacity:.375;fill:none" height="22" width="22" y="1" x="1"/>
		<path style="fill:currentColor;opacity:.875" class="ColorScheme-Text" d="m3.75 7.3125c-.4479.3798-0.87.7815-1.2188 1.2187v1l1.0313.8438c-.1996.407-.3437.839-.4375 1.281l-2.0625.3125c-.0298.247-.0625.499-.0625.751 0 .16771.012777.33406.03125.5-.0184.166-.0312.332-.0312 0.5 0 0.252.03272.50379.0625.75l2.0625.3125c.09384.44253.23792.87420.4375 1.2812l-1.0312.84375v1c.3487.436.7708.838 1.2187 1.218l1.875-.65625c.61824.46143 1.3465.84549 2.125 1.1562l-.09375.625v1c.61854.19878 1.2665.35686 1.9375.46875l1.0312-1.375c.45246.05228.90291.09375 1.375.09375s.92254-.04147 1.375-.09375l1.0312 1.375c.67099-.11189 1.319-.26997 1.9375-.46875v-1l-.094-.625c.77850-.31076 1.5068-.69482 2.125-1.1562l1.875.656c.44793-.37983.86999-.78154 1.2188-1.2188v-1l-1.0312-.84375c.19958-.40705.34366-.83872.4375-1.2812l2.0625-.3125c.029-.245.062-.497.062-.749 0-.16771-.01278-.33406-.03125-.5.018-.166.031-.333.031-0.5 0-0.252-.03271-.50379-.0625-.75l-2.063-.313c-.094-.442-.238-.874-.437-1.281l1.0312-.84375v-1c-.349-.4372-.771-.8389-1.219-1.2187l-.40625.125c.099.5025.156 1.031.156 1.5625 0 2.655-1.29 5.014-3.281 6.469-1.098 1.048-2.798 1.719-4.719 1.719s-3.6206-.671-4.7188-1.719c-1.9908-1.455-3.2812-3.814-3.2812-6.469 0-.5315.0574-1.06.1562-1.5625l-.4062-.1250z"/>
		<circle style="fill:currentColor;opacity:.875" class="ColorScheme-Text" cx="12" transform="translate(0,-6)" cy="15" r="7"/>
	</g>
</svg>
