<?xml version="1.0" encoding="UTF-8" standalone="no"?>
<svg xmlns:rdf="http://www.w3.org/1999/02/22-rdf-syntax-ns#" xmlns="http://www.w3.org/2000/svg" height="32" width="32" version="1.1" xmlns:cc="http://creativecommons.org/ns#" xmlns:dc="http://purl.org/dc/elements/1.1/">
	<defs>
		<style id="current-color-scheme" type="text/css">.ColorScheme-Highlight { color:#FF00FF; }</style>
	</defs>
	<metadata>
		<rdf:RDF>
			<cc:Work rdf:about="">
				<dc:format>image/svg+xml</dc:format>
				<dc:type rdf:resource="http://purl.org/dc/dcmitype/StillImage"/>
				<dc:title/>
				<dc:creator>
					<cc:Agent>
						<dc:title>obnosim</dc:title>
					</cc:Agent>
				</dc:creator>
				<cc:license rdf:resource="http://creativecommons.org/licenses/by-sa/3.0/"/>
			</cc:Work>
			<cc:License rdf:about="http://creativecommons.org/licenses/by-sa/3.0/">
				<cc:permits rdf:resource="http://creativecommons.org/ns#Reproduction"/>
				<cc:permits rdf:resource="http://creativecommons.org/ns#Distribution"/>
				<cc:requires rdf:resource="http://creativecommons.org/ns#Notice"/>
				<cc:requires rdf:resource="http://creativecommons.org/ns#Attribution"/>
				<cc:permits rdf:resource="http://creativecommons.org/ns#DerivativeWorks"/>
				<cc:requires rdf:resource="http://creativecommons.org/ns#ShareAlike"/>
			</cc:License>
		</rdf:RDF>
	</metadata>
	<g id="22-22-konv_message" class="ColorScheme-Highlight" transform="translate(101,-22)">
		<rect style="fill:none" height="22" width="22" y="0" x="-96"/>
		<path style="fill-rule:evenodd;fill:currentColor;opacity:.875" d="m-84-29c-1.108 0-2 .892-2 2v13c0 1.108.89482 2.0789 2 2h15l3 3v-18c0-1.108-.892-2-2-2zm5.5 4h9c.277 0 .5.223.5.5s-.223.5-.5.5h-9c-.277 0-.5-.223-.5-.5s.223-.5.5-.5zm-4 4h9c.277 0 .5.223.5.5s-.223.5-.5.5h-9c-.277 0-.5-.223-.5-.5s.223-.5.5-.5zm4 4h9c.277 0 .5.223.5.5s-.223.5-.5.5h-9c-.277 0-.5-.223-.5-.5s.223-.5.5-.5z" transform="translate(-9,31)"/>
	</g>
	<g id="konv_message" class="ColorScheme-Highlight" transform="translate(112,-54)">
		<rect style="fill:none" height="32" width="32" y="54" x="-112"/>
		<path style="fill-rule:evenodd;fill:currentColor;opacity:.875" d="m-108 58c-1.108 0-2 .892-2 2v19c0 1.108.89325 2.0527 2 2h22l4 4v-25c0-1.108-.892-2-2-2zm2.5 5h15c.277 0 .5.223.5.5s-.223.5-.5.5h-15c-.277 0-.5-.223-.5-.5s.223-.5.5-.5zm4 4h15c.277 0 .5.223.5.5s-.223.5-.5.5h-15c-.277 0-.5-.223-.5-.5s.223-.5.5-.5zm-4 4h15c.277 0 .5.223.5.5s-.223.5-.5.5h-15c-.277 0-.5-.223-.5-.5s.223-.5.5-.5zm4 4h15c.277 0 .5.223.5.5s-.223.5-.5.5h-15c-.277 0-.5-.223-.5-.5s.223-.5.5-.5z"/>
	</g>
</svg>
