<?xml version="1.0" encoding="UTF-8" standalone="no"?>
<svg id="svg3066" xmlns:rdf="http://www.w3.org/1999/02/22-rdf-syntax-ns#" xmlns="http://www.w3.org/2000/svg" height="22" width="22" version="1.1" xmlns:cc="http://creativecommons.org/ns#" xmlns:dc="http://purl.org/dc/elements/1.1/">
	<defs id="defs3615">
		<style id="current-color-scheme" type="text/css">
			.ColorScheme-Text { color:#0000FF; }
		</style>
	</defs>
	<metadata id="metadata7">
		<rdf:RDF>
			<cc:Work rdf:about="">
				<dc:format>image/svg+xml</dc:format>
				<dc:type rdf:resource="http://purl.org/dc/dcmitype/StillImage"/>
				<dc:title/>
				<dc:creator>
					<cc:Agent>
						<dc:title>obnosim</dc:title>
					</cc:Agent>
				</dc:creator>
				<cc:license rdf:resource="http://creativecommons.org/licenses/by-sa/3.0/"/>
			</cc:Work>
			<cc:License rdf:about="http://creativecommons.org/licenses/by-sa/3.0/">
				<cc:permits rdf:resource="http://creativecommons.org/ns#Reproduction"/>
				<cc:permits rdf:resource="http://creativecommons.org/ns#Distribution"/>
				<cc:requires rdf:resource="http://creativecommons.org/ns#Notice"/>
				<cc:requires rdf:resource="http://creativecommons.org/ns#Attribution"/>
				<cc:permits rdf:resource="http://creativecommons.org/ns#DerivativeWorks"/>
				<cc:requires rdf:resource="http://creativecommons.org/ns#ShareAlike"/>
			</cc:License>
		</rdf:RDF>
	</metadata>
	<g id="kopete" transform="translate(-1 -1)">
		<rect style="opacity:.125;fill:none" height="22" width="22" y="1" x="1"/>
		<path d="m11.938 1.0688c-.371.0178-.749.0441-1.126.0937-6.0227.7930-10.367 5.447-9.7182 10.376 0.46 3.494 3.3249 6.193 7.0937 7.187-.1172.873-1.1961 2.195-2.9375 3.906 2.6949-1.1862 5.0102-2.3803 7-3.5312.30937-.01918.62423-.02126.9375-.0625 6.0232-.79296 10.368-5.447 9.7188-10.375-.608-4.6195-5.409-7.8603-10.968-7.5932zm2.656 3.0312h1.5625c.32027.38187.58256.78352.8125 1.2188.23404.43114.44182.90282.59375 1.375.15192.46809.26984.93657.34375 1.4375.074.4968.094 1.018.094 1.5312-.000004.50915-.01985 1.0073-.09375 1.5-.07391.49272-.19183.97352-.34375 1.4375-.15193.45987-.35971.88958-.59375 1.3125-.22994.42292-.49223.81796-.8125 1.1875h-1.5312c.28331-.38597.53238-.78351.75-1.2188.21762-.43524.38343-.91102.53125-1.375.148-.464.270-.921.344-1.406s.125-.980.125-1.4688c0-1.0018-.173-1.9577-.469-2.9062-.295-.9485-.733-1.8325-1.312-2.625zm-6.2812 2c.14371.000007.27896-.0057.40625.03125.1311.0370.2450.1054.3435.1876.0985.0821.1613.2082.2187.3437.0575.1314.0938.2758.0938.4687-.000003.18478-.03627.36451-.09375.5-.0574.1314-.1202.2263-.2187.3126-.0985.0821-.2124.1464-.3437.1874-.1273.0370-.2626.0626-.4063.0626-.1519 0-.3061-.0256-.4375-.0626-.1314-.0410-.2452-.1053-.3438-.1874-.0985-.0863-.1612-.1812-.2187-.3126-.0534-.1354-.0937-.3152-.0937-0.5-.0001-.1929.0403-.3373.0937-.4687.0575-.1355.1202-.2616.2187-.3437.0986-.0822.2124-.1506.3438-.1876.1314-.0369.2856-.0312.4375-.0312zm2.2188 2.8438h3.3125v1.5625h-3.3125v-1.5625zm-3.032 2.6872h1.7188l.09375.15625c-.0576.222-.1055.438-.1876.688-.0780.250-.1827.527-.2812.781-.0945.255-.1745 0.5-.2813.750-.1027.255-.2099.489-.3125.719h-1.375c.0616-.250 0.13-.510.1875-.781.0616-.271.1341-.542.1875-.813.0575-.267.0798-.526.1250-.781.0452-.259.0922-.501.1250-.719z" style="fill:currentColor;opacity:.875" class="ColorScheme-Text"/>
	</g>
	<g id="kopete-offline" transform="translate(-1 -1)">
		<rect style="opacity:.125;fill:none" height="22" width="22" y="1" x="29"/>
		<path d="m39.938 1.0625c-.37064.0178-.74855.04419-1.125.09375-6.0232.79296-10.368 5.447-9.7188 10.375.46006 3.4945 3.325 6.1939 7.0938 7.1875-.11716.87339-1.1961 2.1952-2.9375 3.9062 2.6949-1.1862 5.0102-2.3803 7-3.5312.30937-.01918.62423-.02126.9375-.0625 6.0232-.79296 10.368-5.447 9.7188-10.375-.60824-4.62-5.4092-7.8608-10.969-7.5938zm.09375 2c4.7299-.22720 8.46 2.4853 8.9062 5.875.47671 3.621-2.8575 7.448-8 8.125-.14998.01974-.42840.0074-.8125.03125a2.0002 2.0002 0 0 0 -.875 .28125c-.33524.19391-.83245.39731-1.1875.59375a2.0002 2.0002 0 0 0 -1.375 -1.1875c-3.1469-.82968-5.2878-2.9387-5.625-5.5-.47671-3.621 2.8575-7.448 8-8.125.29580-.038943.62766-.077369.96875-.09375z" style="fill:currentColor;opacity:.875" class="ColorScheme-Text"/>
	</g>
</svg>
