<?xml version="1.0" encoding="UTF-8" standalone="no"?>
<svg id="svg3846" xmlns:rdf="http://www.w3.org/1999/02/22-rdf-syntax-ns#" xmlns="http://www.w3.org/2000/svg" height="22" width="22" version="1.1" xmlns:cc="http://creativecommons.org/ns#" xmlns:dc="http://purl.org/dc/elements/1.1/">
	<defs id="defs3615">
		<style id="current-color-scheme" type="text/css">
			.ColorScheme-Text { color:#0000FF; }
		</style>
	</defs>
	<metadata id="metadata7">
		<rdf:RDF>
			<cc:Work rdf:about="">
				<dc:format>image/svg+xml</dc:format>
				<dc:type rdf:resource="http://purl.org/dc/dcmitype/StillImage"/>
				<dc:title/>
				<dc:creator>
					<cc:Agent>
						<dc:title>obnosim</dc:title>
					</cc:Agent>
				</dc:creator>
				<cc:license rdf:resource="http://creativecommons.org/licenses/by-sa/3.0/"/>
			</cc:Work>
			<cc:License rdf:about="http://creativecommons.org/licenses/by-sa/3.0/">
				<cc:permits rdf:resource="http://creativecommons.org/ns#Reproduction"/>
				<cc:permits rdf:resource="http://creativecommons.org/ns#Distribution"/>
				<cc:requires rdf:resource="http://creativecommons.org/ns#Notice"/>
				<cc:requires rdf:resource="http://creativecommons.org/ns#Attribution"/>
				<cc:permits rdf:resource="http://creativecommons.org/ns#DerivativeWorks"/>
				<cc:requires rdf:resource="http://creativecommons.org/ns#ShareAlike"/>
			</cc:License>
		</rdf:RDF>
	</metadata>
	<g id="22-22-korgac" transform="translate(-1)">
		<rect style="fill:none" height="22" width="22" y="0" x="1"/>
		<path class="ColorScheme-Text" style="opacity:.875;fill:currentColor" d="m12 1a1 1 0 0 0 -1 1 1 1 0 0 0 .47461 .84961c-.02492.44942-.07572.93594-.20508 1.3887-.0879.30764-.21709.56032-.36328.76562-1.737.020155-3.336.59755-4.6387 1.5566l-1.0745-1.0742c.3287-.2503.6707-.4807 1.0293-.6894a1.5002 1.5002 0 0 0 -.6934 -2.8067 1.5002 1.5002 0 0 0 -.8145 .2129c-.9007.5245-1.7678 1.1662-2.5566 1.9551-.4544.4544-.8172.9184-1.1387 1.3457a1.5008 1.5008 0 0 0 2.3985 1.8047c.2947-.3917.5701-.7381.8613-1.0293.049633-.04964.10574-.088548.15625-.13672l1.0625 1.0625c-1.5347 1.4576-2.4981 3.5109-2.4981 5.7949 0 4.4183 3.5817 8 8 8s8-3.5817 8-8c0-2.2837-.96338-4.3373-2.498-5.7949l1.0625-1.0625c.05054.048171.10662.087079.15625.13672.29119.29119.56661.63756.86133 1.0293a1.5008 1.5008 0 0 0 2.398 -1.8047c-.321-.4273-.684-.8913-1.138-1.3457-.789-.7889-1.656-1.4306-2.557-1.9551a1.5002 1.5002 0 0 0 -.711 -.2129 1.5002 1.5002 0 0 0 -.799 2.8067c.35856.20875.70203.43915 1.0312.68945l-1.074 1.0741c-1.067-.7862-2.334-1.3126-3.714-1.4882.081-.1836.158-.3696.212-.5606.165-.5756.220-1.1357.245-1.6328a1 1 0 0 0 .525 -.8789 1 1 0 0 0 -1 -1zm-1 6c3.3137 0 6 2.6863 6 6s-2.6863 6-6 6-6-2.686-6-6c0-3.3137 2.6863-6 6-6zm0 1s-1 4.4477-1 5c0 .12936.02628.25933.07617.38086.05069.12256.12448.23385.21680.32617.3905.3905 4.2422 2.8281 4.2422 2.8281s-1.9248-3.0311-2.5957-3.9238c-.157-1.105-.940-4.611-.940-4.611zm-6.875 10.781-1.125 2.219 2.2188-1.125c-.3960-.333-.7606-.698-1.0938-1.094zm13.75 0c-.333.396-.698.761-1.094 1.094l2.219 1.125-1.125-2.219z" transform="translate(1)"/>
	</g>
	<g id="korgac" transform="matrix(1.3333 0 0 1.3333 25 -8.6667)">
		<rect style="fill:none" height="24" width="24" y="-1" x="0"/>
		<path class="ColorScheme-Text" style="opacity:.875;fill:currentColor" d="m13.125 0.5a1.125 1.125 0 0 0 -1.125 1.125 1.125 1.125 0 0 0 .753 1.0605c-.01908.49409-.06149 1.053-.21387 1.5864-.07939.27785-.18690.52798-.31787.73535a8.25 8.25 0 0 0 -.221 -.0073 8.25 8.25 0 0 0 -4.7271 1.4927l-1.0649-1.065c.2774-.2022.5591-.3982.8555-.5727a1.5002 1.5002 0 0 0 -.7075 -2.8023 1.5002 1.5002 0 0 0 -.8160 .2183c-.8979.5288-1.7658 1.1726-2.5561 1.9629-.3147.3147-.6072.6405-.8789.9741a1.5003 1.5003 0 1 0 2.3262 1.8955c.2114-.2596.4357-.5105.6738-.7485.1627-.1627.3326-.3161.5054-.4644l1.062 1.062a8.25 8.25 0 0 0 -2.9224 6.2974 8.25 8.25 0 0 0 8.25 8.25 8.25 8.25 0 0 0 8.25 -8.25 8.25 8.25 0 0 0 -2.937 -6.3003l1.0679-1.0679c.17611.15074.34850.30748.51416.47314.23806.23806.46235.48890.67383.74854a1.5003 1.5003 0 1 0 2.326 -1.8955c-.272-.3336-.564-.6594-.879-.9741-.790-.7903-1.658-1.4341-2.556-1.9629a1.5002 1.5002 0 0 0 -.860 -.2168 1.5002 1.5002 0 0 0 -.663 2.8008c.29336.17276.57192.36708.84668.56689l-1.0693 1.0693a8.25 8.25 0 0 0 -3.678 -1.415c.0896-.19261.16423-.39315.22266-.59766.18444-.64555.22901-1.2672.24609-1.7959a1.125 1.125 0 0 0 .744 -1.0576 1.125 1.125 0 0 0 -1.125 -1.125zm-1.125 6.75a6 6 0 0 1 6 6 6 6 0 0 1 -6 6 6 6 0 0 1 -6 -6 6 6 0 0 1 6 -6zm0 0.75s-1.0005 4.7065-1.0005 5.2588c0 .12683.02724.24578.07031.35742.0037.0097.0047.01966.0088.0293.000607.0014.00085.003.0015.0044.04873.11473.11885.22139.21240.31494.390.390 3.707 2.285 3.707 2.285s-1.4417-2.4967-2.0537-3.3604c-.145-1.106-.946-4.89-.946-4.89zm-6.9258 10.985-1.3242 2.515 2.2002-1.601a9 9 0 0 1 -.8760 -.914zm13.854.0044a9 9 0 0 1 -.87891 .91113l2.201 1.6-1.321-2.511z"/>
	</g>
</svg>
