<?xml version="1.0" encoding="UTF-8" standalone="no"?>
<svg id="svg" xmlns:rdf="http://www.w3.org/1999/02/22-rdf-syntax-ns#" xmlns="http://www.w3.org/2000/svg" height="100%" viewBox="0 0 22 22" width="100%" version="1.1" xmlns:cc="http://creativecommons.org/ns#" xmlns:dc="http://purl.org/dc/elements/1.1/">
	<defs id="defs81">
		<style id="current-color-scheme" type="text/css">.ColorScheme-Text { color:#0000FF; }
			.ColorScheme-Highlight { color:#FF00FF; }</style>
	</defs>
	<metadata id="metadata7">
		<rdf:RDF>
			<cc:Work rdf:about="">
				<dc:format>image/svg+xml</dc:format>
				<dc:type rdf:resource="http://purl.org/dc/dcmitype/StillImage"/>
				<dc:title/>
				<dc:creator>
					<cc:Agent>
						<dc:title>obnosim</dc:title>
					</cc:Agent>
				</dc:creator>
				<cc:license rdf:resource="http://creativecommons.org/licenses/by-sa/3.0/"/>
			</cc:Work>
			<cc:License rdf:about="http://creativecommons.org/licenses/by-sa/3.0/">
				<cc:permits rdf:resource="http://creativecommons.org/ns#Reproduction"/>
				<cc:permits rdf:resource="http://creativecommons.org/ns#Distribution"/>
				<cc:requires rdf:resource="http://creativecommons.org/ns#Notice"/>
				<cc:requires rdf:resource="http://creativecommons.org/ns#Attribution"/>
				<cc:permits rdf:resource="http://creativecommons.org/ns#DerivativeWorks"/>
				<cc:requires rdf:resource="http://creativecommons.org/ns#ShareAlike"/>
			</cc:License>
		</rdf:RDF>
	</metadata>
	<g id="list-add" class="ColorScheme-Text" transform="matrix(1.3333 0 0 1.3333 -6.6667 -32.667)">
		<rect style="fill:none" height="24" width="24" y="-1" x="-1"/>
		<path style="fill:currentColor;opacity:.875" d="m10.988 3.4902a.75008 .75008 0 0 0 -.738 .7598v6h-6a.75008 .75008 0 1 0 0 1.5h6v6a.75008 .75008 0 1 0 1.5 0v-6h6a.75008 .75008 0 1 0 0 -1.5h-6v-6a.75008 .75008 0 0 0 -.762 -.7598z"/>
	</g>
	<g id="22-22-list-add" class="ColorScheme-Text">
		<rect style="fill:none" height="22" width="22" y="0" x="0"/>
		<path style="fill:currentColor;opacity:.875" d="m10.984 2.9863a1.0001 1.0001 0 0 0 -.984 1.0137v6h-6a1.0001 1.0001 0 1 0 0 2h6v6a1.0001 1.0001 0 1 0 2 0v-6h6a1.0001 1.0001 0 1 0 0 -2h-6v-6a1.0001 1.0001 0 0 0 -1.016 -1.0137z"/>
	</g>
	<g id="16-16-list-add" class="ColorScheme-Text" transform="matrix(.72727 0 0 .72727 8 22)">
		<rect style="fill:none" height="22" width="22" y="0" x="0"/>
		<path style="fill:currentColor;opacity:.875" d="m10.979 2.7305a1.3751 1.3751 0 0 0 -1.354 1.3945v5.5h-5.5a1.3751 1.3751 0 1 0 0 2.75h5.5v5.5a1.3751 1.3751 0 1 0 2.75 0v-5.5h5.5a1.3751 1.3751 0 1 0 0 -2.75h-5.5v-5.5a1.3751 1.3751 0 0 0 -1.396 -1.3945z"/>
	</g>
	<g id="list-remove" class="ColorScheme-Highlight" transform="matrix(1.3333 0 0 1.3333 -8 -32.667)">
		<rect style="fill:none" height="24" width="24" y="-1" x="24"/>
		<rect style="opacity:.875;fill:currentColor" ry=".75002" height="1.5" width="15" y="10.251" x="28.501"/>
	</g>
	<g id="22-22-list-remove" class="ColorScheme-Highlight">
		<rect style="fill:none" height="22" width="22" y="0" x="25"/>
		<rect style="opacity:.875;fill:currentColor" ry="1" height="2" width="16" y="10" x="28"/>
	</g>
	<g id="16-16-list-remove" class="ColorScheme-Highlight" transform="matrix(.72727 0 0 .72727 6 22)">
		<rect style="fill:none" height="22" width="22" y="0" x="25"/>
		<rect style="opacity:.875;fill:currentColor" ry="1.375" height="2.75" width="16.5" y="9.625" x="27.5"/>
	</g>
</svg>
