<?xml version="1.0" encoding="UTF-8"?>
<svg width="22" height="22" version="1.1" viewBox="0 0 22 22" xmlns="http://www.w3.org/2000/svg" xmlns:cc="http://creativecommons.org/ns#" xmlns:dc="http://purl.org/dc/elements/1.1/" xmlns:rdf="http://www.w3.org/1999/02/22-rdf-syntax-ns#">
	<defs >
		<style id="current-color-scheme" type="text/css">.ColorScheme-Text { color:#0000FF; }</style>
	</defs>
	<metadata >
		<rdf:RDF>
			<cc:Work rdf:about="">
				<dc:format>image/svg+xml</dc:format>
				<dc:type rdf:resource="http://purl.org/dc/dcmitype/StillImage"/>
				<dc:creator>
					<cc:Agent>
						<dc:title>obnosim</dc:title>
					</cc:Agent>
				</dc:creator>
				<cc:license rdf:resource="http://creativecommons.org/licenses/by-sa/4.0/"/>
			</cc:Work>
			<cc:License rdf:about="http://creativecommons.org/licenses/by-sa/4.0/">
				<cc:permits rdf:resource="http://creativecommons.org/ns#Reproduction"/>
				<cc:permits rdf:resource="http://creativecommons.org/ns#Distribution"/>
				<cc:requires rdf:resource="http://creativecommons.org/ns#Notice"/>
				<cc:requires rdf:resource="http://creativecommons.org/ns#Attribution"/>
				<cc:permits rdf:resource="http://creativecommons.org/ns#DerivativeWorks"/>
				<cc:requires rdf:resource="http://creativecommons.org/ns#ShareAlike"/>
			</cc:License>
		</rdf:RDF>
	</metadata>
	<g id="microphone-sensitivity-muted" class="ColorScheme-Text">
		<rect x="-96" y="-36" width="32" height="32" style="fill:none"/>
		<path d="m-68-11c0 0.6 0.4 1 1 1s1-0.4 1-1v-5h-2zm0-6h2v-6h-2zm0-7h2v-5c0-0.5-0.4-1-1-1s-1 0.5-1 1z" style="fill:currentColor;opacity:.25"/>
		<path d="m-71-21c0 2.1 0.1 4.2-0.9 6.1-1.8 4.1-6.5 6.61-10.9 5.74-4.5-0.74-8.2-4.94-8.2-9.54v-2.3m10 15v-3m0-24c3.3 0 6 2.7 6 6v8c0 3.3-2.7 6-6 6s-6-2.7-6-6v-8c0-3.3 2.7-6 6-6z" style="fill:none;opacity:.875;stroke-linecap:round;stroke-linejoin:round;stroke-width:2;stroke:currentColor"/>
	</g>
	<g id="microphone-sensitivity-low" class="ColorScheme-Text">
		<rect x="-64" y="-36" width="32" height="32" style="fill:none"/>
		<rect x="-56" y="-34" width="14" height="22" rx="7" ry="7" style="fill:currentColor;opacity:.875"/>
		<path d="m-36-17h2v-6h-2zm0-7h2v-5c0-0.5-0.4-1-1-1s-1 0.5-1 1z" style="fill:currentColor;opacity:.25"/>
		<path d="m-36-11c0 0.6 0.4 1 1 1s1-0.4 1-1v-5h-2z" style="fill:currentColor;opacity:.875"/>
		<path d="m-39-21v2c0 5.5-4.5 10-10 10s-10-4.5-10-10v-2m10 15v-3" style="fill:none;opacity:.875;stroke-linecap:round;stroke-linejoin:round;stroke-width:2;stroke:currentColor"/>
	</g>
	<g id="microphone-sensitivity-medium" class="ColorScheme-Text">
		<rect x="-32" y="-36" width="32" height="32" style="fill:none"/>
		<rect x="-24" y="-34" width="14" height="22" rx="7" ry="7" style="fill:currentColor;opacity:.875"/>
		<path d="m-4-24h2v-5c0-0.5-0.4-1-1-1s-1 0.5-1 1z" style="fill:currentColor;opacity:.25"/>
		<path d="m-4-11c0 0.6 0.4 1 1 1s1-0.4 1-1v-5h-2zm0-6h2v-6h-2z" style="fill:currentColor;opacity:.875"/>
		<path d="m-7-21v2c0 5.5-4.5 10-10 10s-10-4.5-10-10v-2m10 15v-3" style="fill:none;opacity:.875;stroke-linecap:round;stroke-linejoin:round;stroke-width:2;stroke:currentColor"/>
	</g>
	<g id="microphone-sensitivity-high" class="ColorScheme-Text">
		<rect y="-36" width="32" height="32" style="fill:none"/>
		<rect x="8" y="-34" width="14" height="22" rx="7" ry="7" style="fill:currentColor;opacity:.875"/>
		<path d="m28-11c0 0.6 0.4 1 1 1s1-0.4 1-1v-5h-2zm0-6h2v-6h-2zm0-7h2v-5c0-0.5-0.4-1-1-1s-1 0.5-1 1z" style="fill:currentColor;opacity:.875"/>
		<path d="m25-21v2c0 5.5-4.5 10-10 10s-10-4.5-10-10v-2m10 15v-3" style="fill:none;opacity:.875;stroke-linecap:round;stroke-linejoin:round;stroke-width:2;stroke:currentColor"/>
	</g>
	<g id="22-22-microphone-sensitivity-muted" class="ColorScheme-Text">
		<rect x="-66" width="22" height="22" style="fill:none"/>
		<path d="m-51 11v1c0 3.3-2.7 6-6 6s-6-2.7-6-6v-1m6 9v-2m0-15c1.7 0 3 1.34 3 3v6c0 1.7-1.3 3-3 3s-3-1.3-3-3v-6c0-1.66 1.3-3 3-3z" style="fill:none;opacity:.875;stroke-linecap:round;stroke-linejoin:round;stroke-width:2;stroke:currentColor"/>
		<path d="m-48 17c0 0.6 0.4 1 1 1s1-0.4 1-1v-3h-2zm0-4h2v-4h-2zm0-5h2v-3c0-0.5-0.4-1-1-1s-1 0.5-1 1z" style="fill:currentColor;opacity:.25"/>
	</g>
	<g id="22-22-microphone-sensitivity-low" class="ColorScheme-Text">
		<rect x="-44" width="22" height="22" style="fill:none"/>
		<rect x="-39" y="2" width="8" height="14" rx="4" ry="4" style="fill:currentColor;opacity:.875"/>
		<path d="m-26 17c0 0.6 0.4 1 1 1s1-0.4 1-1v-3h-2z" style="fill:currentColor;opacity:.875"/>
		<path d="m-26 8h2v-3c0-0.5-0.4-1-1-1s-1 0.5-1 1zm0 5h2v-4h-2z" style="fill:currentColor;opacity:.25"/>
		<path d="m-29 11v1c0 3.3-2.7 6-6 6s-6-2.7-6-6v-1m6 9v-2" style="fill:none;opacity:.875;stroke-linecap:round;stroke-linejoin:round;stroke-width:2;stroke:currentColor"/>
	</g>
	<g id="22-22-microphone-sensitivity-medium" class="ColorScheme-Text">
		<rect x="-22" width="22" height="22" style="fill:none"/>
		<rect x="-17" y="2" width="8" height="14" rx="4" ry="4" style="fill:currentColor;opacity:.875"/>
		<path d="m-4 17c0 0.6 0.4 1 1 1s1-0.4 1-1v-3h-2zm0-4h2v-4h-2z" style="fill:currentColor;opacity:.875"/>
		<path d="m-4 8h2v-3c0-0.5-0.4-1-1-1s-1 0.5-1 1z" style="fill:currentColor;opacity:.25"/>
		<path d="m-7 11v1c0 3.3-2.7 6-6 6s-6-2.7-6-6v-1m6 9v-2" style="fill:none;opacity:.875;stroke-linecap:round;stroke-linejoin:round;stroke-width:2;stroke:currentColor"/>
	</g>
	<g id="22-22-microphone-sensitivity-high" class="ColorScheme-Text">
		<rect width="22" height="22" style="fill:none"/>
		<rect x="5" y="2" width="8" height="14" rx="4" ry="4" style="fill:currentColor;opacity:.875"/>
		<path d="m15 11v1c0 3.3-2.7 6-6 6s-6-2.7-6-6v-1m6 9v-2" style="fill:none;opacity:.875;stroke-linecap:round;stroke-linejoin:round;stroke-width:2;stroke:currentColor"/>
		<path d="m18 17c0 0.6 0.4 1 1 1s1-0.4 1-1v-3h-2zm0-4h2v-4h-2zm0-5h2v-3c0-0.5-0.4-1-1-1s-1 0.5-1 1z" style="fill:currentColor;opacity:.875"/>
	</g>
	<g id="16-16-microphone-sensitivity-muted" class="ColorScheme-Text">
		<rect x="-56" y="28" width="16" height="16" style="fill:none"/>
		<path d="m-42 39.5c0 0.3 0.2 0.5 0.5 0.5s0.5-0.2 0.5-0.5v-1.5h-1zm0-2.5h1v-2h-1zm0-3h1v-1.5c0-0.2-0.2-0.5-0.5-0.5s-0.5 0.3-0.5 0.5z" style="fill:currentColor;opacity:.25"/>
		<path d="m-49.5 30c-2 0-3.5 1.5-3.5 3.5v3c0 2 1.5 3.5 3.5 3.5s3.5-1.5 3.5-3.5v-3c0-2-1.5-3.5-3.5-3.5z" style="fill:currentColor;opacity:.875;stroke-linecap:round;stroke-linejoin:round"/>
		<path d="m-44.5 36.5c0 2.8-2.2 5-5 5s-5-2.2-5-5m5 7v-2" style="fill:none;opacity:.875;stroke-linecap:round;stroke-linejoin:round;stroke:currentColor"/>
	</g>
	<g id="16-16-microphone-sensitivity-low" class="ColorScheme-Text">
		<rect x="-40" y="28" width="16" height="16" style="fill:none"/>
		<path d="m-26 37h1v-2h-1zm0-3h1v-1.5c0-0.2-0.2-0.5-0.5-0.5s-0.5 0.3-0.5 0.5z" style="fill:currentColor;opacity:.25"/>
		<path d="m-26 39.5c0 0.3 0.2 0.5 0.5 0.5s0.5-0.2 0.5-0.5v-1.5h-1z" style="fill:currentColor;opacity:.875"/>
		<path d="m-28.5 36.5c0 2.8-2.2 5-5 5s-5-2.2-5-5m5 7v-2" style="fill:none;opacity:.875;stroke-linecap:round;stroke-linejoin:round;stroke:currentColor"/>
		<rect x="-37" y="30" width="7" height="10" rx="3.5" ry="3.5" style="fill:currentColor;opacity:.875"/>
	</g>
	<g id="16-16-microphone-sensitivity-medium" class="ColorScheme-Text">
		<rect x="-24" y="28" width="16" height="16" style="fill:none"/>
		<path d="m-10 34h1v-1.5c0-0.2-0.2-0.5-0.5-0.5s-0.5 0.3-0.5 0.5z" style="fill:currentColor;opacity:.25"/>
		<path d="m-10 39.5c0 0.3 0.2 0.5 0.5 0.5s0.5-0.2 0.5-0.5v-1.5h-1zm0-2.5h1v-2h-1z" style="fill:currentColor;opacity:.875"/>
		<path d="m-12.5 36.5c0 2.8-2.2 5-5 5s-5-2.2-5-5m5 7v-2" style="fill:none;opacity:.875;stroke-linecap:round;stroke-linejoin:round;stroke:currentColor"/>
		<rect x="-21" y="30" width="7" height="10" rx="3.5" ry="3.5" style="fill:currentColor;opacity:.875"/>
	</g>
	<g id="16-16-microphone-sensitivity-high" class="ColorScheme-Text">
		<rect x="-8" y="28" width="16" height="16" style="fill:none"/>
		<path d="m6 39.5c0 0.3 0.2 0.5 0.5 0.5s0.5-0.2 0.5-0.5v-1.5h-1zm0-2.5h1v-2h-1zm0-3h1v-1.5c0-0.2-0.2-0.5-0.5-0.5s-0.5 0.3-0.5 0.5z" style="fill:currentColor;opacity:.875"/>
		<path d="m3.5 36.5c0 2.8-2.2 5-5 5s-5-2.2-5-5m5 7v-2" style="fill:none;opacity:.875;stroke-linecap:round;stroke-linejoin:round;stroke:currentColor"/>
		<rect x="-5" y="30" width="7" height="10" rx="3.5" ry="3.5" style="fill:currentColor;opacity:.875"/>
	</g>
</svg>
