<?xml version="1.0" encoding="UTF-8" standalone="no"?>
<svg id="svg3768" xmlns:rdf="http://www.w3.org/1999/02/22-rdf-syntax-ns#" xmlns="http://www.w3.org/2000/svg" height="22" width="22" version="1.1" xmlns:cc="http://creativecommons.org/ns#" xmlns:dc="http://purl.org/dc/elements/1.1/">
	<defs id="defs3615">
		<style id="current-color-scheme" type="text/css">
			.ColorScheme-Text { color:#0000FF; }
		</style>
	</defs>
	<metadata id="metadata7">
		<rdf:RDF>
			<cc:Work rdf:about="">
				<dc:format>image/svg+xml</dc:format>
				<dc:type rdf:resource="http://purl.org/dc/dcmitype/StillImage"/>
				<dc:title/>
				<dc:creator>
					<cc:Agent>
						<dc:title>obnosim</dc:title>
					</cc:Agent>
				</dc:creator>
				<cc:license rdf:resource="http://creativecommons.org/licenses/by-sa/3.0/"/>
			</cc:Work>
			<cc:License rdf:about="http://creativecommons.org/licenses/by-sa/3.0/">
				<cc:permits rdf:resource="http://creativecommons.org/ns#Reproduction"/>
				<cc:permits rdf:resource="http://creativecommons.org/ns#Distribution"/>
				<cc:requires rdf:resource="http://creativecommons.org/ns#Notice"/>
				<cc:requires rdf:resource="http://creativecommons.org/ns#Attribution"/>
				<cc:permits rdf:resource="http://creativecommons.org/ns#DerivativeWorks"/>
				<cc:requires rdf:resource="http://creativecommons.org/ns#ShareAlike"/>
			</cc:License>
		</rdf:RDF>
	</metadata>
	<g id="22-22-nepomuk" transform="translate(-1 -1029.4)">
		<rect style="fill:none" transform="translate(0 1028.4)" height="22" width="22" y="1" x="1"/>
		<path d="m16 1c-3.866 0-7 3.134-7 7 0 1.3987.41829 2.6879 1.125 3.7812-.06664.0469-.12935.09916-.1875.15625l-8 8c-1.4167 1.4167.70833 3.5417 2.125 2.125l8-8c.058-.058.110-.120.157-.187 1.093.707 2.382 1.125 3.781 1.125 3.866 0 7-3.134 7-7s-3.134-7-7-7zm0 2c2.7614 0 5 2.2386 5 5s-2.2386 5-5 5-5-2.2386-5-5 2.2386-5 5-5z" style="opacity:.875;fill:currentColor" transform="translate(0 1028.4)" class="ColorScheme-Text"/>
	</g>
	<g transform="matrix(1.3333 0 0 1.3333 -4 -1405.2)">
		<rect style="fill:none" transform="translate(0,1028.4)" height="24" width="24" y="0" x="0"/>
		<path id="nepomuk" class="ColorScheme-Text" style="fill:currentColor;opacity:.875" d="m17-32a9 9 0 0 0 -9 9 9 9 0 0 0 1.3887 4.783l-10.803 10.803a2.0002 2.0002 0 1 0 2.8284 2.8281l10.799-10.799a9 9 0 0 0 4.787 1.385 9 9 0 0 0 9 -9 9 9 0 0 0 -9 -9zm0 2a7 7 0 0 1 7 7 7 7 0 0 1 -7 7 7 7 0 0 1 -7 -7 7 7 0 0 1 7 -7z" transform="matrix(0.75 0 0 0.75 3 1053.9)"/>
	</g>
</svg>
