<?xml version="1.0" encoding="UTF-8" standalone="no"?>
<svg id="svg3045" xmlns:rdf="http://www.w3.org/1999/02/22-rdf-syntax-ns#" xmlns="http://www.w3.org/2000/svg" height="22" width="22" version="1.1" xmlns:cc="http://creativecommons.org/ns#" xmlns:dc="http://purl.org/dc/elements/1.1/">
	<defs id="defs3615">
		<style id="current-color-scheme" type="text/css">
			.ColorScheme-Text { color:#0000FF; }
		</style>
	</defs>
	<metadata id="metadata7">
		<rdf:RDF>
			<cc:Work rdf:about="">
				<dc:format>image/svg+xml</dc:format>
				<dc:type rdf:resource="http://purl.org/dc/dcmitype/StillImage"/>
				<dc:title/>
				<dc:creator>
					<cc:Agent>
						<dc:title>obnosim</dc:title>
					</cc:Agent>
				</dc:creator>
				<cc:license rdf:resource="http://creativecommons.org/licenses/by-sa/3.0/"/>
			</cc:Work>
			<cc:License rdf:about="http://creativecommons.org/licenses/by-sa/3.0/">
				<cc:permits rdf:resource="http://creativecommons.org/ns#Reproduction"/>
				<cc:permits rdf:resource="http://creativecommons.org/ns#Distribution"/>
				<cc:requires rdf:resource="http://creativecommons.org/ns#Notice"/>
				<cc:requires rdf:resource="http://creativecommons.org/ns#Attribution"/>
				<cc:permits rdf:resource="http://creativecommons.org/ns#DerivativeWorks"/>
				<cc:requires rdf:resource="http://creativecommons.org/ns#ShareAlike"/>
			</cc:License>
		</rdf:RDF>
	</metadata>
	<g id="phone" transform="translate(-1 -1)">
		<rect style="opacity:.375;fill:none" ry=".5" height="22" width="22" y="1" x="1"/>
		<path class="ColorScheme-Text" style="fill:currentColor;opacity:.875" d="m8 5c-1.108 0-2 .892-2 2v14c0 1.108.892 2 2 2h8c1.108 0 2-.892 2-2v-14c0-1.108-.892-2-2-2h-8zm-1 2h10v13h-10v-13zm4.5 14h1c.277 0 .5.223.5.5s-.223.5-.5.5h-1c-.277 0-.5-.223-.5-.5s.223-.5.5-.5z"/>
		<path class="ColorScheme-Text" style="stroke-linejoin:round;stroke:currentColor;stroke-linecap:round;fill:none;stroke-width:1px;opacity:.875" d="m16 1.5c3.0376 0 5.5 2.4624 5.5 5.5m-5.5-3.5c1.933 0 3.5 1.567 3.5 3.5"/>
	</g>
</svg>
