<?xml version="1.0" encoding="UTF-8"?>
<svg id="svg2257" version="1.0" viewBox="0 0 22 22" xmlns="http://www.w3.org/2000/svg" xmlns:cc="http://creativecommons.org/ns#" xmlns:dc="http://purl.org/dc/elements/1.1/" xmlns:rdf="http://www.w3.org/1999/02/22-rdf-syntax-ns#">
	<defs id="defs2188">
		<style id="current-color-scheme" type="text/css">.ColorScheme-Text { color:#0000FF; }
			.ColorScheme-Highlight { color:#FF00FF; }</style>
	</defs>
	<metadata id="metadata2190">
		<rdf:RDF>
			<cc:Work rdf:about="">
				<dc:format>image/svg+xml</dc:format>
				<dc:type rdf:resource="http://purl.org/dc/dcmitype/StillImage"/>
				<dc:creator>
					<cc:Agent>
						<dc:title>obnosim</dc:title>
					</cc:Agent>
				</dc:creator>
				<cc:license rdf:resource="http://creativecommons.org/licenses/by-sa/3.0/"/>
			</cc:Work>
			<cc:License rdf:about="http://creativecommons.org/licenses/by-sa/3.0/">
				<cc:permits rdf:resource="http://creativecommons.org/ns#Reproduction"/>
				<cc:permits rdf:resource="http://creativecommons.org/ns#Distribution"/>
				<cc:requires rdf:resource="http://creativecommons.org/ns#Notice"/>
				<cc:requires rdf:resource="http://creativecommons.org/ns#Attribution"/>
				<cc:permits rdf:resource="http://creativecommons.org/ns#DerivativeWorks"/>
				<cc:requires rdf:resource="http://creativecommons.org/ns#ShareAlike"/>
			</cc:License>
		</rdf:RDF>
	</metadata>
	<g id="preferences-desktop-display-randr" class="ColorScheme-Text" transform="translate(-27,-1)" style="opacity:.875">
		<rect x="-40" y="-34" width="32" height="32" style="fill:none"/>
		<path d="m-38-32a1 1 0 0 0-1 1v19a1 1 0 0 0 1 1h12c0 1.75-0.2 2.81-1.1 4.01a1 1 0 0 0-0.2 0l-3 1a1 1 0 0 0 0.3 1.95h12a1 1 0 0 0 0.3-1.95l-3-1a1 1 0 0 0-0.2-0c-0.8-1.06-1-2.27-1.1-4.01h12a1 1 0 0 0 1-1v-19a1 1 0 0 0-1-1h-28zm1 2h26v17h-26z" style="fill:currentColor"/>
	</g>
	<g id="preferences-system-bluetooth" class="ColorScheme-Text" transform="translate(-1)" style="opacity:.875">
		<rect x="-4" y="-34" width="32" height="32" style="fill:none"/>
		<rect x="-4" y="-34" width="32" height="32" style="fill:none"/>
		<path d="m4-24 16 12-8 6v-24l8 6-16 12" style="fill:none;stroke-linecap:square;stroke-width:2;stroke:currentColor"/>
	</g>
	<g id="preferences-system-bluetooth-inactive" class="ColorScheme-Text" transform="translate(33)" style="opacity:.875">
		<rect x="-4" y="-34" width="32" height="32" style="fill:none"/>
		<rect x="-4" y="-34" width="32" height="32" style="fill:none"/>
		<path d="m4-24 16 12-8 6v-24l8 6-16 12" style="fill:none;opacity:.375;stroke-linecap:square;stroke-width:2;stroke:currentColor"/>
	</g>
	<g id="preferences-desktop-notification" class="ColorScheme-Text" transform="translate(177,-88)" style="opacity:.875">
		<rect x="-80" y="54" width="32" height="32" style="fill:none"/>
		<path transform="translate(-80,54)" d="m4 4c-1.11 0-2 0.89-2 2v19c0 1.1 0.89 2 2 2h8l4 4 4-4h8c1.1 0 2-0.9 2-2v-19c0-1.11-0.9-2-2-2zm2.5 5h19c0.3 0 0.5 0.22 0.5 0.5s-0.2 0.5-0.5 0.5h-19c-0.28 0-0.5-0.22-0.5-0.5s0.22-0.5 0.5-0.5zm0 4h19c0.3 0 0.5 0.2 0.5 0.5s-0.2 0.5-0.5 0.5h-19c-0.28 0-0.5-0.2-0.5-0.5s0.22-0.5 0.5-0.5zm0 4h19c0.3 0 0.5 0.2 0.5 0.5s-0.2 0.5-0.5 0.5h-19c-0.28 0-0.5-0.2-0.5-0.5s0.22-0.5 0.5-0.5zm0 4h19c0.3 0 0.5 0.2 0.5 0.5s-0.2 0.5-0.5 0.5h-19c-0.28 0-0.5-0.2-0.5-0.5s0.22-0.5 0.5-0.5z" style="fill:currentColor"/>
	</g>
	<g id="22-22-preferences-system-bluetooth" class="ColorScheme-Text" transform="translate(-57,-2)" style="opacity:.875">
		<rect x="57" y="2" width="22" height="22" style="fill:none"/>
		<path d="m62 9 12 8-6 4v-16l6 4-12 8" style="fill:none;stroke-linecap:square;stroke-width:2;stroke:currentColor"/>
	</g>
	<g id="22-22-preferences-system-bluetooth-inactive" class="ColorScheme-Text" transform="translate(-51,-2)" style="opacity:.375">
		<rect x="85" y="2" width="22" height="22" style="fill:none"/>
		<path d="m90 9 12 8-6 4v-16l6 4-12 8" style="fill:none;stroke-linecap:square;stroke-width:2;stroke:currentColor"/>
	</g>
	<g id="22-22-preferences-desktop-display-randr" class="ColorScheme-Text" transform="translate(-58,-2)" style="opacity:.875">
		<rect x="1" y="2" width="22" height="22" style="fill:none"/>
		<path d="m3 5c-0.55 0-1 0.45-1 1v11c0 0.6 0.45 1 1 1h7.8c-0.4 1-1.07 2.3-1.8 3h6c-0.7-0.7-1.4-2-1.8-3h7.8c0.6 0 1-0.4 1-1v-11c0-0.55-0.4-1-1-1h-18zm1 2h16v9h-16z" style="fill:currentColor"/>
	</g>
	<g id="preferences-desktop-text-to-speech" class="ColorScheme-Text" transform="translate(-58,26)" style="opacity:.875">
		<rect x="29" y="-26" width="22" height="22" style="fill:none"/>
		<path d="m40-25c-5 0-9 4-9 9v0.5c0.3-4.7 4.2-8.5 9-8.5s8.7 3.8 9 8.5v-0.5c0-5-4-9-9-9z" style="fill:currentColor"/>
		<path d="m41.1-6.27h1v0.95c-0.1 0-0.2 0-0.2 0.1-0.1 0-0.2 0-0.3 0.1-0.2 0-0.3 0-0.4 0.1h-0.3c-0.3 0-0.6-0-0.8-0.11-0.3-0.1-0.5-0.2-0.6-0.38-0.2-0.18-0.4-0.42-0.5-0.72s-0.1-0.69-0.1-1.15v-4.39h-1.1v-0.5l1.1-0.5 0.5-1.6h0.7v1.7h1.9v0.9h-1.9v4.39c0 0.45 0.1 0.78 0.3 1 0.1 0.23 0.3 0.34 0.7 0.34m-1.1-18.73c-5 0-9 4-9 9 0 2.2 0.8 4.3 2.2 5.9a0.5 0.5 0 1 0 0.7-0.7c-1.2-1.4-1.9-3.2-1.9-5.2 0-4.4 3.6-8 8-8s8 3.6 8 8c0 2-0.7 3.8-1.9 5.2a0.5 0.5 0 1 0 0.7 0.7c1.4-1.6 2.2-3.7 2.2-5.9 0-5-4-9-9-9zm0 6c-1.7 0-3 1.3-3 3 0 0.2 0 0.4 0.1 0.6a0.509 0.509 0 1 0 1-0.2c-0.1-0.1-0.1-0.3-0.1-0.4 0-1.1 0.9-2 2-2s2 0.9 2 2c0 0.1 0 0.3-0.1 0.4a0.509 0.509 0 1 0 1 0.2c0.1-0.2 0.1-0.4 0.1-0.6 0-1.7-1.4-3-3-3zm0-3c-3.3 0-6 2.7-6 6 0 0.9 0.2 1.8 0.6 2.5a0.517 0.517 0 1 0 0.9-0.4c-0.3-0.7-0.5-1.4-0.5-2.1 0-2.8 2.2-5 5-5s5 2.2 5 5c0 0.7-0.2 1.4-0.5 2.1a0.517 0.517 0 1 0 0.9 0.4c0.4-0.7 0.6-1.6 0.6-2.5 0-3.3-2.7-6-6-6z" style="fill:none"/>
		<path d="m41.1-6.27h1v0.95c-0.1 0-0.2 0-0.2 0.1-0.1 0-0.2 0-0.3 0.1-0.2 0-0.3 0-0.4 0.1h-0.3c-0.3 0-0.6-0-0.8-0.11-0.3-0.1-0.5-0.2-0.6-0.38-0.2-0.18-0.4-0.42-0.5-0.72s-0.1-0.69-0.1-1.15v-4.39h-1.1v-0.5l1.1-0.5 0.5-1.6h0.7v1.7h1.9v0.9h-1.9v4.39c0 0.45 0.1 0.78 0.3 1 0.1 0.23 0.3 0.34 0.7 0.34m-1.1-18.73c-5 0-9 4-9 9 0 2.2 0.8 4.3 2.2 5.9a0.5 0.5 0 1 0 0.7-0.7c-1.2-1.4-1.9-3.2-1.9-5.2 0-4.4 3.6-8 8-8s8 3.6 8 8c0 2-0.7 3.8-1.9 5.2a0.5 0.5 0 1 0 0.7 0.7c1.4-1.6 2.2-3.7 2.2-5.9 0-5-4-9-9-9zm0 6c-1.7 0-3 1.3-3 3 0 0.2 0 0.4 0.1 0.6a0.509 0.509 0 1 0 1-0.2c-0.1-0.1-0.1-0.3-0.1-0.4 0-1.1 0.9-2 2-2s2 0.9 2 2c0 0.1 0 0.3-0.1 0.4a0.509 0.509 0 1 0 1 0.2c0.1-0.2 0.1-0.4 0.1-0.6 0-1.7-1.4-3-3-3zm0-3c-3.3 0-6 2.7-6 6 0 0.9 0.2 1.8 0.6 2.5a0.517 0.517 0 1 0 0.9-0.4c-0.3-0.7-0.5-1.4-0.5-2.1 0-2.8 2.2-5 5-5s5 2.2 5 5c0 0.7-0.2 1.4-0.5 2.1a0.517 0.517 0 1 0 0.9 0.4c0.4-0.7 0.6-1.6 0.6-2.5 0-3.3-2.7-6-6-6z" style="fill:currentColor"/>
	</g>
	<g id="22-22-preferences-desktop-notification" class="ColorScheme-Text" transform="translate(135,53)" style="opacity:.875">
		<rect x="-35" y="-53" width="22" height="22" style="fill:none"/>
		<path d="m-32-51c-1.1 0-2 0.9-2 2v13c0 1.1 0.9 2 2 2h5l3 3 3-3h5c1.1 0 2-0.9 2-2v-13c0-1.1-0.9-2-2-2zm1.5 4h13c0.3 0 0.5 0.2 0.5 0.5s-0.2 0.5-0.5 0.5h-13c-0.3 0-0.5-0.2-0.5-0.5s0.2-0.5 0.5-0.5zm0 4h13c0.3 0 0.5 0.2 0.5 0.5s-0.2 0.5-0.5 0.5h-13c-0.3 0-0.5-0.2-0.5-0.5s0.2-0.5 0.5-0.5zm0 4h13c0.3 0 0.5 0.2 0.5 0.5s-0.2 0.5-0.5 0.5h-13c-0.3 0-0.5-0.2-0.5-0.5s0.2-0.5 0.5-0.5z" style="fill:currentColor"/>
	</g>
	<g id="preferences-system-bluetooth-activated" class="ColorScheme-Text" transform="translate(66)" style="opacity:.875">
		<rect x="-4" y="-34" width="32" height="32" style="fill:none"/>
		<path d="m12-34c-6.65 0-12 5.4-12 12v8c0 6.65 5.35 12 12 12 6.6 0 12-5.35 12-12v-8c0-6.6-5.4-12-12-12zm-1 2 10.7 8-8 6 8 6-10.7 8v-12l-7.2 5.4-1.2-1.6 0.8-0.6 6.9-5.2-6.9-5.2-0.8-0.6 1.2-1.6 7.2 5.4zm2 4v8l5.3-4zm0 12v8l5.3-4z" style="fill:currentColor"/>
	</g>
	<g id="22-22-preferences-system-bluetooth-activated" class="ColorScheme-Text" transform="translate(10,-2)" style="opacity:.875">
		<rect x="57" y="2" width="22" height="22" style="fill:none"/>
		<path d="m68 2c-5 0-9 4.01-9 9v4c0 5 4 9 9 9s9-4 9-9v-4c0-4.99-4-9-9-9zm-1 1.13 8.8 5.87-6 4 6 4-8.8 5.9v-8l-4.4 2.9-0.9 0.6-1.1-1.7 0.8-0.5 4.8-3.2-4.8-3.17-0.8-0.55 1.1-1.67 0.9 0.56 4.4 2.93zm2 3.74v4.23l3.2-2.1zm0 8.03v4.2l3.2-2.1z" style="fill:currentColor"/>
	</g>
</svg>
