<?xml version="1.0" encoding="UTF-8" standalone="no"?>
<svg id="svg3115" xmlns:rdf="http://www.w3.org/1999/02/22-rdf-syntax-ns#" xmlns="http://www.w3.org/2000/svg" height="22" width="22" version="1.1" xmlns:cc="http://creativecommons.org/ns#" xmlns:dc="http://purl.org/dc/elements/1.1/">
	<defs id="defs3615">
		<style id="current-color-scheme" type="text/css">.ColorScheme-Text { color:#0000FF; }</style>
	</defs>
	<metadata id="metadata7">
		<rdf:RDF>
			<cc:Work rdf:about="">
				<dc:format>image/svg+xml</dc:format>
				<dc:type rdf:resource="http://purl.org/dc/dcmitype/StillImage"/>
				<dc:title/>
				<dc:creator>
					<cc:Agent>
						<dc:title>obnosim</dc:title>
					</cc:Agent>
				</dc:creator>
				<cc:license rdf:resource="http://creativecommons.org/licenses/by-sa/3.0/"/>
			</cc:Work>
			<cc:License rdf:about="http://creativecommons.org/licenses/by-sa/3.0/">
				<cc:permits rdf:resource="http://creativecommons.org/ns#Reproduction"/>
				<cc:permits rdf:resource="http://creativecommons.org/ns#Distribution"/>
				<cc:requires rdf:resource="http://creativecommons.org/ns#Notice"/>
				<cc:requires rdf:resource="http://creativecommons.org/ns#Attribution"/>
				<cc:permits rdf:resource="http://creativecommons.org/ns#DerivativeWorks"/>
				<cc:requires rdf:resource="http://creativecommons.org/ns#ShareAlike"/>
			</cc:License>
		</rdf:RDF>
	</metadata>
	<g id="16-16-printer" transform="translate(-1 -1)">
		<rect style="opacity:.125;fill:none" height="22" width="22" y="1" x="1"/>
		<path class="ColorScheme-Text" style="opacity:.875;fill:currentColor" d="m4.0008 2h15.998v6h-15.998zm0 14-.9999 7h17.998l-.9999-7h-15.998zm1.4672 4.0625h13.064c.26357 0 .4687.20515.4687.46875s-.20513.46875-.4687.46875h-13.064c-.2632 0-.4683-.205-.4683-.469 0-.2636.20513-.46875.4687-.46875zm-2.4671-13-1.8123 2.6875c-.0226.0301-.0435.0614-.0625.0938-.0253.0502-.0462.1025-.0625.1562h21.872c-.017-.0537-.037-.1060-.062-.1562-.020-.0324-.041-.0638-.063-.0938l-1.8123-2.6875v1.9375h-17.998v-1.9375zm-1.9998 3.9375v6c-.001482.03123-.001482.06252 0 .09375.0391.48336.42288.86705.9062.906h.7811l.3125-2.156.125-.844h17.748l.12499.84375.313 2.156h.78117c.48339-.03898.86718-.42281.90616-.90625.0015-.03123.0015-.06252 0-.09375v-6h-21.998zm1.4998 1c.27611 0 .49995.22386.49995.5s-.22384.5-.49995.5-.49995-.22386-.49995-.5.22384-.5.49995-.5zm1.9998 0h2.9997c.27697 0 .49995.223.49995.5s-.22298.5-.49995.5h-2.9997c-.2770 0-.5-.223-.5-.5s.2230-.5.5-.5z"/>
	</g>
	<g id="printer">
		<rect style="opacity:.875;fill:none" height="32" width="32" y="-9" x="29"/>
		<path class="ColorScheme-Text" style="opacity:.875;fill-rule:evenodd;fill:currentColor" d="m30 6v7c0 1.108.892 2 2 2h1.379l.801-4h21.64l.801 4h1.379c1.108 0 2-.892 2-2v-7h-30zm1.5 1a.5 .5 0 0 1 .5 .5 .5 .5 0 0 1 -.5 .5 .5 .5 0 0 1 -.5 -.5 .5 .5 0 0 1 .5 -.5zm2 0h5c.277 0 .5.223.5.5s-.223.5-.5.5h-5c-.277 0-.5-.223-.5-.5s.223-.5.5-.5z"/>
		<path class="ColorScheme-Text" d="m34 .5-4 4.5h30l-4-4.5v2.5h-22z" style="opacity:.875;fill-rule:evenodd;fill:currentColor"/>
		<rect class="ColorScheme-Text" style="opacity:.875;fill-rule:evenodd;fill:currentColor" height="9" width="20" y="-7" x="35"/>
		<path class="ColorScheme-Text" style="opacity:.875;fill-rule:evenodd;fill:currentColor" d="m35 12l-2 10h24l-2-10h-20zm10.5 5h8c.277 0 .5.223.5.5s-.223.5-.5.5h-8c-.277 0-.5-.223-.5-.5s.223-.5.5-.5zm-10 2h19c.277 0 .5.223.5.5s-.223.5-.5.5h-19c-.277 0-.5-.223-.5-.5s.223-.5.5-.5z"/>
	</g>
</svg>
