<?xml version="1.0" encoding="UTF-8" standalone="no"?>
<svg xmlns:rdf="http://www.w3.org/1999/02/22-rdf-syntax-ns#" xmlns="http://www.w3.org/2000/svg" height="22" shape-rendering="crispEdges" width="22" version="1.1" xmlns:cc="http://creativecommons.org/ns#" xmlns:dc="http://purl.org/dc/elements/1.1/">
	<defs>
		<style id="current-color-scheme" type="text/css">
			.ColorScheme-Text { color:#0000FF; }
			.ColorScheme-Highlight { color:#FF00FF; }</style>
	</defs>
	<metadata>
		<rdf:RDF>
			<cc:Work rdf:about="">
				<dc:format>image/svg+xml</dc:format>
				<dc:type rdf:resource="http://purl.org/dc/dcmitype/StillImage"/>
				<dc:title/>
				<dc:creator>
					<cc:Agent>
						<dc:title>obnosim</dc:title>
					</cc:Agent>
				</dc:creator>
				<cc:license rdf:resource="http://creativecommons.org/licenses/by-sa/3.0/"/>
			</cc:Work>
			<cc:License rdf:about="http://creativecommons.org/licenses/by-sa/3.0/">
				<cc:permits rdf:resource="http://creativecommons.org/ns#Reproduction"/>
				<cc:permits rdf:resource="http://creativecommons.org/ns#Distribution"/>
				<cc:requires rdf:resource="http://creativecommons.org/ns#Notice"/>
				<cc:requires rdf:resource="http://creativecommons.org/ns#Attribution"/>
				<cc:permits rdf:resource="http://creativecommons.org/ns#DerivativeWorks"/>
				<cc:requires rdf:resource="http://creativecommons.org/ns#ShareAlike"/>
			</cc:License>
		</rdf:RDF>
	</metadata>
	<g id="quassel" class="ColorScheme-Text" transform="translate(0,30)">
		<rect style="fill:none" height="22" width="22" y="-30" x="0"/>
		<path style="opacity:.875;fill:currentColor" d="m18-16.5a3.5 3.5 0 0 1 -3.5 3.5 3.5 3.5 0 0 1 -3.5 -3.5 3.5 3.5 0 0 1 3.5 -3.5 3.5 3.5 0 0 1 3.5 3.5zm-7-12.5a10 10 0 0 0 -10 10 10 10 0 0 0 10 10 10 10 0 0 0 10 -10 10 10 0 0 0 -10 -10zm0 2a8 8 0 0 1 8 8 8 8 0 0 1 -8 8 8 8 0 0 1 -8 -8 8 8 0 0 1 8 -8z"/>
	</g>
	<g id="quassel-message" transform="translate(0,30)">
		<rect style="fill:none" height="22" width="22" y="-30" x="25"/>
		<path style="opacity:.875;fill:currentColor" class="ColorScheme-Text" d="m36-29a10 10 0 0 0 -10 10 10 10 0 0 0 10 10 10 10 0 0 0 10 -10 10 10 0 0 0 -10 -10zm0 2a8 8 0 0 1 8 8 8 8 0 0 1 -8 8 8 8 0 0 1 -8 -8 8 8 0 0 1 8 -8z"/>
		<circle r="3.5" class="ColorScheme-Highlight" style="opacity:.875;fill:currentColor" cx="39.5" cy="-16.5"/>
	</g>
	<g id="quassel-inactive" class="ColorScheme-Text" transform="translate(0,30)">
		<rect style="fill:none" height="22" width="22" y="-30" x="50"/>
		<path style="opacity:.375;fill:currentColor" d="m68-16.5a3.5 3.5 0 0 1 -3.5 3.5 3.5 3.5 0 0 1 -3.5 -3.5 3.5 3.5 0 0 1 3.5 -3.5 3.5 3.5 0 0 1 3.5 3.5zm-7-12.5a10 10 0 0 0 -10 10 10 10 0 0 0 10 10 10 10 0 0 0 10 -10 10 10 0 0 0 -10 -10zm0 2a8 8 0 0 1 8 8 8 8 0 0 1 -8 8 8 8 0 0 1 -8 -8 8 8 0 0 1 8 -8z"/>
	</g>
</svg>
