<?xml version="1.0" encoding="UTF-8"?>
<svg width="32" height="32" version="1.1" xmlns="http://www.w3.org/2000/svg" xmlns:cc="http://creativecommons.org/ns#" xmlns:dc="http://purl.org/dc/elements/1.1/" xmlns:rdf="http://www.w3.org/1999/02/22-rdf-syntax-ns#">
	<defs>
		<style id="current-color-scheme" type="text/css">
			.ColorScheme-Text { color:#0000FF; }
			.ColorScheme-Highlight { color:#FF00FF; }</style>
	</defs>
	<metadata>
		<rdf:RDF>
			<cc:Work rdf:about="">
				<dc:format>image/svg+xml</dc:format>
				<dc:type rdf:resource="http://purl.org/dc/dcmitype/StillImage"/>
				<dc:creator>
					<cc:Agent>
						<dc:title>obnosim</dc:title>
					</cc:Agent>
				</dc:creator>
				<cc:license rdf:resource="http://creativecommons.org/licenses/by-sa/4.0/"/>
			</cc:Work>
			<cc:License rdf:about="http://creativecommons.org/licenses/by-sa/4.0/">
				<cc:permits rdf:resource="http://creativecommons.org/ns#Reproduction"/>
				<cc:permits rdf:resource="http://creativecommons.org/ns#Distribution"/>
				<cc:requires rdf:resource="http://creativecommons.org/ns#Notice"/>
				<cc:requires rdf:resource="http://creativecommons.org/ns#Attribution"/>
				<cc:permits rdf:resource="http://creativecommons.org/ns#DerivativeWorks"/>
				<cc:requires rdf:resource="http://creativecommons.org/ns#ShareAlike"/>
			</cc:License>
		</rdf:RDF>
	</metadata>
	<g id="redshift-status-off" class="ColorScheme-Text" style="opacity:.875">
		<rect width="32" height="32" style="fill:none"/>
		<path d="m26 12c0-5.52-4.5-10-10-10s-10 4.48-10 10c0 7 5 7 5 12h10c0-5 5-5 5-12zm-12 18h4m-6-3h8" style="fill:none;stroke-linecap:round;stroke-linejoin:round;stroke-width:2;stroke:currentColor"/>
	</g>
	<g id="redshift-status-on" style="opacity:.875">
		<rect x="32" width="32" height="32" style="fill:none"/>
		<path d="m46 30h4m-6-3h8" class="ColorScheme-Text" style="fill:none;stroke-linecap:round;stroke-linejoin:round;stroke-width:2;stroke:currentColor"/>
		<path class="ColorScheme-Highlight" d="m58 12c0-5.52-4.5-10-10-10s-10 4.48-10 10c0 7 5 7 5 12h10c0-5 5-5 5-12z" style="fill:currentColor;fill-opacity:.375;stroke-linecap:round;stroke-linejoin:round;stroke-width:2;stroke:currentColor"/>
	</g>
	<g id="22-22-redshift-status-off" class="ColorScheme-Text" style="opacity:.875">
		<rect y="42" width="22" height="22" style="fill:none"/>
		<path d="m18 50c0-3.9-3.1-7-7-7-3.87 0-7 3.1-7 7 0 5 4 5 4 10h6c0.2-5 4-5 4-10zm-9 13h4" style="fill:none;stroke-linecap:round;stroke-linejoin:round;stroke-width:2;stroke:currentColor"/>
	</g>
	<g id="22-22-redshift-status-on" style="opacity:.875">
		<rect x="28" y="42" width="22" height="22" style="fill:none"/>
		<path class="ColorScheme-Text" d="m37 63h4" style="fill:none;stroke-linecap:round;stroke-linejoin:round;stroke-width:2;stroke:currentColor"/>
		<path class="ColorScheme-Highlight" d="m46 50c0-3.9-3.1-7-7-7s-7 3.1-7 7c0 5 4 5 4 10h6c0.2-5 4-5 4-10z" style="fill:currentColor;fill-opacity:.375;stroke-linecap:round;stroke-linejoin:round;stroke-width:2;stroke:currentColor"/>
	</g>
</svg>
