<?xml version="1.0" encoding="UTF-8" standalone="no"?>
<svg id="svg7538" xmlns:rdf="http://www.w3.org/1999/02/22-rdf-syntax-ns#" xmlns="http://www.w3.org/2000/svg" height="22" width="78" version="1.1" xmlns:cc="http://creativecommons.org/ns#" xmlns:dc="http://purl.org/dc/elements/1.1/">
	<defs id="defs3615">
		<style id="current-color-scheme" type="text/css">.ColorScheme-Text { color:#0000FF; }</style>
	</defs>
	<metadata id="metadata7">
		<rdf:RDF>
			<cc:Work rdf:about="">
				<dc:format>image/svg+xml</dc:format>
				<dc:type rdf:resource="http://purl.org/dc/dcmitype/StillImage"/>
				<dc:title/>
				<dc:creator>
					<cc:Agent>
						<dc:title>obnosim</dc:title>
					</cc:Agent>
				</dc:creator>
				<cc:license rdf:resource="http://creativecommons.org/licenses/by-sa/3.0/"/>
			</cc:Work>
			<cc:License rdf:about="http://creativecommons.org/licenses/by-sa/3.0/">
				<cc:permits rdf:resource="http://creativecommons.org/ns#Reproduction"/>
				<cc:permits rdf:resource="http://creativecommons.org/ns#Distribution"/>
				<cc:requires rdf:resource="http://creativecommons.org/ns#Notice"/>
				<cc:requires rdf:resource="http://creativecommons.org/ns#Attribution"/>
				<cc:permits rdf:resource="http://creativecommons.org/ns#DerivativeWorks"/>
				<cc:requires rdf:resource="http://creativecommons.org/ns#ShareAlike"/>
			</cc:License>
		</rdf:RDF>
	</metadata>
	<g id="16-16-slc-like" transform="translate(35,-11)">
		<rect style="fill:none" height="22" width="22" y="11" x="-7"/>
		<path d="m3.9975 16.951c3.5588-5.9314 10.194-2.0493 9.0946 3.9719-.791 4.331-6.7218 7.891-9.0943 9.077-2.3726-1.186-8.3042-4.746-9.0874-8.989-1.1109-6.0191 5.5284-9.9916 9.0872-4.0602z" style="opacity:.875;fill:currentColor" class="ColorScheme-Text"/>
	</g>
	<g id="16-16-slc-share" transform="translate(-21,-11)">
		<rect style="fill:none" transform="scale(-1,1)" height="22" width="22" y="11" x="-43"/>
		<path d="m38 12c-1.6569 0-3 1.3431-3 3 0 .21746.01855.42067.0625.625l-7.125 4.0938c-.523-.445-1.196-.719-1.937-.719-1.6569 0-3 1.3431-3 3s1.3431 3 3 3c.74071 0 1.4142-.27384 1.9375-.71875l7.125 4.0938c-.044.204-.063.408-.063.625 0 1.6569 1.3431 3 3 3s3-1.3431 3-3-1.3431-3-3-3c-.72487 0-1.3877.25953-1.9062.6875l-7.156-4.157c.032-.176.062-.345.062-.531s-.030-.355-.062-.531l7.156-4.157c.518.428 1.181.688 1.906.688 1.6569 0 3-1.3431 3-3s-1.3431-3-3-3z" style="opacity:.875;block-progression:tb;text-indent:0;text-decoration-line:none;text-transform:none;fill:currentColor" class="ColorScheme-Text"/>
	</g>
	<g id="16-16-slc-connect" transform="translate(7,-11)">
		<rect style="fill:none" height="22" width="22" y="11" x="49"/>
		<path d="m57.5 12c-4.1421 0-7.5 3.3579-7.5 7.5s3.3579 7.5 7.5 7.5c3.7265 0 6.8233-2.7197 7.4062-6.2812-.568-.360-1.235-.582-1.937-.657-.282 2.774-2.621 4.938-5.469 4.938-3.038 0-5.5-2.462-5.5-5.5s2.462-5.5 5.5-5.5c1.724 0 3.2728.78985 4.2812 2.0312.236-.020.478-.031.719-.031.58680 0 1.1654.07427 1.7188.1875-1.226-2.473-3.772-4.188-6.719-4.188zm5 5c-3.7265 0-6.8233 2.7197-7.4062 6.2812.56839.35965 1.2348.58218 1.9375.65625.282-2.773 2.621-4.937 5.469-4.937 3.038 0 5.5 2.462 5.5 5.5s-2.462 5.5-5.5 5.5c-1.724 0-3.273-.790-4.281-2.031-.236.020-.478.031-.719.031-.587 0-1.165-.074-1.719-.188 1.226 2.473 3.772 4.188 6.719 4.188 4.142 0 7.5-3.358 7.5-7.5s-3.358-7.5-7.5-7.5z" style="opacity:.875;fill:currentColor" class="ColorScheme-Text"/>
	</g>
	<g id="slc-like">
		<rect style="fill:none" height="32" width="32" y="24" x="23"/>
		<path style="opacity:.875;fill:currentColor" d="m38.997 34.004c4.635-7.725 13.277-2.669 11.845 5.174-1.03 5.641-8.755 10.277-11.845 11.822-3.09-1.545-10.816-6.181-11.836-11.708-1.447-7.839 7.201-13.013 11.836-5.288z" class="ColorScheme-Text"/>
	</g>
	<g id="slc-connect">
		<rect style="fill:none" height="32" width="32" y="24" x="58"/>
		<path style="opacity:.875;fill-rule:evenodd;fill:currentColor" d="m78 34a10 10 0 0 0 -9.729 7.74 6 6 0 0 0 1.729 .260 6 6 0 0 0 .268 -.008 8 8 0 0 1 7.732 -5.992 8 8 0 0 1 8 8 8 8 0 0 1 -8 8 8 8 0 0 1 -7.426 -5.031 11 11 0 0 1 -.574 .031 11 11 0 0 1 -1.574 -.127 10 10 0 0 0 9.574 7.127 10 10 0 0 0 10 -10 10 10 0 0 0 -10 -10zm-8-8a10 10 0 0 0 -10 10 10 10 0 0 0 10 10 10 10 0 0 0 9.729 -7.74 6 6 0 0 0 -1.729 -.260 6 6 0 0 0 -.268 .008 8 8 0 0 1 -7.732 5.992 8 8 0 0 1 -8 -8 8 8 0 0 1 8 -8 8 8 0 0 1 7.426 5.031 11 11 0 0 1 .574 -.031 11 11 0 0 1 1.574 .127 10 10 0 0 0 -9.574 -7.127z" class="ColorScheme-Text"/>
	</g>
	<g id="slc-share">
		<rect style="fill:none" transform="scale(-1,1)" height="32" width="32" y="24" x="-20"/>
		<path class="ColorScheme-Text" style="opacity:.875;fill-rule:evenodd;fill:currentColor" d="m12 27a4 4 0 0 0 -4 4 4 4 0 0 0 .1367 1.025l-9.2519 5.205a4 4 0 0 0 -2.8848 -1.23 4 4 0 0 0 -4 4 4 4 0 0 0 4 4 4 4 0 0 0 2.8809 -1.232l9.2578 5.207a4 4 0 0 0 -.1387 1.025 4 4 0 0 0 4 4 4 4 0 0 0 4 -4 4 4 0 0 0 -4 -4 4 4 0 0 0 -2.8809 1.232l-9.2578-5.207a4 4 0 0 0 .1387 -1.025 4 4 0 0 0 -.13672 -1.025l9.2519-5.205a4 4 0 0 0 2.8848 1.23 4 4 0 0 0 4 -4 4 4 0 0 0 -4 -4z"/>
	</g>
</svg>
