<?xml version="1.0" encoding="UTF-8" standalone="no"?>
<svg id="svg3045" xmlns:rdf="http://www.w3.org/1999/02/22-rdf-syntax-ns#" xmlns="http://www.w3.org/2000/svg" height="22" width="22" version="1.1" xmlns:cc="http://creativecommons.org/ns#" xmlns:dc="http://purl.org/dc/elements/1.1/">
	<defs id="defs3615">
		<style id="current-color-scheme" type="text/css">
			.ColorScheme-Text { color:#0000FF; }
		</style>
	</defs>
	<metadata id="metadata7">
		<rdf:RDF>
			<cc:Work rdf:about="">
				<dc:format>image/svg+xml</dc:format>
				<dc:type rdf:resource="http://purl.org/dc/dcmitype/StillImage"/>
				<dc:title/>
				<dc:creator>
					<cc:Agent>
						<dc:title>obnosim</dc:title>
					</cc:Agent>
				</dc:creator>
				<cc:license rdf:resource="http://creativecommons.org/licenses/by-sa/3.0/"/>
			</cc:Work>
			<cc:License rdf:about="http://creativecommons.org/licenses/by-sa/3.0/">
				<cc:permits rdf:resource="http://creativecommons.org/ns#Reproduction"/>
				<cc:permits rdf:resource="http://creativecommons.org/ns#Distribution"/>
				<cc:requires rdf:resource="http://creativecommons.org/ns#Notice"/>
				<cc:requires rdf:resource="http://creativecommons.org/ns#Attribution"/>
				<cc:permits rdf:resource="http://creativecommons.org/ns#DerivativeWorks"/>
				<cc:requires rdf:resource="http://creativecommons.org/ns#ShareAlike"/>
			</cc:License>
		</rdf:RDF>
	</metadata>
	<g id="22-22-smartphone" transform="translate(-1,-1)">
		<rect style="opacity:.375;fill:none" ry=".5" height="22" width="22" y="1" x="1"/>
		<path d="m8 5c-1.108 0-2 .892-2 2v14c0 1.108.892 2 2 2h8c1.108 0 2-.892 2-2v-14c0-1.108-.892-2-2-2h-8zm-1 2h10v13h-10v-13zm4.5 14h1c.277 0 .5.223.5.5s-.223.5-.5.5h-1c-.277 0-.5-.223-.5-.5s.223-.5.5-.5z" style="opacity:.875;fill:currentColor" class="ColorScheme-Text"/>
		<path d="m16 1.5c3.0376 0 5.5 2.4624 5.5 5.5m-5.5-3.5c1.933 0 3.5 1.567 3.5 3.5" style="opacity:.875;stroke-linejoin:round;stroke:currentColor;stroke-linecap:round;stroke-width:1px;fill:none" class="ColorScheme-Text"/>
	</g>
	<g id="smartphone" transform="translate(-1,-25)">
		<rect style="opacity:.375;fill:none" ry=".5" height="32" width="32" y="-9" x="1"/>
		<path style="opacity:.875;stroke-linejoin:round;stroke:currentColor;stroke-linecap:round;stroke-width:1px;fill:none" d="m24-7.5c3.0376 0 5.5 2.4624 5.5 5.5m-5.5-3.5c1.933 0 3.5 1.567 3.5 3.5" class="ColorScheme-Text"/>
		<path style="opacity:.875;fill-rule:evenodd;fill:currentColor" d="m10-29c-1.662 0-3 1.338-3 3v20c0 1.662 1.338 3 3 3h12c1.662 0 3-1.338 3-3v-20c0-1.662-1.338-3-3-3h-12zm-1 3h14v19h-14v-19zm6 20h2c.554 0 1 .446 1 1s-.446 1-1 1h-2c-.554 0-1-.446-1-1s.446-1 1-1z" transform="translate(1,25)" class="ColorScheme-Text"/>
	</g>
</svg>
