<?xml version="1.0" encoding="UTF-8" standalone="no"?>
<svg id="svg5048" xmlns:rdf="http://www.w3.org/1999/02/22-rdf-syntax-ns#" xmlns="http://www.w3.org/2000/svg" height="32" width="32" version="1.1" xmlns:cc="http://creativecommons.org/ns#" xmlns:dc="http://purl.org/dc/elements/1.1/">
	<defs id="defs3615">
		<style id="current-color-scheme" type="text/css">
			.ColorScheme-Text { color:#0000FF; }
		</style>
	</defs>
	<metadata id="metadata7">
		<rdf:RDF>
			<cc:Work rdf:about="">
				<dc:format>image/svg+xml</dc:format>
				<dc:type rdf:resource="http://purl.org/dc/dcmitype/StillImage"/>
				<dc:title/>
				<dc:creator>
					<cc:Agent>
						<dc:title>obnosim</dc:title>
					</cc:Agent>
				</dc:creator>
				<cc:license rdf:resource="http://creativecommons.org/licenses/by-sa/3.0/"/>
			</cc:Work>
			<cc:License rdf:about="http://creativecommons.org/licenses/by-sa/3.0/">
				<cc:permits rdf:resource="http://creativecommons.org/ns#Reproduction"/>
				<cc:permits rdf:resource="http://creativecommons.org/ns#Distribution"/>
				<cc:requires rdf:resource="http://creativecommons.org/ns#Notice"/>
				<cc:requires rdf:resource="http://creativecommons.org/ns#Attribution"/>
				<cc:permits rdf:resource="http://creativecommons.org/ns#DerivativeWorks"/>
				<cc:requires rdf:resource="http://creativecommons.org/ns#ShareAlike"/>
			</cc:License>
		</rdf:RDF>
	</metadata>
	<g id="start-here-kde" transform="translate(4 -36)">
		<rect style="fill:none" height="32" width="32" y="36" x="-4"/>
		<path d="m-3.013 36c-.5253-.006-.993.48034-.98680 1.0056v30c-.01.52527.46150 1.0006.98680.99439h6.4688c.299.002.5956-.14054.7812-.375l7.8461-9.9688 8.6585 10c.185.21505.4663.34397.75.34375h5.4063c.7347 0 1.2313-1.013.7813-1.5938l-11.179-14.406 11.179-14.406c.451-.58208-.05-1.5975-.7863-1.5938h-5.4063c-.2837-.00022-.565.1287-.75.34375l-16.749 19.375-.031-18.719c.01-.52527-.4747-1.0062-1-1h-5.9688z" style="fill:currentColor;opacity:.875" class="ColorScheme-Text"/>
	</g>
</svg>
