<?xml version="1.0" encoding="UTF-8"?>
<svg version="1.1" viewBox="0 0 32 32" xmlns="http://www.w3.org/2000/svg" xmlns:cc="http://creativecommons.org/ns#" xmlns:dc="http://purl.org/dc/elements/1.1/" xmlns:rdf="http://www.w3.org/1999/02/22-rdf-syntax-ns#">
	<defs>
		<style id="current-color-scheme" type="text/css">.ColorScheme-Text { color:#0000FF; }</style>
	</defs>
	<metadata>
		<rdf:RDF>
			<cc:Work rdf:about="">
				<dc:format>image/svg+xml</dc:format>
				<dc:type rdf:resource="http://purl.org/dc/dcmitype/StillImage"/>
				<dc:creator>
					<cc:Agent>
						<dc:title>obnosim</dc:title>
					</cc:Agent>
				</dc:creator>
				<cc:license rdf:resource="http://creativecommons.org/licenses/by-sa/4.0/"/>
			</cc:Work>
			<cc:License rdf:about="http://creativecommons.org/licenses/by-sa/4.0/">
				<cc:permits rdf:resource="http://creativecommons.org/ns#Reproduction"/>
				<cc:permits rdf:resource="http://creativecommons.org/ns#Distribution"/>
				<cc:requires rdf:resource="http://creativecommons.org/ns#Notice"/>
				<cc:requires rdf:resource="http://creativecommons.org/ns#Attribution"/>
				<cc:permits rdf:resource="http://creativecommons.org/ns#DerivativeWorks"/>
				<cc:requires rdf:resource="http://creativecommons.org/ns#ShareAlike"/>
			</cc:License>
		</rdf:RDF>
	</metadata>
	<g id="32-32-system-lock-screen" class="ColorScheme-Text" style="opacity:.875">
		<rect x="-260" width="32" height="32" style="fill:none"/>
		<path d="m-244 3c-4 0-8 3.57-8 8v4h2v-4c0-3.32 3-6 6-6s6 2.68 6 6v4h2v-4c0-4.43-4-8-8-8zm-9 13v11.9c0 0.6 0 1.1 1 1.1h16c1 0 1-0.5 1-1.1v-11.9zm9 5c1 0 1 0.4 1 1 0 0.4 0 0.7-1 0.9l1 2.1h-2l1-2.1c-1-0.2-1-0.5-1-0.9 0-0.6 0-1 1-1z" style="fill:currentColor"/>
	</g>
	<g id="16-16-system-lock-screen" class="ColorScheme-Text" style="opacity:.875">
		<rect x="-252" y="-16" width="16" height="16" style="fill:none"/>
		<path d="m-244-16c-3 0-5 2.2-5 5v2h1v-2c0-2.2 2-4 4-4s4 1.8 4 4v2h1v-2c0-2.8-2-5-5-5zm-6 8v7c0 0.554 0 1 1 1h10c1 0 1-0.446 1-1v-7zm6 2c1 0 1 0.45 1 1 0 0.37 0 0.71-1 0.88l1 2.12h-2l1-2.12c-1-0.17-1-0.51-1-0.88 0-0.55 0-1 1-1z" style="fill:currentColor"/>
	</g>
	<g id="system-lock-screen" class="ColorScheme-Text" style="opacity:.875">
		<rect x="-268" y="32" width="48" height="48" style="fill:none;stroke-width:1.5"/>
		<path d="m-256 56v17c0 1.1 1 2 2 2h20c1 0 2-0.9 2-2v-17h-21zm12 6c1 0 2 0.9 2 2 0 0.7 0 1.3-1 1.7l1 3.3h-4l1-3.3c-1-0.4-1-1-1-1.7 0-1.1 1-2 2-2zm0-25c-6 0-11 4.9-11 11v7h2v-7c0-5 4-9 9-9s9 4 9 9v7h2v-7c0-6.1-5-11-11-11z" style="fill-rule:evenodd;fill:currentColor"/>
	</g>
	<g id="16-16-system-switch-user" class="ColorScheme-Text" style="opacity:.875">
		<rect x="72" y="-16" width="16" height="16" style="fill:none"/>
		<path d="m84-12a2 2 0 0 0-2 2 2 2 0 0 0 2 2 2 2 0 0 0 2-2 2 2 0 0 0-2-2zm0 5a3 3 0 0 0-3 3v3.5l6-3v-0.5a3 3 0 0 0-3-3z" style="fill:currentColor"/>
		<path d="m80-16-8 4v8l1 0.5v-0.5a3 3 0 0 1 3-3 3 3 0 0 1 3 3v3.5l1 0.5zm-4 4a2 2 0 0 1 2 2 2 2 0 0 1-2 2 2 2 0 0 1-2-2 2 2 0 0 1 2-2z" style="fill:currentColor"/>
	</g>
	<g id="16-16-system-shutdown" class="ColorScheme-Text" style="opacity:.875">
		<rect x="8" y="-16" width="16" height="16" style="fill:none"/>
		<rect x="15" y="-16" width="2" height="8" ry="1" style="fill:currentColor"/>
		<path d="m13-13.2c-1.9 1.1-3 3.1-3 5.2 0 3.3 2.7 6 6 6s6-2.7 6-6c0-2.1-1.1-4.1-3-5.2" style="fill:none;stroke-linecap:round;stroke-linejoin:round;stroke-width:2;stroke:currentColor"/>
	</g>
	<g id="32-32-system-switch-user" class="ColorScheme-Text" style="opacity:.875">
		<rect x="64" width="32" height="32" style="fill:none;opacity:.5"/>
		<path d="m80 3v26l-2-0.8v-6.2c0-2.8-2.2-5-5-5s-5 2.2-5 5v2.4l-1-0.4v-16zm-7 7a3 3 0 0 0-3 3 3 3 0 0 0 3 3 3 3 0 0 0 3-3 3 3 0 0 0-3-3zm14 0a3 3 0 0 1 3 3 3 3 0 0 1-3 3 3 3 0 0 1-3-3 3 3 0 0 1 3-3zm0 7c2.8 0 5 2.2 5 5v2.4l-10 3.8v-6.2c0-2.8 2.2-5 5-5z" style="fill:currentColor"/>
	</g>
	<g id="32-32-system-shutdown" class="ColorScheme-Text" style="opacity:.875">
		<rect width="32" height="32" ry="1" style="fill:none"/>
		<path d="m12 6.86c-3.61 1.57-6 5.14-6 9.14 0 5.5 4.5 10 10 10s10-4.5 10-10c0-4-2.4-7.58-6-9.15m-4-2.85v10" style="fill:none;stroke-linecap:round;stroke-linejoin:round;stroke-width:2;stroke:currentColor"/>
	</g>
	<g id="system-shutdown" class="ColorScheme-Text" style="opacity:.875">
		<rect x="-8" y="32" width="48" height="48" ry="1.5" style="fill:none;stroke-width:1.5"/>
		<path d="m10 42.3c-5.41 2.3-9 7.7-9 13.7 0 8.2 6.75 15 15 15 8.3 0 15-6.8 15-15 0-6-3.6-11.4-9-13.7m-6-4.3v15" style="fill:none;stroke-linecap:round;stroke-linejoin:round;stroke-width:2;stroke:currentColor"/>
	</g>
	<g id="64-64-system-shutdown" class="ColorScheme-Text" style="opacity:.875">
		<rect x="-16" y="80" width="64" height="64" style="fill:none;stroke-width:2"/>
		<path d="m16 88v20m-6-15.1c-8.32 2.7-13.98 10.1-14 19.1 0 11 9 20 20 20s20-9 20-20c0-9-5.6-16.5-14-19.1" style="fill:none;stroke-linecap:round;stroke-linejoin:round;stroke-width:2;stroke:currentColor"/>
	</g>
	<g id="system-switch-user" class="ColorScheme-Text" style="opacity:.875">
		<rect x="56" y="32" width="48" height="48" style="fill:none"/>
		<path d="m90 46a5 5 0 0 1 5 5 5 5 0 0 1-5 5 5 5 0 0 1-5-5 5 5 0 0 1 5-5zm0 11c4 0 7 3.1 7 7v4.7l-14 5.2v-9.9c0-3.9 3-7 7-7z" style="fill:currentColor"/>
		<path class="ColorScheme-Text" d="m80 37v38l-3-1.1v-9.9c0-3.9-3.1-7-7-7s-7 3.1-7 7v4.7l-2-0.7v-24zm-10 9a5 5 0 0 0-5 5 5 5 0 0 0 5 5 5 5 0 0 0 5-5 5 5 0 0 0-5-5z" style="fill:currentColor"/>
	</g>
	<g id="64-64-system-switch-user" class="ColorScheme-Text" style="opacity:.875">
		<rect x="48" y="80" width="64" height="64" style="fill:none;opacity:.5;stroke-width:2"/>
		<path d="m80 86-26 10v32l2 1v-5c0-6 4.4-10 10-10s10 4 10 10v12l4 2 4-2 13.4-5 6.6-2 2-1v-32zm0 1.1 25 9.6v30.3l-1 1v-4c0-6-4.4-10-10-10s-10 4-10 10v11l-4 2zm-14 12.9a6 6 0 0 1 6 6 6 6 0 0 1-6 6 6 6 0 0 1-6-6 6 6 0 0 1 6-6zm28 0a6 6 0 0 0-6 6 6 6 0 0 0 6 6 6 6 0 0 0 6-6 6 6 0 0 0-6-6z" style="fill:currentColor;stroke-width:2"/>
	</g>
	<g id="64-64-system-lock-screen" class="ColorScheme-Text" style="opacity:.875">
		<rect x="-276" y="80" width="64" height="64" style="fill:none;stroke-width:2"/>
		<path d="m-244 86c-8 0-15 6.6-15 15v10h3v-10c0-6.6 5-12 12-12s12 5.4 12 12v10h3v-10c0-8.4-7-15-15-15zm-16 26v24c0 1 1 2 2 2h28c1 0 2-1 2-2v-24zm16 8a3 3 0 0 1 3 3 3 3 0 0 1-2 3l2 5h-6l2-5a3 3 0 0 1-2-3 3 3 0 0 1 3-3z" style="fill:currentColor"/>
	</g>
	<g id="32-32-system-reboot" class="ColorScheme-Text" style="opacity:.875">
		<rect x="132" width="32" height="32" ry="1" style="fill:none"/>
		<path d="m144 14v-7c-4 1.57-6 5-6 9 0 5.5 5 10 10 10 6 0 10-4.5 10-10 0-4-2-7.58-6-9.15m-15 0.15h7" style="fill:none;stroke-linecap:round;stroke-linejoin:round;stroke-width:2;stroke:currentColor"/>
	</g>
	<g id="16-16-system-reboot" class="ColorScheme-Text" style="opacity:.875">
		<rect x="140" y="-16" width="16" height="16" style="fill:none"/>
		<path d="m146-10v-4h-4m3 0.6c-2 1.1-3 3.1-3 5.4 0 3.3 3 6 6 6s6-2.7 6-6c0-2.1-1-4.1-3-5.2" style="fill:none;stroke-linecap:round;stroke-linejoin:round;stroke-width:2;stroke:currentColor"/>
	</g>
	<g id="system-reboot" class="ColorScheme-Text" style="opacity:.875">
		<rect x="124" y="32" width="48" height="48" ry="1.5" style="fill:none;stroke-width:1.5"/>
		<path d="m142 53v-11c-5 2.4-9 8-9 14 0 8.2 7 15 15 15s15-6.8 15-15c0-6-4-11.4-9-13.7m-12-0.3h-11" style="fill:none;stroke-linecap:round;stroke-linejoin:round;stroke-width:2;stroke:currentColor"/>
	</g>
	<g id="64-64-system-reboot" class="ColorScheme-Text" style="opacity:.875">
		<rect x="116" y="80" width="64" height="64" style="fill:none;stroke-width:2"/>
		<path d="m128 92h14v14-13.1c-8 2.7-14 10.1-14 19.1 0 11 9 20 20 20s20-9 20-20c0-9-6-16.5-14-19.1" style="fill:none;stroke-linecap:round;stroke-linejoin:round;stroke-width:2;stroke:currentColor"/>
	</g>
	<g id="16-16-system-log-out" class="ColorScheme-Text" style="opacity:.875">
		<rect x="-60" y="-16" width="16" height="16" style="fill:none"/>
		<path d="m-53.6-2.2c0.5 0.1 1.1 0.2 1.6 0.2 3.3 0 6-2.7 6-6s-2.7-6-6-6c-0.5 0-1.1 0.1-1.6 0.2m-2.4 2.8-3 3 3 3m-3-3h6" style="fill:none;stroke-linecap:round;stroke-linejoin:round;stroke-width:2;stroke:currentColor"/>
	</g>
	<g id="32-32-system-log-out" class="ColorScheme-Text" style="opacity:.875">
		<rect x="-68" width="32" height="32" rx="1" ry="1" style="fill:none"/>
		<path d="m-57.5 24.4c3.5 2.4 8.6 2.1 11.9-0.7 3.3-2.7 4.6-7.6 2.8-11.6-1.6-4-6-6.6-10.3-6-1.6 0.1-3.1 0.7-4.4 1.5m-6.5 8.4h10m-6 4-4-4 4-4" style="fill:none;stroke-linecap:round;stroke-linejoin:round;stroke-width:2;stroke:currentColor"/>
	</g>
	<g id="system-log-out" class="ColorScheme-Text" style="opacity:.875">
		<rect x="-76" y="32" width="48" height="48" rx="1.5" ry="1.5" style="fill:none;stroke-width:1.5"/>
		<path d="m-60.2 68.5c2.4 1.6 5.2 2.5 8.2 2.5 8.3 0 15-6.8 15-15 0-8.3-6.7-15-15-15-3 0-5.8 0.9-8.2 2.4m-9.8 12.6h15m-8-7-7 7 7 7" style="fill:none;stroke-linecap:round;stroke-linejoin:round;stroke-width:2;stroke:currentColor"/>
	</g>
	<g id="64-64-system-log-out" class="ColorScheme-Text" style="opacity:.875">
		<rect transform="scale(-1,1)" x="20" y="80" width="64" height="64" style="fill:none;stroke-width:2"/>
		<path d="m-76 112h20m-7.8-16.1c3.4-2.5 7.4-3.9 11.8-3.9 11 0 20 9 20 20s-9 20-20 20c-4.4 0-8.4-1-11.8-4m-4.2-24-8 8 8 8" style="fill:none;stroke-linecap:round;stroke-linejoin:round;stroke-width:2;stroke:currentColor"/>
	</g>
	<g id="16-16-system-suspend" class="ColorScheme-Text" style="opacity:.875">
		<rect transform="rotate(90)" x="-16" y="172" width="16" height="16" style="fill:none"/>
		<path d="m-175-11c-1-1.9-3-3-5-3s-4 1.2-5 3m0 6c1 1.79 3 3 5 3s4-1.15 5-3m-7-3h4" style="fill:none;stroke-linecap:round;stroke-linejoin:round;stroke-width:2;stroke:currentColor"/>
	</g>
	<g id="32-32-system-suspend" class="ColorScheme-Text" style="opacity:.875">
		<rect transform="rotate(90)" y="164" width="32" height="32" ry="1" style="fill:none"/>
		<path d="m-171 12c-1-3.61-5-6-9-6s-8 2.47-9 6m0 8c1 3.5 5 6 9 6s8-2.4 9-6" style="fill:none;stroke-linecap:round;stroke-linejoin:round;stroke-width:2;stroke:currentColor"/>
		<path d="m-176 16h-8" style="fill:none;stroke-linecap:round;stroke-linejoin:round;stroke-width:2;stroke:currentColor"/>
	</g>
	<g id="system-suspend" class="ColorScheme-Text" style="opacity:.875">
		<rect transform="rotate(90)" x="32" y="156" width="48" height="48" ry="1.5" style="fill:none;stroke-width:1.5"/>
		<path d="m-166 50c-3-5.4-8-9-14-9s-11 3.7-14 9m0 12c3 5.3 8 9 14 9s11-3.6 14-9" style="fill:none;stroke-linecap:round;stroke-linejoin:round;stroke-width:1.9999;stroke:currentColor"/>
		<path d="m-173 56h-14" style="fill:none;stroke-linecap:round;stroke-linejoin:round;stroke-width:2;stroke:currentColor"/>
	</g>
	<g id="64-64-system-suspend" class="ColorScheme-Text" style="opacity:.875">
		<rect transform="rotate(90)" x="80" y="148" width="64" height="64" style="fill:none;stroke-width:2"/>
		<path d="m-161 106c-3-8.3-10-14-19-14s-17 5.9-19 14m0 12c2 8 10 14 19 14s16-6 19-14m-9-6h-20" style="fill:none;stroke-linecap:round;stroke-linejoin:round;stroke-width:2;stroke:currentColor"/>
	</g>
	<g id="64-64-system-suspend-hibernate" class="ColorScheme-Text" style="opacity:.875">
		<rect transform="rotate(90)" x="80" y="84" width="64" height="64" style="fill:none;stroke-width:2"/>
		<path d="m-100 124c2.6-3 4-8 4-12 0-11-9-20-20-20s-20 9-20 20c0 4 1 9 4 12m8-8 8 8 8-8m-8 8v-20m-8 25h16" style="fill:none;stroke-linecap:round;stroke-linejoin:round;stroke-width:2;stroke:currentColor"/>
	</g>
	<g id="system-suspend-hibernate" class="ColorScheme-Text" style="opacity:.875">
		<rect x="-140" y="32" width="48" height="48" rx="1.5" ry="1.5" style="fill:none;stroke-width:1.5"/>
		<path d="m-116 66v-15m-7 8 7 7 7-7m-14 10h14m5-4c2-2.6 3-5.8 3-9 0-8.3-7-15-15-15s-15 6.7-15 15c0 3.2 1 6.4 3 9" style="fill:none;stroke-linecap:round;stroke-linejoin:round;stroke-width:1.9999;stroke:currentColor"/>
	</g>
	<g id="32-32-system-suspend-hibernate" class="ColorScheme-Text" style="opacity:.875">
		<rect transform="rotate(90)" x="-6.12e-15" y="100" width="32" height="32" rx="1" ry="1" style="fill:none"/>
		<path d="m-112 18-4 4-4-4m4 4v-10m-4 13h8m4-3c1-1.7 2-3.8 2-6 0-5.5-4-10-10-10s-10 4.5-10 10c0 2.2 1 4.3 2 6" style="fill:none;stroke-linecap:round;stroke-linejoin:round;stroke-width:2;stroke:currentColor"/>
	</g>
	<g id="16-16-system-suspend-hibernate" class="ColorScheme-Text" style="opacity:.875">
		<rect x="-124" y="-16" width="16" height="16" style="fill:none"/>
		<path d="m-116-5v-6m-3 3 3 3 3-3m-6 6h6m2-3c1-0.91 1-1.95 1-3 0-3.3-3-6-6-6s-6 2.7-6 6c0 1.05 0 2.09 1 3" style="fill:none;stroke-linecap:round;stroke-linejoin:round;stroke-width:2;stroke:currentColor"/>
	</g>
	<g id="16-16-system-run" class="ColorScheme-Text" style="opacity:.875">
		<rect x="216" y="-16" width="16" height="16" style="fill:none"/>
		<path d="m230-2h-6m-6-12 6 6-6 6" style="fill:none;stroke-linecap:round;stroke-linejoin:round;stroke-width:2;stroke:currentColor"/>
	</g>
	<g id="22-22-system-run" class="ColorScheme-Text" style="opacity:.875">
		<rect x="208" width="22" height="22" style="fill:none"/>
		<path d="m227 18h-8m-7-14 7 7-7 7" style="fill:none;stroke-linecap:round;stroke-linejoin:round;stroke-width:2;stroke:currentColor"/>
	</g>
	<g id="system-run" class="ColorScheme-Text" style="opacity:.875">
		<rect x="208" y="22" width="32" height="32" style="fill:none"/>
		<path d="m236 50h-12m-12-24 12 12-12 12" style="fill:none;opacity:.875;stroke-linecap:round;stroke-linejoin:round;stroke-width:2;stroke:currentColor"/>
	</g>
</svg>
