<?xml version="1.0" encoding="UTF-8" standalone="no"?>
<svg id="svg3342" xmlns:rdf="http://www.w3.org/1999/02/22-rdf-syntax-ns#" xmlns="http://www.w3.org/2000/svg" height="22" viewBox="0 0 22 22" width="22" version="1.1" xmlns:cc="http://creativecommons.org/ns#" xmlns:dc="http://purl.org/dc/elements/1.1/">
	<defs id="defs3615">
		<style id="current-color-scheme" type="text/css">
			.ColorScheme-Text { color:#0000FF; }
		</style>
	</defs>
	<metadata id="metadata7">
		<rdf:RDF>
			<cc:Work rdf:about="">
				<dc:format>image/svg+xml</dc:format>
				<dc:type rdf:resource="http://purl.org/dc/dcmitype/StillImage"/>
				<dc:title/>
				<dc:creator>
					<cc:Agent>
						<dc:title>obnosim</dc:title>
					</cc:Agent>
				</dc:creator>
				<cc:license rdf:resource="http://creativecommons.org/licenses/by-sa/3.0/"/>
			</cc:Work>
			<cc:License rdf:about="http://creativecommons.org/licenses/by-sa/3.0/">
				<cc:permits rdf:resource="http://creativecommons.org/ns#Reproduction"/>
				<cc:permits rdf:resource="http://creativecommons.org/ns#Distribution"/>
				<cc:requires rdf:resource="http://creativecommons.org/ns#Notice"/>
				<cc:requires rdf:resource="http://creativecommons.org/ns#Attribution"/>
				<cc:permits rdf:resource="http://creativecommons.org/ns#DerivativeWorks"/>
				<cc:requires rdf:resource="http://creativecommons.org/ns#ShareAlike"/>
			</cc:License>
		</rdf:RDF>
	</metadata>
	<g id="22-22-touchpad_enabled" transform="translate(-1,27)">
		<rect style="opacity:.125;fill:none" height="22" width="22" y="-27" x="1"/>
		<path d="m3-24c-.554 0-1 .446-1 1v9h20v-9c0-.554-.446-1-1-1h-18zm-1 12v3c0 .554.446 1 1 1h8v-4h-9zm11 0v4h8c.554 0 1-.446 1-1v-3h-9z" style="opacity:.875;fill:currentColor" class="ColorScheme-Text"/>
	</g>
	<g id="22-22-touchpad_disabled" transform="translate(-1,27)">
		<rect style="opacity:.125;fill:none" height="22" width="22" y="-27" x="24"/>
		<path d="m26-24c-.554 0-1 .446-1 1v9h20v-9c0-.554-.446-1-1-1h-18zm-1 12v3c0 .554.446 1 1 1h8v-4h-9zm11 0v4h8c.554 0 1-.446 1-1v-3h-9z" style="opacity:.375;fill:currentColor" class="ColorScheme-Text"/>
	</g>
	<g id="touchpad_enabled">
		<rect style="fill:none" height="32" width="32" y="-34" x="0"/>
		<path d="m3-29c-.554 0-.96053.44741-1 1v14h28v-14c0-.554-.446-1-1-1zm-1 17v4c0 .554.446 1 1 1h12v-5zm15 0v5h12c.554 0 1-.446 1-1v-4z" style="opacity:.875;fill-rule:evenodd;fill:currentColor" class="ColorScheme-Text"/>
	</g>
	<g id="touchpad_disabled">
		<rect style="fill:none" height="32" width="32" y="-34" x="32"/>
		<path style="opacity:.375;fill-rule:evenodd;fill:currentColor" d="m35-29c-.554 0-.96053.44741-1 1v14h28v-14c0-.554-.446-1-1-1zm-1 17v4c0 .554.446 1 1 1h12v-5zm15 0v5h12c.554 0 1-.446 1-1v-4z" class="ColorScheme-Text"/>
	</g>
</svg>
