<?xml version="1.0" encoding="UTF-8"?>
<svg id="svg" version="1.1" viewBox="0 0 22 22" xmlns="http://www.w3.org/2000/svg" xmlns:cc="http://creativecommons.org/ns#" xmlns:dc="http://purl.org/dc/elements/1.1/" xmlns:rdf="http://www.w3.org/1999/02/22-rdf-syntax-ns#">
	<defs>
		<style id="current-color-scheme" type="text/css">.ColorScheme-Text { color:#0000FF; }</style>
	</defs>
	<metadata>
		<rdf:RDF>
			<cc:Work rdf:about="">
				<dc:format>image/svg+xml</dc:format>
				<dc:type rdf:resource="http://purl.org/dc/dcmitype/StillImage"/>
				<dc:creator>
					<cc:Agent>
						<dc:title>obnosim</dc:title>
					</cc:Agent>
				</dc:creator>
				<cc:license rdf:resource="http://creativecommons.org/licenses/by-sa/3.0/"/>
			</cc:Work>
			<cc:License rdf:about="http://creativecommons.org/licenses/by-sa/3.0/">
				<cc:permits rdf:resource="http://creativecommons.org/ns#Reproduction"/>
				<cc:permits rdf:resource="http://creativecommons.org/ns#Distribution"/>
				<cc:requires rdf:resource="http://creativecommons.org/ns#Notice"/>
				<cc:requires rdf:resource="http://creativecommons.org/ns#Attribution"/>
				<cc:permits rdf:resource="http://creativecommons.org/ns#DerivativeWorks"/>
				<cc:requires rdf:resource="http://creativecommons.org/ns#ShareAlike"/>
			</cc:License>
		</rdf:RDF>
	</metadata>
	<g id="22-22-view-history" class="ColorScheme-Text" style="opacity:.875">
		<rect width="22" height="22" style="fill:none"/>
		<path class="ColorScheme-Text" d="m8 16h8c0.6 0 1 0.4 1 1s-0.4 1-1 1h-8c-0.55 0-1-0.4-1-1s0.45-1 1-1zm0-4h9c0.6 0 1 0.4 1 1s-0.4 1-1 1h-9c-0.55 0-1-0.4-1-1s0.45-1 1-1zm0-4h10c0.6 0 1 0.45 1 1s-0.4 1-1 1h-10c-0.55 0-1-0.45-1-1s0.45-1 1-1zm0-4h11c0.6 0 1 0.45 1 1s-0.4 1-1 1h-11c-0.55 0-1-0.45-1-1s0.45-1 1-1zm-5 12h1c0.55 0 1 0.4 1 1s-0.45 1-1 1h-1c-0.55 0-1-0.4-1-1s0.45-1 1-1zm0-4h1c0.55 0 1 0.4 1 1s-0.45 1-1 1h-1c-0.55 0-1-0.4-1-1s0.45-1 1-1zm0-4h1c0.55 0 1 0.45 1 1s-0.45 1-1 1h-1c-0.55 0-1-0.45-1-1s0.45-1 1-1zm0-4h1c0.55 0 1 0.45 1 1s-0.45 1-1 1h-1c-0.55 0-1-0.45-1-1s0.45-1 1-1z" style="color:blue;fill:currentColor"/>
	</g>
	<g id="view-history" class="ColorScheme-Text" style="opacity:.875">
		<rect x="-4" y="26" width="31.9" height="31.9" style="fill:none;stroke-width:1.45"/>
		<path class="ColorScheme-Text" d="m7.96 50.9h10.94c0.6 0 1 0.5 1 1.1 0 0.5-0.4 1-1 1h-10.94c-0.55 0-1-0.5-1-1 0-0.6 0.45-1.1 1-1.1zm-5.97 0h0.98c0.56 0 1 0.5 1 1.1 0 0.5-0.44 1-1 1h-0.98c-0.57 0-1.002-0.5-1.002-1 0-0.6 0.432-1.1 1.002-1.1zm5.97-4.9h11.94c0.6 0 1 0.4 1 0.9 0 0.6-0.4 1-1 1h-11.94c-0.55 0-1-0.4-1-1 0-0.5 0.45-0.9 1-0.9zm0-5.1h12.94c0.6 0 1.1 0.5 1.1 1 0 0.6-0.5 1.1-1.1 1.1h-12.94c-0.55 0-1-0.5-1-1.1 0-0.5 0.45-1 1-1zm0-4.9h14.04c0.5 0 1 0.4 1 1 0 0.5-0.5 1-1 1h-14.04c-0.55 0-1-0.5-1-1 0-0.6 0.45-1 1-1zm-5.97 10h0.98c0.56 0 1 0.4 1 0.9 0 0.6-0.44 1-1 1h-0.98c-0.57 0-1.002-0.4-1.002-1 0-0.5 0.432-0.9 1.002-0.9zm0-5.1h0.98c0.56 0 1 0.5 1 1 0 0.6-0.44 1.1-1 1.1h-0.98c-0.57 0-1.002-0.5-1.002-1.1 0-0.5 0.432-1 1.002-1zm0-4.9h0.98c0.56 0 1 0.4 1 1 0 0.5-0.44 1-1 1h-0.98c-0.57 0-1.002-0.5-1.002-1 0-0.6 0.432-1 1.002-1zm5.97-5h15.04c0.4 0 1 0.4 1 1 0 0.5-0.6 1-1 1h-15.04c-0.55 0-1-0.5-1-1 0-0.6 0.45-1 1-1zm-5.97 0h0.98c0.56 0 1 0.4 1 1 0 0.5-0.44 1-1 1h-0.98c-0.57 0-1.002-0.5-1.002-1 0-0.6 0.432-1 1.002-1z" style="color:blue;fill:currentColor;stroke-width:1.45"/>
	</g>
	<g id="view-refresh" class="ColorScheme-Text" style="opacity:.875">
		<rect y="-23.2" width="22" height="22" style="fill:none"/>
		<path class="ColorScheme-Text" d="m11-18.7c-3.49 0.1-6.37 3-6.28 6.5 0 1.7 0.78 3.2 1.94 4.3 0 0.1 0.1 0.1 0.15 0.1 0.11 0 0.19-0.1 0.19-0.2s0-0.1-0.1-0.1c-0.97-1.1-1.53-2.6-1.44-4.1 0.15-2.7 2.32-4.9 5.04-5h0.5c2.6 0.1 4.7 2.4 4.5 5-0.1 2.2-2 4-4.2 4h-0.1-0.2c-0.8 0-1.54 0.7-1.54 1.5s0.74 1.5 1.54 1.5h0.3c3.6-0.3 6.6-3.3 6.5-7-0.1-3.6-3.2-6.6-6.8-6.5z" style="fill:currentColor"/>
	</g>
	<g id="view-barcode-qr" class="ColorScheme-Text" style="opacity:.875">
		<rect x="36" y="24" width="32" height="32" style="fill:none"/>
		<path d="m53 32h2v16h-2zm13 0h1v16h-1zm-3 0h1v16h-1zm-4 0h2v16h-2zm-2 0h1v16h-1zm-6 0h1v16h-1zm-4 0h3v16h-3zm-3 0h2v16h-2zm-2 0h1v16h-1zm-3 0h1v16h-1zm-2 0h1v16h-1z" style="fill:currentColor;stroke-dashoffset:.6;stroke-linecap:round;stroke-linejoin:round;stroke-width:2"/>
	</g>
	<g id="22-22-view-barcode-qr" class="ColorScheme-Text" style="opacity:.875">
		<rect x="41" y="1" width="22" height="22" style="fill:none"/>
		<path d="m57 4h1v16h-1zm-4 0h3v16h-3zm-3 0h2v16h-2zm-2 0h1v16h-1zm-3 0h1v16h-1zm-2 0h1v16h-1zm16 0h2v16h-2z" style="fill:currentColor;stroke-dashoffset:.6;stroke-linecap:round;stroke-linejoin:round;stroke-width:2"/>
	</g>
	<g id="16-16-view-refresh" class="ColorScheme-Text" style="opacity:.875">
		<rect x="-19" y="-20.2" width="16" height="16" style="fill:none"/>
		<path class="ColorScheme-Text" d="m-11-18.7c-3.5 0.1-6.4 3-6.3 6.5 0 1.7 0.8 3.2 2 4.3 0 0.1 0.1 0.1 0.1 0.1 0.1 0 0.2-0.1 0.2-0.2s0-0.1-0.1-0.1c-1-1.1-1.5-2.6-1.4-4.1 0.1-2.7 2.3-4.9 5-5h0.5c2.6 0.1 4.7 2.4 4.5 5-0.1 2.2-2 4-4.2 4h-0.1-0.2c-0.8 0-1.5 0.7-1.5 1.5s0.7 1.5 1.5 1.5h0.3c3.6-0.3 6.6-3.3 6.5-7-0.1-3.6-3.2-6.6-6.8-6.5z" style="fill:currentColor"/>
	</g>
</svg>
