<?xml version="1.0" encoding="UTF-8"?>
<svg version="1.1" viewBox="0 0 22 22" xmlns="http://www.w3.org/2000/svg" xmlns:cc="http://creativecommons.org/ns#" xmlns:dc="http://purl.org/dc/elements/1.1/" xmlns:rdf="http://www.w3.org/1999/02/22-rdf-syntax-ns#">
	<defs>
		<style id="current-color-scheme" type="text/css">.ColorScheme-Text { color:#0000FF; }</style>
	</defs>
	<metadata>
		<rdf:RDF>
			<cc:Work rdf:about="">
				<dc:format>image/svg+xml</dc:format>
				<dc:type rdf:resource="http://purl.org/dc/dcmitype/StillImage"/>
				<dc:creator>
					<cc:Agent>
						<dc:title>obnosim</dc:title>
					</cc:Agent>
				</dc:creator>
				<cc:license rdf:resource="http://creativecommons.org/licenses/by-sa/3.0/"/>
			</cc:Work>
			<cc:License rdf:about="http://creativecommons.org/licenses/by-sa/3.0/">
				<cc:permits rdf:resource="http://creativecommons.org/ns#Reproduction"/>
				<cc:permits rdf:resource="http://creativecommons.org/ns#Distribution"/>
				<cc:requires rdf:resource="http://creativecommons.org/ns#Notice"/>
				<cc:requires rdf:resource="http://creativecommons.org/ns#Attribution"/>
				<cc:permits rdf:resource="http://creativecommons.org/ns#DerivativeWorks"/>
				<cc:requires rdf:resource="http://creativecommons.org/ns#ShareAlike"/>
			</cc:License>
		</rdf:RDF>
	</metadata>
	<g id="22-22-vlc" class="ColorScheme-Text" style="opacity:.875">
		<rect width="22" height="22" style="fill:none"/>
		<path d="m1 1c-0.55 0-1 0.45-1 1v18c0 0.6 0.45 1 1 1h7.77a3 3 0 0 1-0.6-1h-5.17c-0.55 0-1-0.4-1-1s0.45-1 1-1h5.18a3 3 0 0 1 0.59-1h-6.77v-14h18v14h-6.8a3 3 0 0 1 0.6 1h5.2c0.6 0 1 0.4 1 1s-0.4 1-1 1h-5.2a3 3 0 0 1-0.6 1h7.8c0.6 0 1-0.4 1-1v-18c0-0.55-0.4-1-1-1zm8 5v8l6-4zm2 11a2 2 0 0 0-2 2 2 2 0 0 0 2 2 2 2 0 0 0 2-2 2 2 0 0 0-2-2z" style="fill-rule:evenodd;fill:currentColor;opacity:.875"/>
	</g>
	<g id="vlc" class="ColorScheme-Text" style="opacity:.875">
		<rect x="24" y="-10" width="32" height="32" style="fill:none"/>
		<path class="ColorScheme-Text" d="m26-7c-0.6 0-1 0.45-1 1v24c0 0.6 0.4 1 1 1h11.8a3 3 0 0 1-0.6-1h-9.2c-0.6 0-1-0.4-1-1s0.4-1 1-1h9.2a3 3 0 0 1 0.6-1h-10.8v-20h26v20h-10.8a3 3 0 0 1 0.6 1h9.2c0.6 0 1 0.4 1 1s-0.4 1-1 1h-9.2a3 3 0 0 1-0.6 1h11.8c0.6 0 1-0.4 1-1v-24c0-0.55-0.4-1-1-1zm11 7v10l8-5zm3 15a2 2 0 0 0-2 2 2 2 0 0 0 2 2 2 2 0 0 0 2-2 2 2 0 0 0-2-2z" style="fill-rule:evenodd;fill:currentColor;opacity:.875"/>
	</g>
	<g id="150-150-vlc" class="ColorScheme-Text" style="opacity:.875">
		<rect x="58" y="-129" width="150" height="150" style="fill:none"/>
		<path class="ColorScheme-Text" d="m67.4-115c-2.8 0-4.7 2-4.7 5v112.31c0 2.81 1.9 4.69 4.7 4.69h55.6a14.1 14.1 0 0 1-3-4.69h-43.2c-2.8 0-4.7-1.876-4.7-4.69 0-2.81 1.9-4.69 4.7-4.69h43.2a14.1 14.1 0 0 1 3-4.73h-50.9v-94.2h121.9v94.2h-51a14.1 14.1 0 0 1 3 4.73h43c3 0 5 1.88 5 4.69 0 2.814-2 4.69-5 4.69h-43a14.1 14.1 0 0 1-3 4.69h56c3 0 4-1.88 4-4.69v-112.31c0-3-1-5-4-5zm51.6 32.9v46.9l38-23.5zm14 70.3a9.38 9.38 0 0 0-9 9.42 9.38 9.38 0 0 0 9 9.38 9.38 9.38 0 0 0 9-9.38 9.38 9.38 0 0 0-9-9.42z" style="fill-rule:evenodd;fill:currentColor"/>
	</g>
	<g id="168-168-vlc" class="ColorScheme-Text" style="opacity:.875">
		<rect x="210" y="-146" width="168" height="168" style="fill:none"/>
		<path class="ColorScheme-Text" d="m228-123c-2 0-4 2-4 5v112.31c0 2.81 2 4.69 4 4.69h56a14.1 14.1 0 0 1-3-4.69h-43c-3 0-5-1.91-5-4.71s2-4.7 5-4.7h43a14.1 14.1 0 0 1 3-4.7h-51v-94.2h122v94.2h-51a14.1 14.1 0 0 1 3 4.7h43c3 0 5 1.9 5 4.7s-2 4.71-5 4.71h-43a14.1 14.1 0 0 1-3 4.69h56c3 0 4-1.88 4-4.69v-112.31c0-3-1-5-4-5zm52 32.9v46.9l38-23.5zm14 70.3a9.38 9.38 0 0 0-9 9.4 9.38 9.38 0 0 0 9 9.4 9.38 9.38 0 0 0 9-9.4 9.38 9.38 0 0 0-9-9.4z" style="fill-rule:evenodd;fill:currentColor"/>
	</g>
</svg>
