<?xml version="1.0" encoding="UTF-8" standalone="no"?>
<svg id="svg3439" xmlns:rdf="http://www.w3.org/1999/02/22-rdf-syntax-ns#" xmlns="http://www.w3.org/2000/svg" height="22" width="22" version="1.1" xmlns:cc="http://creativecommons.org/ns#" xmlns:dc="http://purl.org/dc/elements/1.1/">
	<defs id="defs3615">
		<style id="current-color-scheme" type="text/css">
			.ColorScheme-Text { color:#0000FF; }
		</style>
	</defs>
	<metadata id="metadata7">
		<rdf:RDF>
			<cc:Work rdf:about="">
				<dc:format>image/svg+xml</dc:format>
				<dc:type rdf:resource="http://purl.org/dc/dcmitype/StillImage"/>
				<dc:title/>
				<dc:creator>
					<cc:Agent>
						<dc:title>obnosim</dc:title>
					</cc:Agent>
				</dc:creator>
				<cc:license rdf:resource="http://creativecommons.org/licenses/by-sa/3.0/"/>
			</cc:Work>
			<cc:License rdf:about="http://creativecommons.org/licenses/by-sa/3.0/">
				<cc:permits rdf:resource="http://creativecommons.org/ns#Reproduction"/>
				<cc:permits rdf:resource="http://creativecommons.org/ns#Distribution"/>
				<cc:requires rdf:resource="http://creativecommons.org/ns#Notice"/>
				<cc:requires rdf:resource="http://creativecommons.org/ns#Attribution"/>
				<cc:permits rdf:resource="http://creativecommons.org/ns#DerivativeWorks"/>
				<cc:requires rdf:resource="http://creativecommons.org/ns#ShareAlike"/>
			</cc:License>
		</rdf:RDF>
	</metadata>
	<g id="weather-mist" style="opacity:.375" transform="translate(187,-109)">
		<rect style="fill:none" height="22" width="22" y="-3" x="-215"/>
		<path style="opacity:.875;fill:currentColor" class="ColorScheme-Text" d="m-209.5-2.5c-.9316 0-1.6995.63785-1.9219 1.5-.0259-.002-.0517 0-.0781 0-.55228 0-1 .44772-1 1 0 .0264-.002.05224 0 .07813-.86215.22234-1.5.99028-1.5 1.9219 0 1.1046.89543 2 2 2h6.25c.9665 0 1.75-.78350 1.75-1.75 0-.89306-.66709-1.6276-1.5312-1.7344.0188-.08605.0312-.17396.0312-.26562 0-.69036-.55964-1.25-1.25-1.25-.2957 0-.56722.10960-.78125.28125-.11-1.0007-.94-1.7812-1.97-1.7812zm11 6c-1.03 0-1.8589.78051-1.9688 1.7812-.21-.1716-.48-.2812-.78-.2812-.23012 0-.43981.079021-.625.1875.65355.56709 1.1631 1.2933 1.4688 2.125.32-.0953.56-.3125.91-.3125 1.745 0 3.1866 1.3204 3.4375 3h.06c1.1046 0 2-.89543 2-2 0-.93159-.63785-1.6839-1.5-1.9062.002-.02589 0-.06735 0-.09375 0-.55228-.44772-1-1-1-.0264 0-.0366-.002-.0625 0-.22233-.86215-1.0059-1.5-1.9375-1.5zm-4.5625 3.2188c-.55.2935-.94.8614-.94 1.5312 0 .96650.7835 1.75 1.75 1.75h4.1562c-.20115-.58920-.74104-1-1.4062-1-.3443 0-.66937.12872-.9375.34375a1.0001 1.0001 0 0 1 -1.625 -.6875c-.0858-.78189-.45269-1.4602-1-1.9375zm-1.94-1.7188c-1.8632 0-3.3991 1.2757-3.8438 3-.0518-.004-.10346 0-.15625 0-1.1046 0-2 .89543-2 2 0 .05279-.004.10449 0 .15625-1.7243.44467-3 1.9806-3 3.8438 0 2.2091 1.7909 4 4 4h12.5c1.933 0 3.5-1.567 3.5-3.5 0-1.7861-1.3342-3.2551-3.0625-3.4688.04-.172.06-.348.06-.531 0-1.3807-1.1193-2.5-2.5-2.5-.5914 0-1.1344.21921-1.5625.5625-.22-2.0015-1.88-3.5625-3.94-3.5625z"/>
	</g>
	<g id="weather-clear" transform="translate(187,-109)">
		<rect style="fill:none" height="22" width="22" y="-3" x="-187"/>
		<path style="opacity:.875;fill:currentColor" class="ColorScheme-Text" d="m-172.93 1.6878c-.13554.22677-.0493.55708.17946.68918.22878.13209.55773.041497.68656-.18918l1.567-3.7141zm2.7452 2.3792c-.23077.12862-.32124.45780-.18918.68657.13209.22879.46226.31481.68918.17946l3.2141-2.433zm1.18 3.433c-.26416-.004-.50712.23581-.50712.5 0 .26418.24293.50376.50712.49999l4-.49999zm-.68782 3.567c-.22677-.13554-.55709-.0493-.68918.17945-.13209.22879-.0415.55774.18918.68658l3.7141 1.567zm-2.3792 2.7452c-.12861-.23076-.45778-.32127-.68657-.18918s-.31477.46229-.17945.68918l2.433 3.2141zm-3.433 1.1878c.004-.26416-.23581-.50712-.5-.50712-.26418 0-.50376.24293-.49999.50712l.49999 4zm-3.567-.68782c.13554-.22677.0493-.55709-.17945-.68918-.22879-.13209-.55774-.0415-.68658.18918l-1.567 3.7141zm-2.7452-2.3792c.23076-.12861.32127-.45778.18918-.68657s-.46229-.31477-.68918-.17945l-3.2141 2.433zm-1.18-3.433c.26416.004.50712-.23582.50712-.5s-.24293-.50376-.50712-.5l-4 .5zm.68782-3.567c.22677.13554.55709.049338.68918-.17945s.0415-.55773-.18918-.68657l-3.7141-1.567zm2.3792-2.7452c.12861.23077.45778.32127.68657.18918s.31477-.46228.17945-.68918l-2.44-3.2141zm3.43-1.1878c-.004.26416.23582.50712.5.50712s.50374-.24296.5-.50712l-.5-4zm6.5 7c0 3.3137-2.6863 6-6 6s-6-2.6863-6-6 2.6863-6 6-6 6 2.6863 6 6z"/>
	</g>
	<g id="weather-clear-night" transform="translate(187,-109)">
		<rect style="fill:none" height="22" width="22" y="-3" x="-159"/>
		<path style="opacity:.875;fill:currentColor" d="m-148 0c-4.4183 0-8 3.5817-8 8s3.5817 8 8 8 8-3.5817 8-8c0-.37764-.0327-.76129-.0833-1.125-.43 2.8955-2.91 5.125-5.92 5.125-3.3137 0-6-2.6863-6-6 0-3.014 2.2295-5.49 5.125-5.9167-.36-.050286-.74-.083-1.12-.083z" class="ColorScheme-Text"/>
	</g>
	<g id="weather-many-clouds" transform="translate(187,-109)">
		<rect style="fill:none" height="22" width="22" y="25" x="-215"/>
		<path style="opacity:.875;fill:currentColor" d="m-205 29c-1.8632 0-3.3991 1.2757-3.8438 3-.0518-.004-.10346 0-.15625 0-1.1046 0-2 .89543-2 2 0 .05279-.004.10449 0 .15625-1.7243.44467-3 1.9806-3 3.8438 0 2.2091 1.7909 4 4 4h12.5c1.933 0 3.5-1.567 3.5-3.5 0-1.7861-1.3342-3.2551-3.0625-3.4688.04-.172.06-.348.06-.531 0-1.3807-1.1193-2.5-2.5-2.5-.5914 0-1.1344.21921-1.5625.5625-.22-2.001-1.88-3.562-3.94-3.562z" class="ColorScheme-Text"/>
	</g>
	<g id="weather-clouds" transform="translate(187,-109)">
		<rect style="fill:none" height="22" width="22" y="25" x="-187"/>
		<path style="opacity:.875;fill:currentColor" class="ColorScheme-Text" d="m-173 25-.375 2.9062c-.003.19211.18287.375.375.375s.37772-.18289.375-.375zm-4 1.0625 1.125 2.7188c.0935.16783.33361.22106.5.125.1664-.09607.25467-.33498.15625-.5zm8 0-1.7812 2.3438c-.0986.16492-.0102.40393.15625.5.16639.09606.40631.04277.5-.125zm-4 2.5625c-1.2764 0-2.4208.56394-3.2188 1.4375 1.7802.29616 3.2011 1.5866 3.8125 3.25.32-.095.56-.312.91-.312 1.0714 0 2.0195.51071 2.6562 1.2812.1275-.40992.21875-.82938.21875-1.2812 0-2.41-1.965-4.375-4.375-4.375zm-6.9375.375 1.5938 1.2188c.29536-.08723.58881-.15874.90625-.1875zm13.875 0-2.7188 1.125c-.16783.09354-.22104.33362-.125.5.0961.16639.33496.25469.5.15625zm-1.8438 3.625c-.19212-.0029-.375.18286-.375.375 0 .19213.18286.37774.375.375l2.9-.374zm-.3125 2.7188c.096.26968.12843.54941.15625.84375l2 .8125zm-8.79-4.343c-1.8632 0-3.3991 1.2757-3.8438 3-.0518-.004-.10346 0-.15625 0-1.1046 0-2 .89543-2 2 0 .05279-.004.10449 0 .15625-1.7243.44467-3 1.9806-3 3.8438 0 2.2091 1.7909 4 4 4h12.5c1.933 0 3.5-1.567 3.5-3.5 0-1.7861-1.3342-3.2551-3.0625-3.4688.04-.172.06-.348.06-.531 0-1.3807-1.1193-2.5-2.5-2.5-.5914 0-1.1344.21921-1.5625.5625-.22-2.001-1.88-3.562-3.94-3.562z"/>
	</g>
	<g id="weather-clouds-night" transform="translate(187,-109)">
		<rect style="fill:none" height="22" width="22" y="25" x="-159"/>
		<path style="opacity:.875;fill:currentColor" class="ColorScheme-Text" d="m-144 26c-2.6337 0-4.8489 1.7024-5.6562 4.0625.22-.029.44-.062.66-.062.71754 0 1.3948.15542 2 .4375.0316-2.2312 1.6929-4.0581 3.8438-4.375-.27-.037-.56-.062-.84-.062zm5.9375 5.1562c-.22412 1.521-1.2198 2.7782-2.5625 3.4062.34154.51005.55697 1.1027.59375 1.75.0447.01567.081.04554.125.0625 1.16-1.095 1.9-2.646 1.9-4.375 0-.28323-.0245-.57097-.0625-.84375zm-10.94-.156c-1.8632 0-3.3991 1.2757-3.8438 3-.0518-.004-.10346 0-.15625 0-1.1046 0-2 .89543-2 2 0 .05279-.004.10449 0 .15625-1.7243.44467-3 1.9806-3 3.8438 0 2.2091 1.7909 4 4 4h12.5c1.933 0 3.5-1.567 3.5-3.5 0-1.7861-1.3342-3.2551-3.0625-3.4688.04-.172.06-.348.06-.531 0-1.3807-1.1193-2.5-2.5-2.5-.5914 0-1.1344.21921-1.5625.5625-.22-2.001-1.88-3.562-3.94-3.562z"/>
	</g>
	<g id="weather-few-clouds" transform="translate(131,-109)">
		<rect style="fill:none" height="22" width="22" y="53" x="-159"/>
		<path style="opacity:.875;fill:currentColor" d="m-142.5 57.5c.9316 0 1.6995.63784 1.9219 1.5.0259-.002.0517 0 .0781 0 .55228 0 1 .44772 1 1 0 .0264.002.05224 0 .07813.86215.22234 1.5.99028 1.5 1.9219 0 1.1046-.89543 2-2 2h-6.25c-.9665 0-1.75-.78350-1.75-1.75 0-.89306.66709-1.6276 1.5312-1.7344-.0187-.08605-.0312-.17396-.0312-.26562 0-.69036.55965-1.25 1.25-1.25.2957 0 .56722.10960.78125.28125.10981-1.0007.93873-1.7813 1.9687-1.7813zm-11 8c-.9316 0-1.6995.63784-1.9219 1.5-.0259-.002-.0517 0-.0781 0-.55228 0-1 .44772-1 1 0 .0264-.002.05224 0 .07813-.86215.22234-1.5.99028-1.5 1.9219 0 1.1046.89543 2 2 2h6.25c.9665 0 1.75-.78350 1.75-1.75 0-.89306-.66709-1.6276-1.5312-1.7344.0187-.08605.0312-.17396.0312-.26562 0-.69036-.55965-1.25-1.25-1.25-.2957 0-.56722.10960-.78125.28125-.11-1-.94-1.781-1.97-1.781z" class="ColorScheme-Text"/>
	</g>
	<g id="weather-few-clouds-day" transform="translate(187,-109)">
		<rect style="fill:none" height="22" width="22" y="53" x="-187"/>
		<path style="opacity:.875;fill:currentColor" class="ColorScheme-Text" d="m-176 53-.5 4c-.004.26416.23582.5.5.5s.50374-.23584.5-.5zm-5.5 1.4688 1.5625 3.7188c.12861.23077.45871.31959.6875.1875s.32282-.46060.1875-.6875zm11 0-2.4375 3.2188c-.0796.13323-.0574.29399 0 .4375.35649-.62745.85523-1.1663 1.5-1.4375zm-5.5 3.531c-3.3137 0-6 2.6863-6 6 0 .17612.0164.35898.0312.53125.15402-.02927.30304-.03125.46875-.03125 1.1088 0 1.9241.72135 2.4375 1.625.11624-.01926.19018-.125.3125-.125 1.1106 0 1.9524.87110 2.125 1.9375.80798.39791 1.4551 1.0754 1.5938 1.9688 2.533-.40821 4.5166-2.3775 4.9375-4.9062h-4.1562c-1.5069 0-2.75-1.2431-2.75-2.75 0-1.0758.71238-1.8631 1.625-2.3125.1156-.71405.52958-1.3202 1.125-1.6562-.56-.169-1.14-.281-1.75-.281zm-9.5312.5 3.2188 2.4375c.22677.13554.55541.04129.6875-.1875s.0432-.55866-.1875-.6875zm19.062 0-.65625.28125c.0389.04425.0903.07668.125.125zm-16.531 5-4 .5 4 .5c.26416.004.5-.23582.5-.5s-.23581-.50376-.5-.5zm17.312.40625c-.0563.0681-.12554.12457-.1875.1875l.88-.094zm-4.19 3.094c-.19476-.0222-.40093.07844-.5.25-.13209.22879-.0432.55866.1875.6875l3.7188 1.5625-3.2188-2.4375c-.0567-.03388-.12258-.0551-.1875-.0625zm-2.6876 2.5625c-.065.0065-.1303.02948-.1875.0625-.22879.13209-.32282.46061-.1875.6875l2.4375 3.2188-1.5625-3.7188c-.0965-.17307-.30487-.26945-.5-.25zm-3.0625 2.4062c-.19227.23624-.42884.43121-.6875.59375l.32 2.438.375-3.0312zm-5.65 1.032-.22.531.41-.531zm10.781-15.5c.9316 0 1.6995.63784 1.9219 1.5.0259-.002.0517 0 .0781 0 .55228 0 1 .44772 1 1 0 .0264.002.05224 0 .07813.86215.22234 1.5.99028 1.5 1.9219 0 1.1046-.89543 2-2 2h-6.25c-.9665 0-1.75-.78350-1.75-1.75 0-.89306.66709-1.6276 1.5312-1.7344-.0187-.08605-.0312-.17396-.0312-.26562 0-.69036.55965-1.25 1.25-1.25.2957 0 .56722.10960.78125.28125.10981-1.0007.93873-1.7813 1.9687-1.7813zm-11 8c-.9316 0-1.6995.63784-1.9219 1.5-.0259-.002-.0517 0-.0781 0-.55228 0-1 .44772-1 1 0 .0264-.002.05224 0 .07813-.86215.22234-1.5.99028-1.5 1.9219 0 1.1046.89543 2 2 2h6.25c.9665 0 1.75-.78350 1.75-1.75 0-.89306-.66709-1.6276-1.5312-1.7344.0187-.08605.0312-.17396.0312-.26562 0-.69036-.55965-1.25-1.25-1.25-.2957 0-.56722.10960-.78125.28125-.11-1-.94-1.781-1.97-1.781z"/>
	</g>
	<g id="weather-few-clouds-night" transform="translate(187,-109)">
		<rect style="fill:none" height="22" width="22" y="53" x="-159"/>
		<path style="opacity:.875;fill:currentColor" class="ColorScheme-Text" d="m-148 56c-4.4183 0-8 3.5817-8 8 0 .63270.0799 1.2534.21875 1.8438.51642-.77336 1.2844-1.3438 2.2812-1.3438 1.1088 0 1.9241.72135 2.4375 1.625.11624-.01926.19018-.125.3125-.125.10698 0 .21087.01569.3125.03125-.97-1.065-1.56-2.478-1.56-4.031 0-3.014 2.2295-5.4796 5.125-5.9062-.36-.051-.74-.094-1.12-.094zm7.1875 9c-1.0322 1.7948-2.9671 3-5.1875 3-1.0109 0-1.9768-.24596-2.8125-.6875.0896.19810.15175.40415.1875.625.91262.44944 1.625 1.2367 1.625 2.3125 0 .66708-.25401 1.2713-.65625 1.75 3.9203-.16787 7.1141-3.1684 7.5938-7zm-1.6875-7.5c.9316 0 1.6995.63784 1.9219 1.5.0259-.002.0517 0 .0781 0 .55228 0 1 .44772 1 1 0 .0264.002.05224 0 .07813.86215.22234 1.5.99028 1.5 1.9219 0 1.1046-.89543 2-2 2h-6.25c-.9665 0-1.75-.78350-1.75-1.75 0-.89306.66709-1.6276 1.5312-1.7344-.0187-.08605-.0312-.17396-.0312-.26562 0-.69036.55965-1.25 1.25-1.25.2957 0 .56722.10960.78125.28125.10981-1.0007.93873-1.7813 1.9687-1.7813zm-11 8c-.9316 0-1.6995.63784-1.9219 1.5-.0259-.002-.0517 0-.0781 0-.55228 0-1 .44772-1 1 0 .0264-.002.05224 0 .07813-.86215.22234-1.5.99028-1.5 1.9219 0 1.1046.89543 2 2 2h6.25c.9665 0 1.75-.78350 1.75-1.75 0-.89306-.66709-1.6276-1.5312-1.7344.0187-.08605.0312-.17396.0312-.26562 0-.69036-.55965-1.25-1.25-1.25-.2957 0-.56722.10960-.78125.28125-.11-1-.94-1.781-1.97-1.781z"/>
	</g>
	<g id="weather-showers" transform="translate(187,-109)">
		<rect style="fill:none" height="22" width="22" y="81" x="-215"/>
		<path style="opacity:.875;fill:currentColor" class="ColorScheme-Text" d="m-199.53 94.844.96875.28125.125-.5-.96875-.25zm-.28125.96875.96875.28125.125-.5-.9375-.25zm-.25.96875.96875.25.125-.46875-.96875-.25zm-.25.96875.96875.25.125-.46875-.96875-.25zm-.25.96875.9375.25.15625-.46875-.96875-.28125zm-.28125.96875.96875.25.125-.46875-.96875-.28125zm-.25.96875.96875.25.125-.46875-.96875-.28125zm-.43755-5.8125.96875.28125.125-.5-.96875-.25zm-.28125.96875.96875.28125.125-.5-.9375-.25zm-.25.96875.96875.25.125-.46875-.96875-.25zm-.25.96875.96875.25.125-.46875-.96875-.25zm-.25.96875.9375.25.15625-.46875-.96875-.28125zm-.28125.96875.96875.25.125-.46875-.96875-.28125zm-.25.96875.96875.25.125-.46875-.96875-.28125zm-.25.96875.96875.25.125-.46875-.96875-.28125zm-.18755-6.7812.96875.28125.125-.5-.96875-.25zm-.28125.96875.96875.28125.125-.5-.9375-.25zm-.25.96875.96875.25.125-.46875-.96875-.25zm-.25.96875.96875.25.125-.46875-.96875-.25zm-.25.96875.9375.25.15625-.46875-.96875-.28125zm-.28125.96875.96875.25.125-.46875-.96875-.28125zm-.25.96875.96875.25.125-.46875-.96875-.28125zm-.25.96875.96875.25.125-.46875-.96875-.28125zm-.21875.75.96875.25.0625-.28125-.9375-.25zm.0312-7.5312.96875.28125.125-.5-.96875-.25zm-.28125.96875.96875.28125.125-.5-.9375-.25zm-.25.96875.96875.25.125-.46875-.96875-.25zm-.25.96875.96875.25.125-.46875-.96875-.25zm-.25.96875.9375.25.15625-.46875-.96875-.28125zm-.28125.96875.96875.25.125-.46875-.96875-.28125zm-.25.96875.96875.25.125-.46875-.96875-.28125zm-.25.96875.96875.25.125-.46875-.96875-.28125zm-.21875.75.96875.25.0625-.28125-.9375-.25zm.0312-7.5312.96875.28125.125-.5-.96875-.25zm-.28125.96875.96875.28125.125-.5-.9375-.25zm-.25.96875.96875.25.125-.46875-.96875-.25zm-.25.96875.96875.25.125-.46875-.96875-.25zm-.25.96875.9375.25.15625-.46875-.96875-.28125zm-.28125.96875.96875.25.125-.46875-.96875-.28125zm-.25.96875.96875.25.125-.46875-.96875-.28125zm-.25.96875.96875.25.125-.46875-.96875-.28125zm-.18755-6.7812.96875.28125.125-.5-.96875-.25zm-.28125.96875.96875.28125.125-.5-.9375-.25zm-.25.96875.96875.25.125-.46875-.96875-.25zm-.25.96875.96875.25.125-.46875-.96875-.25zm-.25.96875.9375.25.15625-.46875-.96875-.28125zm-.28125.96875.96875.25.125-.46875-.96875-.28125zm-.25.96875.96875.25.125-.46875-.96875-.28125zm6.19-17.66c-1.6769 0-3.0591 1.0794-3.4593 2.5385-.0466-.004-.0931 0-.14067 0-.99413 0-1.8001.75767-1.8001 1.6923 0 .04465-.004.08846 0 .13222-1.55.376-2.7 1.676-2.7 3.252 0 1.87 1.61 3.385 3.6 3.385h11.25c1.7397 0 3.1499-1.3259 3.1499-2.9615 0-1.5113-1.2006-2.7543-2.7562-2.9351.0335-.14562.0558-.29440.0558-.44953 0-1.1683-1.0074-2.1154-2.25-2.1154-.53226 0-1.0209.18549-1.4063.47596-.19-1.693-1.69-3.014-3.54-3.014z"/>
	</g>
	<g id="weather-showers-day" transform="translate(187,-109)">
		<rect style="fill:none" height="22" width="22" y="81" x="-187"/>
		<path style="opacity:.875;fill:currentColor" class="ColorScheme-Text" d="m-169 81-.1875 1.4688c-.001.09606.0914.15625.1875.15625s.18886-.06019.1875-.15625zm-2 .53125.5625 1.3438c.0468.08391.1668.14178.25.09375s.11176-.16749.0625-.25zm4 0-.875 1.1875c-.0493.08246-.0207.20196.0625.25.0832.04803.20315-.0099.25-.09375zm-2 1.2812c-1.086 0-1.9577.80495-2.125 1.8438 1.1924.31663 2.1347 1.2777 2.3438 2.5 1.1002-.11173 1.9688-1.0266 1.9688-2.1562 0-1.205-.98251-2.1875-2.1875-2.1875zm-3.4688.1875 1.1875.875c.0825.04929.20197.02069.25-.0625.048-.0832-.01-.20315-.0937-.25zm6.9375 0-1.3438.5625c-.0839.04677-.14176.16681-.0937.25.048.0832.16748.11172.25.0625l1.18-.874zm-.9375 1.8125c-.096-.0015-.15625.09143-.15625.1875 0 .09606.0601.18887.15625.1875l1.47-.187zm-.375 1.2812c-.0463.01209-.10099.05215-.125.09375-.048.0832.01.20315.0937.25l1.3438.5625-1.1875-.875c-.0412-.02465-.0787-.04334-.125-.03125zm-.96875.9375c-.0832.048-.11176.16749-.0625.25l.875 1.1875-.5625-1.3438c-.0468-.0839-.1668-.14178-.25-.09375zm-3.7188 7.8125.96875.28125.125-.5-.96875-.25zm-.28125.96875.96875.28125.125-.5-.9375-.25zm-.25.96875.96875.25.125-.46875-.96875-.25zm-.25.96875.96875.25.125-.46875-.96875-.25zm-.25.96875.9375.25.15625-.46875-.96875-.28125zm-.28125.96875.96875.25.125-.46875-.96875-.28125zm-.25.96875.96875.25.125-.46875-.96875-.28125zm-.43755-5.8125.96875.28125.125-.5-.96875-.25zm-.28125.96875.96875.28125.125-.5-.9375-.25zm-.25.96875.96875.25.125-.46875-.96875-.25zm-.25.96875.96875.25.125-.46875-.96875-.25zm-.25.96875.9375.25.15625-.46875-.96875-.28125zm-.28125.96875.96875.25.125-.46875-.96875-.28125zm-.25.96875.96875.25.125-.46875-.96875-.28125zm-.25.96875.96875.25.125-.46875-.96875-.28125zm-.18755-6.7812.96875.28125.125-.5-.96875-.25zm-.28125.96875.96875.28125.125-.5-.9375-.25zm-.25.96875.96875.25.125-.46875-.96875-.25zm-.25.96875.96875.25.125-.46875-.96875-.25zm-.25.96875.9375.25.15625-.46875-.96875-.28125zm-.28125.96875.96875.25.125-.46875-.96875-.28125zm-.25.96875.96875.25.125-.46875-.96875-.28125zm-.25.96875.96875.25.125-.46875-.96875-.28125zm-.21875.75.96875.25.0625-.28125-.9375-.25zm.0312-7.5312.96875.28125.125-.5-.96875-.25zm-.28125.96875.96875.28125.125-.5-.9375-.25zm-.25.96875.96875.25.125-.46875-.96875-.25zm-.25.96875.96875.25.125-.46875-.96875-.25zm-.25.96875.9375.25.15625-.46875-.96875-.28125zm-.28125.96875.96875.25.125-.46875-.96875-.28125zm-.25.96875.96875.25.125-.46875-.96875-.28125zm-.25.96875.96875.25.125-.46875-.96875-.28125zm-.21875.75.96875.25.0625-.28125-.9375-.25zm.0312-7.5312.96875.28125.125-.5-.96875-.25zm-.28125.96875.96875.28125.125-.5-.9375-.25zm-.25.96875.96875.25.125-.46875-.96875-.25zm-.25.96875.96875.25.125-.46875-.96875-.25zm-.25.96875.9375.25.15625-.46875-.96875-.28125zm-.28125.96875.96875.25.125-.46875-.96875-.28125zm-.25.96875.96875.25.125-.46875-.96875-.28125zm-.25.96875.96875.25.125-.46875-.96875-.28125zm-.18755-6.7812.96875.28125.125-.5-.96875-.25zm-.28125.96875.96875.28125.125-.5-.9375-.25zm-.25.96875.96875.25.125-.46875-.96875-.25zm-.25.96875.96875.25.125-.46875-.96875-.25zm-.25.96875.9375.25.15625-.46875-.96875-.28125zm-.28125.96875.96875.25.125-.46875-.96875-.28125zm-.25.96875.96875.25.125-.46875-.96875-.28125zm6.19-17.66c-1.6769 0-3.0591 1.0794-3.4593 2.5385-.0466-.004-.0931 0-.14067 0-.99413 0-1.8001.75767-1.8001 1.6923 0 .04465-.004.08846 0 .13222-1.55.376-2.7 1.676-2.7 3.252 0 1.87 1.61 3.385 3.6 3.385h11.25c1.7397 0 3.1499-1.3259 3.1499-2.9615 0-1.5113-1.2006-2.7543-2.7562-2.9351.0335-.14562.0558-.29440.0558-.44953 0-1.1683-1.0074-2.1154-2.25-2.1154-.53226 0-1.0209.18549-1.4063.47596-.19-1.693-1.69-3.014-3.54-3.014z"/>
	</g>
	<g id="weather-showers-night" transform="translate(187,-109)">
		<rect style="fill:none" height="22" width="22" y="81" x="-159"/>
		<path style="opacity:.875;fill:currentColor" class="ColorScheme-Text" d="m-141 81c-1.9866 0-3.6256 1.4454-3.9375 3.3438.0785.14261.15584.28617.21875.4375.26804-.07101.48883-.25.78125-.25.36698 0 .70154.07416 1.0312.1875-.05-.234-.09-.467-.09-.719 0-1.507 1.1148-2.7554 2.5625-2.9688-.18-.025-.37-.031-.56-.031zm3.9688 3.4375c-.21 1.447-1.46 2.562-2.97 2.562-.31066 0-.59318-.0686-.875-.15625.0473.16954.10715.35148.125.53125.66155.23263 1.2549.60299 1.7188 1.0938 1.21-.687 2.03-1.975 2.03-3.469 0-.18882-.006-.38065-.0312-.5625zm-6.5 10.406.96875.28125.125-.5-.96875-.25zm-.28125.96875.96875.28125.125-.5-.9375-.25zm-.25.96875.96875.25.125-.46875-.96875-.25zm-.25.96875.96875.25.125-.46875-.96875-.25zm-.25.96875.9375.25.15625-.46875-.96875-.28125zm-.28125.96875.96875.25.125-.46875-.96875-.28125zm-.25.96875.96875.25.125-.46875-.96875-.28125zm-.43755-5.8125.96875.28125.125-.5-.96875-.25zm-.28125.96875.96875.28125.125-.5-.9375-.25zm-.25.96875.96875.25.125-.46875-.96875-.25zm-.25.96875.96875.25.125-.46875-.96875-.25zm-.25.96875.9375.25.15625-.46875-.96875-.28125zm-.28125.96875.96875.25.125-.46875-.96875-.28125zm-.25.96875.96875.25.125-.46875-.96875-.28125zm-.25.96875.96875.25.125-.46875-.96875-.28125zm-.18755-6.7812.96875.28125.125-.5-.96875-.25zm-.28125.96875.96875.28125.125-.5-.9375-.25zm-.25.96875.96875.25.125-.46875-.96875-.25zm-.25.96875.96875.25.125-.46875-.96875-.25zm-.25.96875.9375.25.15625-.46875-.96875-.28125zm-.28125.96875.96875.25.125-.46875-.96875-.28125zm-.25.96875.96875.25.125-.46875-.96875-.28125zm-.25.96875.96875.25.125-.46875-.96875-.28125zm-.21875.75.96875.25.0625-.28125-.9375-.25zm.0312-7.5312.96875.28125.125-.5-.96875-.25zm-.28125.96875.96875.28125.125-.5-.9375-.25zm-.25.96875.96875.25.125-.46875-.96875-.25zm-.25.96875.96875.25.125-.46875-.96875-.25zm-.25.96875.9375.25.15625-.46875-.96875-.28125zm-.28125.96875.96875.25.125-.46875-.96875-.28125zm-.25.96875.96875.25.125-.46875-.96875-.28125zm-.25.96875.96875.25.125-.46875-.96875-.28125zm-.21875.75.96875.25.0625-.28125-.9375-.25zm.0312-7.5312.96875.28125.125-.5-.96875-.25zm-.28125.96875.96875.28125.125-.5-.9375-.25zm-.25.96875.96875.25.125-.46875-.96875-.25zm-.25.96875.96875.25.125-.46875-.96875-.25zm-.25.96875.9375.25.15625-.46875-.96875-.28125zm-.28125.96875.96875.25.125-.46875-.96875-.28125zm-.25.96875.96875.25.125-.46875-.96875-.28125zm-.25.96875.96875.25.125-.46875-.96875-.28125zm-.18755-6.7812.96875.28125.125-.5-.96875-.25zm-.28125.96875.96875.28125.125-.5-.9375-.25zm-.25.96875.96875.25.125-.46875-.96875-.25zm-.25.96875.96875.25.125-.46875-.96875-.25zm-.25.96875.9375.25.15625-.46875-.96875-.28125zm-.28125.96875.96875.25.125-.46875-.96875-.28125zm-.25.96875.96875.25.125-.46875-.96875-.28125zm6.19-17.66c-1.6769 0-3.0591 1.0794-3.4593 2.5385-.0466-.004-.0931 0-.14067 0-.99413 0-1.8001.75767-1.8001 1.6923 0 .04465-.004.08846 0 .13222-1.55.376-2.7 1.676-2.7 3.252 0 1.87 1.61 3.385 3.6 3.385h11.25c1.7397 0 3.1499-1.3259 3.1499-2.9615 0-1.5113-1.2006-2.7543-2.7562-2.9351.0335-.14562.0558-.29440.0558-.44953 0-1.1683-1.0074-2.1154-2.25-2.1154-.53226 0-1.0209.18549-1.4063.47596-.19-1.693-1.69-3.014-3.54-3.014z"/>
	</g>
	<g id="weather-showers-scattered" transform="translate(187,-109)">
		<rect style="fill:none" height="22" width="22" y="109" x="-215"/>
		<path style="opacity:.875;fill:currentColor" class="ColorScheme-Text" d="m-204.5 115.5c-.9316 0-1.7152.63785-1.9375 1.5-.0259-.002-.0361 0-.0625 0-.55228 0-1 .44772-1 1 0 .0264-.002.0366 0 .0625-.86215.22234-1.5 1.0059-1.5 1.9375 0 1.1046.89543 2 2 2h6.25c.9665 0 1.75-.78351 1.75-1.75 0-.89306-.66709-1.6432-1.5312-1.75.0187-.0861.0312-.15834.0312-.25 0-.69036-.55965-1.25-1.25-1.25-.2957 0-.56722.1096-.78125.28125-.10971-1.0007-.93871-1.7812-1.9687-1.7812zm-1.7812 6.875-.125.46875.96875.28125.125-.5zm2 0-.125.46875.96875.28125.125-.5zm2 0-.125.46875.96875.28125.125-.5zm-4.25.96875-.125.46875.9375.28125.15625-.5zm2 0-.125.46875.9375.28125.15625-.5zm2 0-.125.46875.9375.28125.15625-.5zm-4.2812.96875-.125.46875.96875.25.125-.46875zm2 0-.125.46875.96875.25.125-.46875zm2 0-.125.46875.96875.25.125-.46875zm-4.25.96875-.125.46875.96875.25.125-.46875zm2 0-.125.46875.96875.25.125-.46875zm2 0-.125.46875.96875.25.125-.46875zm-4.25.9375-.125.5.96875.25.125-.46875zm2 0-.125.5.96875.25.125-.46875zm-.25.96875-.15625.5.96875.25.125-.46875z"/>
	</g>
	<g id="weather-showers-scattered-day" transform="translate(187,-109)">
		<rect style="fill:none" height="22" width="22" y="109" x="-187"/>
		<path style="opacity:.875;fill:currentColor" class="ColorScheme-Text" d="m-172 109-.28125 2.1875c-.001.14415.13707.28125.28125.28125.14415 0 .28329-.13709.28125-.28125l-.28-2.19zm-3 .8125.84375 2.0312c.0702.12585.2502.16578.375.0937.1248-.072.16764-.25126.0937-.375l-1.3125-1.75zm6 0-1.3125 1.75c-.0739.12375-.0309.30295.0937.375.1248.072.30472.0321.375-.0937l.84-2.03zm-3 1.9062c-1.8075 0-3.2812 1.4738-3.2812 3.2812 0 1.8075 1.4738 3.2812 3.2812 3.2812 1.8075 0 3.2812-1.4738 3.2812-3.2812 0-1.8075-1.4738-3.2812-3.2812-3.2812zm-5.1875.28125 1.75 1.3125c.12375.0739.30295.031.375-.0937.072-.1248.032-.30472-.0937-.375l-2.03-.84zm10.375 0-2.0312.84375c-.12585.0702-.16576.25021-.0937.375.072.1248.25122.16747.375.0937l1.75-1.3125zm-9 2.7188l-2.18.28 2.1875.28125c.144.002.28125-.13722.28125-.28125 0-.14415-.1371-.28331-.28125-.28125zm7.625 0c-.144-.002-.28125.13722-.28125.28125 0 .14415.1371.28331.28125.28125l2.2-.28-2.1875-.28125zm-7.0625 1.9375c-.0695-.0181-.12562-.006-.1875.0312l-1.75 1.3125 2.0312-.84375c.12585-.0702.16579-.2502.0937-.375-.036-.0624-.11799-.1069-.1875-.125zm6.5 0c-.0695.0181-.15148.0627-.1875.125-.072.1248-.032.30473.0937.375l2.0312.84375-1.75-1.3125c-.0619-.037-.118-.0494-.1875-.0312zm-11.74.84c-.9316 0-1.7152.63785-1.9375 1.5-.0259-.002-.0361 0-.0625 0-.55228 0-1 .44772-1 1 0 .0264-.002.0366 0 .0625-.86215.22234-1.5 1.0059-1.5 1.9375 0 1.1046.89543 2 2 2h6.25c.9665 0 1.75-.78351 1.75-1.75 0-.89306-.66709-1.6432-1.5312-1.75.0187-.0861.0312-.15834.0312-.25 0-.69036-.55965-1.25-1.25-1.25-.2957 0-.56722.1096-.78125.28125-.10971-1.0007-.93871-1.7812-1.9687-1.7812zm6.5312.53125c-.0692.0191-.15236.0621-.1875.125l-.84 2.03 1.3125-1.75c.0739-.12375.0308-.30294-.0937-.375-.0624-.036-.11826-.0503-.1875-.0312zm3.9375 0c-.0693-.0191-.1251-.005-.1875.0312-.1248.072-.16764.25124-.0937.375l1.3125 1.75-.84375-2.0312c-.0351-.0629-.11825-.10593-.1875-.125zm-1.9688.5c-.14415 0-.2833.13709-.28125.28125l.28 2.19.28125-2.1875c.002-.14415-.13708-.28125-.28125-.28125zm-10.281 5.8438-.125.46875.96875.28125.125-.5-.96875-.25zm2 0-.125.46875.96875.28125.125-.5-.96875-.25zm2 0-.125.46875.96875.28125.125-.5-.96875-.25zm-4.25.96875-.125.46875.9375.28125.15625-.5-.96875-.25zm2 0-.125.46875.9375.28125.15625-.5-.96875-.25zm2 0-.125.46875.9375.28125.15625-.5-.96875-.25zm-4.2812.96875-.125.46875.96875.25.125-.46875-.96875-.25zm2 0-.125.46875.96875.25.125-.46875-.96875-.25zm2 0-.125.46875.96875.25.125-.46875-.96875-.25zm-4.25.96875-.125.46875.96875.25.125-.46875-.96875-.25zm2 0-.125.46875.96875.25.125-.46875-.96875-.25zm2 0-.125.46875.96875.25.125-.46875-.96875-.25zm-4.25.9375-.125.5.96875.25.125-.46875-.96875-.28125zm2 0-.125.5.96875.25.125-.46875-.96875-.28125zm-.25.96875-.15625.5.96875.25.125-.46875-.9375-.28125z"/>
	</g>
	<g id="weather-showers-scattered-night" transform="translate(187,-109)">
		<rect style="fill:none" height="22" width="22" y="109" x="-159"/>
		<path style="opacity:.875;fill:currentColor" class="ColorScheme-Text" d="m-144 111c-2.2091 0-4 1.7909-4 4s1.7909 4 4 4 4-1.7909 4-4c0-.18882-.006-.38065-.0312-.5625-.21329 1.4477-1.4617 2.5625-2.9688 2.5625-1.6568 0-3-1.3432-3-3 0-1.507 1.1148-2.7554 2.5625-2.9688-.18-.02-.37-.03-.56-.03zm-8.5 6.5c-.9316 0-1.7152.63785-1.9375 1.5-.0259-.002-.0361 0-.0625 0-.55228 0-1 .44772-1 1 0 .0264-.002.0366 0 .0625-.86215.22234-1.5 1.0059-1.5 1.9375 0 1.1046.89543 2 2 2h6.25c.9665 0 1.75-.78351 1.75-1.75 0-.89306-.66709-1.6432-1.5312-1.75.0187-.0861.0312-.15834.0312-.25 0-.69036-.55965-1.25-1.25-1.25-.2957 0-.56722.1096-.78125.28125-.10971-1.0007-.93871-1.7812-1.9687-1.7812zm-1.7812 6.875-.125.46875.96875.28125.125-.5-.96875-.25zm2 0-.125.46875.96875.28125.125-.5-.96875-.25zm2 0-.125.46875.96875.28125.125-.5-.96875-.25zm-4.25.96875-.125.46875.9375.28125.15625-.5-.96875-.25zm2 0-.125.46875.9375.28125.15625-.5-.96875-.25zm2 0-.125.46875.9375.28125.15625-.5-.96875-.25zm-4.2812.96875-.125.46875.96875.25.125-.46875-.96875-.25zm2 0-.125.46875.96875.25.125-.46875-.96875-.25zm2 0-.125.46875.96875.25.125-.46875-.96875-.25zm-4.25.96875-.125.46875.96875.25.125-.46875-.96875-.25zm2 0-.125.46875.96875.25.125-.46875-.96875-.25zm2 0-.125.46875.96875.25.125-.46875-.96875-.25zm-4.25.9375-.125.5.96875.25.125-.46875-.96875-.28125zm2 0-.125.5.96875.25.125-.46875-.96875-.28125zm-.25.96875-.15625.5.96875.25.125-.46875-.9375-.28125z"/>
	</g>
	<g id="weather-snow" transform="translate(187,-109)">
		<rect style="fill:none" height="22" width="22" y="137" x="-215"/>
		<path style="opacity:.875;fill:currentColor" class="ColorScheme-Text" d="m-205 137c-1.8632 0-3.3991 1.2757-3.8438 3-.0518-.004-.10346 0-.15625 0-1.1046 0-2 .89543-2 2 0 .0528-.004.10449 0 .15625-1.7243.44467-3 1.9806-3 3.8438 0 2.2091 1.7909 4 4 4h12.5c1.933 0 3.5-1.567 3.5-3.5 0-1.7861-1.3342-3.2551-3.0625-3.4688.0375-.17211.0625-.34792.0625-.53125 0-1.3807-1.1193-2.5-2.5-2.5-.5914 0-1.1344.21921-1.5625.5625-.22-2-1.88-3.56-3.94-3.56z"/>
		<path style="opacity:.875;fill:currentColor" class="ColorScheme-Text" d="m-208.66 152a.50005 .50005 0 0 0 -.34 .5v1.125l-.96875-.5625a.50389 .50389 0 1 0 -.5 .875l.96875.5625-.96875.5625a.50389 .50389 0 1 0 .5 .875l.97-.56v1.125a.50005 .50005 0 1 0 1 0v-1.125l.96875.5625a.50389 .50389 0 1 0 .5 -.875l-.97-.56.96875-.5625a.50389 .50389 0 1 0 -.5 -.875l-.97.56v-1.125a.50005 .50005 0 0 0 -.59375 -.5 .50005 .50005 0 0 0 -.0625 0z"/>
		<path style="opacity:.875;fill:currentColor" class="ColorScheme-Text" d="m-200.66 154a.50005 .50005 0 0 0 -.34 .5v1.125l-.96875-.5625a.50389 .50389 0 1 0 -.5 .875l.96875.5625-.96875.5625a.50389 .50389 0 1 0 .5 .875l.97-.56v1.125a.50005 .50005 0 1 0 1 0v-1.125l.96875.5625a.50389 .50389 0 1 0 .5 -.875l-.97-.56.96875-.5625a.50389 .50389 0 1 0 -.5 -.875l-.97.56v-1.125a.50005 .50005 0 0 0 -.59375 -.5 .50005 .50005 0 0 0 -.0625 0z"/>
	</g>
	<g id="weather-snow-day" transform="translate(187,-109)">
		<rect style="fill:none" height="22" width="22" y="137" x="-187"/>
		<path style="opacity:.875;fill:currentColor" class="ColorScheme-Text" d="m-169 137-.1875 1.4688c-.001.0961.0914.15625.1875.15625s.18886-.0602.1875-.15625l-.18-1.47z"/>
		<path style="opacity:.875;fill:currentColor" class="ColorScheme-Text" d="m-171 137.53.5625 1.3438c.0468.0839.1668.14184.25.0937.0832-.048.11176-.16749.0625-.25l-.87-1.18z"/>
		<path style="opacity:.875;fill:currentColor" class="ColorScheme-Text" d="m-167 137.53-.875 1.1875c-.0493.0825-.0207.20197.0625.25.0832.048.20315-.0101.25-.0937l.5625-1.3438z"/>
		<path style="opacity:.875;fill:currentColor" class="ColorScheme-Text" d="m-169 138.81c-1.086 0-1.9577.80495-2.125 1.8438 1.1924.31663 2.1347 1.2777 2.3438 2.5 1.1002-.11173 1.9688-1.0266 1.9688-2.1562 0-1.205-.98251-2.1875-2.1875-2.1875z"/>
		<path style="opacity:.875;fill:currentColor" class="ColorScheme-Text" d="m-176.91 139c-1.6769 0-3.0373 1.0722-3.4375 2.5312-.0466-.004-.10868 0-.15625 0-.99413 0-1.8125.75286-1.8125 1.6875 0 .0446-.004.11253 0 .15625-1.5518.37625-2.6875 1.6735-2.6875 3.25 0 1.8693 1.6054 3.375 3.5938 3.375h11.25c1.7397 0 3.1562-1.3331 3.1562-2.9688 0-1.5113-1.1944-2.7567-2.75-2.9375.0335-.14562.0625-.28237.0625-.4375 0-1.1683-1.0074-2.125-2.25-2.125-.53226 0-1.0209.17828-1.4062.46875-.19732-1.6936-1.7086-3-3.5625-3z"/>
		<path style="opacity:.875;fill:currentColor" class="ColorScheme-Text" d="m-172.47 139 1.1875.875c.0825.0493.20197.0207.25-.0625.048-.0832-.0101-.20315-.0937-.25l-1.35-.57z"/>
		<path style="opacity:.875;fill:currentColor" class="ColorScheme-Text" d="m-165.53 139-1.3438.5625c-.0839.0468-.14181.16681-.0937.25.048.0832.16748.11172.25.0625l1.1875-.875z"/>
		<path style="opacity:.875;fill:currentColor" class="ColorScheme-Text" d="m-166.47 140.81c-.096-.001-.15625.0914-.15625.1875s.0601.18887.15625.1875l1.47-.18-1.4688-.1875z"/>
		<path style="opacity:.875;fill:currentColor" class="ColorScheme-Text" d="m-166.84 142.09c-.0463.0121-.10099.0522-.125.0937-.048.0832.0101.20315.0937.25l1.3438.5625-1.1875-.875c-.0412-.0246-.0787-.0434-.125-.0312z"/>
		<path style="opacity:.875;fill:currentColor" class="ColorScheme-Text" d="m-167.81 143.03c-.0832.048-.11176.16749-.0625.25l.875 1.1875-.5625-1.3438c-.0468-.0839-.1668-.14183-.25-.0937z"/>
		<path style="opacity:.875;fill:currentColor" class="ColorScheme-Text" d="m-180.66 152a.50005 .50005 0 0 0 -.34 .5v1.125l-.96875-.5625a.50389 .50389 0 1 0 -.5 .875l.96875.5625-.96875.5625a.50389 .50389 0 1 0 .5 .875l.97-.56v1.125a.50005 .50005 0 1 0 1 0v-1.125l.96875.5625a.50389 .50389 0 1 0 .5 -.875l-.97-.56.96875-.5625a.50389 .50389 0 1 0 -.5 -.875l-.97.56v-1.125a.50005 .50005 0 0 0 -.59375 -.5 .50005 .50005 0 0 0 -.0625 0z"/>
		<path style="opacity:.875;fill:currentColor" class="ColorScheme-Text" d="m-172.66 153.99a.50005 .50005 0 0 0 -.34375 .5v1.125l-.96875-.5625a.50389 .50389 0 1 0 -.5 .875l.96875.5625-.96875.5625a.50389 .50389 0 1 0 .5 .875l.96875-.5625v1.125a.50005 .50005 0 1 0 1 0v-1.125l.96875.5625a.50389 .50389 0 1 0 .5 -.875l-.96875-.5625.96875-.5625a.50389 .50389 0 1 0 -.5 -.875l-.96875.5625v-1.125a.50005 .50005 0 0 0 -.59375 -.5 .50005 .50005 0 0 0 -.0625 0z"/>
	</g>
	<g id="weather-snow-night" transform="translate(187,-109)">
		<rect style="fill:none" height="22" width="22" y="137" x="-159"/>
		<path style="opacity:.875;fill:currentColor" class="ColorScheme-Text" d="m-141 137c-1.9866 0-3.6256 1.4454-3.9375 3.3438.0785.14261.15584.28617.21875.4375.26804-.071.48883-.25.78125-.25.36698 0 .70154.0742 1.0312.1875-.05-.24-.09-.47-.09-.72 0-1.507 1.1148-2.7554 2.5625-2.9688-.18-.02-.37-.03-.56-.03z"/>
		<path style="opacity:.875;fill:currentColor" class="ColorScheme-Text" d="m-148.91 139c-1.6769 0-3.0373 1.0722-3.4375 2.5312-.0466-.004-.10868 0-.15625 0-.99413 0-1.8125.75286-1.8125 1.6875 0 .0446-.004.11253 0 .15625-1.5518.37625-2.6875 1.6735-2.6875 3.25 0 1.8693 1.6054 3.375 3.5938 3.375h11.25c1.7397 0 3.1562-1.3331 3.1562-2.9688 0-1.5113-1.1944-2.7567-2.75-2.9375.0335-.14562.0625-.28237.0625-.4375 0-1.1683-1.0074-2.125-2.25-2.125-.53226 0-1.0209.17828-1.4062.46875-.19732-1.6936-1.7086-3-3.5625-3z"/>
		<path style="opacity:.875;fill:currentColor" class="ColorScheme-Text" d="m-137.03 140.44c-.21 1.45-1.46 2.56-2.97 2.56-.31066 0-.59318-.0686-.875-.15625.0473.16954.10715.35148.125.53125.66155.23263 1.2549.60299 1.7188 1.0938 1.2138-.6868 2.0312-1.9746 2.0312-3.4688 0-.18882-.006-.38065-.0312-.5625z"/>
		<path style="opacity:.875;fill:currentColor" class="ColorScheme-Text" d="m-152.66 152a.50005 .50005 0 0 0 -.34 .5v1.125l-.96875-.5625a.50389 .50389 0 1 0 -.5 .875l.96875.5625-.96875.5625a.50389 .50389 0 1 0 .5 .875l.97-.56v1.125a.50005 .50005 0 1 0 1 0v-1.125l.96875.5625a.50389 .50389 0 1 0 .5 -.875l-.97-.56.96875-.5625a.50389 .50389 0 1 0 -.5 -.875l-.97.56v-1.125a.50005 .50005 0 0 0 -.59375 -.5 .50005 .50005 0 0 0 -.0625 0z"/>
		<path style="opacity:.875;fill:currentColor" class="ColorScheme-Text" d="m-144.66 153.99a.50005 .50005 0 0 0 -.34375 .5v1.125l-.96875-.5625a.50389 .50389 0 1 0 -.5 .875l.96875.5625-.96875.5625a.50389 .50389 0 1 0 .5 .875l.96875-.5625v1.125a.50005 .50005 0 1 0 1 0v-1.125l.96875.5625a.50389 .50389 0 1 0 .5 -.875l-.96875-.5625.96875-.5625a.50389 .50389 0 1 0 -.5 -.875l-.96875.5625v-1.125a.50005 .50005 0 0 0 -.59375 -.5 .50005 .50005 0 0 0 -.0625 0z"/>
	</g>
	<g id="weather-snow-scattered" transform="translate(187,-109)">
		<rect style="fill:none" height="22" width="22" y="165" x="-215"/>
		<path style="opacity:.875;fill:currentColor" class="ColorScheme-Text" d="m-204.5 171.5c-.9316 0-1.7152.63785-1.9375 1.5-.0259-.002-.0361 0-.0625 0-.55228 0-1 .44772-1 1 0 .0264-.002.0366 0 .0625-.86215.22234-1.5 1.0059-1.5 1.9375 0 1.1046.89543 2 2 2h6.25c.9665 0 1.75-.78351 1.75-1.75 0-.89306-.66709-1.6432-1.5312-1.75.0187-.0861.0312-.15834.0312-.25 0-.69036-.55965-1.25-1.25-1.25-.2957 0-.56722.1096-.78125.28125-.10971-1.0007-.93871-1.7812-1.9687-1.7812zm-.15625 8.5c-.20652.0677-.35453.28294-.34375.5v1.125l-.96875-.5625c-.22908-.13092-.55662-.0416-.68752.18749-.13091.22908-.0416.55662.18752.68751l.96875.5625-.96875.5625c-.22909.13089-.31843.45843-.18752.68751.1309.22909.45844.31841.68752.18749l.97-.56v1.125c-.004.26416.23582.50712.5.50712s.50374-.24296.5-.50712v-1.125l.96875.5625c.22908.13092.55662.0416.68752-.18749.13091-.22908.0416-.55662-.18752-.68751l-.97-.56.96875-.5625c.22909-.13089.31843-.45843.18752-.68751-.1309-.22909-.45844-.31841-.68752-.18749l-.97.56v-1.125c.005-.29617-.30279-.55555-.59375-.5-.0208-.001-.0417-.001-.0625 0z"/>
	</g>
	<g id="weather-snow-scattered-day" transform="translate(187,-109)">
		<rect style="fill:none" height="22" width="22" y="165" x="-187"/>
		<path style="opacity:.875;fill:currentColor" class="ColorScheme-Text" d="m-180.66 181c-.20652.0677-.35453.28294-.34375.5v1.125l-.96875-.5625c-.22908-.13092-.55662-.0416-.68752.18749-.13091.22908-.0416.55662.18752.68751l.96875.5625-.96875.5625c-.22909.13089-.31843.45843-.18752.68751.1309.22909.45844.31841.68752.18749l.97-.56v1.125c-.004.26416.23582.50712.5.50712s.50374-.24296.5-.50712v-1.125l.96875.5625c.22908.13092.55662.0416.68752-.18749.13091-.22908.0416-.55662-.18752-.68751l-.97-.56.96875-.5625c.22909-.13089.31843-.45843.18752-.68751-.1309-.22909-.45844-.31841-.68752-.18749l-.97.56v-1.125c.005-.29617-.30279-.55555-.59375-.5-.0208-.001-.0417-.001-.0625 0zm8.66-16l-.28125 2.1875c-.001.14415.13707.28125.28125.28125.14415 0 .28329-.13709.28125-.28125zm-3 .8125.84375 2.0312c.0702.12585.2502.16578.375.0937.1248-.072.16764-.25126.0937-.375l-1.3125-1.75zm6 0-1.3125 1.75c-.0739.12375-.0309.30295.0937.375.1248.072.30472.0321.375-.0937zm-3 1.9062c-1.8075 0-3.2812 1.4738-3.2812 3.2812 0 1.8075 1.4738 3.2812 3.2812 3.2812 1.8075 0 3.2812-1.4738 3.2812-3.2812 0-1.8075-1.4738-3.2812-3.2812-3.2812zm-5.1875.28125 1.75 1.3125c.12375.0739.30295.031.375-.0937.072-.1248.032-.30472-.0937-.375zm10.375 0-2.0312.84375c-.12585.0702-.16576.25021-.0937.375.072.1248.25122.16747.375.0937l1.75-1.3125zm-9 2.7188l-2.18.28 2.1875.28125c.144.002.28125-.13722.28125-.28125 0-.14415-.1371-.28331-.28125-.28125zm7.625 0c-.144-.002-.28125.13722-.28125.28125 0 .14415.1371.28331.28125.28125l2.2-.28zm-7.0625 1.9375c-.0695-.0181-.12562-.006-.1875.0312l-1.75 1.3125 2.0312-.84375c.12585-.0702.16579-.2502.0937-.375-.036-.0624-.11799-.1069-.1875-.125zm6.5 0c-.0695.0181-.15148.0627-.1875.125-.072.1248-.032.30473.0937.375l2.0312.84375-1.75-1.3125c-.0619-.037-.118-.0494-.1875-.0312zm-11.74.84c-.9316 0-1.7152.63785-1.9375 1.5-.0259-.002-.0361 0-.0625 0-.55228 0-1 .44772-1 1 0 .0264-.002.0366 0 .0625-.86215.22234-1.5 1.0059-1.5 1.9375 0 1.1046.89543 2 2 2h6.25c.9665 0 1.75-.78351 1.75-1.75 0-.89306-.66709-1.6432-1.5312-1.75.0187-.0861.0312-.15834.0312-.25 0-.69036-.55965-1.25-1.25-1.25-.2957 0-.56722.1096-.78125.28125-.10971-1.0007-.93871-1.7812-1.9687-1.7812zm6.5312.53125c-.0692.0191-.15236.0621-.1875.125l-.84 2.03 1.3125-1.75c.0739-.12375.0308-.30294-.0937-.375-.0624-.036-.11826-.0503-.1875-.0312zm3.9375 0c-.0693-.0191-.1251-.005-.1875.0312-.1248.072-.16764.25124-.0937.375l1.3125 1.75-.84375-2.0312c-.0351-.0629-.11825-.10593-.1875-.125zm-1.9688.5c-.14415 0-.2833.13709-.28125.28125l.28 2.19.28125-2.1875c.002-.14415-.13708-.28125-.28125-.28125z"/>
	</g>
	<g id="weather-snow-scattered-night" transform="translate(187,-109)">
		<rect style="fill:none" height="22" width="22" y="165" x="-159"/>
		<path style="opacity:.875;fill:currentColor" class="ColorScheme-Text" d="m-152.66 181c-.20652.0677-.35453.28294-.34375.5v1.125l-.96875-.5625c-.22908-.13092-.55662-.0416-.68752.18749-.13091.22908-.0416.55662.18752.68751l.96875.5625-.96875.5625c-.22909.13089-.31843.45843-.18752.68751.1309.22909.45844.31841.68752.18749l.97-.56v1.125c-.004.26416.23582.50712.5.50712s.50374-.24296.5-.50712v-1.125l.96875.5625c.22908.13092.55662.0416.68752-.18749.13091-.22908.0416-.55662-.18752-.68751l-.97-.56.96875-.5625c.22909-.13089.31843-.45843.18752-.68751-.1309-.22909-.45844-.31841-.68752-.18749l-.97.56v-1.125c.005-.29617-.30279-.55555-.59375-.5-.0208-.001-.0417-.001-.0625 0zm8.66-14c-2.2091 0-4 1.7909-4 4s1.7909 4 4 4 4-1.7909 4-4c0-.18882-.006-.38065-.0312-.5625-.21329 1.4477-1.4617 2.5625-2.9688 2.5625-1.6568 0-3-1.3432-3-3 0-1.507 1.1148-2.7554 2.5625-2.9688-.18-.02-.37-.03-.56-.03zm-8.5 6.5c-.9316 0-1.7152.63785-1.9375 1.5-.0259-.002-.0361 0-.0625 0-.55228 0-1 .44772-1 1 0 .0264-.002.0366 0 .0625-.86215.22234-1.5 1.0059-1.5 1.9375 0 1.1046.89543 2 2 2h6.25c.9665 0 1.75-.78351 1.75-1.75 0-.89306-.66709-1.6432-1.5312-1.75.0187-.0861.0312-.15834.0312-.25 0-.69036-.55965-1.25-1.25-1.25-.2957 0-.56722.1096-.78125.28125-.10971-1.0007-.93871-1.7812-1.9687-1.7812z"/>
	</g>
	<g id="weather-storm" transform="translate(187 -81)">
		<rect style="fill:none" height="22" width="22" y="165" x="-215"/>
		<path style="opacity:.875;fill:currentColor" class="ColorScheme-Text" d="m-204.91 167c-1.6769 0-3.0373 1.0722-3.4375 2.5312-.0466-.004-.10868 0-.15625 0-.99413 0-1.8125.75286-1.8125 1.6875 0 .0446-.004.11253 0 .15625-1.5518.37625-2.6875 1.6735-2.6875 3.25 0 1.8693 1.6054 3.375 3.5938 3.375h4.4062l-1 4h2l-1 5 4-7h-2l1-2h3.8438c1.7397 0 3.1562-1.3331 3.1562-2.9688 0-1.5113-1.1944-2.7567-2.75-2.9375.0335-.14562.0625-.28237.0625-.4375 0-1.1683-1.0074-2.125-2.25-2.125-.53226 0-1.0209.17828-1.4062.46875-.19732-1.6936-1.7086-3-3.5625-3z"/>
	</g>
	<g id="weather-storm-day" transform="translate(187 -81)">
		<rect style="fill:none" height="22" width="22" y="165" x="-187"/>
		<path style="opacity:.875;fill:currentColor" class="ColorScheme-Text" d="m-169 165-.1875 1.4688c-.001.0961.0914.15625.1875.15625s.18886-.0602.1875-.15625l-.18-1.47zm-2 .53125.5625 1.3438c.0468.0839.1668.14184.25.0937.0832-.048.11176-.16749.0625-.25l-.87-1.18zm4 0-.875 1.1875c-.0493.0825-.0207.20197.0625.25.0832.048.20315-.0101.25-.0937l.5625-1.3438zm-2 1.2812c-1.086 0-1.9577.80495-2.125 1.8438 1.1924.31663 2.1347 1.2777 2.3438 2.5 1.1002-.11173 1.9688-1.0266 1.9688-2.1562 0-1.205-.98251-2.1875-2.1875-2.1875zm-7.91.19c-1.6769 0-3.0373 1.0722-3.4375 2.5312-.0466-.004-.10868 0-.15625 0-.99413 0-1.8125.75286-1.8125 1.6875 0 .0446-.004.11253 0 .15625-1.5518.37625-2.6875 1.6735-2.6875 3.25 0 1.8693 1.6054 3.375 3.5938 3.375h4.4062l-1 4h2l-1 5 4-7h-2l1-2h3.8438c1.7397 0 3.1562-1.3331 3.1562-2.9688 0-1.5113-1.1944-2.7567-2.75-2.9375.0335-.14562.0625-.28237.0625-.4375 0-1.1683-1.0074-2.125-2.25-2.125-.53226 0-1.0209.17828-1.4062.46875-.19732-1.6936-1.7086-3-3.5625-3zm4.4375 0 1.1875.875c.0825.0493.20197.0207.25-.0625.048-.0832-.0101-.20315-.0937-.25l-1.35-.57zm6.9375 0-1.3438.5625c-.0839.0468-.14181.16681-.0937.25.048.0832.16748.11172.25.0625l1.1875-.875zm-.9375 1.8125c-.096-.001-.15625.0914-.15625.1875s.0601.18887.15625.1875l1.47-.18-1.4688-.1875zm-.375 1.2812c-.0463.0121-.10099.0522-.125.0937-.048.0832.0101.20315.0937.25l1.3438.5625-1.1875-.875c-.0412-.0246-.0787-.0434-.125-.0312zm-.96875.9375c-.0832.048-.11176.16749-.0625.25l.875 1.1875-.5625-1.3438c-.0468-.0839-.1668-.14183-.25-.0937z"/>
	</g>
	<g id="weather-storm-night" transform="translate(187 -81)">
		<rect style="fill:none" height="22" width="22" y="165" x="-159"/>
		<path style="opacity:.875;fill:currentColor" class="ColorScheme-Text" d="m-141 165c-1.9866 0-3.6256 1.4454-3.9375 3.3438.0785.14261.15584.28617.21875.4375.26804-.071.48883-.25.78125-.25.36698 0 .70154.0742 1.0312.1875-.05-.24-.09-.47-.09-.72 0-1.507 1.1148-2.7554 2.5625-2.9688-.18-.02-.37-.03-.56-.03zm-7.9062 2c-1.6769 0-3.0373 1.0722-3.4375 2.5312-.0466-.004-.10868 0-.15625 0-.99413 0-1.8125.75286-1.8125 1.6875 0 .0446-.004.11253 0 .15625-1.5518.37625-2.6875 1.6735-2.6875 3.25 0 1.8693 1.6054 3.375 3.5938 3.375h4.4062l-1 4h2l-1 5 4-7h-2l1-2h3.8438c1.7397 0 3.1562-1.3331 3.1562-2.9688 0-1.5113-1.1944-2.7567-2.75-2.9375.0335-.14562.0625-.28237.0625-.4375 0-1.1683-1.0074-2.125-2.25-2.125-.53226 0-1.0209.17828-1.4062.46875-.19732-1.6936-1.7086-3-3.5625-3zm11.875 1.4375c-.20 1.45-1.45 2.56-2.96 2.56-.31066 0-.59318-.0686-.875-.15625.0473.16954.10715.35148.125.53125.66155.23263 1.2549.60299 1.7188 1.0938 1.2138-.6868 2.0312-1.9746 2.0312-3.4688 0-.18882-.006-.38065-.0312-.5625z"/>
	</g>
	<g id="weather-hail" transform="translate(187 31)">
		<rect style="fill:none" height="22" width="22" y="81" x="-215"/>
		<path style="opacity:.875;fill:currentColor" transform="translate(32,4)" d="m-234 98.5c0 .27614-.22386.5-.5.5s-.5-.22386-.5-.5.22386-.5.5-.5.5.22386.5.5zm-6 0c0 .27614-.22386.5-.5.5s-.5-.22386-.5-.5.22386-.5.5-.5.5.22386.5.5zm6-7c0 .27614-.22386.5-.5.5s-.5-.22386-.5-.5.22386-.5.5-.5.5.22386.5.5zm-3 0c0 .27614-.22386.5-.5.5s-.5-.22386-.5-.5.22386-.5.5-.5.5.22386.5.5zm-1 3c0 .27614-.22386.5-.5.5s-.5-.22386-.5-.5.22386-.5.5-.5.5.22386.5.5zm6 1.5c0 .55228-.44772 1-1 1s-1-.44772-1-1 .44772-1 1-1 1 .44772 1 1zm-4 2c0 .55228-.44772 1-1 1s-1-.44772-1-1 .44772-1 1-1 1 .44772 1 1zm-4-2c0 .55228-.44772 1-1 1s-1-.44772-1-1 .44772-1 1-1 1 .44772 1 1zm9-4c0 .55228-.44772 1-1 1s-1-.44772-1-1 .44772-1 1-1 1 .44772 1 1zm-4 2c0 .55228-.44772 1-1 1s-1-.44772-1-1 .44772-1 1-1 1 .44772 1 1zm-4-2c0 .55228-.44772 1-1 1s-1-.44772-1-1 .44772-1 1-1 1 .44772 1 1zm2.1-13c-1.6769 0-3.0591 1.0794-3.4593 2.5385-.0466-.004-.0931 0-.14067 0-.99413 0-1.8001.75767-1.8001 1.6923 0 .04465-.004.08846 0 .13222-1.55.376-2.7 1.676-2.7 3.252 0 1.87 1.61 3.385 3.6 3.385h11.25c1.7397 0 3.1499-1.3259 3.1499-2.9615 0-1.5113-1.2006-2.7543-2.7562-2.9351.0335-.14562.0558-.29440.0558-.44953 0-1.1683-1.0074-2.1154-2.25-2.1154-.53226 0-1.0209.18549-1.4063.47596-.19-1.693-1.69-3.014-3.54-3.014z" class="ColorScheme-Text"/>
	</g>
	<g id="weather-snow-rain" transform="matrix(-1,0,0,-1,-249,187)">
		<rect style="fill:none" height="22" width="22" y="53" x="-271"/>
		<path style="opacity:.875;fill:currentColor" class="ColorScheme-Text" d="m-264.66 67c-.20652.0677-.35453.28294-.34375.5v1.125l-.96875-.5625c-.22908-.13092-.55662-.0416-.68752.18749-.13091.22908-.0416.55662.18752.68751l.97.563-.96875.5625c-.22909.13089-.31843.45843-.18752.68751.1309.22909.45844.31841.68752.18749l.97-.562v1.125c-.004.26416.23582.50712.5.50712s.50374-.24296.5-.50712v-1.125l.96875.5625c.22908.13092.55662.0416.68752-.18749.13091-.22908.0416-.55662-.18752-.68751l-.97-.563.96875-.5625c.22909-.13089.31843-.45843.18752-.68751-.1309-.22909-.45844-.31841-.68752-.18749l-.97.562v-1.125c.005-.29617-.30279-.55555-.59375-.5-.0208-.001-.0417-.001-.0625 0z"/>
		<path style="opacity:.875;fill:currentColor" d="m-254.66 61c-.20652.0677-.35453.28294-.34375.5v1.125l-.96875-.5625c-.22908-.13092-.55662-.0416-.68752.18749-.13091.22908-.0416.55662.18752.68751l.97.563-.96875.5625c-.22909.13089-.31843.45843-.18752.68751.1309.22909.45844.31841.68752.18749l.97-.562v1.125c-.004.26416.23582.50712.5.50712s.50374-.24296.5-.50712v-1.125l.96875.5625c.22908.13092.55662.0416.68752-.18749.13091-.22908.0416-.55662-.18752-.68751l-.97-.563.96875-.5625c.22909-.13089.31843-.45843.18752-.68751-.1309-.22909-.45844-.31841-.68752-.18749l-.97.562v-1.125c.005-.29617-.30279-.55555-.59375-.5-.0208-.0010-.0417-.0010-.0625 0z" class="ColorScheme-Text"/>
		<circle style="opacity:.875;fill:currentColor" cx="-264" transform="translate(-2)" cy="64" r="1" class="ColorScheme-Text"/>
		<circle style="opacity:.875;fill:currentColor" cx="-260" transform="translate(0,6)" cy="60" r="1" class="ColorScheme-Text"/>
		<circle style="opacity:.875;fill:currentColor" cx="-256" transform="translate(2)" cy="57" r="1" class="ColorScheme-Text"/>
		<circle style="opacity:.875;fill:currentColor" cx="-264" transform="translate(-2)" cy="58" r="1" class="ColorScheme-Text"/>
		<circle style="opacity:.875;fill:currentColor" cy="60" cx="-260" r="1" class="ColorScheme-Text"/>
		<circle style="opacity:.875;fill:currentColor" cx="-260" transform="translate(0,-5)" cy="60" r="1" class="ColorScheme-Text"/>
		<path style="opacity:.875;fill:currentColor" class="ColorScheme-Text" d="m-256.66 69c-.20652.0677-.35453.28294-.34375.5v1.125l-.96875-.5625c-.22908-.13092-.55662-.0416-.68752.18749-.13091.22908-.0416.55662.18752.68751l.97.563-.96875.5625c-.22909.13089-.31843.45843-.18752.68751.1309.22909.45844.31841.68752.18749l.97-.562v1.125c-.004.26416.23582.50712.5.50712s.50374-.24296.5-.50712v-1.125l.96875.5625c.22908.13092.55662.0416.68752-.18749.13091-.22908.0416-.55662-.18752-.68751l-.97-.563.96875-.5625c.22909-.13089.31843-.45843.18752-.68751-.1309-.22909-.45844-.31841-.68752-.18749l-.97.562v-1.125c.005-.29617-.30279-.55555-.59375-.5-.0208-.001-.0417-.001-.0625 0z"/>
	</g>
	<g id="weather-freezing-rain" transform="translate(299 59)">
		<rect style="fill:none" height="22" width="22" y="53" x="-271"/>
		<path style="opacity:.875;fill:currentColor" d="m-264.66 67c-.20652.0677-.35453.28294-.34375.5v1.125l-.96875-.5625c-.22908-.13092-.55662-.0416-.68752.18749-.13091.22908-.0416.55662.18752.68751l.97.563-.96875.5625c-.22909.13089-.31843.45843-.18752.68751.1309.22909.45844.31841.68752.18749l.97-.562v1.125c-.004.26416.23582.50712.5.50712s.50374-.24296.5-.50712v-1.125l.96875.5625c.22908.13092.55662.0416.68752-.18749.13091-.22908.0416-.55662-.18752-.68751l-.97-.563.96875-.5625c.22909-.13089.31843-.45843.18752-.68751-.1309-.22909-.45844-.31841-.68752-.18749l-.97.562v-1.125c.005-.29617-.30279-.55555-.59375-.5-.0208-.001-.0417-.001-.0625 0z" class="ColorScheme-Text"/>
		<path style="opacity:.875;fill:currentColor" class="ColorScheme-Text" d="m-254.66 61c-.20652.0677-.35453.28294-.34375.5v1.125l-.96875-.5625c-.22908-.13092-.55662-.0416-.68752.18749-.13091.22908-.0416.55662.18752.68751l.97.563-.96875.5625c-.22909.13089-.31843.45843-.18752.68751.1309.22909.45844.31841.68752.18749l.97-.562v1.125c-.004.26416.23582.50712.5.50712s.50374-.24296.5-.50712v-1.125l.96875.5625c.22908.13092.55662.0416.68752-.18749.13091-.22908.0416-.55662-.18752-.68751l-.97-.563.96875-.5625c.22909-.13089.31843-.45843.18752-.68751-.1309-.22909-.45844-.31841-.68752-.18749l-.97.562v-1.125c.005-.29617-.30279-.55555-.59375-.5-.0208-.0010-.0417-.0010-.0625 0z"/>
		<circle style="opacity:.875;fill:currentColor" cx="-264" transform="translate(-2)" cy="64" r="1" class="ColorScheme-Text"/>
		<circle style="opacity:.875;fill:currentColor" cx="-260" transform="translate(0,6)" cy="60" r="1" class="ColorScheme-Text"/>
		<circle style="opacity:.875;fill:currentColor" cx="-256" transform="translate(2)" cy="57" r="1" class="ColorScheme-Text"/>
		<circle style="opacity:.875;fill:currentColor" cx="-264" transform="translate(-2)" cy="58" r="1" class="ColorScheme-Text"/>
		<circle style="opacity:.875;fill:currentColor" cy="60" cx="-260" r="1" class="ColorScheme-Text"/>
		<circle style="opacity:.875;fill:currentColor" cx="-260" transform="translate(0,-5)" cy="60" r="1" class="ColorScheme-Text"/>
		<path style="opacity:.875;fill:currentColor" d="m-256.66 69c-.20652.0677-.35453.28294-.34375.5v1.125l-.96875-.5625c-.22908-.13092-.55662-.0416-.68752.18749-.13091.22908-.0416.55662.18752.68751l.97.563-.96875.5625c-.22909.13089-.31843.45843-.18752.68751.1309.22909.45844.31841.68752.18749l.97-.562v1.125c-.004.26416.23582.50712.5.50712s.50374-.24296.5-.50712v-1.125l.96875.5625c.22908.13092.55662.0416.68752-.18749.13091-.22908.0416-.55662-.18752-.68751l-.97-.563.96875-.5625c.22909-.13089.31843-.45843.18752-.68751-.1309-.22909-.45844-.31841-.68752-.18749l-.97.562v-1.125c.005-.29617-.30279-.55555-.59375-.5-.0208-.001-.0417-.001-.0625 0z" class="ColorScheme-Text"/>
	</g>
	<g id="weather-overcast" transform="translate(159,-109)">
		<rect style="fill:none" height="22" width="22" y="25" x="-215"/>
		<path d="m-205 29c-1.8632 0-3.3991 1.2757-3.8438 3-.0518-.004-.10346 0-.15625 0-1.1046 0-2 .89543-2 2 0 .05279-.004.10449 0 .15625-1.7243.44467-3 1.9806-3 3.8438 0 2.2091 1.7909 4 4 4h12.5c1.933 0 3.5-1.567 3.5-3.5 0-1.7861-1.3342-3.2551-3.0625-3.4688.04-.172.06-.348.06-.531 0-1.3807-1.1193-2.5-2.5-2.5-.5914 0-1.1344.21921-1.5625.5625-.22-2.001-1.88-3.562-3.94-3.562z" style="opacity:.875;fill:currentColor" class="ColorScheme-Text"/>
	</g>
</svg>
