<?xml version="1.0" encoding="UTF-8"?>
<svg id="svg" version="1.1" viewBox="0 0 22 22" xmlns="http://www.w3.org/2000/svg" xmlns:cc="http://creativecommons.org/ns#" xmlns:dc="http://purl.org/dc/elements/1.1/" xmlns:rdf="http://www.w3.org/1999/02/22-rdf-syntax-ns#">
	<defs>
		<style id="current-color-scheme" type="text/css">.ColorScheme-Text { color:#0000FF; }</style>
	</defs>
	<metadata>
		<rdf:RDF>
			<cc:Work rdf:about="">
				<dc:format>image/svg+xml</dc:format>
				<dc:type rdf:resource="http://purl.org/dc/dcmitype/StillImage"/>
				<dc:creator>
					<cc:Agent>
						<dc:title>obnosim</dc:title>
					</cc:Agent>
				</dc:creator>
				<cc:license rdf:resource="http://creativecommons.org/licenses/by-sa/4.0/"/>
			</cc:Work>
			<cc:License rdf:about="http://creativecommons.org/licenses/by-sa/4.0/">
				<cc:permits rdf:resource="http://creativecommons.org/ns#Reproduction"/>
				<cc:permits rdf:resource="http://creativecommons.org/ns#Distribution"/>
				<cc:requires rdf:resource="http://creativecommons.org/ns#Notice"/>
				<cc:requires rdf:resource="http://creativecommons.org/ns#Attribution"/>
				<cc:permits rdf:resource="http://creativecommons.org/ns#DerivativeWorks"/>
				<cc:requires rdf:resource="http://creativecommons.org/ns#ShareAlike"/>
			</cc:License>
		</rdf:RDF>
	</metadata>
	<g id="22-22-window-close" class="ColorScheme-Text" style="opacity:.875">
		<rect width="22" height="22" style="fill:none"/>
		<path class="ColorScheme-Text" d="m17 5-12 12m0-12 12 12" style="fill:none;stroke-linecap:round;stroke-linejoin:round;stroke-width:2;stroke:currentColor"/>
	</g>
	<g id="window-close" class="ColorScheme-Text" style="opacity:.875">
		<rect y="-34" width="32" height="32" style="fill:none"/>
		<path class="ColorScheme-Text" d="m26-28-20 20m0-20 20 20" style="fill:none;stroke-linecap:round;stroke-linejoin:round;stroke-width:2;stroke:currentColor"/>
	</g>
	<g id="16-16-window-close" class="ColorScheme-Text" style="opacity:.875">
		<rect y="30" width="16" height="16" style="fill:none"/>
		<path class="ColorScheme-Text" d="m12 34-8 8m0-8 8 8" style="fill:none;stroke-linecap:round;stroke-linejoin:round;stroke-width:2;stroke:currentColor"/>
	</g>
	<g id="16-16-window-pin" class="ColorScheme-Text" style="opacity:.875">
		<rect x="-55" y="54" width="16" height="16" style="fill:none;stroke-width:1.37"/>
		<path class="ColorScheme-Text" d="m-50.2 66.1 3.2-3.1 3.1 3.1m-7.6-4.1 4.5-4.5 4.4 4.5" style="fill:none;stroke-linecap:round;stroke-width:1.9934;stroke:currentColor"/>
	</g>
	<g id="window-pin" class="ColorScheme-Text" style="opacity:.875">
		<rect x="-58" y="74" width="22" height="22" style="fill:none;stroke-width:1.37"/>
		<path class="ColorScheme-Text" d="m-51.2 89.1 4.2-4.1 4.1 4.1m-9.6-4.1 5.5-5.5 5.4 5.5" style="fill:none;stroke-linecap:round;stroke-width:1.9934;stroke:currentColor"/>
	</g>
	<g id="window-unpin" class="ColorScheme-Text" style="opacity:.875">
		<rect x="-36" y="74" width="22" height="22" style="fill:none;stroke-width:1.37"/>
		<path class="ColorScheme-Text" d="m-29.2 89.1 4.2-4.1 4.1 4.1m-9.6-4.1 5.5-5.5 5.4 5.5" style="fill:none;stroke-linecap:round;stroke-width:1.9934;stroke:currentColor"/>
	</g>
	<g id="16-16-window-unpin" class="ColorScheme-Text" style="opacity:.875">
		<rect x="-35" y="54" width="16" height="16" style="fill:none;stroke-width:1.37"/>
		<path class="ColorScheme-Text" d="m-30.2 66.1 3.2-3.1 3.1 3.1m-7.6-4.1 4.5-4.5 4.4 4.5" style="fill:none;stroke-linecap:round;stroke-width:1.9934;stroke:currentColor"/>
	</g>
</svg>
