<?xml version="1.0" encoding="UTF-8" standalone="no"?>
<svg id="svg7229" xmlns:rdf="http://www.w3.org/1999/02/22-rdf-syntax-ns#" xmlns="http://www.w3.org/2000/svg" height="42" width="48" version="1.0" xmlns:cc="http://creativecommons.org/ns#" xmlns:dc="http://purl.org/dc/elements/1.1/">
	<defs id="defs7231">
		<style id="current-color-scheme" type="text/css">
			.ColorScheme-Text { color:#0000FF; }
		</style>
	</defs>
	<metadata id="metadata7">
		<rdf:RDF>
			<cc:Work rdf:about="">
				<dc:format>image/svg+xml</dc:format>
				<dc:type rdf:resource="http://purl.org/dc/dcmitype/StillImage"/>
				<dc:title/>
				<dc:creator>
					<cc:Agent>
						<dc:title>obnosim</dc:title>
					</cc:Agent>
				</dc:creator>
				<cc:license rdf:resource="http://creativecommons.org/licenses/by-sa/3.0/"/>
			</cc:Work>
			<cc:License rdf:about="http://creativecommons.org/licenses/by-sa/3.0/">
				<cc:permits rdf:resource="http://creativecommons.org/ns#Reproduction"/>
				<cc:permits rdf:resource="http://creativecommons.org/ns#Distribution"/>
				<cc:requires rdf:resource="http://creativecommons.org/ns#Notice"/>
				<cc:requires rdf:resource="http://creativecommons.org/ns#Attribution"/>
				<cc:permits rdf:resource="http://creativecommons.org/ns#DerivativeWorks"/>
				<cc:requires rdf:resource="http://creativecommons.org/ns#ShareAlike"/>
			</cc:License>
		</rdf:RDF>
	</metadata>
	<g id="zoom-fit-width" class="ColorScheme-Text" transform="translate(-77,-25)">
		<rect id="rect7" style="fill:none" height="22" width="22" y="45" x="77"/>
		<path id="path11" style="fill:currentColor;opacity:.875" d="m15 25.494a.50005 .50005 0 0 0 -.348 .860l3.647 3.646h-14.592l3.6465-3.646a.50005 .50005 0 0 0 -.3633 -.858 .50005 .50005 0 0 0 -.3437 .150l-5 5a.50005 .50005 0 0 0 0 .708l5 5a.50005 .50005 0 1 0 .7070 -.708l-3.6465-3.646h14.592l-3.647 3.646a.50005 .50005 0 1 0 .707 .708l5-5a.50005 .50005 0 0 0 0 -.708l-5-5a.50005 .50005 0 0 0 -.359 -.152zm-14.508 1.498a.50005 .50005 0 0 0 -.49219 .508v7a.50005 .50005 0 1 0 1 0v-7a.50005 .50005 0 0 0 -.50781 -.508zm21.006 0a.50005 .50005 0 0 0 -.492 .508v7a.50005 .50005 0 1 0 1 0v-7a.50005 .50005 0 0 0 -.508 -.508z" transform="translate(77,25)"/>
	</g>
	<g id="zoom-fit-height" class="ColorScheme-Text" transform="matrix(0,1,-1,0,93,-57)">
		<rect id="rect16" style="fill:none" height="22" width="22" y="45" x="77"/>
		<path id="path20" style="fill:currentColor;opacity:.875" d="m33.5 20a.50005 .50005 0 1 0 0 1h7a.50005 .50005 0 0 0 .508 -.508 .50005 .50005 0 0 0 -.508 -.492h-7zm3.492 1.5a.50005 .50005 0 0 0 -.346 .146l-5 5a.50005 .50005 0 1 0 .708 .708l3.646-3.647v14.592l-3.646-3.647a.50005 .50005 0 1 0 -.708 .707l5 5a.50005 .50005 0 0 0 .708 0l5-5a.50005 .50005 0 0 0 .152 -.359 .50005 .50005 0 0 0 -.860 -.348l-3.646 3.647v-14.592l3.646 3.647a.50005 .50005 0 0 0 .858 -.364 .50005 .50005 0 0 0 -.150 -.344l-5-5a.50005 .50005 0 0 0 -.362 -.146zm-3.492 19.506a.50005 .50005 0 1 0 0 1h7a.50005 .50005 0 0 0 .508 -.508 .50005 .50005 0 0 0 -.508 -.492h-7z" transform="matrix(0,-1,1,0,57,93)"/>
	</g>
	<g id="16-16-zoom-fit-height" class="ColorScheme-Text" transform="matrix(0,1,-1,0,62,-104)">
		<rect id="rect25" style="fill:none" height="16" width="16" y="20" x="104"/>
		<path id="path29" style="opacity:.875;fill:currentColor" d="m31.5 0a.50005 .50005 0 1 0 0 1h5a.50005 .50005 0 0 0 .508 -.50781 .50005 .50005 0 0 0 -.508 -.49219h-5zm2.492 1.5a.50005 .50005 0 0 0 -.346 .1465l-3.5 3.5a.50005 .50005 0 1 0 .708 .7070l2.146-2.1465v8.586l-2.146-2.147a.50005 .50005 0 1 0 -.708 .708l3.5 3.5a.50005 .50005 0 0 0 .708 0l3.5-3.5a.50005 .50005 0 0 0 .152 -.360 .50005 .50005 0 0 0 -.860 -.348l-2.146 2.147v-8.586l2.146 2.1465a.50005 .50005 0 0 0 .858 -.3633 .50005 .50005 0 0 0 -.150 -.3437l-3.5-3.5a.50005 .50005 0 0 0 -.362 -.1465zm-2.492 13.5a.50005 .50005 0 1 0 0 1h5a.50005 .50005 0 0 0 .508 -.508 .50005 .50005 0 0 0 -.508 -.492h-5z" transform="matrix(0,-1,1,0,104,62)"/>
	</g>
	<g id="16-16-zoom-fit-width" class="ColorScheme-Text" transform="translate(-98,-20)">
		<rect id="rect34" style="fill:none" height="16" width="16" y="20" x="104"/>
		<path id="path38" style="opacity:.875;fill:currentColor" d="m16.494 3.9941a.50005 .50005 0 0 0 -.348 .8594l2.147 2.1465h-8.586l2.147-2.1465a.50005 .50005 0 0 0 -.364 -.8574 .50005 .50005 0 0 0 -.344 .1504l-3.4995 3.5a.50005 .50005 0 0 0 0 .7070l3.4995 3.5005a.50005 .50005 0 1 0 .708 -.708l-2.147-2.146h8.586l-2.147 2.146a.50005 .50005 0 1 0 .708 .708l3.5-3.5005a.50005 .50005 0 0 0 0 -.7070l-3.5-3.5a.50005 .50005 0 0 0 -.360 -.1524zm-10.002.9981a.50005 .50005 0 0 0 -.4922 .5078v5a.50005 .50005 0 1 0 1 0v-5a.50005 .50005 0 0 0 -.5078 -.5078zm15 0a.50005 .50005 0 0 0 -.492 .5078v5a.50005 .50005 0 1 0 1 0v-5a.50005 .50005 0 0 0 -.508 -.5078z" transform="translate(98,20)"/>
	</g>
</svg>
